<svg xmlns="http://www.w3.org/2000/svg" viewBox="0 0 768 768" width="768" height="768" role="img" aria-label="Approximate country map for Buenos Aires, Argentina">
<rect width="768" height="768" fill="#a9cfe0"/>
<path d="M 490.9 360.4 L 489.9 361.4 L 488.7 363.3 L 487.4 367.9 L 483.0 374.3 L 482.1 377.9 L 477.3 381.6 L 473.9 385.8 L 471.7 385.7 L 469.7 387.5 L 458.2 393.0 L 454.1 392.0 L 451.1 392.0 L 448.2 389.6 L 441.8 388.7 L 437.7 389.7 L 432.3 392.3 L 430.7 392.3 L 429.5 392.2 L 426.5 391.1 L 424.9 388.7 L 416.6 386.0 L 409.8 379.8 L 401.9 379.7 L 395.8 380.5 L 394.8 379.7 L 394.2 378.1 L 393.0 375.9 L 387.7 370.4 L 383.6 365.0 L 382.8 359.7 L 383.4 354.0 L 384.6 347.1 L 384.4 345.0 L 385.9 343.8 L 387.4 343.6 L 388.9 341.8 L 390.2 339.1 L 390.4 337.1 L 389.4 333.4 L 388.7 328.1 L 387.8 325.5 L 389.5 321.4 L 389.6 319.4 L 388.6 317.7 L 388.4 315.8 L 388.8 314.0 L 388.7 312.2 L 388.1 310.5 L 388.6 309.1 L 390.1 308.0 L 391.2 306.3 L 392.0 303.9 L 392.4 302.2 L 392.4 301.0 L 391.9 299.8 L 391.0 298.7 L 391.4 296.6 L 393.2 293.4 L 394.4 290.5 L 394.9 288.0 L 394.9 286.0 L 394.3 284.5 L 394.6 283.4 L 395.7 282.9 L 396.2 281.3 L 396.0 277.3 L 394.9 273.9 L 395.7 271.3 L 398.3 268.3 L 399.6 265.8 L 399.7 264.0 L 400.5 262.9 L 401.7 264.9 L 405.3 265.4 L 408.9 265.5 L 409.5 265.0 L 410.9 261.7 L 412.8 260.7 L 414.8 260.5 L 417.0 260.7 L 419.4 262.9 L 426.1 270.0 L 431.0 275.0 L 432.5 277.3 L 433.9 279.1 L 434.8 280.7 L 434.4 284.9 L 434.5 286.8 L 434.7 287.3 L 435.8 287.4 L 437.5 287.1 L 438.9 286.2 L 440.0 284.8 L 441.1 283.7 L 441.9 283.1 L 442.3 282.2 L 442.8 281.3 L 443.3 281.1 L 444.3 281.8 L 446.6 284.2 L 448.3 286.4 L 448.8 287.7 L 449.5 289.0 L 450.2 290.2 L 450.7 291.3 L 452.4 292.8 L 454.2 293.8 L 455.4 292.8 L 458.4 295.9 L 464.9 298.5 L 466.1 300.0 L 467.3 302.2 L 469.6 305.6 L 472.8 308.6 L 475.3 309.9 L 477.8 310.6 L 479.2 311.3 L 480.1 312.4 L 481.6 313.7 L 482.6 314.1 L 482.9 315.3 L 483.9 317.7 L 484.9 320.8 L 486.0 323.6 L 488.4 326.4 L 491.1 328.5 L 493.9 329.7 L 495.5 331.2 L 496.1 332.8 L 494.2 335.1 L 492.2 338.0 L 490.4 340.3 L 488.5 341.9 L 487.9 343.0 L 487.5 344.7 L 487.5 353.7 L 487.3 357.1 L 487.5 358.0 L 487.7 358.6 L 488.9 359.5 L 490.3 360.2 L 490.9 360.4 Z" fill="#cfe3bf" stroke="#ffffff" stroke-width="2.2" stroke-linejoin="round"/>
<path d="M 388.7 -12.0 L 389.2 -10.0 L 389.5 -8.5 L 390.2 -7.4 L 390.9 -6.0 L 391.6 -5.2 L 392.1 -3.8 L 392.0 -2.2 L 392.2 -0.3 L 392.6 1.5 L 392.9 1.9 L 394.0 2.4 L 394.5 3.9 L 394.1 4.7 L 394.2 5.6 L 394.6 6.5 L 394.3 7.4 L 394.4 8.0 L 395.1 8.6 L 395.8 10.8 L 395.8 14.5 L 395.1 16.5 L 394.6 18.2 L 394.4 19.2 L 394.8 20.6 L 394.1 22.3 L 393.3 24.4 L 393.5 25.9 L 393.6 27.2 L 393.7 28.7 L 393.9 30.0 L 393.6 31.5 L 393.4 32.8 L 393.2 34.2 L 393.6 35.9 L 392.9 37.4 L 392.6 38.5 L 392.4 39.6 L 393.1 41.3 L 394.7 42.0 L 396.0 42.2 L 397.2 41.3 L 398.1 41.0 L 399.8 41.8 L 401.3 43.3 L 403.3 43.5 L 405.1 43.7 L 406.4 44.2 L 408.4 43.7 L 410.4 44.2 L 412.8 45.0 L 414.8 45.7 L 416.8 45.6 L 418.3 45.5 L 419.8 44.6 L 421.3 44.7 L 422.4 43.3 L 423.1 42.0 L 423.6 41.1 L 425.3 40.4 L 426.4 40.8 L 427.3 43.2 L 428.9 44.6 L 429.6 45.6 L 430.8 46.0 L 433.4 46.1 L 435.0 46.0 L 436.8 46.7 L 438.0 46.7 L 439.1 48.0 L 440.1 49.5 L 440.2 52.4 L 441.1 54.5 L 442.3 55.4 L 443.0 56.7 L 442.8 58.6 L 442.2 60.5 L 442.3 62.6 L 442.9 64.5 L 442.9 66.4 L 443.3 68.3 L 444.2 70.0 L 444.4 72.6 L 444.3 74.5 L 444.9 75.6 L 445.1 77.1 L 444.7 78.4 L 444.6 80.1 L 444.7 81.7 L 445.1 82.9 L 446.4 84.6 L 446.7 87.5 L 446.7 89.5 L 447.3 91.8 L 448.3 92.9 L 450.0 93.3 L 452.0 93.6 L 454.4 93.1 L 456.5 92.5 L 457.7 91.8 L 460.0 90.1 L 462.1 89.1 L 463.1 88.5 L 464.1 88.0 L 466.2 89.1 L 468.1 90.5 L 469.6 92.4 L 472.3 94.5 L 471.8 95.0 L 470.7 96.7 L 470.7 98.7 L 471.5 101.6 L 470.8 107.6 L 468.7 116.9 L 467.8 122.4 L 468.2 123.9 L 467.4 126.6 L 464.4 132.5 L 464.3 136.4 L 464.0 148.2 L 463.0 156.5 L 461.4 162.6 L 459.9 165.9 L 458.5 166.3 L 457.5 167.3 L 456.9 168.8 L 455.9 170.1 L 454.2 171.2 L 453.4 172.3 L 453.2 173.6 L 451.7 174.3 L 448.8 174.7 L 447.0 175.7 L 446.5 177.3 L 445.5 178.6 L 444.1 179.6 L 443.4 181.1 L 443.5 183.3 L 442.6 185.2 L 440.9 186.8 L 439.3 186.9 L 437.8 185.4 L 435.8 184.4 L 433.4 183.9 L 431.3 184.3 L 429.7 185.5 L 428.2 187.5 L 426.9 190.2 L 425.5 190.6 L 423.9 188.8 L 421.9 188.3 L 419.5 189.0 L 417.6 188.7 L 416.2 187.5 L 414.0 187.4 L 411.1 188.3 L 405.1 187.2 L 396.1 184.1 L 388.6 182.9 L 379.2 184.1 L 378.5 180.8 L 378.9 179.1 L 380.5 177.7 L 381.4 176.3 L 381.8 174.6 L 382.8 173.3 L 384.5 172.4 L 385.3 171.5 L 385.0 170.6 L 385.4 169.8 L 386.3 169.2 L 386.9 168.1 L 387.0 166.6 L 387.4 165.8 L 388.1 165.3 L 388.1 164.3 L 387.8 161.1 L 387.8 158.5 L 388.3 156.4 L 388.8 155.2 L 389.2 154.9 L 389.6 154.2 L 389.8 153.0 L 390.4 151.8 L 393.4 149.5 L 394.5 148.2 L 394.6 147.0 L 395.0 145.5 L 396.8 142.1 L 397.3 140.5 L 397.4 139.7 L 398.0 138.9 L 400.1 137.0 L 401.3 135.2 L 401.5 133.6 L 400.9 131.7 L 399.7 129.6 L 395.9 124.3 L 393.0 121.9 L 389.2 120.0 L 386.7 119.3 L 385.6 120.0 L 384.3 119.5 L 383.1 117.7 L 381.1 116.3 L 376.7 114.7 L 366.8 108.6 L 362.9 105.6 L 361.5 103.8 L 357.8 100.5 L 351.8 95.7 L 347.1 93.4 L 343.9 93.5 L 338.7 92.2 L 331.6 89.3 L 327.4 86.5 L 326.3 83.7 L 323.7 81.0 L 319.5 78.3 L 317.4 76.5 L 317.2 75.6 L 316.0 74.5 L 313.6 73.1 L 311.1 70.7 L 308.3 67.4 L 305.4 62.1 L 302.2 55.1 L 298.9 50.3 L 295.3 47.9 L 293.5 46.3 L 293.5 45.5 L 292.9 44.7 L 293.4 43.3 L 294.7 38.0 L 296.6 30.2 L 298.6 22.2 L 300.9 12.7 L 300.9 6.0 L 300.9 -1.1 L 304.2 -7.0 L 306.6 -11.1 L 308.6 -15.0 L 310.6 -21.8 L 312.0 -26.3 L 317.2 -27.4 L 326.1 -29.7 L 330.5 -30.9 L 339.8 -33.3 L 349.3 -35.8 L 359.3 -36.0 L 368.9 -36.1 L 376.3 -30.5 L 382.0 -26.3 L 388.3 -21.6 L 388.7 -20.5 L 389.2 -16.6 L 388.7 -12.0 Z" fill="#cfe3bf" stroke="#ffffff" stroke-width="2.2" stroke-linejoin="round"/>
<path d="M 127.2 -61.9 L 128.1 -62.3 L 130.1 -62.5 L 132.2 -62.5 L 134.9 -63.6 L 137.7 -65.8 L 139.6 -68.9 L 140.4 -71.7 L 140.4 -74.2 L 139.5 -77.3 L 139.3 -79.5 L 140.3 -80.6 L 142.9 -81.0 L 145.0 -83.1 L 146.6 -85.0 L 146.9 -81.9 L 149.8 -77.7 L 150.8 -73.0 L 151.5 -72.4 L 155.5 -70.0 L 155.5 -69.5 L 155.0 -68.6 L 154.4 -67.5 L 154.8 -65.9 L 155.5 -63.7 L 155.7 -61.6 L 156.2 -59.5 L 156.6 -56.3 L 156.9 -53.4 L 157.9 -49.1 L 158.1 -46.5 L 158.2 -44.9 L 158.9 -43.3 L 160.5 -41.4 L 162.6 -39.5 L 164.3 -37.3 L 165.6 -35.8 L 167.1 -34.6 L 168.3 -33.5 L 168.8 -32.7 L 168.9 -32.1 L 168.4 -31.5 L 166.5 -28.6 L 163.9 -24.2 L 164.0 -23.7 L 166.5 -20.5 L 166.9 -19.2 L 166.8 -17.5 L 166.0 -15.3 L 163.3 -14.6 L 162.7 -14.1 L 162.6 -13.4 L 163.2 -12.5 L 163.1 -10.4 L 164.1 -8.1 L 163.6 -7.3 L 162.6 -6.2 L 162.6 -5.1 L 162.9 -4.0 L 164.0 -3.0 L 168.1 0.2 L 168.5 0.7 L 168.4 1.0 L 166.8 3.2 L 166.6 4.5 L 166.7 6.8 L 166.9 8.2 L 167.4 8.8 L 169.5 9.5 L 172.1 14.4 L 174.6 19.1 L 174.6 23.1 L 174.8 27.8 L 176.4 31.5 L 176.6 34.5 L 177.2 37.8 L 179.1 39.9 L 179.8 43.9 L 180.0 46.0 L 179.9 47.5 L 181.3 51.8 L 181.5 55.6 L 181.2 58.3 L 181.2 59.8 L 181.4 60.9 L 182.6 61.8 L 183.2 62.4 L 185.1 62.7 L 187.8 62.8 L 192.4 61.8 L 196.0 60.8 L 200.0 65.8 L 198.2 72.5 L 195.5 83.1 L 193.3 91.4 L 193.0 92.5 L 192.5 94.1 L 187.9 96.4 L 181.2 99.8 L 177.8 101.6 L 173.5 103.9 L 172.4 105.8 L 171.2 106.8 L 169.8 108.1 L 169.3 109.5 L 168.0 110.4 L 166.8 113.7 L 166.8 116.1 L 167.6 117.8 L 168.9 118.5 L 169.3 120.6 L 169.7 122.0 L 170.6 123.1 L 170.4 124.0 L 169.6 124.7 L 168.2 125.1 L 167.3 127.1 L 166.2 132.1 L 166.0 133.9 L 167.2 138.5 L 167.9 140.9 L 169.7 149.8 L 170.0 152.2 L 167.5 155.6 L 166.5 157.7 L 166.2 159.5 L 166.2 160.9 L 166.4 162.2 L 168.5 166.4 L 170.8 170.1 L 172.0 172.1 L 172.0 174.7 L 171.4 176.2 L 170.2 176.8 L 167.3 177.8 L 166.2 179.3 L 164.9 179.5 L 163.7 178.3 L 162.4 178.6 L 160.8 179.7 L 160.1 182.2 L 158.7 186.6 L 157.5 187.8 L 156.6 191.1 L 154.9 195.8 L 154.2 198.7 L 153.8 200.8 L 152.1 202.1 L 150.2 204.8 L 148.7 207.4 L 148.2 208.2 L 147.0 208.4 L 146.2 210.7 L 143.5 214.2 L 142.8 218.3 L 141.8 220.5 L 141.6 224.4 L 140.1 231.5 L 139.8 233.1 L 138.3 234.4 L 136.2 237.2 L 135.6 239.2 L 136.5 245.3 L 137.7 251.4 L 137.8 254.3 L 137.3 258.2 L 137.0 259.9 L 137.8 260.6 L 139.1 261.0 L 139.5 262.5 L 138.5 263.6 L 138.1 265.5 L 137.1 267.6 L 134.0 268.4 L 132.9 267.6 L 132.5 268.3 L 132.7 269.8 L 132.0 271.6 L 130.4 276.3 L 129.3 280.6 L 128.7 282.5 L 129.0 284.1 L 129.5 285.0 L 129.5 285.8 L 128.7 286.8 L 127.9 288.5 L 127.0 288.7 L 126.0 288.2 L 125.1 289.2 L 124.9 291.3 L 124.3 293.9 L 124.1 296.9 L 123.7 300.8 L 124.9 303.4 L 126.5 308.2 L 127.7 309.4 L 129.1 309.3 L 130.1 310.3 L 130.7 311.4 L 129.9 313.4 L 128.6 313.7 L 128.4 314.9 L 128.8 317.4 L 129.3 319.9 L 130.6 321.1 L 131.2 324.4 L 132.5 325.5 L 132.4 329.8 L 133.7 334.7 L 135.0 336.2 L 135.7 336.8 L 135.2 339.0 L 134.2 340.7 L 133.9 343.5 L 134.3 345.5 L 135.7 347.5 L 136.8 347.7 L 138.4 346.9 L 140.0 347.8 L 140.2 349.4 L 140.5 350.9 L 139.6 352.9 L 138.6 356.5 L 138.4 360.1 L 138.7 365.5 L 139.1 369.7 L 139.2 372.4 L 139.3 373.6 L 138.7 374.4 L 137.3 374.8 L 136.1 375.0 L 135.0 375.7 L 134.8 377.0 L 134.0 379.3 L 133.1 381.0 L 131.6 383.4 L 130.7 385.9 L 130.0 387.5 L 130.0 388.7 L 129.5 390.9 L 128.9 392.7 L 127.8 398.9 L 126.2 400.2 L 124.9 400.8 L 124.3 401.6 L 124.8 403.3 L 126.1 403.8 L 126.6 405.2 L 126.4 407.3 L 127.3 409.2 L 127.2 411.6 L 128.0 416.0 L 127.3 419.0 L 127.5 421.5 L 127.5 424.0 L 126.4 425.9 L 124.1 426.3 L 122.9 428.1 L 120.7 430.1 L 120.5 431.6 L 120.2 433.1 L 119.3 433.6 L 117.9 433.6 L 116.8 433.8 L 115.3 435.7 L 113.6 436.7 L 113.2 438.2 L 113.4 440.0 L 112.5 441.1 L 111.4 443.2 L 110.7 445.4 L 111.4 447.5 L 112.2 451.3 L 112.3 452.9 L 111.3 456.0 L 110.5 458.0 L 111.3 460.5 L 111.9 461.9 L 111.3 465.1 L 110.8 467.0 L 111.2 470.6 L 112.8 474.7 L 114.2 478.3 L 114.4 482.5 L 114.8 485.8 L 115.5 489.4 L 116.9 490.8 L 118.1 492.0 L 117.8 493.7 L 117.0 495.8 L 115.8 497.4 L 112.9 497.9 L 110.6 499.4 L 108.7 500.3 L 107.3 501.5 L 106.2 502.8 L 105.7 504.2 L 106.1 510.2 L 105.8 512.5 L 104.9 515.6 L 104.0 518.2 L 103.6 518.9 L 103.5 520.1 L 103.3 521.1 L 102.3 521.3 L 100.8 520.9 L 100.0 521.2 L 99.4 522.0 L 99.9 524.0 L 100.5 527.4 L 101.2 528.9 L 101.0 530.1 L 100.7 532.6 L 99.8 534.6 L 98.5 534.6 L 97.7 535.4 L 97.4 536.9 L 97.7 538.7 L 99.4 540.2 L 100.0 541.2 L 99.7 542.5 L 98.4 543.0 L 97.6 544.1 L 96.9 546.4 L 96.0 549.0 L 94.9 551.0 L 94.7 553.7 L 96.2 556.5 L 96.0 559.3 L 95.9 567.5 L 95.8 570.2 L 96.2 574.8 L 95.7 576.1 L 95.4 577.3 L 96.8 580.6 L 98.4 586.0 L 98.8 588.2 L 98.6 589.7 L 96.4 590.9 L 94.7 591.5 L 93.6 590.6 L 92.9 590.9 L 92.1 592.5 L 91.2 593.8 L 90.8 595.1 L 91.8 596.7 L 92.3 599.9 L 91.2 601.2 L 90.4 602.7 L 90.7 604.7 L 91.1 608.2 L 90.4 614.0 L 91.3 616.1 L 92.3 617.1 L 95.6 618.3 L 98.1 618.9 L 98.8 620.8 L 98.5 622.4 L 97.3 623.2 L 95.5 623.8 L 95.5 626.4 L 97.0 628.8 L 98.8 630.5 L 99.2 632.0 L 99.1 633.6 L 97.9 635.0 L 99.5 637.8 L 100.3 639.8 L 99.5 641.3 L 98.4 643.6 L 97.5 644.6 L 97.5 645.9 L 97.1 648.3 L 97.0 650.8 L 97.3 652.2 L 107.9 653.4 L 110.3 653.8 L 111.6 655.3 L 111.4 657.1 L 110.1 659.0 L 109.2 662.7 L 107.2 663.3 L 105.1 662.3 L 102.9 662.6 L 100.9 662.9 L 98.1 663.0 L 94.4 663.4 L 92.1 662.9 L 91.9 664.2 L 92.6 666.5 L 97.5 667.3 L 102.1 668.6 L 103.5 671.0 L 105.3 673.8 L 107.3 675.5 L 107.4 678.3 L 104.3 681.2 L 104.0 683.2 L 100.0 683.8 L 98.9 685.0 L 98.3 689.0 L 98.8 692.2 L 100.3 693.3 L 101.3 695.3 L 100.2 697.7 L 97.5 699.4 L 96.1 701.0 L 97.0 702.3 L 98.2 704.3 L 98.5 705.4 L 99.2 708.3 L 100.0 712.4 L 99.9 714.5 L 99.2 715.9 L 96.5 718.3 L 94.7 719.4 L 94.4 722.3 L 94.3 724.5 L 94.5 726.4 L 95.6 728.0 L 95.5 729.5 L 93.9 729.9 L 92.6 730.6 L 91.3 733.4 L 87.4 736.3 L 86.1 737.5 L 86.2 739.7 L 84.7 742.8 L 83.4 745.5 L 82.4 748.1 L 82.6 750.7 L 84.8 751.9 L 86.5 754.5 L 87.2 757.7 L 85.9 761.5 L 82.8 762.9 L 81.0 764.5 L 80.5 765.7 L 81.0 769.6 L 80.9 771.5 L 80.4 773.2 L 79.6 774.5 L 77.9 776.0 L 75.0 777.3 L 72.5 778.2 L 71.4 779.3 L 70.1 781.5 L 69.0 784.0 L 69.3 787.1 L 62.3 787.5 L 61.8 789.8 L 60.3 791.6 L 59.8 794.9 L 61.4 798.0 L 62.1 800.7 L 60.9 803.9 L 61.3 807.1 L 61.4 809.7 L 63.9 812.6 L 65.5 816.2 L 66.3 819.3 L 66.8 821.6 L 67.4 823.1 L 68.4 824.7 L 68.9 826.5 L 70.4 827.2 L 73.1 825.4 L 75.0 824.2 L 76.3 823.8 L 80.2 824.1 L 82.6 823.0 L 83.7 823.1 L 85.1 823.7 L 86.2 825.0 L 87.1 828.0 L 87.6 831.3 L 86.9 834.6 L 85.8 835.4 L 85.4 836.3 L 85.8 838.4 L 87.0 839.9 L 87.0 841.9 L 85.7 846.6 L 84.8 848.6 L 86.3 850.7 L 87.7 852.7 L 90.6 854.1 L 92.9 856.2 L 94.5 857.9 L 94.1 860.2 L 95.2 860.9 L 99.5 860.9 L 106.0 861.0 L 116.0 861.1 L 125.8 861.2 L 137.0 861.4 L 142.3 863.2 L 147.1 864.9 L 153.1 864.9 L 159.1 866.9 L 163.6 868.2 L 166.2 868.7 L 169.0 869.1 L 169.3 870.9 L 157.3 868.4 L 154.6 867.0 L 152.3 866.8 L 147.9 868.5 L 145.5 872.7 L 144.2 873.9 L 141.2 875.0 L 138.1 875.2 L 127.8 879.3 L 124.1 879.6 L 121.6 880.7 L 119.2 882.2 L 118.2 885.6 L 118.6 887.6 L 115.8 894.8 L 115.1 898.8 L 115.1 900.9 L 115.9 904.2 L 114.9 910.0 L 113.0 911.2 L 108.5 912.8 L 105.3 911.6 L 100.0 910.6 L 96.2 908.4 L 91.3 906.8 L 89.8 905.9 L 85.4 901.5 L 85.0 900.0 L 84.7 898.2 L 86.9 895.5 L 88.2 895.4 L 91.7 895.4 L 94.7 895.0 L 96.6 896.4 L 97.1 899.5 L 96.3 901.2 L 95.5 902.2 L 95.8 902.9 L 97.9 901.9 L 99.0 895.0 L 106.3 891.5 L 108.6 889.5 L 111.0 886.4 L 111.3 885.5 L 111.5 884.3 L 110.0 883.4 L 106.5 882.1 L 95.7 888.6 L 90.7 890.3 L 87.5 892.2 L 83.7 895.6 L 83.0 896.6 L 82.2 898.8 L 81.8 901.2 L 78.0 900.1 L 72.2 896.6 L 71.0 895.3 L 72.2 893.4 L 73.9 891.9 L 74.1 886.8 L 74.5 885.1 L 75.7 883.6 L 78.0 882.1 L 79.1 881.7 L 80.0 882.4 L 80.1 883.6 L 83.8 883.5 L 91.0 879.0 L 93.9 878.9 L 97.8 879.9 L 102.2 879.3 L 103.0 878.8 L 103.9 877.8 L 100.6 876.5 L 97.5 875.9 L 88.7 875.4 L 86.7 875.9 L 84.1 878.3 L 83.3 877.7 L 82.7 876.5 L 79.7 875.7 L 78.3 875.8 L 76.9 877.0 L 77.1 878.8 L 76.4 880.7 L 73.6 882.6 L 71.7 885.6 L 71.8 888.0 L 71.7 889.2 L 71.0 889.8 L 69.5 890.6 L 64.9 890.1 L 62.3 887.6 L 61.3 885.9 L 58.4 884.1 L 64.8 881.8 L 67.0 880.6 L 69.1 877.7 L 70.6 875.8 L 69.5 874.5 L 68.2 874.5 L 68.3 876.6 L 66.9 878.3 L 64.0 877.5 L 59.6 880.0 L 57.0 879.3 L 52.6 880.0 L 50.5 878.7 L 50.0 877.0 L 50.8 875.2 L 50.0 872.2 L 48.8 871.5 L 47.6 871.6 L 47.0 869.9 L 45.7 866.7 L 45.1 865.9 L 44.5 864.4 L 45.2 864.0 L 46.6 864.5 L 48.0 865.4 L 49.9 865.5 L 54.3 867.6 L 56.2 867.1 L 57.1 866.6 L 57.5 864.9 L 57.5 863.3 L 58.3 863.3 L 60.8 865.4 L 62.4 865.2 L 65.2 865.7 L 66.6 865.5 L 69.2 864.7 L 73.3 862.4 L 75.5 860.1 L 76.5 859.8 L 77.8 860.1 L 78.6 860.7 L 78.7 862.4 L 79.6 863.9 L 80.9 865.1 L 81.3 866.6 L 81.0 868.1 L 78.7 870.2 L 78.2 870.9 L 79.0 871.7 L 80.0 871.3 L 81.3 870.3 L 82.1 868.9 L 82.3 868.2 L 82.4 867.1 L 82.3 865.8 L 80.4 862.2 L 80.1 861.3 L 80.1 859.7 L 82.3 858.2 L 82.9 857.0 L 83.0 854.7 L 81.9 853.1 L 77.2 849.5 L 69.4 845.8 L 68.5 846.2 L 67.9 846.8 L 68.7 847.3 L 69.7 847.6 L 76.6 850.6 L 78.4 852.3 L 79.6 852.8 L 81.0 854.0 L 80.7 855.6 L 73.7 857.3 L 68.1 860.9 L 64.0 863.1 L 61.1 862.3 L 59.7 860.1 L 58.3 857.2 L 56.1 855.5 L 54.8 855.7 L 53.8 855.4 L 53.1 854.5 L 51.4 855.2 L 47.7 853.3 L 46.6 852.4 L 49.3 849.6 L 52.3 850.7 L 53.0 842.8 L 52.1 841.0 L 48.2 839.1 L 46.3 839.3 L 43.7 839.1 L 42.0 838.2 L 40.0 837.8 L 38.3 837.3 L 36.1 836.1 L 33.4 835.5 L 29.8 830.5 L 28.3 827.8 L 27.5 825.0 L 33.0 824.9 L 36.2 824.5 L 37.0 823.3 L 35.8 821.0 L 34.3 819.2 L 35.4 817.5 L 37.1 816.2 L 38.8 816.8 L 43.0 819.7 L 43.7 821.6 L 46.8 827.6 L 47.5 828.2 L 47.8 828.7 L 54.1 832.1 L 54.9 832.0 L 54.5 829.2 L 56.3 825.4 L 58.1 824.1 L 59.0 824.2 L 59.0 823.5 L 57.4 821.9 L 58.2 819.8 L 57.6 819.7 L 56.1 821.1 L 53.1 827.8 L 51.3 829.0 L 48.7 826.0 L 47.3 823.8 L 46.6 823.0 L 46.8 819.6 L 51.9 820.3 L 50.1 819.2 L 44.3 817.2 L 42.8 816.3 L 41.7 815.9 L 39.8 813.6 L 37.4 811.6 L 41.5 808.1 L 43.7 805.6 L 50.4 806.9 L 51.7 806.2 L 50.6 804.3 L 49.2 804.9 L 47.2 803.8 L 43.9 800.4 L 44.0 798.6 L 44.6 795.4 L 45.9 794.8 L 48.6 794.1 L 51.8 795.1 L 53.1 796.0 L 54.3 795.6 L 53.1 793.2 L 51.1 792.3 L 48.8 790.7 L 49.0 788.8 L 49.8 787.3 L 50.3 785.6 L 50.7 783.2 L 50.5 781.4 L 51.1 780.5 L 52.1 780.1 L 52.2 779.4 L 50.2 779.6 L 49.5 781.9 L 49.2 784.0 L 47.8 785.7 L 47.2 787.7 L 46.9 790.0 L 46.1 792.6 L 44.4 791.6 L 43.4 790.6 L 43.0 789.9 L 43.2 788.5 L 42.7 780.2 L 42.7 773.2 L 43.5 767.8 L 46.0 765.6 L 47.0 765.0 L 48.0 765.3 L 49.6 765.3 L 50.6 764.5 L 47.1 763.2 L 45.0 763.9 L 43.5 765.0 L 40.7 764.2 L 40.2 761.4 L 38.5 759.0 L 38.2 755.9 L 38.3 751.4 L 42.3 751.8 L 45.5 752.7 L 53.9 752.6 L 60.9 756.9 L 63.9 756.3 L 63.8 755.4 L 61.5 754.4 L 60.0 752.0 L 59.1 751.3 L 58.7 749.8 L 58.6 748.2 L 56.9 742.0 L 56.2 742.2 L 55.5 744.3 L 54.1 747.8 L 52.1 749.5 L 49.0 750.2 L 46.0 750.6 L 43.3 749.9 L 42.7 748.5 L 42.8 746.8 L 41.6 745.9 L 38.7 745.2 L 37.8 744.8 L 36.8 743.3 L 38.3 741.0 L 39.4 739.6 L 40.8 739.9 L 42.2 740.5 L 43.9 742.3 L 45.6 742.6 L 47.6 741.2 L 47.9 740.2 L 46.7 739.6 L 45.6 739.4 L 43.9 738.6 L 40.5 735.8 L 42.2 733.0 L 46.2 729.8 L 47.4 729.0 L 46.4 726.3 L 47.6 723.3 L 46.3 720.9 L 44.1 718.2 L 41.1 717.6 L 40.5 718.4 L 40.4 719.5 L 40.8 720.3 L 40.6 720.9 L 39.9 720.9 L 36.1 720.3 L 33.5 718.5 L 29.3 716.9 L 28.8 715.7 L 28.4 713.8 L 29.8 710.6 L 29.1 710.6 L 26.4 713.0 L 22.3 714.3 L 19.3 714.8 L 17.9 715.7 L 17.4 716.6 L 18.2 717.1 L 20.0 717.2 L 21.2 720.2 L 20.9 721.4 L 20.3 722.2 L 18.9 722.4 L 15.9 720.2 L 14.4 717.8 L 14.4 715.9 L 15.5 713.3 L 20.2 709.8 L 21.5 708.4 L 24.2 706.7 L 27.9 703.0 L 31.1 701.0 L 29.5 699.3 L 27.9 696.7 L 28.1 693.2 L 34.5 691.7 L 37.4 692.3 L 40.9 692.2 L 42.9 691.4 L 44.4 691.2 L 47.4 690.2 L 48.8 688.8 L 49.1 687.8 L 49.0 686.8 L 48.7 685.7 L 48.2 682.8 L 48.7 681.8 L 50.0 680.6 L 51.7 680.2 L 52.5 680.3 L 54.5 681.4 L 54.1 682.9 L 53.3 684.8 L 51.7 692.1 L 50.8 693.7 L 49.5 695.1 L 50.4 698.1 L 49.1 700.2 L 43.2 702.4 L 42.4 702.5 L 42.9 703.3 L 46.3 703.2 L 48.9 702.7 L 51.5 700.8 L 52.3 698.0 L 53.4 692.4 L 54.8 691.6 L 56.5 691.4 L 57.3 692.7 L 57.0 695.7 L 57.0 698.5 L 54.8 706.9 L 52.2 710.3 L 51.9 711.2 L 52.0 712.3 L 54.1 712.1 L 55.7 710.3 L 56.9 708.0 L 58.0 704.7 L 57.9 702.4 L 58.2 701.0 L 58.7 696.2 L 59.5 693.8 L 59.5 690.5 L 58.0 689.2 L 56.0 688.4 L 55.5 686.4 L 56.6 682.3 L 60.4 682.4 L 64.1 679.7 L 66.5 678.7 L 67.8 678.9 L 72.6 681.5 L 73.6 681.6 L 73.4 680.6 L 72.7 679.9 L 70.8 679.0 L 67.3 676.2 L 62.6 675.7 L 63.5 672.0 L 64.4 668.6 L 66.7 668.1 L 70.5 667.0 L 77.7 661.9 L 79.0 658.0 L 79.3 653.7 L 75.8 652.6 L 72.1 649.7 L 69.1 648.2 L 66.5 646.4 L 67.0 643.5 L 67.4 638.9 L 70.7 637.9 L 72.2 631.6 L 70.0 626.8 L 70.5 623.2 L 73.4 620.1 L 73.9 618.0 L 74.7 615.6 L 77.3 615.4 L 77.4 614.1 L 77.1 611.8 L 75.4 609.0 L 75.4 605.2 L 77.0 600.7 L 79.5 601.0 L 80.0 600.8 L 78.2 598.1 L 76.7 595.1 L 77.0 593.9 L 78.4 592.9 L 80.0 592.4 L 81.8 593.9 L 84.3 598.8 L 84.7 597.5 L 83.7 592.5 L 82.8 586.3 L 80.2 587.2 L 77.7 586.7 L 76.8 585.8 L 75.9 584.4 L 76.8 582.7 L 77.6 581.4 L 79.4 579.8 L 83.1 579.2 L 85.8 577.2 L 86.7 573.1 L 85.8 573.5 L 84.3 577.2 L 81.9 578.4 L 80.7 578.2 L 79.2 577.5 L 76.3 574.4 L 74.7 573.6 L 73.1 573.6 L 71.8 574.4 L 68.4 579.9 L 67.0 580.9 L 61.0 581.3 L 58.8 580.7 L 56.5 579.8 L 56.7 578.4 L 57.5 577.0 L 58.8 576.2 L 58.8 575.4 L 57.0 575.2 L 54.8 573.6 L 53.9 571.7 L 53.4 568.2 L 51.5 562.7 L 51.2 558.7 L 52.5 555.9 L 55.4 544.9 L 56.3 539.2 L 57.9 534.3 L 57.8 531.0 L 61.9 528.0 L 63.4 526.2 L 66.8 516.2 L 67.3 510.7 L 61.9 494.3 L 61.0 491.1 L 60.8 487.2 L 62.1 480.7 L 62.2 478.3 L 61.1 474.7 L 58.0 468.9 L 58.0 465.9 L 59.3 462.9 L 58.0 459.1 L 58.6 456.7 L 59.3 454.9 L 64.2 455.9 L 66.4 455.4 L 67.5 454.3 L 68.5 451.2 L 68.9 446.3 L 69.2 444.2 L 69.6 441.2 L 72.0 439.9 L 72.8 437.0 L 74.8 433.0 L 76.9 421.7 L 78.9 418.9 L 80.9 415.7 L 80.2 410.9 L 81.5 408.7 L 82.7 407.1 L 83.8 404.2 L 85.2 401.5 L 88.7 397.5 L 89.6 392.7 L 92.3 384.3 L 92.8 379.0 L 93.7 375.4 L 93.4 372.0 L 95.0 367.9 L 96.6 364.4 L 97.1 362.5 L 100.6 357.9 L 101.2 354.3 L 100.0 351.8 L 99.9 347.9 L 99.0 342.6 L 101.2 340.6 L 102.2 339.2 L 105.2 330.7 L 105.0 327.3 L 105.8 323.2 L 103.9 318.3 L 103.6 307.3 L 102.5 298.8 L 100.7 289.8 L 100.9 284.8 L 99.8 278.6 L 99.7 275.0 L 100.5 266.8 L 106.3 261.6 L 107.4 255.9 L 108.1 248.1 L 107.8 242.5 L 107.3 239.9 L 104.4 235.7 L 103.7 228.3 L 104.3 226.3 L 106.6 224.2 L 108.3 221.3 L 109.1 216.8 L 110.8 213.2 L 111.5 204.6 L 113.0 197.8 L 113.7 195.4 L 116.0 192.4 L 116.4 191.6 L 116.7 189.3 L 116.6 183.9 L 117.0 180.6 L 118.8 174.1 L 119.0 171.1 L 121.0 164.4 L 121.5 159.6 L 122.3 157.0 L 122.0 154.2 L 122.6 147.8 L 121.2 144.2 L 120.9 142.1 L 122.6 135.5 L 123.8 134.0 L 125.7 130.9 L 126.5 127.5 L 126.6 125.3 L 124.2 114.5 L 123.9 110.8 L 124.5 102.3 L 125.3 96.7 L 125.0 92.3 L 125.3 90.0 L 125.7 87.2 L 127.4 83.7 L 127.8 81.2 L 127.2 80.2 L 125.2 79.0 L 123.6 75.8 L 123.5 72.7 L 124.0 70.5 L 124.1 67.3 L 126.5 66.7 L 127.8 64.9 L 129.1 61.6 L 130.6 53.6 L 131.3 43.6 L 132.2 37.6 L 132.8 34.6 L 133.4 28.4 L 134.3 24.4 L 134.4 20.7 L 134.3 17.8 L 131.9 3.3 L 132.0 -2.0 L 133.0 -10.3 L 133.0 -21.9 L 132.8 -24.6 L 131.9 -27.2 L 131.7 -30.6 L 130.3 -36.6 L 129.0 -48.7 L 129.0 -55.1 L 128.4 -60.5 L 127.2 -61.9 Z M 55.6 623.8 L 54.0 624.4 L 52.5 624.5 L 51.0 624.1 L 48.4 624.1 L 45.7 623.0 L 43.2 621.5 L 42.5 620.7 L 42.8 619.4 L 44.6 616.5 L 46.3 611.0 L 47.5 603.1 L 46.6 600.1 L 46.7 598.8 L 47.1 597.3 L 47.3 595.8 L 47.2 594.2 L 47.4 592.8 L 49.3 589.8 L 49.5 588.4 L 49.6 586.9 L 50.4 583.9 L 50.2 582.9 L 49.5 582.0 L 50.0 581.3 L 56.5 583.5 L 60.9 584.0 L 61.1 586.3 L 61.9 588.2 L 62.4 591.4 L 63.1 592.2 L 62.8 594.5 L 60.8 595.5 L 61.0 597.6 L 62.1 599.7 L 60.4 600.4 L 58.6 600.8 L 58.2 601.4 L 56.9 601.8 L 55.3 602.9 L 55.8 603.9 L 57.8 606.2 L 60.0 607.8 L 61.2 610.1 L 62.8 612.6 L 62.1 614.1 L 60.6 616.3 L 58.3 617.8 L 56.1 618.7 L 56.4 622.3 L 55.6 623.8 Z M 18.6 772.4 L 16.2 772.4 L 15.6 767.5 L 18.4 760.5 L 18.6 757.8 L 17.7 755.7 L 17.3 754.1 L 17.5 753.4 L 21.1 752.0 L 22.3 753.5 L 23.6 757.4 L 26.2 763.1 L 26.1 768.5 L 24.7 769.9 L 20.2 771.2 L 18.6 772.4 Z M 38.7 767.7 L 38.3 768.3 L 35.7 767.9 L 31.1 768.6 L 29.2 766.1 L 28.4 762.2 L 27.8 761.4 L 26.7 759.1 L 26.1 757.6 L 24.9 755.3 L 24.5 752.9 L 24.2 752.2 L 25.2 750.7 L 30.0 749.3 L 31.7 747.0 L 33.2 747.3 L 32.8 752.0 L 33.6 753.6 L 35.2 754.9 L 35.5 755.4 L 35.8 757.1 L 36.6 759.7 L 37.7 760.9 L 38.0 761.6 L 38.0 762.2 L 37.6 763.1 L 38.7 767.7 Z M 56.5 652.5 L 55.4 653.7 L 53.7 653.9 L 51.2 655.3 L 50.9 656.5 L 50.8 657.9 L 52.5 659.7 L 53.4 661.7 L 54.5 664.8 L 55.2 667.7 L 55.2 668.6 L 55.4 670.1 L 56.6 672.4 L 56.7 673.5 L 56.6 674.5 L 56.1 676.5 L 55.7 676.7 L 54.4 676.9 L 54.3 678.1 L 54.0 678.5 L 50.5 678.6 L 48.7 678.1 L 48.9 674.5 L 46.6 673.1 L 45.1 670.8 L 43.3 666.7 L 41.9 665.5 L 40.2 662.2 L 37.6 659.5 L 40.6 657.8 L 40.1 654.7 L 41.8 653.7 L 44.4 652.6 L 46.3 653.4 L 48.0 653.1 L 48.7 652.4 L 48.5 649.3 L 49.0 646.8 L 50.9 645.6 L 52.9 645.4 L 53.7 646.8 L 54.7 648.2 L 57.1 649.2 L 57.1 650.7 L 56.5 652.5 Z M 72.4 663.1 L 67.3 665.3 L 64.7 664.6 L 63.7 663.0 L 63.2 661.6 L 62.6 659.3 L 63.5 658.1 L 65.4 656.3 L 66.1 655.2 L 66.5 653.8 L 66.3 652.5 L 66.6 651.3 L 67.7 650.9 L 71.5 652.3 L 75.5 654.3 L 76.9 655.7 L 77.2 656.8 L 75.4 659.2 L 74.3 661.3 L 72.4 663.1 Z M 28.6 666.1 L 28.0 666.6 L 27.4 666.5 L 26.8 665.6 L 26.4 664.1 L 27.2 663.5 L 27.8 663.5 L 28.4 664.3 L 28.8 665.6 L 28.6 666.1 Z M 27.1 747.0 L 25.5 747.3 L 25.3 746.5 L 23.9 745.0 L 25.1 744.0 L 27.6 743.0 L 29.4 743.1 L 31.0 743.8 L 31.3 744.8 L 28.4 746.0 L 27.7 746.6 L 27.1 747.0 Z M 36.5 631.0 L 33.5 631.5 L 32.8 630.6 L 32.8 629.9 L 33.4 629.4 L 34.9 629.0 L 35.9 629.5 L 36.5 630.1 L 36.6 630.7 L 36.5 631.0 Z M 58.7 664.3 L 58.0 664.6 L 57.3 664.5 L 56.7 663.6 L 56.5 662.3 L 55.1 660.5 L 54.7 659.6 L 54.7 658.6 L 55.5 657.1 L 56.7 656.7 L 57.5 656.7 L 58.5 658.5 L 58.7 660.4 L 59.0 662.4 L 58.7 664.3 Z M 54.8 637.0 L 55.3 638.3 L 54.4 638.5 L 52.9 638.3 L 52.1 639.4 L 51.8 639.6 L 48.3 638.6 L 47.8 638.2 L 47.8 636.8 L 51.5 636.7 L 53.9 635.8 L 54.2 635.9 L 54.8 637.0 Z M 44.1 688.1 L 42.9 689.3 L 40.9 689.9 L 38.8 689.0 L 36.3 689.4 L 36.1 687.3 L 37.0 685.6 L 38.9 683.6 L 40.3 680.8 L 40.1 677.0 L 41.2 676.1 L 41.8 674.7 L 44.2 673.9 L 44.7 676.8 L 44.1 681.9 L 45.7 684.9 L 45.9 685.9 L 45.6 687.1 L 44.1 688.1 Z" fill="#cfe3bf" stroke="#ffffff" stroke-width="2.2" stroke-linejoin="round"/>
<path d="M 202.8 -598.7 L 208.3 -592.3 L 212.3 -587.7 L 214.1 -586.2 L 215.0 -585.8 L 217.4 -586.1 L 220.2 -586.7 L 221.6 -587.3 L 223.1 -588.8 L 225.5 -590.8 L 227.5 -592.0 L 228.3 -592.1 L 229.1 -591.7 L 230.7 -590.5 L 231.7 -588.3 L 230.8 -585.6 L 230.9 -584.0 L 232.7 -584.1 L 234.1 -586.8 L 235.1 -589.0 L 237.2 -590.7 L 239.2 -593.2 L 240.6 -595.5 L 242.2 -596.9 L 244.7 -598.6 L 246.7 -599.6 L 248.5 -599.5 L 249.9 -600.6 L 251.7 -602.7 L 252.9 -604.4 L 253.8 -605.0 L 255.5 -604.8 L 257.7 -605.0 L 259.8 -607.1 L 261.7 -609.5 L 262.7 -613.7 L 263.4 -617.4 L 264.0 -618.1 L 264.7 -618.7 L 265.5 -619.1 L 267.5 -619.3 L 270.9 -621.3 L 273.3 -623.3 L 275.6 -623.7 L 276.2 -624.3 L 277.1 -626.1 L 277.5 -629.3 L 277.2 -631.3 L 273.0 -631.9 L 270.3 -631.9 L 265.8 -632.4 L 263.6 -633.2 L 263.1 -633.8 L 263.1 -634.4 L 263.5 -635.8 L 263.9 -638.4 L 263.3 -642.0 L 261.1 -647.5 L 259.5 -653.0 L 259.3 -656.9 L 259.3 -660.9 L 259.4 -663.5 L 258.3 -665.6 L 252.0 -672.1 L 249.9 -675.2 L 249.2 -677.3 L 246.7 -681.2 L 247.3 -682.4 L 248.7 -682.4 L 249.9 -681.3 L 251.0 -679.2 L 251.8 -678.7 L 252.9 -678.7 L 258.7 -678.7 L 260.0 -678.3 L 260.8 -677.6 L 261.5 -676.7 L 262.6 -674.1 L 263.7 -672.9 L 266.0 -672.9 L 269.5 -673.0 L 271.5 -673.2 L 272.7 -672.5 L 274.2 -671.9 L 277.4 -673.3 L 278.2 -673.3 L 279.2 -672.7 L 282.6 -668.2 L 284.5 -666.2 L 286.1 -663.7 L 288.5 -663.7 L 290.5 -665.9 L 291.0 -673.2 L 291.6 -675.3 L 292.6 -675.9 L 293.8 -676.0 L 295.2 -677.2 L 296.7 -678.6 L 298.0 -679.1 L 303.5 -677.5 L 305.1 -678.3 L 310.6 -680.2 L 316.3 -682.7 L 317.9 -685.9 L 320.3 -686.7 L 322.2 -689.0 L 323.7 -688.8 L 326.0 -688.7 L 327.4 -689.1 L 328.1 -689.5 L 328.9 -690.6 L 330.1 -693.7 L 331.7 -694.8 L 333.7 -696.1 L 335.0 -697.5 L 336.1 -699.3 L 336.6 -700.9 L 336.6 -702.1 L 335.9 -704.5 L 335.1 -706.8 L 334.3 -707.5 L 333.6 -707.8 L 335.6 -708.3 L 337.2 -707.6 L 339.7 -707.4 L 340.8 -708.0 L 342.3 -707.7 L 344.3 -709.3 L 345.6 -708.8 L 346.4 -708.8 L 347.2 -707.6 L 347.8 -706.2 L 349.7 -704.5 L 349.5 -702.0 L 349.1 -699.7 L 348.9 -697.1 L 348.8 -695.2 L 348.0 -693.1 L 346.8 -691.2 L 346.5 -690.5 L 346.3 -689.5 L 347.1 -688.9 L 348.5 -688.7 L 350.3 -688.6 L 351.5 -688.0 L 353.0 -687.9 L 354.9 -686.3 L 355.8 -685.3 L 355.9 -684.5 L 355.3 -682.7 L 355.1 -681.1 L 355.5 -680.0 L 356.1 -679.2 L 357.6 -675.5 L 358.3 -674.2 L 358.9 -673.7 L 359.1 -673.0 L 358.5 -671.6 L 357.9 -669.9 L 356.5 -668.1 L 356.3 -666.6 L 355.2 -665.7 L 352.6 -663.5 L 353.0 -660.1 L 353.1 -658.3 L 353.1 -657.0 L 352.2 -655.2 L 350.6 -649.8 L 350.1 -647.2 L 349.6 -641.0 L 349.6 -638.9 L 350.3 -636.1 L 351.8 -629.9 L 352.7 -629.0 L 354.7 -627.5 L 354.9 -623.3 L 354.8 -619.0 L 354.7 -617.3 L 355.0 -616.5 L 355.9 -616.2 L 356.5 -615.7 L 356.6 -614.4 L 356.6 -613.0 L 358.1 -612.3 L 359.4 -611.8 L 360.6 -609.9 L 362.8 -607.0 L 363.6 -606.5 L 364.0 -605.3 L 365.9 -602.9 L 368.7 -602.0 L 371.5 -600.9 L 372.6 -599.4 L 373.7 -598.1 L 374.6 -598.1 L 375.3 -598.3 L 376.6 -599.3 L 377.5 -600.3 L 379.2 -600.2 L 381.2 -600.4 L 381.6 -601.1 L 381.8 -602.1 L 381.3 -604.6 L 382.1 -605.3 L 383.7 -605.8 L 384.0 -607.1 L 384.4 -607.8 L 384.9 -608.7 L 385.4 -608.8 L 386.1 -608.3 L 387.2 -608.0 L 388.4 -607.6 L 389.1 -606.7 L 390.2 -606.7 L 391.4 -606.8 L 391.9 -607.4 L 392.2 -608.3 L 392.5 -610.3 L 393.3 -610.4 L 394.8 -610.9 L 396.5 -611.8 L 398.7 -611.9 L 400.8 -611.9 L 401.8 -612.5 L 402.8 -613.8 L 404.7 -617.5 L 405.6 -618.3 L 406.7 -619.0 L 407.6 -618.9 L 409.4 -619.5 L 410.9 -620.4 L 411.5 -620.1 L 412.7 -618.2 L 413.3 -617.8 L 414.1 -617.7 L 417.0 -616.7 L 418.5 -617.0 L 420.1 -617.6 L 421.7 -617.9 L 422.8 -617.4 L 423.6 -618.0 L 424.5 -618.4 L 425.1 -618.1 L 426.6 -617.9 L 430.0 -616.8 L 434.4 -615.7 L 435.6 -616.1 L 436.3 -616.9 L 436.5 -619.3 L 436.6 -621.1 L 435.6 -622.6 L 434.4 -624.3 L 433.2 -626.5 L 431.9 -627.1 L 432.0 -628.2 L 432.9 -629.3 L 433.8 -630.0 L 434.4 -630.8 L 434.9 -633.6 L 435.3 -634.1 L 435.7 -634.3 L 436.2 -634.2 L 437.1 -633.4 L 440.6 -631.1 L 442.1 -631.5 L 447.9 -632.1 L 448.8 -633.4 L 450.0 -633.7 L 452.1 -635.0 L 453.0 -635.1 L 453.7 -634.8 L 454.6 -635.0 L 456.0 -636.3 L 456.6 -636.4 L 456.8 -635.0 L 457.7 -633.6 L 458.8 -632.3 L 459.3 -632.0 L 461.1 -632.5 L 462.1 -632.1 L 462.5 -630.9 L 462.6 -629.9 L 463.4 -629.0 L 464.3 -628.9 L 464.8 -628.6 L 465.7 -628.0 L 466.5 -626.7 L 468.2 -625.7 L 471.2 -624.2 L 472.6 -624.2 L 473.9 -623.7 L 474.7 -623.3 L 475.6 -624.1 L 478.6 -626.4 L 480.1 -627.6 L 481.1 -628.6 L 481.9 -629.5 L 482.4 -629.7 L 482.8 -629.2 L 483.1 -628.5 L 484.2 -628.0 L 486.8 -627.2 L 487.9 -626.9 L 489.6 -627.7 L 491.0 -628.9 L 491.7 -629.3 L 492.7 -628.1 L 493.4 -626.4 L 493.9 -625.6 L 495.0 -625.8 L 497.1 -625.5 L 498.6 -625.0 L 499.6 -625.0 L 500.9 -625.8 L 501.6 -627.3 L 503.4 -628.7 L 505.2 -630.0 L 506.2 -631.7 L 507.7 -634.5 L 508.2 -635.7 L 508.3 -637.8 L 510.4 -643.7 L 511.2 -644.8 L 511.7 -646.7 L 512.5 -648.8 L 512.5 -650.6 L 513.1 -652.4 L 514.4 -653.9 L 515.2 -654.9 L 516.7 -657.4 L 517.7 -659.8 L 520.2 -665.2 L 520.3 -666.7 L 521.3 -667.6 L 521.7 -668.7 L 522.7 -670.1 L 523.8 -671.3 L 524.3 -672.9 L 525.1 -674.6 L 526.9 -675.9 L 527.6 -676.5 L 529.6 -681.3 L 529.8 -683.4 L 531.6 -683.5 L 534.5 -681.0 L 536.8 -677.4 L 539.8 -665.8 L 540.4 -655.1 L 541.6 -649.5 L 545.2 -637.9 L 545.4 -635.7 L 546.0 -633.1 L 547.1 -630.3 L 548.3 -625.8 L 548.4 -624.9 L 547.6 -623.7 L 548.8 -623.6 L 549.8 -622.8 L 550.5 -619.9 L 551.4 -618.0 L 553.0 -615.3 L 556.3 -614.4 L 558.8 -614.1 L 561.6 -612.6 L 563.7 -610.7 L 565.3 -604.1 L 564.8 -599.9 L 565.0 -597.0 L 564.1 -595.9 L 561.8 -594.0 L 561.3 -593.0 L 556.5 -588.1 L 555.5 -585.7 L 552.9 -582.6 L 550.4 -576.7 L 546.7 -571.2 L 545.4 -569.9 L 543.4 -569.5 L 542.2 -568.7 L 539.3 -564.3 L 535.4 -562.8 L 535.1 -560.2 L 532.9 -554.4 L 530.9 -551.2 L 529.6 -550.1 L 526.5 -544.2 L 526.1 -541.7 L 526.1 -537.2 L 524.0 -534.5 L 521.8 -532.7 L 521.5 -528.9 L 520.6 -527.6 L 519.7 -526.8 L 515.3 -527.8 L 508.3 -523.6 L 506.0 -522.6 L 513.5 -522.4 L 515.9 -520.1 L 521.3 -521.6 L 527.7 -526.9 L 530.1 -528.0 L 535.1 -531.6 L 537.2 -534.0 L 540.9 -536.8 L 541.6 -538.1 L 543.7 -539.4 L 544.8 -537.7 L 544.9 -536.6 L 543.2 -534.5 L 543.7 -533.2 L 544.8 -531.5 L 545.2 -529.2 L 545.3 -527.4 L 546.0 -524.3 L 548.3 -520.0 L 548.4 -518.6 L 548.1 -516.8 L 549.2 -515.3 L 550.3 -514.4 L 554.2 -509.8 L 557.3 -512.4 L 559.1 -513.1 L 560.3 -514.2 L 562.8 -514.9 L 564.9 -513.8 L 568.8 -512.3 L 571.7 -513.9 L 577.4 -517.6 L 575.6 -511.1 L 574.3 -505.0 L 573.3 -502.6 L 572.3 -496.0 L 571.4 -494.3 L 570.6 -492.3 L 571.9 -493.0 L 573.0 -493.9 L 574.4 -496.4 L 575.4 -500.8 L 579.6 -512.6 L 580.8 -513.6 L 584.3 -514.9 L 590.3 -524.3 L 592.7 -524.3 L 594.2 -522.1 L 595.6 -520.9 L 596.0 -523.4 L 598.0 -524.5 L 595.8 -525.7 L 595.5 -526.9 L 595.3 -528.8 L 596.8 -531.4 L 595.9 -533.7 L 598.9 -536.6 L 598.7 -538.8 L 599.8 -540.6 L 601.2 -542.4 L 602.7 -543.3 L 603.0 -544.9 L 604.0 -545.6 L 604.8 -545.8 L 606.3 -544.0 L 608.0 -546.1 L 609.6 -546.9 L 610.3 -546.6 L 611.2 -545.6 L 612.1 -545.2 L 612.9 -545.4 L 614.9 -546.8 L 616.8 -544.6 L 617.9 -544.1 L 617.6 -545.3 L 617.0 -546.5 L 617.4 -547.4 L 618.3 -547.9 L 621.1 -547.4 L 622.5 -546.5 L 624.1 -544.7 L 626.3 -544.6 L 628.0 -544.7 L 629.1 -543.7 L 630.8 -543.7 L 631.7 -542.2 L 634.4 -540.0 L 635.0 -538.5 L 637.1 -537.8 L 639.1 -536.9 L 641.3 -536.6 L 643.5 -536.8 L 643.6 -535.0 L 645.1 -534.5 L 647.2 -534.9 L 648.7 -532.6 L 652.9 -530.8 L 655.7 -528.2 L 657.6 -528.6 L 659.7 -527.9 L 661.9 -522.1 L 662.5 -518.0 L 663.5 -518.6 L 664.4 -520.4 L 665.6 -523.8 L 667.8 -524.9 L 668.9 -523.6 L 671.2 -521.5 L 673.1 -519.3 L 674.0 -517.8 L 675.4 -517.6 L 674.2 -515.8 L 675.4 -516.0 L 676.9 -517.2 L 678.2 -514.6 L 679.1 -511.7 L 679.3 -508.8 L 678.4 -507.1 L 677.6 -506.1 L 676.8 -504.0 L 675.7 -503.7 L 674.7 -503.0 L 675.9 -501.5 L 676.7 -500.0 L 678.5 -504.0 L 679.7 -505.1 L 681.5 -505.7 L 682.5 -502.9 L 682.7 -500.2 L 679.7 -499.2 L 679.7 -497.1 L 678.8 -495.9 L 678.2 -494.5 L 677.8 -491.7 L 677.2 -489.4 L 675.4 -478.9 L 675.4 -477.2 L 677.5 -479.1 L 681.5 -484.4 L 682.7 -490.0 L 684.2 -495.6 L 685.9 -497.3 L 687.0 -497.3 L 688.6 -496.7 L 688.6 -494.9 L 688.4 -493.9 L 686.7 -491.1 L 686.0 -489.6 L 686.7 -488.1 L 690.5 -492.7 L 692.2 -494.3 L 693.7 -493.9 L 696.6 -496.1 L 702.4 -496.5 L 702.9 -498.9 L 704.0 -500.0 L 707.2 -499.7 L 713.5 -497.5 L 715.7 -495.7 L 719.1 -494.1 L 720.8 -492.1 L 728.1 -488.5 L 733.5 -488.2 L 736.1 -489.8 L 739.4 -488.1 L 741.2 -486.2 L 744.6 -485.1 L 748.0 -484.6 L 750.7 -486.0 L 757.5 -486.4 L 766.0 -488.5 L 771.1 -488.0 L 776.9 -486.6 L 781.0 -483.2 L 784.5 -481.3 L 786.6 -479.4 L 790.0 -477.4 L 797.2 -472.1 L 799.7 -469.1 L 804.2 -464.9 L 808.7 -463.2 L 811.1 -458.8 L 813.0 -456.8 L 817.8 -449.5 L 823.2 -444.3 L 826.8 -439.2 L 833.7 -435.9 L 836.4 -430.4 L 841.1 -429.7 L 843.1 -428.9 L 845.5 -426.6 L 848.9 -425.3 L 853.2 -425.7 L 858.0 -425.4 L 861.9 -426.5 L 871.1 -424.4 L 872.5 -423.4 L 874.4 -421.1 L 877.8 -412.4 L 879.8 -402.8 L 880.8 -395.5 L 883.1 -389.8 L 884.3 -379.0 L 885.4 -375.6 L 885.5 -373.0 L 886.4 -372.5 L 887.0 -365.2 L 886.7 -362.3 L 885.8 -358.5 L 885.8 -356.8 L 885.9 -355.7 L 885.5 -354.1 L 885.4 -352.6 L 886.3 -349.2 L 886.3 -346.5 L 885.1 -343.2 L 883.5 -334.5 L 879.4 -320.2 L 875.5 -311.9 L 870.1 -303.4 L 866.5 -299.0 L 865.1 -298.6 L 863.8 -299.4 L 864.7 -297.1 L 863.9 -295.0 L 860.3 -288.8 L 856.7 -284.7 L 853.0 -277.6 L 852.7 -277.4 L 847.9 -274.7 L 845.1 -272.4 L 841.5 -268.3 L 838.1 -261.9 L 837.5 -261.1 L 836.2 -261.5 L 836.3 -258.3 L 833.4 -253.1 L 832.5 -252.3 L 832.6 -253.8 L 833.1 -254.9 L 833.3 -256.1 L 833.3 -257.5 L 832.5 -256.5 L 830.8 -252.6 L 831.4 -249.8 L 830.1 -245.5 L 825.4 -233.2 L 819.7 -222.9 L 818.4 -219.8 L 813.7 -212.8 L 810.2 -209.5 L 809.3 -209.5 L 808.2 -209.7 L 807.6 -215.1 L 804.9 -218.3 L 804.1 -218.9 L 802.9 -215.5 L 802.0 -214.5 L 800.6 -214.3 L 802.1 -212.8 L 802.5 -211.1 L 801.0 -207.7 L 801.0 -204.5 L 798.3 -201.1 L 796.8 -198.5 L 796.0 -195.4 L 795.6 -192.4 L 796.7 -193.2 L 797.3 -192.6 L 797.7 -191.7 L 797.4 -190.3 L 796.6 -187.8 L 796.7 -181.4 L 796.4 -179.9 L 797.3 -178.4 L 798.2 -181.0 L 798.7 -180.3 L 796.2 -163.2 L 797.2 -155.5 L 797.6 -146.7 L 798.7 -138.2 L 799.9 -130.6 L 800.0 -130.0 L 798.3 -121.2 L 796.1 -112.4 L 794.8 -105.3 L 794.0 -97.6 L 793.1 -94.0 L 792.9 -90.2 L 793.8 -81.2 L 794.2 -79.5 L 791.5 -75.5 L 788.7 -73.6 L 787.1 -71.7 L 783.6 -64.5 L 781.7 -53.9 L 781.6 -48.2 L 782.5 -36.4 L 781.9 -31.5 L 780.8 -28.3 L 779.5 -26.2 L 776.1 -23.6 L 773.1 -17.4 L 771.8 -10.9 L 769.8 -8.5 L 769.3 -4.9 L 767.7 -0.9 L 763.4 4.9 L 760.6 6.7 L 759.3 8.3 L 758.5 11.7 L 755.8 17.4 L 753.8 24.7 L 754.3 27.2 L 754.3 27.6 L 755.1 36.1 L 754.8 38.3 L 752.2 40.6 L 742.4 45.0 L 739.8 46.8 L 733.9 54.2 L 733.5 56.0 L 733.8 58.5 L 734.7 59.9 L 733.7 61.5 L 732.6 64.3 L 730.9 64.1 L 721.1 64.1 L 715.8 65.0 L 713.0 64.8 L 711.8 64.2 L 710.4 63.1 L 710.0 61.6 L 710.7 59.4 L 710.3 58.1 L 708.8 58.2 L 707.3 58.8 L 707.0 60.1 L 707.1 61.0 L 707.7 62.4 L 708.0 64.0 L 707.4 65.5 L 704.3 65.7 L 700.8 67.0 L 696.4 67.6 L 693.0 68.5 L 691.4 67.3 L 693.0 66.7 L 695.3 67.0 L 697.7 66.0 L 697.1 64.8 L 693.7 63.3 L 689.8 64.2 L 687.7 66.0 L 683.0 65.9 L 677.2 67.2 L 676.3 68.7 L 676.4 71.4 L 677.6 72.0 L 678.7 73.2 L 677.6 74.4 L 676.6 74.9 L 670.5 76.2 L 664.9 81.5 L 662.5 82.2 L 660.4 84.5 L 660.2 86.5 L 659.6 87.7 L 658.2 87.8 L 655.3 86.7 L 651.5 86.7 L 648.7 87.5 L 634.7 96.2 L 629.6 99.6 L 623.9 106.7 L 614.2 114.6 L 609.1 119.3 L 608.1 120.5 L 607.3 120.6 L 605.7 121.6 L 606.3 122.4 L 607.4 122.5 L 607.0 125.2 L 605.0 127.1 L 601.1 132.0 L 600.3 131.6 L 601.5 129.1 L 599.6 129.0 L 596.9 128.0 L 595.7 129.1 L 596.4 131.6 L 595.3 132.7 L 593.4 132.9 L 591.7 132.6 L 589.9 130.7 L 590.7 134.1 L 594.7 134.9 L 596.3 135.7 L 596.9 137.0 L 593.8 143.0 L 591.3 143.7 L 591.0 144.6 L 592.4 144.6 L 593.2 146.2 L 592.3 152.9 L 591.0 154.2 L 590.2 154.2 L 589.5 155.4 L 590.5 157.6 L 591.6 159.2 L 591.4 162.3 L 591.0 164.8 L 591.0 167.3 L 592.3 172.1 L 592.8 177.0 L 593.3 178.8 L 593.7 180.8 L 592.8 182.7 L 593.3 185.7 L 591.8 190.7 L 592.6 198.1 L 592.2 204.9 L 591.6 208.6 L 590.7 211.4 L 588.5 215.0 L 588.4 218.6 L 583.6 222.0 L 578.4 226.8 L 573.5 232.4 L 568.2 240.3 L 562.1 252.3 L 556.4 269.4 L 549.6 282.3 L 546.8 287.0 L 543.2 292.2 L 538.2 298.3 L 531.7 304.4 L 524.4 309.8 L 521.8 312.3 L 519.3 315.7 L 518.7 314.3 L 519.2 312.0 L 518.9 310.2 L 518.8 307.9 L 520.2 307.5 L 522.4 309.0 L 523.5 308.0 L 524.3 307.0 L 527.0 306.4 L 532.0 300.4 L 535.7 298.2 L 537.8 294.5 L 538.1 292.5 L 538.0 288.4 L 539.2 287.4 L 541.9 287.7 L 542.4 286.6 L 542.2 285.3 L 542.7 282.5 L 546.4 280.0 L 548.1 277.0 L 547.5 269.4 L 548.2 269.1 L 549.7 270.3 L 550.4 269.8 L 551.1 266.4 L 550.8 264.7 L 549.0 264.2 L 542.9 268.0 L 540.9 267.8 L 540.6 264.9 L 537.6 263.5 L 536.5 261.1 L 536.1 259.4 L 535.1 258.7 L 535.2 261.6 L 535.5 264.4 L 538.1 267.7 L 537.5 269.0 L 536.2 270.6 L 535.3 273.9 L 535.4 278.3 L 534.7 277.0 L 533.8 276.2 L 533.4 281.0 L 531.7 282.8 L 531.1 284.5 L 531.6 286.6 L 530.7 288.0 L 526.2 291.8 L 521.7 294.5 L 520.7 295.7 L 520.3 298.6 L 519.6 301.6 L 517.6 304.2 L 516.0 309.4 L 516.1 311.7 L 516.6 315.0 L 517.4 317.2 L 516.1 318.6 L 514.3 321.5 L 512.9 324.6 L 509.3 336.6 L 506.2 343.8 L 503.9 347.3 L 500.5 351.0 L 490.9 360.4 L 490.3 360.2 L 488.9 359.5 L 487.7 358.6 L 487.5 358.0 L 487.3 357.1 L 487.5 353.7 L 487.5 344.7 L 487.9 343.0 L 488.5 341.9 L 490.4 340.3 L 492.2 338.0 L 494.2 335.1 L 496.1 332.8 L 495.5 331.2 L 493.9 329.7 L 491.1 328.5 L 488.4 326.4 L 486.0 323.6 L 484.9 320.8 L 483.9 317.7 L 482.9 315.3 L 482.6 314.1 L 481.6 313.7 L 480.1 312.4 L 479.2 311.3 L 477.8 310.6 L 475.3 309.9 L 472.8 308.6 L 469.6 305.6 L 467.3 302.2 L 466.1 300.0 L 464.9 298.5 L 458.4 295.9 L 455.4 292.8 L 454.2 293.8 L 452.4 292.8 L 450.7 291.3 L 450.2 290.2 L 449.5 289.0 L 448.8 287.7 L 448.3 286.4 L 446.6 284.2 L 444.3 281.8 L 443.3 281.1 L 442.8 281.3 L 442.3 282.2 L 441.9 283.1 L 441.1 283.7 L 440.0 284.8 L 438.9 286.2 L 437.5 287.1 L 435.8 287.4 L 434.7 287.3 L 434.5 286.8 L 434.4 284.9 L 434.8 280.7 L 433.9 279.1 L 432.5 277.3 L 431.0 275.0 L 426.1 270.0 L 419.4 262.9 L 417.0 260.7 L 414.8 260.5 L 412.8 260.7 L 410.9 261.7 L 409.5 265.0 L 408.9 265.5 L 405.3 265.4 L 401.7 264.9 L 400.5 262.9 L 401.4 261.6 L 404.8 258.7 L 406.7 256.1 L 407.1 253.8 L 408.7 251.8 L 411.6 249.9 L 414.8 246.6 L 418.3 241.8 L 420.5 238.2 L 421.2 235.9 L 422.6 234.1 L 424.7 232.8 L 426.4 230.2 L 427.9 226.3 L 430.0 223.1 L 432.6 220.7 L 434.1 218.8 L 434.4 217.3 L 435.1 216.3 L 436.3 215.8 L 436.9 215.0 L 436.8 213.8 L 437.1 213.0 L 437.8 212.6 L 438.9 212.7 L 440.5 213.5 L 441.5 213.3 L 441.8 212.3 L 441.4 211.2 L 440.2 209.9 L 440.7 208.5 L 443.7 206.2 L 446.0 205.3 L 447.4 203.9 L 448.7 201.7 L 450.9 200.1 L 454.0 199.2 L 454.8 198.4 L 454.7 197.3 L 455.3 196.5 L 457.1 195.9 L 458.1 194.9 L 458.2 193.3 L 458.8 191.9 L 459.8 190.5 L 460.9 190.0 L 462.1 190.4 L 463.3 189.9 L 464.3 188.5 L 465.6 187.9 L 467.1 188.0 L 467.9 187.7 L 470.5 187.1 L 471.9 185.9 L 473.1 183.4 L 474.1 182.4 L 475.0 183.0 L 476.6 182.1 L 478.9 179.9 L 479.3 179.8 L 480.9 178.8 L 482.6 174.8 L 483.5 172.2 L 483.3 170.1 L 482.7 168.5 L 482.9 166.3 L 483.5 160.2 L 483.6 157.7 L 484.5 155.9 L 484.5 154.2 L 482.9 150.3 L 481.2 146.9 L 480.4 141.1 L 479.8 138.9 L 478.4 138.3 L 477.2 136.4 L 475.7 136.3 L 474.9 135.5 L 474.2 134.9 L 473.1 135.1 L 472.1 136.2 L 470.4 136.3 L 469.3 136.7 L 468.0 137.7 L 466.8 137.3 L 466.0 136.4 L 464.3 136.4 L 464.4 132.5 L 467.4 126.6 L 468.2 123.9 L 467.8 122.4 L 468.7 116.9 L 470.8 107.6 L 471.5 101.6 L 470.7 98.7 L 470.7 96.7 L 471.8 95.0 L 472.3 94.5 L 469.6 92.4 L 468.1 90.5 L 466.2 89.1 L 464.1 88.0 L 463.1 88.5 L 462.1 89.1 L 460.0 90.1 L 457.7 91.8 L 456.5 92.5 L 454.4 93.1 L 452.0 93.6 L 450.0 93.3 L 448.3 92.9 L 447.3 91.8 L 446.7 89.5 L 446.7 87.5 L 446.4 84.6 L 445.1 82.9 L 444.7 81.7 L 444.6 80.1 L 444.7 78.4 L 445.1 77.1 L 444.9 75.6 L 444.3 74.5 L 444.4 72.6 L 444.2 70.0 L 443.3 68.3 L 442.9 66.4 L 442.9 64.5 L 442.3 62.6 L 442.2 60.5 L 442.8 58.6 L 443.0 56.7 L 442.3 55.4 L 441.1 54.5 L 440.2 52.4 L 440.1 49.5 L 439.1 48.0 L 438.0 46.7 L 436.8 46.7 L 435.0 46.0 L 433.4 46.1 L 430.8 46.0 L 429.6 45.6 L 428.9 44.6 L 427.3 43.2 L 426.4 40.8 L 425.3 40.4 L 423.6 41.1 L 423.1 42.0 L 422.4 43.3 L 421.3 44.7 L 419.8 44.6 L 418.3 45.5 L 416.8 45.6 L 414.8 45.7 L 412.8 45.0 L 410.4 44.2 L 408.4 43.7 L 406.4 44.2 L 405.1 43.7 L 403.3 43.5 L 401.3 43.3 L 399.8 41.8 L 398.1 41.0 L 397.2 41.3 L 396.0 42.2 L 394.7 42.0 L 393.1 41.3 L 392.4 39.6 L 392.6 38.5 L 392.9 37.4 L 393.6 35.9 L 393.2 34.2 L 393.4 32.8 L 393.6 31.5 L 393.9 30.0 L 393.7 28.7 L 393.6 27.2 L 393.5 25.9 L 393.3 24.4 L 394.1 22.3 L 394.8 20.6 L 394.4 19.2 L 394.6 18.2 L 395.1 16.5 L 395.8 14.5 L 395.8 10.8 L 395.1 8.6 L 394.4 8.0 L 394.3 7.4 L 394.6 6.5 L 394.2 5.6 L 394.1 4.7 L 394.5 3.9 L 394.0 2.4 L 392.9 1.9 L 392.6 1.5 L 392.2 -0.3 L 392.0 -2.2 L 392.1 -3.8 L 391.6 -5.2 L 390.9 -6.0 L 390.2 -7.4 L 389.5 -8.5 L 389.2 -10.0 L 388.7 -12.0 L 390.1 -12.4 L 390.7 -13.5 L 391.7 -15.0 L 393.0 -15.4 L 394.5 -16.0 L 395.1 -17.1 L 391.5 -21.1 L 389.3 -23.6 L 390.6 -26.8 L 392.7 -32.4 L 394.8 -37.7 L 396.4 -41.8 L 396.8 -42.5 L 398.2 -42.8 L 397.9 -44.9 L 397.9 -46.3 L 396.8 -46.3 L 398.0 -51.3 L 399.8 -58.4 L 401.2 -63.8 L 401.7 -64.7 L 402.7 -64.9 L 402.9 -65.5 L 401.7 -66.4 L 401.0 -68.1 L 399.4 -72.9 L 396.8 -80.4 L 396.6 -83.1 L 395.7 -84.8 L 394.2 -84.2 L 392.3 -84.8 L 387.8 -88.9 L 384.7 -91.1 L 383.7 -92.4 L 383.2 -96.6 L 382.3 -101.3 L 381.9 -107.1 L 382.1 -108.4 L 384.7 -112.8 L 384.7 -115.0 L 384.9 -116.9 L 384.8 -118.5 L 384.1 -118.5 L 383.1 -117.8 L 381.5 -117.3 L 380.7 -117.3 L 371.7 -117.7 L 361.5 -118.2 L 353.1 -118.5 L 345.7 -118.9 L 345.5 -122.6 L 345.1 -129.0 L 344.8 -133.4 L 344.3 -140.5 L 341.4 -145.0 L 338.2 -149.8 L 337.0 -151.0 L 340.9 -151.2 L 343.6 -151.3 L 343.1 -164.2 L 342.3 -165.5 L 341.5 -169.6 L 341.0 -172.0 L 339.7 -173.9 L 339.3 -176.1 L 339.6 -177.5 L 340.3 -178.4 L 340.8 -180.6 L 340.5 -182.8 L 339.7 -184.9 L 338.7 -186.9 L 336.8 -188.1 L 334.1 -190.3 L 330.0 -193.2 L 326.5 -195.1 L 325.4 -194.9 L 319.3 -194.1 L 317.2 -193.7 L 315.9 -194.2 L 311.3 -194.1 L 309.5 -195.7 L 308.0 -197.4 L 304.8 -201.9 L 304.3 -204.2 L 303.1 -204.9 L 301.2 -204.6 L 299.3 -204.9 L 295.6 -206.8 L 292.2 -208.7 L 290.5 -208.6 L 289.0 -209.8 L 286.4 -212.8 L 285.2 -213.9 L 284.6 -215.4 L 284.0 -217.6 L 283.0 -218.1 L 281.6 -217.7 L 280.1 -216.6 L 278.1 -217.3 L 275.5 -219.4 L 273.9 -221.0 L 273.0 -221.8 L 270.8 -222.9 L 268.7 -223.1 L 265.5 -221.5 L 262.8 -222.1 L 258.7 -222.7 L 255.2 -223.9 L 253.9 -227.0 L 253.2 -229.1 L 251.1 -230.4 L 249.4 -232.0 L 247.4 -234.4 L 246.4 -235.2 L 244.6 -235.8 L 243.0 -236.7 L 242.8 -238.2 L 242.2 -240.2 L 242.0 -240.7 L 240.9 -243.1 L 240.4 -243.3 L 239.8 -242.8 L 239.3 -242.4 L 238.8 -242.9 L 238.8 -243.9 L 239.1 -245.7 L 238.4 -247.5 L 236.8 -249.4 L 235.9 -251.4 L 235.9 -253.4 L 235.5 -254.8 L 234.9 -255.5 L 234.5 -256.7 L 234.4 -258.4 L 234.9 -260.4 L 235.9 -262.7 L 235.7 -266.4 L 234.2 -271.2 L 233.4 -274.8 L 233.3 -276.9 L 233.5 -278.5 L 234.4 -280.1 L 236.1 -283.9 L 236.4 -286.8 L 235.9 -290.1 L 235.8 -292.6 L 236.2 -294.3 L 235.6 -296.6 L 234.4 -298.7 L 233.5 -298.8 L 232.3 -298.2 L 230.9 -296.4 L 229.2 -296.1 L 227.7 -297.2 L 223.1 -296.7 L 215.9 -295.6 L 213.0 -294.5 L 211.3 -294.0 L 209.2 -293.6 L 205.9 -291.5 L 197.8 -283.5 L 196.1 -282.3 L 194.2 -282.1 L 193.0 -281.0 L 191.2 -280.2 L 187.7 -277.0 L 185.9 -274.4 L 184.7 -272.1 L 183.4 -272.0 L 182.3 -272.7 L 179.0 -272.3 L 177.3 -271.6 L 175.4 -269.3 L 173.1 -265.3 L 172.2 -264.1 L 170.3 -262.9 L 168.2 -261.9 L 165.5 -260.4 L 164.3 -260.3 L 163.3 -260.1 L 162.4 -260.7 L 162.1 -262.2 L 160.7 -263.1 L 157.4 -263.6 L 152.6 -264.6 L 147.6 -264.8 L 145.1 -264.7 L 143.1 -264.7 L 139.6 -265.2 L 137.0 -265.3 L 134.7 -263.9 L 131.4 -262.1 L 129.9 -261.7 L 128.8 -261.6 L 127.8 -261.8 L 126.5 -262.7 L 124.8 -264.9 L 123.4 -264.1 L 122.4 -263.1 L 122.5 -267.8 L 122.5 -274.8 L 122.5 -280.9 L 122.5 -285.9 L 122.5 -291.6 L 122.6 -295.7 L 123.5 -297.2 L 124.0 -298.9 L 123.4 -301.3 L 123.5 -303.4 L 124.0 -304.8 L 124.6 -306.3 L 123.2 -305.6 L 122.6 -305.2 L 121.8 -304.1 L 120.0 -302.6 L 118.7 -301.1 L 117.3 -299.9 L 115.4 -297.3 L 113.9 -295.8 L 112.3 -294.9 L 109.7 -291.8 L 107.6 -291.2 L 101.8 -290.7 L 95.9 -290.7 L 90.4 -290.7 L 89.6 -290.7 L 89.7 -293.3 L 89.8 -295.1 L 87.9 -297.0 L 87.8 -299.4 L 87.3 -301.0 L 86.7 -303.0 L 85.4 -304.3 L 83.6 -304.8 L 80.6 -305.9 L 76.1 -307.0 L 71.8 -307.1 L 67.7 -307.0 L 70.2 -311.0 L 72.8 -315.0 L 72.7 -318.5 L 70.6 -321.5 L 69.5 -323.4 L 67.8 -326.0 L 65.7 -327.8 L 64.5 -330.1 L 64.6 -331.6 L 64.5 -332.6 L 63.6 -333.1 L 62.8 -334.0 L 61.7 -334.9 L 60.4 -336.2 L 60.4 -337.5 L 59.9 -338.8 L 59.1 -340.4 L 59.1 -341.7 L 58.4 -343.7 L 57.6 -345.1 L 56.8 -346.1 L 55.6 -347.4 L 55.7 -348.6 L 56.5 -349.1 L 56.9 -350.4 L 56.8 -351.7 L 55.8 -352.5 L 54.6 -352.9 L 53.1 -355.2 L 51.9 -356.4 L 51.2 -357.1 L 50.8 -357.9 L 51.2 -358.4 L 51.7 -359.2 L 51.8 -360.5 L 51.6 -361.7 L 51.6 -362.7 L 52.3 -363.1 L 53.1 -362.9 L 53.9 -363.5 L 55.0 -363.8 L 56.2 -363.9 L 56.8 -364.6 L 56.7 -365.9 L 56.0 -368.4 L 55.2 -369.4 L 55.0 -370.9 L 55.6 -373.9 L 56.0 -375.7 L 57.3 -377.7 L 61.5 -381.9 L 65.2 -384.8 L 67.0 -385.1 L 68.4 -386.2 L 69.2 -387.8 L 69.4 -389.6 L 69.3 -391.1 L 68.6 -393.4 L 67.7 -396.3 L 67.1 -397.9 L 67.7 -399.8 L 68.7 -402.4 L 70.7 -406.3 L 72.6 -410.6 L 72.8 -411.8 L 73.0 -414.4 L 73.9 -419.7 L 74.4 -422.5 L 74.1 -423.7 L 74.6 -424.6 L 75.7 -425.4 L 78.6 -426.1 L 80.5 -427.7 L 83.5 -430.7 L 85.9 -433.9 L 88.0 -434.9 L 91.7 -437.8 L 93.8 -439.7 L 94.7 -440.2 L 96.8 -441.6 L 100.5 -442.0 L 103.7 -442.5 L 105.5 -443.4 L 108.0 -443.8 L 109.8 -444.8 L 111.7 -444.8 L 115.4 -445.8 L 116.6 -447.3 L 117.7 -449.1 L 119.1 -450.7 L 120.7 -451.1 L 122.6 -450.8 L 124.8 -450.8 L 127.5 -451.3 L 128.8 -450.1 L 129.4 -448.6 L 131.0 -447.2 L 132.2 -447.2 L 133.4 -447.6 L 135.0 -446.3 L 136.1 -446.4 L 136.7 -447.2 L 136.9 -448.9 L 137.2 -449.9 L 138.0 -455.5 L 139.3 -464.7 L 140.5 -473.1 L 141.8 -482.4 L 143.2 -492.0 L 144.6 -501.7 L 145.7 -509.6 L 146.7 -516.4 L 147.3 -520.6 L 148.2 -526.1 L 148.6 -531.0 L 148.9 -532.4 L 148.7 -533.5 L 147.9 -535.2 L 147.9 -535.9 L 148.0 -536.9 L 147.9 -537.7 L 147.1 -538.6 L 146.4 -539.2 L 145.9 -540.0 L 145.6 -541.1 L 145.2 -542.2 L 145.0 -543.3 L 144.4 -544.2 L 144.2 -545.4 L 144.7 -546.4 L 144.8 -547.6 L 144.7 -548.7 L 144.4 -550.0 L 143.9 -551.2 L 143.2 -551.9 L 141.5 -552.7 L 139.8 -554.7 L 137.8 -556.4 L 135.2 -559.7 L 134.6 -561.3 L 134.6 -565.6 L 134.7 -570.3 L 134.9 -577.4 L 135.0 -581.0 L 136.5 -581.2 L 137.7 -581.3 L 139.1 -581.5 L 140.3 -581.8 L 141.3 -582.3 L 142.1 -583.0 L 143.1 -583.4 L 143.8 -583.2 L 144.6 -583.8 L 145.4 -584.3 L 146.2 -584.8 L 147.4 -585.2 L 148.5 -584.3 L 149.1 -583.4 L 149.8 -583.0 L 150.5 -583.1 L 151.0 -583.0 L 151.4 -582.3 L 152.1 -582.3 L 152.9 -582.4 L 153.8 -582.6 L 154.1 -582.8 L 154.2 -583.2 L 154.0 -584.0 L 153.7 -584.7 L 153.9 -585.8 L 154.0 -587.1 L 154.0 -588.8 L 153.3 -589.8 L 152.7 -591.5 L 152.0 -593.0 L 150.8 -593.9 L 149.8 -594.3 L 148.9 -593.7 L 148.1 -593.6 L 147.4 -594.2 L 146.4 -594.2 L 145.4 -594.4 L 144.2 -594.6 L 142.2 -594.2 L 141.4 -594.7 L 140.4 -594.7 L 139.3 -594.2 L 139.3 -601.0 L 139.4 -607.5 L 139.4 -612.0 L 140.4 -611.9 L 141.7 -612.7 L 143.6 -612.8 L 145.1 -613.7 L 145.9 -613.8 L 147.4 -613.3 L 149.1 -612.5 L 150.7 -612.3 L 154.8 -612.3 L 159.3 -612.3 L 164.3 -612.3 L 169.3 -612.4 L 173.7 -612.4 L 175.0 -612.3 L 174.3 -613.8 L 173.3 -615.7 L 173.7 -617.3 L 174.1 -618.8 L 174.7 -619.6 L 176.0 -618.8 L 177.2 -616.2 L 178.1 -614.2 L 179.0 -613.2 L 180.2 -613.1 L 181.5 -613.4 L 182.8 -614.2 L 185.0 -617.9 L 187.1 -620.9 L 188.3 -622.0 L 189.5 -622.9 L 190.4 -623.3 L 191.6 -623.2 L 192.6 -622.3 L 193.3 -620.9 L 195.8 -615.7 L 197.6 -611.9 L 198.2 -609.4 L 198.3 -603.5 L 198.1 -598.3 L 198.4 -597.6 L 198.7 -597.5 L 202.8 -598.7 Z M 688.0 69.6 L 688.7 70.4 L 687.5 70.3 L 686.1 71.0 L 684.0 71.6 L 683.1 70.4 L 685.0 68.9 L 685.6 67.8 L 686.1 68.0 L 686.7 68.8 L 688.0 69.6 Z M 593.0 159.0 L 592.6 159.4 L 591.3 156.0 L 594.0 152.7 L 594.9 154.0 L 594.1 156.6 L 593.4 158.4 L 593.0 159.0 Z M 663.9 90.1 L 663.9 91.5 L 663.0 90.8 L 660.7 91.4 L 659.8 90.3 L 663.0 85.7 L 663.7 86.4 L 664.2 87.2 L 664.5 88.4 L 664.1 89.1 L 663.9 90.1 Z M 595.1 196.5 L 593.6 197.7 L 593.9 191.2 L 594.7 189.0 L 595.6 187.4 L 596.6 186.4 L 597.4 187.8 L 596.7 191.0 L 594.9 194.8 L 595.1 196.5 Z" fill="#cfe3bf" stroke="#ffffff" stroke-width="2.2" stroke-linejoin="round"/>
<path d="M 146.6 -85.0 L 146.6 -85.0 L 146.6 -86.2 L 146.3 -88.2 L 145.4 -89.7 L 144.1 -90.8 L 143.7 -92.0 L 144.1 -93.4 L 146.7 -96.0 L 148.1 -96.4 L 148.5 -97.7 L 149.3 -98.8 L 151.8 -102.7 L 153.2 -105.2 L 154.6 -106.7 L 156.3 -107.8 L 157.0 -108.7 L 156.7 -111.4 L 156.8 -113.2 L 157.3 -114.4 L 159.0 -115.6 L 160.5 -116.5 L 160.8 -117.0 L 160.7 -117.7 L 159.3 -119.1 L 156.5 -120.3 L 154.6 -120.2 L 153.5 -121.3 L 152.8 -122.2 L 149.1 -133.5 L 148.5 -136.1 L 148.5 -137.2 L 151.0 -142.7 L 152.0 -144.6 L 153.8 -147.2 L 153.5 -148.3 L 150.4 -152.6 L 149.5 -154.7 L 149.5 -156.8 L 149.8 -159.3 L 151.6 -160.7 L 152.1 -162.7 L 152.5 -164.8 L 153.2 -165.4 L 154.0 -166.6 L 154.9 -168.2 L 156.3 -169.7 L 157.2 -170.8 L 157.4 -173.9 L 158.1 -174.7 L 160.0 -175.7 L 160.2 -176.5 L 159.8 -178.5 L 158.8 -180.7 L 158.0 -181.8 L 157.0 -187.2 L 155.9 -189.8 L 156.3 -190.9 L 157.1 -192.3 L 157.8 -194.9 L 158.1 -198.1 L 157.9 -209.6 L 157.9 -211.8 L 158.9 -213.4 L 160.3 -215.3 L 161.5 -216.0 L 162.6 -217.1 L 162.5 -219.3 L 163.3 -220.6 L 164.2 -222.2 L 161.3 -228.6 L 158.8 -234.2 L 156.5 -239.4 L 153.8 -245.5 L 152.0 -249.5 L 149.8 -254.4 L 147.8 -258.8 L 145.1 -264.7 L 147.6 -264.8 L 152.6 -264.6 L 157.4 -263.6 L 160.7 -263.1 L 162.1 -262.2 L 162.4 -260.7 L 163.3 -260.1 L 164.3 -260.3 L 165.5 -260.4 L 168.2 -261.9 L 170.3 -262.9 L 172.2 -264.1 L 173.1 -265.3 L 175.4 -269.3 L 177.3 -271.6 L 179.0 -272.3 L 182.3 -272.7 L 183.4 -272.0 L 184.7 -272.1 L 185.9 -274.4 L 187.7 -277.0 L 191.2 -280.2 L 193.0 -281.0 L 194.2 -282.1 L 196.1 -282.3 L 197.8 -283.5 L 205.9 -291.5 L 209.2 -293.6 L 211.3 -294.0 L 213.0 -294.5 L 215.9 -295.6 L 223.1 -296.7 L 227.7 -297.2 L 229.2 -296.1 L 230.9 -296.4 L 232.3 -298.2 L 233.5 -298.8 L 234.4 -298.7 L 235.6 -296.6 L 236.2 -294.3 L 235.8 -292.6 L 235.9 -290.1 L 236.4 -286.8 L 236.1 -283.9 L 234.4 -280.1 L 233.5 -278.5 L 233.3 -276.9 L 233.4 -274.8 L 234.2 -271.2 L 235.7 -266.4 L 235.9 -262.7 L 234.9 -260.4 L 234.4 -258.4 L 234.5 -256.7 L 234.9 -255.5 L 235.5 -254.8 L 235.9 -253.4 L 235.9 -251.4 L 236.8 -249.4 L 238.4 -247.5 L 239.1 -245.7 L 238.8 -243.9 L 238.8 -242.9 L 239.3 -242.4 L 239.8 -242.8 L 240.4 -243.3 L 240.9 -243.1 L 242.0 -240.7 L 242.2 -240.2 L 242.8 -238.2 L 243.0 -236.7 L 244.6 -235.8 L 246.4 -235.2 L 247.4 -234.4 L 249.4 -232.0 L 251.1 -230.4 L 253.2 -229.1 L 253.9 -227.0 L 255.2 -223.9 L 258.7 -222.7 L 262.8 -222.1 L 265.5 -221.5 L 268.7 -223.1 L 270.8 -222.9 L 273.0 -221.8 L 273.9 -221.0 L 275.5 -219.4 L 278.1 -217.3 L 280.1 -216.6 L 281.6 -217.7 L 283.0 -218.1 L 284.0 -217.6 L 284.6 -215.4 L 285.2 -213.9 L 286.4 -212.8 L 289.0 -209.8 L 290.5 -208.6 L 292.2 -208.7 L 295.6 -206.8 L 299.3 -204.9 L 301.2 -204.6 L 303.1 -204.9 L 304.3 -204.2 L 304.8 -201.9 L 308.0 -197.4 L 309.5 -195.7 L 311.3 -194.1 L 315.9 -194.2 L 317.2 -193.7 L 319.3 -194.1 L 325.4 -194.9 L 326.5 -195.1 L 330.0 -193.2 L 334.1 -190.3 L 336.8 -188.1 L 338.7 -186.9 L 339.7 -184.9 L 340.5 -182.8 L 340.8 -180.6 L 340.3 -178.4 L 339.6 -177.5 L 339.3 -176.1 L 339.7 -173.9 L 341.0 -172.0 L 341.5 -169.6 L 342.3 -165.5 L 343.1 -164.2 L 343.6 -151.3 L 340.9 -151.2 L 337.0 -151.0 L 338.2 -149.8 L 341.4 -145.0 L 344.3 -140.5 L 344.8 -133.4 L 345.1 -129.0 L 345.5 -122.6 L 345.7 -118.9 L 353.1 -118.5 L 361.5 -118.2 L 371.7 -117.7 L 380.7 -117.3 L 381.5 -117.3 L 383.1 -117.8 L 384.1 -118.5 L 384.8 -118.5 L 384.9 -116.9 L 384.7 -115.0 L 384.7 -112.8 L 382.1 -108.4 L 381.9 -107.1 L 382.3 -101.3 L 383.2 -96.6 L 383.7 -92.4 L 384.7 -91.1 L 387.8 -88.9 L 392.3 -84.8 L 394.2 -84.2 L 395.7 -84.8 L 396.6 -83.1 L 396.8 -80.4 L 399.4 -72.9 L 401.0 -68.1 L 401.7 -66.4 L 402.9 -65.5 L 402.7 -64.9 L 401.7 -64.7 L 401.2 -63.8 L 399.8 -58.4 L 398.0 -51.3 L 396.8 -46.3 L 397.9 -46.3 L 397.9 -44.9 L 398.2 -42.8 L 396.8 -42.5 L 396.4 -41.8 L 394.8 -37.7 L 392.7 -32.4 L 390.6 -26.8 L 389.3 -23.6 L 391.5 -21.1 L 395.1 -17.1 L 394.5 -16.0 L 393.0 -15.4 L 391.7 -15.0 L 390.7 -13.5 L 390.1 -12.4 L 388.7 -12.0 L 389.2 -16.6 L 388.7 -20.5 L 388.3 -21.6 L 382.0 -26.3 L 376.3 -30.5 L 368.9 -36.1 L 359.3 -36.0 L 349.3 -35.8 L 339.8 -33.3 L 330.5 -30.9 L 326.1 -29.7 L 317.2 -27.4 L 312.0 -26.3 L 310.6 -21.8 L 308.6 -15.0 L 306.6 -11.1 L 304.2 -7.0 L 300.9 -1.1 L 300.9 6.0 L 300.9 12.7 L 298.6 22.2 L 296.6 30.2 L 294.7 38.0 L 293.4 43.3 L 292.9 44.7 L 292.6 44.3 L 290.9 42.7 L 289.4 39.7 L 289.0 38.3 L 288.8 38.2 L 279.8 38.3 L 271.1 38.4 L 270.2 39.1 L 268.9 39.0 L 268.0 38.4 L 267.1 38.5 L 265.8 39.1 L 264.7 40.3 L 261.3 48.3 L 259.7 51.8 L 258.5 54.8 L 257.6 60.1 L 257.2 61.0 L 256.2 59.2 L 254.6 54.4 L 253.9 51.6 L 253.0 48.5 L 251.2 44.6 L 249.2 43.4 L 248.0 43.0 L 246.2 42.2 L 243.0 41.3 L 241.6 41.1 L 232.5 41.0 L 231.7 40.9 L 228.2 41.3 L 226.4 41.0 L 224.5 38.8 L 220.2 35.0 L 219.4 33.8 L 217.7 33.0 L 216.8 32.9 L 216.2 33.6 L 215.5 36.9 L 214.6 39.8 L 213.7 41.4 L 210.7 42.6 L 207.8 43.9 L 206.3 44.2 L 205.5 45.7 L 205.1 47.7 L 204.4 49.5 L 200.3 52.3 L 199.4 53.4 L 199.0 56.2 L 196.7 59.5 L 196.0 60.8 L 192.4 61.8 L 187.8 62.8 L 185.1 62.7 L 183.2 62.4 L 182.6 61.8 L 181.4 60.9 L 181.2 59.8 L 181.2 58.3 L 181.5 55.6 L 181.3 51.8 L 179.9 47.5 L 180.0 46.0 L 179.8 43.9 L 179.1 39.9 L 177.2 37.8 L 176.6 34.5 L 176.4 31.5 L 174.8 27.8 L 174.6 23.1 L 174.6 19.1 L 172.1 14.4 L 169.5 9.5 L 167.4 8.8 L 166.9 8.2 L 166.7 6.8 L 166.6 4.5 L 166.8 3.2 L 168.4 1.0 L 168.5 0.7 L 168.1 0.2 L 164.0 -3.0 L 162.9 -4.0 L 162.6 -5.1 L 162.6 -6.2 L 163.6 -7.3 L 164.1 -8.1 L 163.1 -10.4 L 163.2 -12.5 L 162.6 -13.4 L 162.7 -14.1 L 163.3 -14.6 L 166.0 -15.3 L 166.8 -17.5 L 166.9 -19.2 L 166.5 -20.5 L 164.0 -23.7 L 163.9 -24.2 L 166.5 -28.6 L 168.4 -31.5 L 168.9 -32.1 L 168.8 -32.7 L 168.3 -33.5 L 167.1 -34.6 L 165.6 -35.8 L 164.3 -37.3 L 162.6 -39.5 L 160.5 -41.4 L 158.9 -43.3 L 158.2 -44.9 L 158.1 -46.5 L 157.9 -49.1 L 156.9 -53.4 L 156.6 -56.3 L 156.2 -59.5 L 155.7 -61.6 L 155.5 -63.7 L 154.8 -65.9 L 154.4 -67.5 L 155.0 -68.6 L 155.5 -69.5 L 155.5 -70.0 L 151.5 -72.4 L 150.8 -73.0 L 149.8 -77.7 L 146.9 -81.9 L 146.6 -85.0 Z" fill="#cfe3bf" stroke="#ffffff" stroke-width="2.2" stroke-linejoin="round"/>
<path d="M 400.5 262.9 L 399.7 264.0 L 399.6 265.8 L 398.3 268.3 L 395.7 271.3 L 394.9 273.9 L 396.0 277.3 L 396.2 281.3 L 395.7 282.9 L 394.6 283.4 L 394.3 284.5 L 394.9 286.0 L 394.9 288.0 L 394.4 290.5 L 393.2 293.4 L 391.4 296.6 L 391.0 298.7 L 391.9 299.8 L 392.4 301.0 L 392.4 302.2 L 392.0 303.9 L 391.2 306.3 L 390.1 308.0 L 388.6 309.1 L 388.1 310.5 L 388.7 312.2 L 388.8 314.0 L 388.4 315.8 L 388.6 317.7 L 389.6 319.4 L 389.5 321.4 L 387.8 325.5 L 387.4 328.1 L 388.5 338.9 L 387.9 340.4 L 386.8 342.2 L 385.6 342.3 L 384.1 342.0 L 383.1 343.1 L 382.4 347.9 L 380.5 358.2 L 380.8 360.7 L 382.4 364.7 L 383.0 367.2 L 383.4 369.1 L 383.8 372.7 L 382.9 374.4 L 382.0 374.7 L 380.9 375.6 L 382.2 380.0 L 383.2 382.0 L 386.1 386.2 L 397.2 392.0 L 401.8 395.4 L 407.0 400.0 L 409.8 404.8 L 410.1 408.7 L 405.9 414.6 L 405.5 419.6 L 406.3 423.0 L 407.8 426.3 L 411.8 430.4 L 414.8 432.0 L 418.8 431.8 L 419.5 433.0 L 419.9 434.0 L 420.6 442.5 L 420.5 445.6 L 419.3 448.6 L 411.6 462.0 L 405.0 470.2 L 402.7 474.7 L 401.8 479.5 L 399.7 481.8 L 388.3 489.1 L 370.7 495.6 L 356.4 499.0 L 353.1 500.1 L 330.2 503.9 L 325.7 504.4 L 320.0 504.1 L 315.3 504.6 L 310.1 503.5 L 305.4 502.4 L 302.8 499.5 L 299.7 499.1 L 298.8 500.6 L 300.3 504.3 L 299.6 508.7 L 300.5 511.3 L 302.3 511.8 L 304.1 513.1 L 305.7 514.8 L 303.0 515.0 L 304.0 516.4 L 305.2 517.2 L 305.0 520.2 L 304.0 527.2 L 301.4 528.7 L 300.7 529.1 L 299.9 530.7 L 298.2 537.4 L 297.7 541.8 L 298.4 544.6 L 301.6 550.5 L 300.4 554.4 L 298.4 556.4 L 289.8 560.7 L 286.3 562.4 L 280.9 563.6 L 272.2 563.8 L 269.0 563.6 L 261.5 559.7 L 256.0 557.3 L 250.9 555.5 L 245.9 554.3 L 246.7 553.8 L 247.0 552.8 L 245.6 552.2 L 244.6 552.1 L 241.3 554.1 L 240.0 556.2 L 239.6 558.0 L 239.5 562.3 L 240.1 566.0 L 242.4 575.0 L 242.7 579.9 L 241.5 586.0 L 243.1 589.7 L 245.0 591.3 L 249.2 592.9 L 250.9 594.0 L 252.7 593.9 L 253.2 594.3 L 253.0 595.1 L 251.9 596.6 L 252.0 598.3 L 255.2 598.8 L 258.5 598.4 L 262.0 597.7 L 262.8 596.6 L 262.8 594.2 L 258.7 593.7 L 259.3 592.9 L 262.4 591.9 L 266.4 590.3 L 268.5 590.0 L 269.9 591.1 L 270.9 592.0 L 272.0 594.6 L 272.8 598.0 L 272.8 602.1 L 272.3 606.0 L 271.7 607.3 L 270.7 609.0 L 263.4 611.0 L 261.4 610.5 L 259.4 607.6 L 258.9 604.6 L 257.2 602.6 L 253.7 601.0 L 250.3 601.4 L 246.8 604.2 L 243.4 605.1 L 242.2 607.7 L 250.7 611.8 L 254.7 612.9 L 256.0 612.9 L 257.3 613.4 L 256.1 615.0 L 254.9 615.9 L 248.9 618.0 L 246.2 619.5 L 243.1 622.4 L 238.8 628.6 L 237.4 630.0 L 236.8 631.6 L 236.3 635.9 L 237.7 643.1 L 236.2 646.1 L 237.1 649.4 L 236.6 651.6 L 235.1 654.8 L 229.0 659.9 L 227.9 663.6 L 230.0 665.7 L 229.9 667.6 L 229.2 669.4 L 226.6 669.4 L 217.4 668.2 L 214.1 670.1 L 210.9 672.4 L 210.1 673.5 L 209.0 674.2 L 202.6 675.4 L 201.4 676.2 L 194.6 685.0 L 191.8 690.4 L 188.3 695.8 L 187.4 698.0 L 187.2 701.2 L 187.6 704.0 L 188.1 706.1 L 189.3 708.7 L 191.9 711.8 L 204.9 724.2 L 207.6 725.3 L 221.5 726.6 L 224.6 728.3 L 226.4 731.1 L 227.1 733.5 L 226.3 739.6 L 225.4 741.5 L 223.9 743.3 L 220.6 745.5 L 216.7 746.7 L 217.8 747.5 L 219.4 747.4 L 222.9 746.7 L 224.4 747.4 L 225.5 749.8 L 223.3 750.8 L 222.7 752.0 L 221.1 753.8 L 213.1 760.8 L 208.8 762.9 L 204.8 765.8 L 199.4 768.7 L 197.3 770.3 L 194.5 773.8 L 190.2 777.5 L 185.5 785.6 L 185.3 787.2 L 186.0 788.3 L 183.4 802.4 L 182.5 804.1 L 180.6 805.9 L 175.7 808.8 L 173.3 809.2 L 170.2 807.5 L 168.4 805.7 L 166.7 802.7 L 164.6 799.5 L 164.5 800.6 L 165.2 802.5 L 164.7 804.5 L 159.3 805.4 L 157.9 806.4 L 162.8 806.0 L 166.1 806.6 L 167.4 807.3 L 168.7 808.8 L 169.8 810.6 L 168.9 811.6 L 166.2 812.5 L 162.8 814.0 L 158.8 816.8 L 156.5 820.0 L 155.6 822.3 L 154.5 826.9 L 154.2 830.0 L 152.5 832.4 L 149.8 834.5 L 150.0 835.0 L 151.8 833.9 L 153.2 833.6 L 154.4 836.4 L 156.1 842.1 L 156.8 846.0 L 156.7 847.1 L 156.2 848.7 L 152.8 849.1 L 149.8 849.1 L 147.5 849.8 L 148.7 850.5 L 150.8 850.2 L 153.6 851.9 L 156.8 851.2 L 158.2 852.3 L 159.2 853.3 L 164.1 861.5 L 168.3 866.6 L 170.4 869.6 L 169.3 870.9 L 169.0 869.1 L 166.2 868.7 L 163.6 868.2 L 159.1 866.9 L 153.1 864.9 L 147.1 864.9 L 142.3 863.2 L 137.0 861.4 L 125.8 861.2 L 116.0 861.1 L 106.0 861.0 L 99.5 860.9 L 95.2 860.9 L 94.1 860.2 L 94.5 857.9 L 92.9 856.2 L 90.6 854.1 L 87.7 852.7 L 86.3 850.7 L 84.8 848.6 L 85.7 846.6 L 87.0 841.9 L 87.0 839.9 L 85.8 838.4 L 85.4 836.3 L 85.8 835.4 L 86.9 834.6 L 87.6 831.3 L 87.1 828.0 L 86.2 825.0 L 85.1 823.7 L 83.7 823.1 L 82.6 823.0 L 80.2 824.1 L 76.3 823.8 L 75.0 824.2 L 73.1 825.4 L 70.4 827.2 L 68.9 826.5 L 68.4 824.7 L 67.4 823.1 L 66.8 821.6 L 66.3 819.3 L 65.5 816.2 L 63.9 812.6 L 61.4 809.7 L 61.3 807.1 L 60.9 803.9 L 62.1 800.7 L 61.4 798.0 L 59.8 794.9 L 60.3 791.6 L 61.8 789.8 L 62.3 787.5 L 69.3 787.1 L 69.0 784.0 L 70.1 781.5 L 71.4 779.3 L 72.5 778.2 L 75.0 777.3 L 77.9 776.0 L 79.6 774.5 L 80.4 773.2 L 80.9 771.5 L 81.0 769.6 L 80.5 765.7 L 81.0 764.5 L 82.8 762.9 L 85.9 761.5 L 87.2 757.7 L 86.5 754.5 L 84.8 751.9 L 82.6 750.7 L 82.4 748.1 L 83.4 745.5 L 84.7 742.8 L 86.2 739.7 L 86.1 737.5 L 87.4 736.3 L 91.3 733.4 L 92.6 730.6 L 93.9 729.9 L 95.5 729.5 L 95.6 728.0 L 94.5 726.4 L 94.3 724.5 L 94.4 722.3 L 94.7 719.4 L 96.5 718.3 L 99.2 715.9 L 99.9 714.5 L 100.0 712.4 L 99.2 708.3 L 98.5 705.4 L 98.2 704.3 L 97.0 702.3 L 96.1 701.0 L 97.5 699.4 L 100.2 697.7 L 101.3 695.3 L 100.3 693.3 L 98.8 692.2 L 98.3 689.0 L 98.9 685.0 L 100.0 683.8 L 104.0 683.2 L 104.3 681.2 L 107.4 678.3 L 107.3 675.5 L 105.3 673.8 L 103.5 671.0 L 102.1 668.6 L 97.5 667.3 L 92.6 666.5 L 91.9 664.2 L 92.1 662.9 L 94.4 663.4 L 98.1 663.0 L 100.9 662.9 L 102.9 662.6 L 105.1 662.3 L 107.2 663.3 L 109.2 662.7 L 110.1 659.0 L 111.4 657.1 L 111.6 655.3 L 110.3 653.8 L 107.9 653.4 L 97.3 652.2 L 97.0 650.8 L 97.1 648.3 L 97.5 645.9 L 97.5 644.6 L 98.4 643.6 L 99.5 641.3 L 100.3 639.8 L 99.5 637.8 L 97.9 635.0 L 99.1 633.6 L 99.2 632.0 L 98.8 630.5 L 97.0 628.8 L 95.5 626.4 L 95.5 623.8 L 97.3 623.2 L 98.5 622.4 L 98.8 620.8 L 98.1 618.9 L 95.6 618.3 L 92.3 617.1 L 91.3 616.1 L 90.4 614.0 L 91.1 608.2 L 90.7 604.7 L 90.4 602.7 L 91.2 601.2 L 92.3 599.9 L 91.8 596.7 L 90.8 595.1 L 91.2 593.8 L 92.1 592.5 L 92.9 590.9 L 93.6 590.6 L 94.7 591.5 L 96.4 590.9 L 98.6 589.7 L 98.8 588.2 L 98.4 586.0 L 96.8 580.6 L 95.4 577.3 L 95.7 576.1 L 96.2 574.8 L 95.8 570.2 L 95.9 567.5 L 96.0 559.3 L 96.2 556.5 L 94.7 553.7 L 94.9 551.0 L 96.0 549.0 L 96.9 546.4 L 97.6 544.1 L 98.4 543.0 L 99.7 542.5 L 100.0 541.2 L 99.4 540.2 L 97.7 538.7 L 97.4 536.9 L 97.7 535.4 L 98.5 534.6 L 99.8 534.6 L 100.7 532.6 L 101.0 530.1 L 101.2 528.9 L 100.5 527.4 L 99.9 524.0 L 99.4 522.0 L 100.0 521.2 L 100.8 520.9 L 102.3 521.3 L 103.3 521.1 L 103.5 520.1 L 103.6 518.9 L 104.0 518.2 L 104.9 515.6 L 105.8 512.5 L 106.1 510.2 L 105.7 504.2 L 106.2 502.8 L 107.3 501.5 L 108.7 500.3 L 110.6 499.4 L 112.9 497.9 L 115.8 497.4 L 117.0 495.8 L 117.8 493.7 L 118.1 492.0 L 116.9 490.8 L 115.5 489.4 L 114.8 485.8 L 114.4 482.5 L 114.2 478.3 L 112.8 474.7 L 111.2 470.6 L 110.8 467.0 L 111.3 465.1 L 111.9 461.9 L 111.3 460.5 L 110.5 458.0 L 111.3 456.0 L 112.3 452.9 L 112.2 451.3 L 111.4 447.5 L 110.7 445.4 L 111.4 443.2 L 112.5 441.1 L 113.4 440.0 L 113.2 438.2 L 113.6 436.7 L 115.3 435.7 L 116.8 433.8 L 117.9 433.6 L 119.3 433.6 L 120.2 433.1 L 120.5 431.6 L 120.7 430.1 L 122.9 428.1 L 124.1 426.3 L 126.4 425.9 L 127.5 424.0 L 127.5 421.5 L 127.3 419.0 L 128.0 416.0 L 127.2 411.6 L 127.3 409.2 L 126.4 407.3 L 126.6 405.2 L 126.1 403.8 L 124.8 403.3 L 124.3 401.6 L 124.9 400.8 L 126.2 400.2 L 127.8 398.9 L 128.9 392.7 L 129.5 390.9 L 130.0 388.7 L 130.0 387.5 L 130.7 385.9 L 131.6 383.4 L 133.1 381.0 L 134.0 379.3 L 134.8 377.0 L 135.0 375.7 L 136.1 375.0 L 137.3 374.8 L 138.7 374.4 L 139.3 373.6 L 139.2 372.4 L 139.1 369.7 L 138.7 365.5 L 138.4 360.1 L 138.6 356.5 L 139.6 352.9 L 140.5 350.9 L 140.2 349.4 L 140.0 347.8 L 138.4 346.9 L 136.8 347.7 L 135.7 347.5 L 134.3 345.5 L 133.9 343.5 L 134.2 340.7 L 135.2 339.0 L 135.7 336.8 L 135.0 336.2 L 133.7 334.7 L 132.4 329.8 L 132.5 325.5 L 131.2 324.4 L 130.6 321.1 L 129.3 319.9 L 128.8 317.4 L 128.4 314.9 L 128.6 313.7 L 129.9 313.4 L 130.7 311.4 L 130.1 310.3 L 129.1 309.3 L 127.7 309.4 L 126.5 308.2 L 124.9 303.4 L 123.7 300.8 L 124.1 296.9 L 124.3 293.9 L 124.9 291.3 L 125.1 289.2 L 126.0 288.2 L 127.0 288.7 L 127.9 288.5 L 128.7 286.8 L 129.5 285.8 L 129.5 285.0 L 129.0 284.1 L 128.7 282.5 L 129.3 280.6 L 130.4 276.3 L 132.0 271.6 L 132.7 269.8 L 132.5 268.3 L 132.9 267.6 L 134.0 268.4 L 137.1 267.6 L 138.1 265.5 L 138.5 263.6 L 139.5 262.5 L 139.1 261.0 L 137.8 260.6 L 137.0 259.9 L 137.3 258.2 L 137.8 254.3 L 137.7 251.4 L 136.5 245.3 L 135.6 239.2 L 136.2 237.2 L 138.3 234.4 L 139.8 233.1 L 140.1 231.5 L 141.6 224.4 L 141.8 220.5 L 142.8 218.3 L 143.5 214.2 L 146.2 210.7 L 147.0 208.4 L 148.2 208.2 L 148.7 207.4 L 150.2 204.8 L 152.1 202.1 L 153.8 200.8 L 154.2 198.7 L 154.9 195.8 L 156.6 191.1 L 157.5 187.8 L 158.7 186.6 L 160.1 182.2 L 160.8 179.7 L 162.4 178.6 L 163.7 178.3 L 164.9 179.5 L 166.2 179.3 L 167.3 177.8 L 170.2 176.8 L 171.4 176.2 L 172.0 174.7 L 172.0 172.1 L 170.8 170.1 L 168.5 166.4 L 166.4 162.2 L 166.2 160.9 L 166.2 159.5 L 166.5 157.7 L 167.5 155.6 L 170.0 152.2 L 169.7 149.8 L 167.9 140.9 L 167.2 138.5 L 166.0 133.9 L 166.2 132.1 L 167.3 127.1 L 168.2 125.1 L 169.6 124.7 L 170.4 124.0 L 170.6 123.1 L 169.7 122.0 L 169.3 120.6 L 168.9 118.5 L 167.6 117.8 L 166.8 116.1 L 166.8 113.7 L 168.0 110.4 L 169.3 109.5 L 169.8 108.1 L 171.2 106.8 L 172.4 105.8 L 173.5 103.9 L 177.8 101.6 L 181.2 99.8 L 187.9 96.4 L 192.5 94.1 L 193.0 92.5 L 193.3 91.4 L 195.5 83.1 L 198.2 72.5 L 200.0 65.8 L 196.0 60.8 L 196.7 59.5 L 199.0 56.2 L 199.4 53.4 L 200.3 52.3 L 204.4 49.5 L 205.1 47.7 L 205.5 45.7 L 206.3 44.2 L 207.8 43.9 L 210.7 42.6 L 213.7 41.4 L 214.6 39.8 L 215.5 36.9 L 216.2 33.6 L 216.8 32.9 L 217.7 33.0 L 219.4 33.8 L 220.2 35.0 L 224.5 38.8 L 226.4 41.0 L 228.2 41.3 L 231.7 40.9 L 232.5 41.0 L 241.6 41.1 L 243.0 41.3 L 246.2 42.2 L 248.0 43.0 L 249.2 43.4 L 251.2 44.6 L 253.0 48.5 L 253.9 51.6 L 254.6 54.4 L 256.2 59.2 L 257.2 61.0 L 257.6 60.1 L 258.5 54.8 L 259.7 51.8 L 261.3 48.3 L 264.7 40.3 L 265.8 39.1 L 267.1 38.5 L 268.0 38.4 L 268.9 39.0 L 270.2 39.1 L 271.1 38.4 L 279.8 38.3 L 288.8 38.2 L 289.0 38.3 L 289.4 39.7 L 290.9 42.7 L 292.6 44.3 L 292.9 44.7 L 293.5 45.5 L 293.5 46.3 L 295.3 47.9 L 298.9 50.3 L 302.2 55.1 L 305.4 62.1 L 308.3 67.4 L 311.1 70.7 L 313.6 73.1 L 316.0 74.5 L 317.2 75.6 L 317.4 76.5 L 319.5 78.3 L 323.7 81.0 L 326.3 83.7 L 327.4 86.5 L 331.6 89.3 L 338.7 92.2 L 343.9 93.5 L 347.1 93.4 L 351.8 95.7 L 357.8 100.5 L 361.5 103.8 L 362.9 105.6 L 366.8 108.6 L 376.7 114.7 L 381.1 116.3 L 383.1 117.7 L 384.3 119.5 L 385.6 120.0 L 386.7 119.3 L 389.2 120.0 L 393.0 121.9 L 395.9 124.3 L 399.7 129.6 L 400.9 131.7 L 401.5 133.6 L 401.3 135.2 L 400.1 137.0 L 398.0 138.9 L 397.4 139.7 L 397.3 140.5 L 396.8 142.1 L 395.0 145.5 L 394.6 147.0 L 394.5 148.2 L 393.4 149.5 L 390.4 151.8 L 389.8 153.0 L 389.6 154.2 L 389.2 154.9 L 388.8 155.2 L 388.3 156.4 L 387.8 158.5 L 387.8 161.1 L 388.1 164.3 L 388.1 165.3 L 387.4 165.8 L 387.0 166.6 L 386.9 168.1 L 386.3 169.2 L 385.4 169.8 L 385.0 170.6 L 385.3 171.5 L 384.5 172.4 L 382.8 173.3 L 381.8 174.6 L 381.4 176.3 L 380.5 177.7 L 378.9 179.1 L 378.5 180.8 L 379.2 184.1 L 388.6 182.9 L 396.1 184.1 L 405.1 187.2 L 411.1 188.3 L 414.0 187.4 L 416.2 187.5 L 417.6 188.7 L 419.5 189.0 L 421.9 188.3 L 423.9 188.8 L 425.5 190.6 L 426.9 190.2 L 428.2 187.5 L 429.7 185.5 L 431.3 184.3 L 433.4 183.9 L 435.8 184.4 L 437.8 185.4 L 439.3 186.9 L 440.9 186.8 L 442.6 185.2 L 443.5 183.3 L 443.4 181.1 L 444.1 179.6 L 445.5 178.6 L 446.5 177.3 L 447.0 175.7 L 448.8 174.7 L 451.7 174.3 L 453.2 173.6 L 453.4 172.3 L 454.2 171.2 L 455.9 170.1 L 456.9 168.8 L 457.5 167.3 L 458.5 166.3 L 459.9 165.9 L 461.4 162.6 L 463.0 156.5 L 464.0 148.2 L 464.3 136.4 L 466.0 136.4 L 466.8 137.3 L 468.0 137.7 L 469.3 136.7 L 470.4 136.3 L 472.1 136.2 L 473.1 135.1 L 474.2 134.9 L 474.9 135.5 L 475.7 136.3 L 477.2 136.4 L 478.4 138.3 L 479.8 138.9 L 480.4 141.1 L 481.2 146.9 L 482.9 150.3 L 484.5 154.2 L 484.5 155.9 L 483.6 157.7 L 483.5 160.2 L 482.9 166.3 L 482.7 168.5 L 483.3 170.1 L 483.5 172.2 L 482.6 174.8 L 480.9 178.8 L 479.3 179.8 L 478.9 179.9 L 476.6 182.1 L 475.0 183.0 L 474.1 182.4 L 473.1 183.4 L 471.9 185.9 L 470.5 187.1 L 467.9 187.7 L 467.1 188.0 L 465.6 187.9 L 464.3 188.5 L 463.3 189.9 L 462.1 190.4 L 460.9 190.0 L 459.8 190.5 L 458.8 191.9 L 458.2 193.3 L 458.1 194.9 L 457.1 195.9 L 455.3 196.5 L 454.7 197.3 L 454.8 198.4 L 454.0 199.2 L 450.9 200.1 L 448.7 201.7 L 447.4 203.9 L 446.0 205.3 L 443.7 206.2 L 440.7 208.5 L 440.2 209.9 L 441.4 211.2 L 441.8 212.3 L 441.5 213.3 L 440.5 213.5 L 438.9 212.7 L 437.8 212.6 L 437.1 213.0 L 436.8 213.8 L 436.9 215.0 L 436.3 215.8 L 435.1 216.3 L 434.4 217.3 L 434.1 218.8 L 432.6 220.7 L 430.0 223.1 L 427.9 226.3 L 426.4 230.2 L 424.7 232.8 L 422.6 234.1 L 421.2 235.9 L 420.5 238.2 L 418.3 241.8 L 414.8 246.6 L 411.6 249.9 L 408.7 251.8 L 407.1 253.8 L 406.7 256.1 L 404.8 258.7 L 401.4 261.6 L 400.5 262.9 Z M 309.5 509.3 L 309.7 511.0 L 308.6 510.8 L 305.9 509.2 L 305.0 507.6 L 304.8 506.9 L 307.5 507.7 L 308.8 508.3 L 309.5 509.3 Z" fill="#cfe3bf" stroke="#ffffff" stroke-width="2.2" stroke-linejoin="round"/>
<text x="382.6" y="95.3" text-anchor="middle" dominant-baseline="middle" font-family="Arial, Helvetica, sans-serif" font-size="30" font-weight="700" fill="#171717" stroke="#ffffff" stroke-width="5" paint-order="stroke">Paraguay</text>
<text x="107.2" y="384.0" text-anchor="middle" dominant-baseline="middle" font-family="Arial, Helvetica, sans-serif" font-size="30" font-weight="700" fill="#171717" stroke="#ffffff" stroke-width="5" paint-order="stroke">Chile</text>
<text x="409.4" y="180.2" text-anchor="middle" dominant-baseline="middle" font-family="Arial, Helvetica, sans-serif" font-size="30" font-weight="700" fill="#171717" stroke="#ffffff" stroke-width="5" paint-order="stroke">Brazil</text>
<text x="273.3" y="46.0" text-anchor="middle" dominant-baseline="middle" font-family="Arial, Helvetica, sans-serif" font-size="23" font-weight="700" fill="#171717" stroke="#ffffff" stroke-width="5" paint-order="stroke">Bolivia</text>
<text x="412.0" y="332.0" text-anchor="middle" dominant-baseline="middle" font-family="Arial, Helvetica, sans-serif" font-size="34" font-weight="800" fill="#171717" stroke="#ffffff" stroke-width="5" paint-order="stroke">Argentina</text>
<circle cx="384.0" cy="384.0" r="14" fill="#df3f32" stroke="#ffffff" stroke-width="5"/>
<circle cx="384.0" cy="384.0" r="22" fill="none" stroke="#df3f32" stroke-opacity="0.35" stroke-width="7"/>
</svg>