<svg xmlns="http://www.w3.org/2000/svg" viewBox="0 0 768 768" width="768" height="768" role="img" aria-label="Approximate country map for Madrid, Spain">
<rect width="768" height="768" fill="#a9cfe0"/>
<path d="M 748.6 336.6 L 748.4 336.6 L 748.4 336.5 L 748.4 336.4 L 748.6 336.3 L 748.6 336.6 Z" fill="#cfe3bf" stroke="#ffffff" stroke-width="2.2" stroke-linejoin="round"/>
<path d="M 422.1 101.9 L 422.3 103.6 L 421.3 103.9 L 420.4 103.3 L 418.7 103.3 L 417.2 103.7 L 417.5 100.8 L 420.6 101.2 L 422.1 101.9 Z" fill="#cfe3bf" stroke="#ffffff" stroke-width="2.2" stroke-linejoin="round"/>
<path d="M 410.9 93.5 L 410.1 95.6 L 408.1 94.9 L 407.9 94.4 L 410.2 93.1 L 410.7 93.1 L 410.9 93.5 Z" fill="#cfe3bf" stroke="#ffffff" stroke-width="2.2" stroke-linejoin="round"/>
<path d="M 407.4 25.4 L 405.7 26.7 L 400.4 28.1 L 398.1 29.5 L 394.1 32.6 L 393.3 32.8 L 387.2 32.1 L 382.7 28.1 L 379.8 26.4 L 378.6 26.2 L 377.3 26.7 L 374.7 27.2 L 372.0 27.1 L 373.4 25.3 L 375.3 24.2 L 371.1 23.5 L 369.9 22.9 L 368.6 21.6 L 365.3 21.4 L 363.7 21.7 L 361.1 23.5 L 356.9 25.3 L 351.9 22.8 L 350.9 21.6 L 350.9 19.5 L 350.2 17.8 L 348.8 17.2 L 350.6 14.9 L 352.7 13.5 L 357.5 12.0 L 364.6 8.5 L 368.7 7.0 L 372.4 4.5 L 373.9 2.9 L 375.1 0.8 L 376.2 -1.9 L 377.8 -4.0 L 376.2 -4.5 L 375.5 -6.1 L 375.7 -7.7 L 376.4 -9.2 L 375.8 -11.0 L 374.7 -12.9 L 374.7 -14.4 L 375.0 -16.0 L 372.1 -15.9 L 369.3 -15.4 L 366.7 -14.3 L 364.1 -12.7 L 361.9 -12.5 L 361.9 -13.7 L 362.9 -15.2 L 365.4 -17.3 L 368.2 -19.1 L 369.1 -20.5 L 369.9 -22.0 L 371.2 -23.3 L 374.8 -25.7 L 381.6 -28.3 L 382.6 -28.5 L 385.3 -28.2 L 387.9 -28.6 L 390.2 -29.6 L 392.5 -29.8 L 397.7 -27.0 L 396.2 -31.3 L 398.4 -32.3 L 401.7 -28.4 L 403.0 -28.0 L 405.6 -28.6 L 404.6 -29.2 L 403.4 -29.3 L 401.9 -29.9 L 400.6 -31.1 L 398.4 -35.1 L 398.6 -37.4 L 400.0 -39.9 L 401.6 -42.1 L 400.3 -42.6 L 399.2 -43.4 L 398.9 -45.7 L 399.3 -47.7 L 402.2 -49.4 L 403.0 -52.1 L 403.4 -55.0 L 402.9 -56.3 L 400.0 -56.1 L 398.7 -55.6 L 397.4 -54.7 L 396.1 -54.8 L 392.6 -58.0 L 390.6 -60.4 L 387.0 -65.6 L 386.5 -68.7 L 389.4 -75.4 L 393.8 -79.7 L 399.1 -81.2 L 398.1 -81.4 L 390.1 -81.5 L 387.5 -81.0 L 385.0 -79.2 L 383.7 -78.7 L 382.2 -78.5 L 380.9 -77.6 L 379.6 -76.4 L 378.3 -75.7 L 375.6 -75.9 L 374.3 -75.6 L 373.4 -76.3 L 372.6 -77.5 L 371.6 -77.8 L 370.5 -77.4 L 368.1 -75.8 L 365.6 -74.9 L 362.7 -75.9 L 358.8 -77.7 L 358.1 -77.1 L 357.2 -75.4 L 356.7 -72.7 L 354.0 -75.0 L 351.7 -78.1 L 350.9 -80.0 L 350.8 -82.2 L 352.1 -83.1 L 353.5 -82.3 L 355.5 -87.4 L 359.6 -94.2 L 361.0 -96.1 L 362.0 -98.7 L 361.9 -100.4 L 361.0 -101.8 L 357.2 -105.0 L 357.2 -107.7 L 357.6 -110.6 L 358.6 -112.4 L 359.1 -112.7 L 364.1 -112.7 L 362.2 -113.6 L 358.2 -116.3 L 358.3 -117.2 L 359.2 -119.7 L 358.8 -119.5 L 358.0 -118.3 L 356.4 -115.6 L 355.4 -114.9 L 352.6 -114.3 L 352.1 -112.9 L 351.7 -112.5 L 350.3 -112.4 L 349.9 -111.1 L 349.6 -111.0 L 349.2 -112.4 L 349.1 -114.7 L 349.7 -116.8 L 350.7 -118.4 L 354.8 -122.1 L 352.8 -121.0 L 348.3 -117.5 L 346.1 -115.3 L 345.4 -114.5 L 345.3 -113.9 L 345.3 -113.1 L 346.3 -109.1 L 346.0 -107.3 L 342.2 -95.1 L 341.4 -93.9 L 340.8 -93.3 L 340.1 -93.1 L 338.2 -93.4 L 337.4 -94.3 L 337.4 -95.3 L 337.7 -96.9 L 339.3 -102.6 L 340.0 -104.2 L 341.1 -105.7 L 343.3 -108.3 L 343.3 -108.5 L 341.8 -108.0 L 341.1 -108.2 L 340.7 -108.7 L 341.0 -116.4 L 342.2 -119.0 L 342.6 -122.7 L 343.7 -125.9 L 344.9 -128.2 L 345.9 -131.1 L 347.3 -132.5 L 347.7 -134.5 L 349.2 -136.6 L 350.5 -138.9 L 349.8 -138.7 L 342.0 -132.8 L 340.0 -131.7 L 337.3 -132.0 L 335.2 -132.6 L 333.6 -134.0 L 332.8 -136.7 L 330.8 -136.8 L 329.1 -137.3 L 329.1 -137.6 L 331.3 -139.1 L 334.9 -139.6 L 338.2 -142.0 L 335.3 -143.5 L 335.5 -144.1 L 338.1 -145.4 L 341.4 -149.9 L 342.0 -154.1 L 340.5 -156.1 L 339.9 -157.4 L 336.8 -158.8 L 336.2 -160.6 L 336.6 -161.6 L 337.6 -162.6 L 339.2 -163.4 L 341.6 -164.2 L 339.4 -165.0 L 338.6 -165.9 L 338.0 -167.3 L 337.9 -168.0 L 339.0 -171.6 L 339.7 -173.0 L 341.0 -174.9 L 346.8 -174.8 L 347.5 -175.6 L 348.2 -175.6 L 351.2 -174.9 L 350.7 -175.7 L 345.8 -180.1 L 345.4 -180.9 L 346.8 -183.3 L 346.9 -184.3 L 346.7 -185.4 L 347.1 -186.3 L 348.6 -186.7 L 353.4 -186.7 L 354.5 -187.1 L 354.0 -188.2 L 352.9 -189.7 L 352.7 -191.0 L 352.9 -192.1 L 353.0 -194.3 L 353.2 -195.3 L 354.3 -196.8 L 355.3 -197.2 L 356.4 -197.5 L 359.0 -197.0 L 360.0 -196.4 L 361.1 -195.0 L 362.0 -195.1 L 365.2 -196.6 L 366.2 -196.9 L 367.5 -195.1 L 373.0 -196.5 L 380.5 -197.1 L 384.9 -198.1 L 389.7 -198.4 L 394.0 -199.5 L 398.7 -199.0 L 398.9 -198.4 L 398.6 -197.5 L 397.4 -195.2 L 397.6 -192.5 L 397.3 -191.7 L 396.8 -190.8 L 395.1 -188.9 L 390.6 -186.3 L 382.4 -180.3 L 377.5 -177.4 L 376.9 -175.9 L 376.5 -173.9 L 379.4 -173.5 L 380.5 -172.9 L 379.8 -171.8 L 375.5 -168.3 L 374.3 -165.1 L 377.6 -165.3 L 380.3 -165.9 L 385.7 -167.9 L 390.8 -169.3 L 393.2 -169.4 L 398.0 -168.2 L 399.1 -168.2 L 401.1 -168.7 L 403.1 -168.8 L 417.0 -168.4 L 420.8 -169.1 L 423.4 -168.3 L 425.5 -166.3 L 427.5 -162.5 L 427.4 -161.8 L 426.2 -160.1 L 424.0 -157.9 L 422.0 -154.9 L 421.5 -153.3 L 421.1 -151.6 L 420.5 -149.9 L 416.6 -142.3 L 412.8 -138.0 L 411.2 -135.0 L 409.1 -132.6 L 407.1 -131.1 L 405.0 -130.1 L 398.8 -129.0 L 397.1 -128.3 L 395.1 -126.9 L 392.9 -126.3 L 395.4 -126.4 L 397.9 -127.1 L 402.5 -127.4 L 407.7 -124.8 L 407.3 -122.8 L 405.1 -121.1 L 400.4 -120.9 L 395.9 -117.2 L 393.8 -116.1 L 391.7 -115.5 L 389.0 -115.7 L 384.2 -116.7 L 382.1 -117.7 L 384.0 -116.0 L 386.2 -115.2 L 398.8 -113.1 L 399.6 -113.3 L 403.6 -115.5 L 408.9 -115.5 L 419.2 -111.6 L 422.1 -108.5 L 426.3 -104.2 L 428.6 -102.5 L 430.3 -100.9 L 431.3 -98.6 L 433.3 -91.0 L 435.5 -83.5 L 438.5 -75.4 L 439.8 -73.2 L 441.6 -71.6 L 450.5 -68.0 L 452.5 -66.8 L 456.0 -63.3 L 459.3 -59.6 L 462.4 -56.7 L 465.8 -54.4 L 464.1 -53.2 L 463.0 -51.4 L 463.9 -48.8 L 465.2 -46.3 L 467.9 -42.4 L 470.3 -38.2 L 469.4 -38.8 L 468.5 -39.2 L 467.2 -39.1 L 466.0 -39.3 L 463.7 -40.6 L 461.6 -42.2 L 457.2 -41.6 L 454.8 -41.9 L 452.8 -41.8 L 456.7 -40.9 L 461.0 -40.8 L 470.6 -33.6 L 473.8 -29.4 L 475.7 -23.8 L 474.4 -21.3 L 472.4 -19.6 L 470.5 -17.8 L 468.7 -15.6 L 474.0 -12.5 L 475.1 -12.6 L 476.3 -13.1 L 477.4 -14.1 L 479.3 -16.7 L 480.3 -17.6 L 483.6 -17.9 L 486.3 -17.7 L 489.1 -17.2 L 491.5 -17.3 L 496.4 -16.2 L 498.9 -15.3 L 505.1 -10.8 L 506.4 -8.3 L 507.0 -5.2 L 507.1 -1.7 L 506.1 1.5 L 504.9 4.4 L 504.1 8.2 L 503.6 9.5 L 502.9 10.6 L 499.6 13.5 L 497.4 14.7 L 496.5 14.2 L 495.5 14.3 L 495.4 15.0 L 496.4 16.5 L 496.4 18.3 L 494.5 19.6 L 492.5 20.2 L 489.2 19.5 L 484.7 22.0 L 487.9 23.3 L 488.6 24.6 L 487.8 27.1 L 485.7 28.1 L 483.4 28.6 L 481.1 28.7 L 479.1 29.3 L 477.3 30.4 L 479.6 29.8 L 481.2 30.4 L 482.2 32.4 L 483.2 33.0 L 487.8 33.8 L 490.6 33.8 L 496.1 33.3 L 498.7 33.3 L 499.6 33.7 L 499.6 35.4 L 499.2 39.5 L 498.5 40.4 L 491.3 43.8 L 489.8 46.2 L 489.4 47.7 L 485.1 47.5 L 483.1 49.0 L 479.7 50.0 L 477.0 51.1 L 474.4 52.5 L 472.3 52.9 L 463.1 51.3 L 457.5 51.4 L 449.9 52.8 L 448.0 52.6 L 445.1 51.2 L 442.1 50.3 L 438.6 49.9 L 435.7 48.6 L 437.5 51.1 L 433.4 53.4 L 431.5 53.9 L 429.5 53.8 L 425.5 54.5 L 421.8 54.1 L 422.3 55.8 L 423.3 57.2 L 422.5 57.9 L 421.7 58.0 L 414.6 56.9 L 413.6 57.1 L 412.7 58.2 L 410.1 57.6 L 407.6 55.9 L 404.9 54.8 L 402.1 54.2 L 399.9 54.4 L 390.8 57.1 L 388.9 59.8 L 388.0 63.6 L 386.7 67.0 L 384.5 69.7 L 382.0 70.0 L 379.6 68.2 L 375.0 66.2 L 373.4 64.8 L 372.9 64.8 L 372.4 65.2 L 370.6 65.8 L 368.7 65.9 L 365.9 66.4 L 360.9 68.0 L 358.8 69.1 L 354.5 72.2 L 353.6 73.0 L 352.0 76.1 L 349.6 76.7 L 347.4 74.7 L 344.9 74.0 L 342.3 74.7 L 340.7 75.7 L 339.9 74.9 L 339.9 73.1 L 341.8 71.0 L 347.0 69.5 L 351.5 65.4 L 353.7 62.9 L 354.6 61.5 L 355.7 60.6 L 357.1 60.3 L 357.9 58.7 L 364.1 52.5 L 364.7 51.1 L 365.0 48.5 L 365.5 46.1 L 370.6 44.5 L 373.1 39.3 L 373.7 38.9 L 380.9 37.9 L 386.2 38.0 L 391.4 39.0 L 394.1 39.1 L 396.8 38.8 L 398.9 37.4 L 402.6 32.4 L 404.6 30.1 L 407.0 28.1 L 409.2 25.9 L 412.7 21.6 L 410.3 23.1 L 407.4 25.4 Z M 443.6 55.3 L 441.7 56.4 L 441.1 57.7 L 440.6 58.2 L 439.4 58.5 L 438.2 58.5 L 433.4 55.9 L 432.3 56.0 L 433.4 54.8 L 436.4 53.9 L 438.0 52.6 L 441.8 53.8 L 443.6 55.3 Z" fill="#cfe3bf" stroke="#ffffff" stroke-width="2.2" stroke-linejoin="round"/>
<path d="M 727.5 615.5 L 727.5 616.4 L 726.7 622.4 L 726.5 624.6 L 726.4 628.3 L 726.4 632.8 L 728.2 636.5 L 728.2 638.2 L 727.5 640.1 L 724.2 642.3 L 719.9 645.1 L 716.2 647.8 L 712.2 650.8 L 711.0 652.7 L 709.0 654.1 L 707.3 655.6 L 707.0 657.0 L 705.8 659.7 L 704.3 661.8 L 700.5 662.8 L 699.7 663.4 L 698.0 666.6 L 697.2 667.9 L 696.1 670.5 L 697.4 677.3 L 699.0 684.3 L 699.4 687.2 L 699.3 689.7 L 698.4 692.3 L 696.4 696.0 L 694.9 698.8 L 692.0 703.7 L 691.2 704.9 L 689.2 706.4 L 685.4 708.3 L 682.7 710.0 L 681.3 702.4 L 680.1 696.0 L 679.2 690.7 L 677.5 681.3 L 676.0 673.4 L 674.6 665.5 L 673.3 658.3 L 672.0 651.0 L 671.4 650.0 L 667.4 646.6 L 663.8 643.4 L 660.0 639.8 L 655.9 635.9 L 655.2 631.1 L 653.1 623.7 L 650.9 619.6 L 650.1 618.5 L 645.6 615.8 L 643.0 613.9 L 642.3 612.7 L 641.8 609.7 L 640.0 603.8 L 637.9 598.4 L 637.1 594.7 L 637.0 590.1 L 637.4 586.8 L 638.3 585.3 L 642.7 581.2 L 644.7 576.2 L 647.2 574.3 L 649.4 572.9 L 651.2 571.3 L 652.7 568.7 L 653.9 565.8 L 654.1 562.8 L 654.6 558.0 L 655.4 554.6 L 657.3 550.8 L 656.5 547.8 L 655.5 544.4 L 655.8 538.7 L 655.6 536.4 L 654.8 534.3 L 653.9 531.7 L 653.9 529.5 L 654.7 523.7 L 655.3 519.3 L 656.2 513.6 L 655.9 512.0 L 655.2 510.8 L 653.1 509.5 L 653.1 508.7 L 653.6 507.9 L 656.7 505.1 L 658.4 501.0 L 659.8 500.1 L 661.9 498.7 L 661.9 497.1 L 661.4 495.3 L 667.0 493.4 L 672.3 488.4 L 674.2 487.1 L 686.5 482.4 L 688.1 482.8 L 689.9 483.5 L 689.4 485.2 L 688.7 486.6 L 689.7 489.0 L 691.2 487.5 L 690.8 486.5 L 690.7 485.2 L 693.3 485.1 L 695.5 485.3 L 698.0 486.8 L 697.8 492.3 L 701.1 497.6 L 700.2 500.3 L 702.9 501.9 L 705.2 500.0 L 706.4 497.2 L 710.9 495.6 L 715.0 491.4 L 717.4 491.0 L 717.9 494.4 L 719.0 497.4 L 717.4 498.4 L 715.4 501.6 L 711.6 509.6 L 708.1 511.9 L 705.4 515.0 L 704.6 517.2 L 704.3 519.7 L 705.0 524.3 L 706.9 528.9 L 709.1 531.8 L 711.2 532.6 L 716.2 537.1 L 716.1 539.7 L 716.8 542.8 L 717.1 546.6 L 718.8 549.6 L 715.1 556.3 L 713.1 561.0 L 709.2 567.6 L 705.6 571.9 L 698.1 578.3 L 696.2 580.4 L 695.0 582.6 L 694.4 584.8 L 694.7 587.5 L 697.1 594.1 L 700.4 598.0 L 703.8 600.1 L 709.7 599.3 L 709.5 601.8 L 709.9 604.9 L 712.3 604.7 L 713.8 604.3 L 715.2 601.3 L 718.0 603.3 L 719.5 609.5 L 721.9 611.5 L 722.2 612.2 L 721.4 612.6 L 720.7 613.4 L 721.4 613.9 L 723.8 614.6 L 725.2 614.1 L 727.5 615.5 Z M 722.4 565.2 L 718.9 567.5 L 719.6 565.5 L 721.9 563.1 L 722.5 563.7 L 722.4 565.2 Z M 715.2 598.2 L 714.6 598.4 L 713.5 599.3 L 712.9 599.3 L 711.3 598.4 L 710.6 598.4 L 709.9 597.7 L 710.1 594.0 L 710.4 592.9 L 714.4 592.8 L 716.5 595.0 L 716.9 595.6 L 717.0 596.2 L 716.0 597.5 L 715.2 598.2 Z" fill="#cfe3bf" stroke="#ffffff" stroke-width="2.2" stroke-linejoin="round"/>
<path d="M 682.8 156.6 L 683.5 157.0 L 685.1 158.4 L 684.7 160.8 L 682.9 164.7 L 681.9 167.8 L 681.8 170.2 L 682.0 171.3 L 682.3 171.3 L 684.1 171.5 L 685.0 171.5 L 687.8 172.2 L 690.1 173.1 L 690.5 174.1 L 690.8 175.3 L 693.5 177.0 L 696.6 178.1 L 697.6 177.7 L 701.4 173.8 L 702.9 174.5 L 703.8 176.6 L 703.8 177.7 L 702.7 181.8 L 702.5 184.1 L 703.4 185.5 L 703.5 186.7 L 703.3 187.7 L 701.7 187.8 L 699.7 187.3 L 698.0 185.5 L 696.7 185.7 L 695.5 186.1 L 694.9 187.8 L 694.4 189.9 L 694.6 191.0 L 695.4 191.9 L 696.0 193.7 L 696.5 196.1 L 696.8 197.2 L 696.4 197.7 L 695.4 198.0 L 694.5 197.7 L 692.9 194.9 L 692.2 193.8 L 690.9 193.6 L 688.8 194.3 L 685.4 195.9 L 684.0 195.9 L 682.9 195.5 L 681.8 194.2 L 680.9 191.6 L 680.6 189.9 L 680.0 190.0 L 677.8 189.5 L 676.8 190.1 L 676.8 192.8 L 676.6 196.2 L 675.6 198.3 L 672.6 202.1 L 671.5 203.7 L 671.0 204.9 L 670.9 205.9 L 671.4 207.6 L 672.0 209.3 L 671.5 210.3 L 669.9 210.8 L 668.8 209.8 L 668.4 207.9 L 665.9 205.5 L 667.0 203.4 L 666.9 202.9 L 662.9 201.8 L 661.1 200.2 L 658.7 197.5 L 658.3 196.3 L 658.4 192.4 L 658.2 191.5 L 657.9 191.1 L 656.7 191.1 L 655.1 192.4 L 653.6 194.4 L 650.5 196.7 L 650.2 197.1 L 651.2 199.3 L 651.2 200.2 L 648.7 203.7 L 648.2 204.8 L 645.0 207.0 L 643.6 207.8 L 639.2 206.2 L 637.9 206.0 L 636.0 207.1 L 633.2 208.1 L 628.7 209.2 L 627.0 208.4 L 626.3 207.7 L 625.9 206.7 L 624.7 204.8 L 623.5 203.7 L 622.6 202.5 L 621.4 201.2 L 620.6 200.1 L 621.6 196.5 L 620.9 195.3 L 620.5 193.5 L 620.7 192.3 L 620.3 192.0 L 616.3 191.3 L 612.9 191.6 L 610.5 192.7 L 608.5 194.7 L 608.3 195.1 L 608.4 195.5 L 609.4 197.3 L 607.7 199.2 L 605.1 200.6 L 603.3 200.8 L 602.5 200.5 L 602.5 198.5 L 604.0 197.7 L 605.4 196.4 L 605.8 194.5 L 606.0 193.2 L 604.6 191.6 L 604.7 190.7 L 605.6 188.8 L 606.1 187.2 L 606.8 185.8 L 609.6 183.5 L 612.5 181.2 L 612.9 178.7 L 613.1 175.7 L 613.5 175.0 L 617.3 173.2 L 618.3 172.5 L 618.7 171.5 L 621.7 168.1 L 624.7 164.8 L 625.3 163.7 L 625.8 163.0 L 625.8 162.5 L 625.4 162.1 L 624.0 161.8 L 623.5 160.7 L 625.1 158.8 L 627.0 157.7 L 628.9 157.7 L 629.6 158.2 L 629.6 158.8 L 630.4 159.5 L 631.8 159.7 L 633.5 159.5 L 635.3 158.8 L 636.3 157.1 L 637.0 155.8 L 639.7 154.4 L 641.5 155.1 L 646.7 155.3 L 650.5 154.9 L 652.8 153.9 L 655.8 153.9 L 657.7 154.5 L 658.1 154.4 L 658.6 154.3 L 659.2 153.7 L 661.0 153.4 L 661.3 152.9 L 661.2 152.5 L 660.8 152.2 L 658.6 152.5 L 657.7 152.1 L 657.5 151.3 L 658.2 149.9 L 659.9 148.8 L 661.3 148.5 L 662.3 148.8 L 664.8 150.9 L 665.4 151.0 L 665.8 150.6 L 666.3 150.4 L 667.1 150.8 L 668.1 152.1 L 668.3 152.3 L 673.8 151.9 L 675.1 151.9 L 678.9 154.2 L 682.8 156.6 Z" fill="#cfe3bf" stroke="#ffffff" stroke-width="2.2" stroke-linejoin="round"/>
<path d="M 503.7 439.8 L 503.2 440.3 L 501.7 439.9 L 499.4 439.9 L 499.3 438.6 L 499.7 437.7 L 500.1 436.8 L 501.5 438.6 L 503.6 438.9 L 503.7 439.8 Z M 538.7 404.1 L 540.9 405.1 L 543.2 404.2 L 544.4 404.5 L 545.6 405.0 L 545.9 407.0 L 544.8 409.3 L 543.3 411.6 L 542.0 414.1 L 541.0 417.0 L 538.9 418.7 L 537.1 419.7 L 533.2 417.6 L 530.9 417.0 L 530.2 416.2 L 529.7 413.0 L 528.7 412.0 L 527.2 411.5 L 525.8 412.4 L 524.1 414.0 L 523.2 412.4 L 521.7 412.0 L 521.2 411.0 L 521.2 409.7 L 530.6 402.0 L 533.3 400.3 L 539.0 398.3 L 539.9 398.6 L 539.1 399.8 L 539.2 400.3 L 539.9 400.9 L 539.7 401.8 L 539.0 402.6 L 538.7 404.1 Z M 564.6 402.4 L 564.2 402.8 L 557.3 399.1 L 555.0 398.7 L 554.5 398.1 L 554.5 396.2 L 554.7 395.3 L 559.4 394.9 L 563.1 396.3 L 565.1 400.0 L 565.3 400.6 L 564.6 402.4 Z M 500.3 431.9 L 499.5 433.9 L 496.1 433.2 L 495.3 432.4 L 496.0 430.2 L 497.0 429.9 L 497.1 428.3 L 498.1 426.8 L 503.0 425.5 L 504.1 426.5 L 504.3 428.1 L 501.4 431.5 L 500.3 431.9 Z M 427.1 288.3 L 427.2 289.4 L 428.1 290.9 L 429.0 291.5 L 430.9 292.3 L 432.4 292.4 L 434.4 292.8 L 435.8 293.7 L 435.9 295.0 L 435.5 296.6 L 434.7 298.0 L 434.2 299.1 L 434.7 299.7 L 435.4 300.2 L 436.2 300.3 L 436.7 300.1 L 437.1 299.3 L 437.9 298.2 L 438.3 298.1 L 438.3 298.7 L 438.6 299.4 L 441.1 300.7 L 446.6 303.0 L 448.7 303.0 L 450.4 303.3 L 450.9 304.2 L 454.4 307.8 L 455.2 307.7 L 456.8 307.8 L 458.7 307.5 L 460.0 306.8 L 460.9 306.9 L 461.9 307.6 L 463.0 308.2 L 464.5 309.4 L 465.8 310.8 L 466.7 311.3 L 472.2 310.3 L 473.4 311.2 L 474.7 311.2 L 476.2 310.9 L 479.4 311.4 L 481.9 311.3 L 482.2 310.9 L 482.4 307.7 L 482.8 306.6 L 483.4 306.3 L 484.9 306.5 L 490.5 308.4 L 492.8 309.6 L 495.0 310.5 L 496.9 310.6 L 498.1 311.2 L 499.9 314.3 L 499.6 315.8 L 499.8 316.4 L 500.0 317.4 L 499.9 318.6 L 500.4 319.3 L 501.2 319.4 L 502.3 319.2 L 503.5 318.7 L 505.6 317.4 L 506.2 317.2 L 509.7 318.7 L 511.2 319.7 L 511.7 320.8 L 512.5 321.9 L 513.6 322.0 L 515.1 321.0 L 517.4 319.9 L 521.3 320.8 L 525.7 322.3 L 527.6 322.4 L 527.6 321.8 L 528.0 320.8 L 528.7 320.3 L 529.8 320.1 L 531.3 319.6 L 533.0 318.7 L 534.7 318.4 L 536.6 319.0 L 538.9 319.5 L 540.2 319.5 L 540.8 321.6 L 541.9 322.3 L 542.4 324.1 L 540.4 325.0 L 539.2 325.1 L 538.8 328.1 L 539.4 329.0 L 540.5 329.8 L 540.8 330.7 L 541.0 335.1 L 538.7 337.8 L 535.5 340.8 L 519.9 350.4 L 516.1 355.1 L 514.7 356.1 L 503.0 359.1 L 494.9 362.2 L 491.0 363.4 L 486.1 368.8 L 483.8 371.0 L 485.6 371.6 L 487.8 374.2 L 487.1 375.4 L 483.9 377.2 L 482.6 377.7 L 481.8 377.4 L 481.1 377.7 L 475.9 387.1 L 471.2 393.9 L 468.6 396.9 L 466.0 401.3 L 460.3 412.7 L 460.2 416.0 L 463.0 427.3 L 464.6 430.3 L 466.9 432.8 L 471.2 434.9 L 472.2 437.0 L 470.7 439.0 L 466.5 442.6 L 459.1 447.4 L 455.9 451.2 L 455.2 454.8 L 453.1 456.5 L 452.2 461.6 L 450.9 465.0 L 450.7 466.1 L 449.3 468.7 L 449.1 470.6 L 451.4 473.1 L 450.2 474.3 L 449.1 474.8 L 446.5 475.1 L 437.7 475.4 L 430.6 481.0 L 427.1 485.9 L 423.9 495.1 L 420.0 500.5 L 418.2 501.5 L 415.6 499.1 L 412.3 498.7 L 409.0 499.5 L 407.3 501.4 L 404.7 502.5 L 402.1 501.6 L 396.5 501.1 L 394.0 501.2 L 390.2 502.7 L 386.8 501.7 L 381.2 501.1 L 369.0 502.4 L 367.5 502.9 L 366.0 505.2 L 362.1 509.1 L 356.2 509.3 L 350.8 511.8 L 349.5 513.4 L 347.3 517.8 L 346.6 521.0 L 346.1 521.0 L 345.5 520.3 L 344.7 520.5 L 344.3 523.0 L 342.3 524.1 L 340.6 524.5 L 336.5 522.5 L 333.0 519.5 L 331.2 519.3 L 328.3 514.7 L 327.0 511.7 L 326.1 508.5 L 326.3 507.3 L 326.1 506.2 L 323.5 505.0 L 322.8 502.0 L 324.7 498.2 L 326.3 496.6 L 327.2 496.1 L 324.9 496.3 L 323.2 498.7 L 321.0 494.8 L 312.2 487.1 L 312.7 485.4 L 312.6 484.4 L 311.1 486.5 L 310.1 487.0 L 305.6 486.7 L 300.4 487.6 L 299.0 479.6 L 298.3 476.6 L 298.2 474.6 L 299.5 470.0 L 301.0 468.2 L 302.9 464.3 L 305.4 461.1 L 307.9 460.4 L 309.0 459.9 L 310.0 457.4 L 310.5 455.3 L 310.1 455.1 L 307.1 455.5 L 301.8 446.7 L 302.0 445.3 L 302.6 443.2 L 303.1 440.6 L 303.2 438.5 L 304.6 436.7 L 306.7 434.9 L 308.5 432.3 L 309.4 429.8 L 309.6 427.5 L 308.6 425.9 L 305.7 425.0 L 302.6 418.5 L 302.0 414.5 L 301.4 414.0 L 299.5 412.2 L 297.7 408.7 L 297.4 408.2 L 299.3 407.6 L 306.9 407.5 L 308.5 406.8 L 308.7 406.5 L 310.1 403.8 L 311.6 399.4 L 311.9 396.6 L 311.4 395.5 L 308.9 392.8 L 308.8 392.0 L 309.2 390.7 L 310.7 389.3 L 312.7 387.7 L 313.8 386.4 L 313.6 385.3 L 313.0 384.2 L 312.9 383.2 L 313.3 381.9 L 313.4 377.5 L 313.6 376.4 L 313.3 372.5 L 312.8 369.2 L 311.2 365.0 L 311.5 364.1 L 312.2 363.3 L 314.6 361.9 L 316.5 358.5 L 319.3 355.6 L 323.0 353.3 L 325.6 350.8 L 326.6 348.8 L 327.3 348.3 L 327.1 347.4 L 326.6 346.1 L 325.2 344.8 L 323.3 344.0 L 321.2 344.1 L 319.9 343.8 L 319.5 342.8 L 319.7 340.1 L 319.5 337.4 L 319.1 336.1 L 318.2 335.2 L 316.2 335.4 L 314.6 334.7 L 313.3 334.5 L 312.6 335.1 L 308.9 334.9 L 307.3 334.5 L 306.2 333.9 L 305.5 334.2 L 305.1 334.8 L 305.1 335.6 L 304.8 336.7 L 303.5 337.7 L 300.4 338.7 L 298.0 338.6 L 295.7 337.9 L 295.0 337.4 L 293.9 336.9 L 289.3 337.5 L 288.7 337.1 L 287.2 338.1 L 284.8 339.3 L 283.5 339.4 L 283.0 339.1 L 282.9 338.6 L 281.9 336.7 L 282.1 335.7 L 284.0 332.8 L 283.8 332.1 L 283.0 331.1 L 282.3 329.8 L 282.1 329.1 L 280.9 328.9 L 279.7 329.7 L 274.8 331.1 L 273.6 331.7 L 271.5 333.1 L 269.4 335.2 L 267.7 335.7 L 267.1 335.0 L 266.9 330.0 L 269.5 326.6 L 271.3 324.6 L 270.5 324.2 L 268.5 324.2 L 268.7 322.6 L 269.6 321.9 L 270.5 320.2 L 269.4 319.4 L 268.6 318.3 L 268.7 315.3 L 268.9 314.1 L 268.6 312.8 L 264.6 314.6 L 263.6 314.3 L 263.6 312.1 L 265.8 308.8 L 266.0 307.8 L 263.4 307.3 L 261.5 305.7 L 260.3 304.2 L 259.1 302.1 L 259.0 300.2 L 260.3 295.8 L 262.2 294.5 L 263.8 293.7 L 267.2 290.6 L 271.9 291.2 L 274.8 290.6 L 277.4 289.0 L 278.9 288.6 L 281.3 287.3 L 281.3 285.4 L 280.4 284.1 L 281.2 282.8 L 283.9 281.2 L 286.9 279.1 L 290.3 278.7 L 293.8 276.9 L 296.1 278.1 L 298.2 277.7 L 300.5 279.1 L 303.6 282.3 L 308.2 283.6 L 311.8 282.6 L 318.2 282.4 L 321.4 282.8 L 327.1 282.0 L 330.3 282.3 L 335.6 280.7 L 339.7 282.7 L 347.6 283.6 L 352.3 285.3 L 365.5 288.0 L 370.2 288.1 L 377.0 286.5 L 379.8 285.4 L 382.4 286.0 L 386.2 284.7 L 388.1 285.0 L 390.5 286.9 L 398.9 289.4 L 401.1 287.3 L 402.7 286.8 L 408.8 288.1 L 414.9 290.8 L 418.0 291.0 L 422.7 290.3 L 426.4 288.5 L 427.1 288.3 Z M 98.7 769.2 L 96.8 776.5 L 95.0 779.4 L 94.0 780.3 L 91.4 781.1 L 88.3 776.6 L 86.7 772.0 L 85.8 770.5 L 87.2 769.3 L 89.3 769.5 L 93.7 768.5 L 94.6 768.1 L 99.0 763.5 L 103.5 762.9 L 103.6 764.4 L 98.7 769.2 Z M 157.8 752.2 L 156.3 754.3 L 154.6 753.5 L 155.4 748.9 L 156.2 747.5 L 159.3 745.5 L 161.9 744.7 L 162.7 742.6 L 163.5 741.7 L 164.5 743.0 L 163.8 744.5 L 163.2 749.1 L 161.5 750.6 L 157.8 752.2 Z M 147.0 775.9 L 143.9 779.5 L 140.8 778.7 L 140.3 778.1 L 143.4 777.2 L 146.2 774.4 L 148.0 768.3 L 150.8 761.6 L 151.4 758.7 L 152.5 757.6 L 154.0 757.5 L 154.7 757.7 L 155.3 759.2 L 155.3 762.6 L 154.5 768.2 L 153.1 773.2 L 147.0 775.9 Z M 64.8 765.6 L 64.3 765.8 L 63.7 763.3 L 61.1 757.1 L 62.7 754.3 L 65.6 754.2 L 66.8 756.2 L 67.3 758.2 L 66.7 759.3 L 66.8 761.6 L 66.5 763.1 L 64.8 765.6 Z" fill="#cfe3bf" stroke="#ffffff" stroke-width="2.2" stroke-linejoin="round"/>
<path d="M 749.7 272.5 L 748.4 272.7 L 747.7 271.4 L 748.7 269.9 L 750.1 269.7 L 750.3 270.8 L 749.7 272.5 Z" fill="#cfe3bf" stroke="#ffffff" stroke-width="2.2" stroke-linejoin="round"/>
<path d="M 79.4 625.5 L 82.4 627.2 L 85.3 626.4 L 88.8 628.6 L 90.6 629.1 L 89.0 630.6 L 87.3 632.6 L 83.2 632.1 L 79.8 630.2 L 78.6 628.8 L 78.2 627.5 L 79.4 625.5 Z M 269.4 335.2 L 271.5 333.1 L 273.6 331.7 L 274.8 331.1 L 279.7 329.7 L 280.9 328.9 L 282.1 329.1 L 282.3 329.8 L 283.0 331.1 L 283.8 332.1 L 284.0 332.8 L 282.1 335.7 L 281.9 336.7 L 282.9 338.6 L 283.0 339.1 L 283.5 339.4 L 284.8 339.3 L 287.2 338.1 L 288.7 337.1 L 289.3 337.5 L 293.9 336.9 L 295.0 337.4 L 295.7 337.9 L 298.0 338.6 L 300.4 338.7 L 303.5 337.7 L 304.8 336.7 L 305.1 335.6 L 305.1 334.8 L 305.5 334.2 L 306.2 333.9 L 307.3 334.5 L 308.9 334.9 L 312.6 335.1 L 313.3 334.5 L 314.6 334.7 L 316.2 335.4 L 318.2 335.2 L 319.1 336.1 L 319.5 337.4 L 319.7 340.1 L 319.5 342.8 L 319.9 343.8 L 321.2 344.1 L 323.3 344.0 L 325.2 344.8 L 326.6 346.1 L 327.1 347.4 L 327.3 348.3 L 326.6 348.8 L 325.6 350.8 L 323.0 353.3 L 319.3 355.6 L 316.5 358.5 L 314.6 361.9 L 312.2 363.3 L 311.5 364.1 L 311.2 365.0 L 312.8 369.2 L 313.3 372.5 L 313.6 376.4 L 313.4 377.5 L 313.3 381.9 L 312.9 383.2 L 313.0 384.2 L 313.6 385.3 L 313.8 386.4 L 312.7 387.7 L 310.7 389.3 L 309.2 390.7 L 308.8 392.0 L 308.9 392.8 L 311.4 395.5 L 311.9 396.6 L 311.6 399.4 L 310.1 403.8 L 308.7 406.5 L 308.5 406.8 L 306.9 407.5 L 299.3 407.6 L 297.4 408.2 L 297.7 408.7 L 299.5 412.2 L 301.4 414.0 L 302.0 414.5 L 302.6 418.5 L 305.7 425.0 L 308.6 425.9 L 309.6 427.5 L 309.4 429.8 L 308.5 432.3 L 306.7 434.9 L 304.6 436.7 L 303.2 438.5 L 303.1 440.6 L 302.6 443.2 L 302.0 445.3 L 301.8 446.7 L 307.1 455.5 L 310.1 455.1 L 310.5 455.3 L 310.0 457.4 L 309.0 459.9 L 307.9 460.4 L 305.4 461.1 L 302.9 464.3 L 301.0 468.2 L 299.5 470.0 L 298.2 474.6 L 298.3 476.6 L 299.0 479.6 L 300.4 487.6 L 298.4 488.0 L 290.7 493.2 L 288.3 493.2 L 283.9 490.9 L 276.0 490.1 L 273.5 489.5 L 270.3 491.0 L 267.8 490.9 L 265.8 492.8 L 264.4 492.3 L 266.0 488.0 L 268.6 479.6 L 268.5 474.4 L 269.1 469.9 L 268.4 465.4 L 267.1 462.7 L 268.8 455.5 L 268.6 451.7 L 267.1 447.0 L 271.9 447.8 L 270.4 445.9 L 268.9 444.8 L 267.5 445.0 L 266.3 445.0 L 262.2 446.8 L 260.2 447.3 L 259.6 447.0 L 259.8 444.1 L 258.7 440.3 L 260.4 439.3 L 262.3 439.0 L 263.9 437.4 L 264.9 435.6 L 264.4 432.4 L 265.8 429.4 L 269.1 426.8 L 267.4 427.2 L 265.4 428.8 L 262.3 434.6 L 261.3 437.6 L 258.7 438.5 L 256.3 439.0 L 255.1 438.7 L 253.7 438.0 L 253.5 435.8 L 253.6 434.0 L 254.6 430.6 L 255.0 425.8 L 256.4 421.4 L 256.3 420.2 L 255.9 418.5 L 257.1 416.8 L 258.7 415.7 L 261.0 412.0 L 264.3 403.1 L 268.0 393.6 L 267.7 392.5 L 266.9 391.6 L 267.2 389.0 L 269.5 378.0 L 270.4 376.5 L 271.5 373.3 L 271.7 368.0 L 272.1 364.4 L 272.1 362.6 L 271.7 360.4 L 270.3 356.2 L 268.8 347.4 L 268.6 344.5 L 269.9 343.0 L 267.8 342.8 L 266.9 340.9 L 267.1 338.7 L 269.4 335.2 Z" fill="#cfe3bf" stroke="#ffffff" stroke-width="2.2" stroke-linejoin="round"/>
<path d="M 603.1 53.3 L 600.8 53.3 L 598.6 53.2 L 597.5 53.0 L 596.3 52.5 L 596.3 52.5 L 595.7 51.5 L 595.0 50.3 L 595.2 49.6 L 597.2 47.5 L 597.5 46.9 L 597.3 46.6 L 597.5 45.7 L 599.1 42.6 L 599.3 41.3 L 598.6 40.4 L 597.6 39.9 L 594.4 39.0 L 592.8 37.7 L 592.1 36.5 L 591.4 36.2 L 590.3 36.6 L 587.6 37.0 L 585.4 36.4 L 582.9 34.3 L 582.3 32.3 L 581.9 30.8 L 581.3 30.3 L 580.4 31.1 L 579.3 32.3 L 577.2 32.4 L 576.6 32.2 L 576.4 31.5 L 576.3 30.9 L 575.7 30.1 L 575.1 29.6 L 572.3 31.8 L 571.3 31.8 L 570.0 31.0 L 569.4 30.1 L 568.0 30.6 L 566.7 31.7 L 567.1 33.6 L 566.5 33.9 L 564.9 33.8 L 563.1 33.0 L 561.2 32.5 L 558.2 31.2 L 554.0 32.2 L 551.1 30.9 L 548.7 30.8 L 547.2 29.8 L 545.6 28.0 L 546.7 26.9 L 547.8 26.5 L 552.2 26.3 L 555.4 27.0 L 561.2 30.8 L 562.7 30.7 L 564.2 30.2 L 563.4 29.2 L 562.0 28.7 L 559.8 27.7 L 558.1 26.3 L 562.1 25.8 L 561.6 25.1 L 561.1 23.8 L 556.8 19.4 L 557.5 18.2 L 558.6 15.7 L 559.9 13.5 L 561.0 13.0 L 562.7 11.5 L 566.5 7.0 L 568.9 3.4 L 570.7 -0.8 L 573.3 -12.6 L 574.1 -14.6 L 575.4 -16.8 L 577.0 -16.4 L 578.1 -15.7 L 582.0 -17.4 L 588.7 -21.7 L 590.7 -25.5 L 592.6 -27.3 L 600.3 -30.7 L 604.6 -31.7 L 611.2 -32.0 L 615.9 -32.6 L 621.6 -32.8 L 623.8 -30.7 L 625.1 -29.1 L 627.1 -28.3 L 630.2 -27.7 L 630.0 -24.7 L 630.1 -18.6 L 629.8 -17.6 L 628.4 -15.0 L 626.9 -10.5 L 626.5 -7.5 L 626.1 -6.9 L 620.1 -7.0 L 619.2 -6.4 L 619.1 -5.8 L 619.4 -5.0 L 619.3 -4.3 L 618.8 -3.6 L 619.1 -2.6 L 620.1 -1.5 L 622.0 -0.8 L 624.0 -0.8 L 625.1 -0.9 L 625.8 -0.1 L 626.6 1.2 L 626.5 2.7 L 626.2 4.8 L 625.3 6.8 L 622.5 9.0 L 621.3 9.8 L 620.1 10.2 L 619.6 10.8 L 619.3 11.5 L 619.4 12.2 L 621.3 14.0 L 621.3 14.4 L 620.7 15.3 L 619.9 16.2 L 614.9 18.0 L 612.8 17.9 L 611.6 18.8 L 611.2 18.9 L 609.9 18.1 L 607.0 17.2 L 605.8 17.5 L 605.2 18.0 L 603.4 18.7 L 602.0 19.7 L 602.0 20.9 L 604.4 24.3 L 605.2 24.9 L 605.2 26.2 L 606.4 27.7 L 607.6 29.7 L 607.7 30.9 L 607.5 32.2 L 606.9 34.0 L 604.9 38.2 L 604.9 39.0 L 605.1 39.6 L 605.8 39.7 L 606.3 40.1 L 606.1 40.6 L 602.3 43.5 L 601.8 44.0 L 600.2 43.9 L 600.0 44.4 L 600.2 45.2 L 600.8 45.8 L 602.2 46.2 L 603.3 46.9 L 604.3 48.4 L 603.1 53.3 Z M 563.1 33.0 L 562.8 34.2 L 561.9 35.5 L 558.9 37.4 L 555.8 38.7 L 554.2 38.5 L 553.1 37.9 L 552.5 37.2 L 550.8 36.5 L 548.5 36.2 L 547.1 36.9 L 546.1 37.6 L 545.2 37.5 L 544.5 36.9 L 544.0 36.0 L 543.3 33.3 L 545.0 32.7 L 548.7 32.6 L 551.6 33.5 L 555.4 34.0 L 558.3 32.7 L 560.5 33.8 L 563.1 33.0 Z M 556.9 21.7 L 559.1 23.4 L 559.5 24.0 L 559.7 24.6 L 556.9 25.3 L 553.9 23.1 L 552.0 23.6 L 551.2 22.6 L 551.2 22.0 L 553.3 21.5 L 556.9 21.7 Z" fill="#cfe3bf" stroke="#ffffff" stroke-width="2.2" stroke-linejoin="round"/>
<path d="M 417.5 554.0 L 418.2 556.4 L 419.5 558.3 L 424.3 562.6 L 427.1 565.3 L 427.2 566.2 L 426.3 568.4 L 425.9 569.9 L 426.6 571.5 L 428.4 573.5 L 428.5 574.4 L 428.1 575.5 L 427.2 577.6 L 429.1 583.7 L 429.4 589.6 L 428.9 593.9 L 428.9 596.3 L 429.2 598.4 L 430.8 603.2 L 429.7 611.1 L 431.0 615.5 L 432.6 619.0 L 433.6 625.3 L 434.9 628.2 L 437.1 630.8 L 438.4 631.7 L 440.8 633.9 L 442.6 635.7 L 443.6 638.4 L 441.4 640.6 L 439.6 642.5 L 439.2 644.7 L 440.0 648.1 L 440.0 649.9 L 438.9 650.5 L 434.3 650.3 L 430.7 650.2 L 426.6 650.0 L 420.8 649.7 L 417.3 649.5 L 412.4 649.2 L 410.7 649.3 L 406.2 650.3 L 403.0 650.9 L 402.4 651.1 L 401.5 652.0 L 400.8 654.5 L 400.2 657.4 L 399.5 658.6 L 390.0 662.8 L 386.2 663.4 L 384.1 662.9 L 382.5 663.3 L 381.2 664.2 L 380.8 665.5 L 380.7 667.2 L 381.0 668.9 L 381.9 671.4 L 382.1 673.8 L 381.5 675.5 L 381.3 677.2 L 381.1 679.0 L 381.6 680.0 L 382.5 680.2 L 383.4 681.0 L 384.7 681.8 L 385.8 683.2 L 385.7 685.3 L 384.8 686.5 L 384.0 687.1 L 380.5 687.7 L 377.6 688.1 L 373.9 691.4 L 370.0 695.0 L 365.4 697.3 L 363.3 698.0 L 359.7 699.7 L 355.4 702.4 L 353.3 706.9 L 350.7 712.0 L 348.1 715.5 L 344.6 718.7 L 341.3 720.0 L 337.2 721.5 L 332.0 722.7 L 328.4 723.1 L 327.3 723.4 L 324.1 723.5 L 322.5 723.2 L 321.3 723.1 L 320.8 723.4 L 320.7 724.3 L 320.6 726.1 L 320.4 728.2 L 319.4 730.0 L 318.6 730.8 L 317.8 731.1 L 315.1 730.7 L 312.8 730.1 L 307.4 729.3 L 306.3 729.5 L 305.9 729.7 L 304.2 730.9 L 301.6 733.5 L 299.9 735.7 L 298.6 736.8 L 295.4 737.3 L 294.1 738.2 L 288.2 743.7 L 287.0 745.1 L 281.0 750.0 L 279.3 751.6 L 277.9 753.2 L 274.3 756.8 L 272.1 758.3 L 271.6 759.3 L 271.5 761.5 L 271.5 766.3 L 271.5 771.0 L 271.5 777.8 L 271.5 784.5 L 271.5 792.3 L 268.5 792.3 L 268.5 792.3 L 268.6 793.7 L 269.2 796.4 L 269.5 798.6 L 269.1 800.0 L 268.8 801.8 L 269.0 803.5 L 269.5 805.3 L 269.9 807.2 L 269.9 808.5 L 269.0 809.5 L 266.9 810.0 L 264.3 810.4 L 262.5 810.4 L 259.7 810.1 L 257.9 810.2 L 256.4 810.2 L 255.0 810.5 L 253.4 811.7 L 251.5 813.6 L 249.2 816.2 L 247.8 817.8 L 245.9 818.1 L 244.0 818.1 L 242.2 816.9 L 241.0 816.2 L 240.3 816.3 L 239.0 817.2 L 237.5 817.8 L 236.1 817.8 L 233.8 816.5 L 231.0 814.6 L 229.3 813.6 L 227.0 813.3 L 224.7 812.7 L 223.0 813.0 L 220.9 813.0 L 218.1 814.3 L 215.8 815.2 L 213.2 816.2 L 210.3 817.1 L 211.0 819.9 L 212.0 821.5 L 212.0 823.4 L 211.6 825.1 L 210.2 826.7 L 208.6 828.7 L 207.6 830.3 L 206.7 832.5 L 206.0 833.8 L 204.8 835.9 L 203.7 838.5 L 203.4 840.1 L 203.0 842.0 L 202.1 842.6 L 199.3 843.1 L 197.5 843.7 L 195.9 844.4 L 195.3 845.5 L 195.2 845.6 L 194.8 847.9 L 194.8 849.5 L 194.3 850.8 L 193.6 853.9 L 192.7 856.9 L 192.1 860.7 L 191.4 863.9 L 190.5 869.0 L 189.6 873.8 L 188.5 878.3 L 187.5 881.2 L 186.9 882.8 L 185.3 884.7 L 183.9 885.9 L 182.4 887.6 L 180.5 889.2 L 178.1 891.1 L 176.0 892.7 L 175.2 893.4 L 174.2 894.3 L 172.6 896.5 L 171.3 899.7 L 170.4 902.3 L 168.8 906.4 L 167.7 908.7 L 167.0 909.9 L 165.2 911.2 L 163.2 912.2 L 160.9 913.5 L 159.1 914.8 L 156.6 916.0 L 155.0 917.3 L 153.9 919.2 L 153.0 921.5 L 151.9 924.7 L 151.0 928.2 L 150.5 930.4 L 149.1 938.1 L 148.7 942.6 L 148.2 945.5 L 147.6 949.0 L 147.1 954.4 L 147.1 958.9 L 146.7 961.5 L 146.4 963.4 L 145.3 965.6 L 144.4 967.2 L 142.8 969.5 L 141.5 970.8 L 141.0 972.0 L 139.7 973.6 L 138.3 976.2 L 137.2 977.8 L 137.4 979.1 L 137.6 981.3 L 136.9 983.6 L 136.3 986.1 L 134.5 989.3 L 132.4 990.9 L 129.5 991.2 L 125.4 991.2 L 122.3 990.9 L 118.4 990.9 L 115.0 990.3 L 111.9 989.6 L 108.0 989.3 L 105.3 989.3 L 101.9 989.9 L 93.1 989.9 L 89.7 990.3 L 84.8 991.6 L 83.6 991.9 L 83.6 991.9 L 85.2 976.5 L 88.3 968.2 L 90.8 964.6 L 94.6 962.7 L 98.1 954.3 L 99.4 946.6 L 101.7 943.1 L 102.4 940.3 L 101.5 938.2 L 103.7 934.1 L 106.3 927.7 L 107.5 923.7 L 110.6 917.4 L 111.0 916.0 L 110.7 914.4 L 109.5 915.7 L 108.2 918.1 L 106.7 919.9 L 107.3 917.6 L 108.5 914.3 L 111.3 910.8 L 115.6 907.0 L 124.6 894.0 L 128.0 891.8 L 131.0 886.3 L 132.1 881.4 L 132.4 870.3 L 133.5 864.4 L 135.5 859.8 L 137.8 851.5 L 139.6 847.7 L 140.8 840.1 L 142.1 837.2 L 144.4 835.8 L 147.6 832.0 L 152.5 829.7 L 158.3 824.8 L 161.0 821.8 L 162.8 817.4 L 164.8 808.6 L 168.2 799.4 L 170.0 792.5 L 170.0 792.4 L 173.1 788.7 L 175.2 784.1 L 178.7 782.0 L 186.0 781.0 L 196.9 777.2 L 206.7 771.4 L 209.5 769.1 L 212.4 764.5 L 217.4 758.5 L 226.6 751.3 L 230.8 747.3 L 237.2 737.2 L 241.5 728.8 L 245.1 723.4 L 247.6 718.7 L 249.3 713.8 L 250.3 706.1 L 249.6 703.0 L 246.9 698.0 L 245.1 696.7 L 244.6 694.4 L 245.6 690.2 L 245.5 683.1 L 246.1 671.8 L 249.1 662.6 L 256.5 650.6 L 257.9 645.6 L 258.7 637.8 L 258.8 635.0 L 268.1 623.9 L 273.5 615.3 L 275.4 613.3 L 280.2 609.4 L 296.8 600.8 L 306.3 594.8 L 311.8 590.3 L 315.1 585.1 L 324.2 564.5 L 333.1 535.5 L 333.8 532.2 L 337.8 531.2 L 340.7 530.8 L 342.9 529.8 L 345.7 527.6 L 348.4 528.5 L 347.1 529.9 L 347.1 533.5 L 349.0 537.7 L 352.3 542.4 L 358.4 548.3 L 363.1 550.7 L 369.9 552.2 L 377.7 549.5 L 382.1 549.5 L 384.2 548.4 L 386.6 550.0 L 391.0 550.6 L 395.2 549.7 L 398.5 547.2 L 400.5 544.3 L 400.8 545.7 L 400.9 547.3 L 401.6 548.2 L 402.8 551.8 L 403.5 553.2 L 406.0 553.0 L 408.1 553.7 L 412.9 553.4 L 417.5 554.0 Z" fill="#cfe3bf" stroke="#ffffff" stroke-width="2.2" stroke-linejoin="round"/>
<path d="M 635.7 277.3 L 634.3 277.9 L 634.4 277.2 L 634.7 276.8 L 635.1 276.7 L 635.6 277.0 L 635.7 277.3 Z" fill="#cfe3bf" stroke="#ffffff" stroke-width="2.2" stroke-linejoin="round"/>
<path d="M 605.8 73.5 L 605.6 74.3 L 605.7 76.2 L 606.3 78.2 L 607.8 80.1 L 609.0 81.4 L 610.5 82.5 L 613.2 83.6 L 614.2 83.8 L 614.3 85.2 L 614.1 86.7 L 613.2 87.5 L 612.4 88.7 L 611.7 90.2 L 611.1 92.9 L 611.0 94.9 L 609.5 94.1 L 608.7 93.5 L 607.3 93.4 L 605.9 93.8 L 604.9 94.8 L 603.4 95.1 L 602.3 94.8 L 601.6 94.1 L 601.0 93.7 L 599.2 93.2 L 598.4 92.1 L 599.0 91.6 L 599.5 90.8 L 600.0 89.7 L 600.5 88.7 L 598.8 85.9 L 598.4 85.1 L 597.0 83.5 L 597.0 82.7 L 597.3 81.9 L 597.2 81.3 L 597.4 79.9 L 598.4 78.6 L 599.1 76.9 L 600.2 74.7 L 602.7 72.0 L 604.4 72.4 L 605.2 72.4 L 605.7 73.4 L 605.8 73.5 Z" fill="#cfe3bf" stroke="#ffffff" stroke-width="2.2" stroke-linejoin="round"/>
<path d="M 684.1 171.5 L 682.3 171.3 L 682.0 171.3 L 681.8 170.2 L 681.9 167.8 L 682.9 164.7 L 683.1 165.2 L 683.2 165.8 L 683.4 166.5 L 683.5 167.4 L 683.9 168.3 L 684.5 169.1 L 684.7 169.9 L 684.4 170.9 L 684.1 171.5 Z" fill="#cfe3bf" stroke="#ffffff" stroke-width="2.2" stroke-linejoin="round"/>
<path d="M 682.7 710.0 L 685.4 708.3 L 689.2 706.4 L 691.2 704.9 L 692.0 703.7 L 694.9 698.8 L 696.4 696.0 L 698.4 692.3 L 699.3 689.7 L 699.4 687.2 L 699.0 684.3 L 697.4 677.3 L 696.1 670.5 L 697.2 667.9 L 698.0 666.6 L 699.7 663.4 L 700.5 662.8 L 704.3 661.8 L 705.8 659.7 L 707.0 657.0 L 707.3 655.6 L 709.0 654.1 L 711.0 652.7 L 712.2 650.8 L 716.2 647.8 L 719.9 645.1 L 724.2 642.3 L 727.5 640.1 L 728.2 638.2 L 728.2 636.5 L 726.4 632.8 L 726.4 628.3 L 726.5 624.6 L 726.7 622.4 L 727.5 616.4 L 727.5 615.5 L 731.0 617.5 L 734.5 618.3 L 745.0 625.9 L 748.4 626.8 L 755.7 627.7 L 764.4 624.6 L 767.7 624.1 L 773.4 627.0 L 775.9 627.8 L 780.2 628.0 L 787.4 630.6 L 789.3 631.5 L 793.5 635.7 L 795.5 637.0 L 810.5 640.8 L 812.5 643.4 L 814.6 648.2 L 814.7 654.3 L 815.8 658.6 L 817.7 664.3 L 819.9 668.3 L 822.4 671.7 L 825.3 673.8 L 831.9 676.9 L 839.3 678.1 L 846.7 678.5 L 859.6 682.7 L 870.4 687.7 L 873.1 690.1 L 878.6 692.5 L 889.4 704.0 L 895.4 708.0 L 899.6 708.8 L 903.4 708.1 L 910.2 704.1 L 913.0 701.7 L 919.7 691.7 L 921.9 686.5 L 922.8 682.8 L 922.6 679.1 L 921.8 675.7 L 919.9 672.2 L 918.6 667.5 L 917.8 659.2 L 918.8 653.4 L 920.1 649.9 L 922.2 646.3 L 927.8 639.6 L 933.5 634.8 L 943.4 628.5 L 949.2 628.5 L 951.6 627.8 L 956.4 623.3 L 958.3 623.2 L 961.0 624.3 L 968.8 624.0 L 972.3 625.2 L 976.4 627.9 L 981.6 629.6 L 985.3 631.3 L 989.2 633.5 L 990.1 639.0 L 989.7 640.6 L 989.6 642.7 L 993.7 646.5 L 1005.2 648.3 L 1007.5 649.3 L 1010.7 652.2 L 1012.7 653.0 L 1020.6 653.4 L 1025.2 652.8 L 1029.6 653.8 L 1031.3 654.8 L 1032.9 657.1 L 1035.0 662.5 L 1035.8 664.4 L 1034.9 665.3 L 1033.7 667.2 L 1032.9 668.9 L 1030.8 671.7 L 1029.0 674.6 L 1029.2 679.0 L 1029.6 683.4 L 1030.8 687.7 L 1031.8 692.5 L 1031.5 695.6 L 1030.6 699.5 L 1029.6 702.7 L 1026.2 709.3 L 1025.7 710.9 L 1025.9 713.1 L 1027.9 721.0 L 1028.1 723.5 L 1029.3 731.1 L 1030.5 737.3 L 1031.7 742.2 L 1031.9 743.5 L 1031.9 750.7 L 1031.9 757.9 L 1031.9 765.1 L 1031.9 772.3 L 1031.9 779.4 L 1031.9 786.6 L 1031.9 793.8 L 1031.9 801.0 L 1031.9 808.2 L 1031.9 815.4 L 1031.9 822.6 L 1031.9 829.8 L 1031.9 836.9 L 1031.9 844.1 L 1031.9 851.3 L 1031.9 858.5 L 1031.9 865.7 L 1031.9 872.9 L 1031.9 880.1 L 1031.9 887.2 L 1031.9 894.4 L 1031.9 901.6 L 1031.9 908.8 L 1031.9 916.0 L 1031.9 923.2 L 1031.9 930.4 L 1031.9 937.5 L 1031.9 944.7 L 1031.9 951.9 L 1031.9 959.1 L 1031.9 966.3 L 1031.9 973.5 L 1031.9 989.4 L 1031.9 1005.4 L 1031.9 1021.3 L 1031.9 1037.3 L 1031.8 1037.3 L 1031.8 1037.4 L 1031.7 1037.4 L 1031.6 1037.5 L 1026.1 1037.5 L 1020.5 1037.5 L 1014.9 1037.5 L 1009.3 1037.5 L 1009.3 1041.5 L 1009.3 1045.5 L 1009.3 1049.5 L 1009.3 1053.4 L 998.5 1045.9 L 987.7 1038.3 L 976.9 1030.7 L 966.1 1023.2 L 955.2 1015.6 L 944.4 1008.0 L 933.6 1000.5 L 922.8 992.9 L 911.9 985.3 L 901.1 977.7 L 890.3 970.2 L 879.5 962.6 L 868.7 955.0 L 857.8 947.5 L 847.0 939.9 L 836.2 932.3 L 828.7 927.1 L 820.7 932.2 L 814.3 936.2 L 806.0 941.5 L 806.0 941.5 L 796.4 948.3 L 789.1 953.5 L 788.8 953.5 L 788.4 953.4 L 780.8 944.5 L 774.8 937.5 L 772.2 935.6 L 760.9 932.0 L 749.8 928.5 L 738.0 924.8 L 735.9 919.1 L 733.5 912.8 L 730.2 904.9 L 728.3 900.0 L 727.6 899.3 L 718.6 895.4 L 709.0 891.7 L 703.5 894.0 L 702.5 893.8 L 700.9 892.4 L 699.3 890.4 L 698.5 887.7 L 696.2 884.1 L 694.2 875.7 L 694.0 869.1 L 693.6 866.7 L 688.6 857.4 L 684.1 848.9 L 681.1 843.2 L 680.5 840.6 L 680.8 837.5 L 682.1 834.7 L 686.4 831.3 L 690.4 827.7 L 690.9 825.2 L 691.2 818.2 L 689.9 816.0 L 688.9 811.9 L 688.0 806.3 L 687.8 802.8 L 689.6 795.6 L 691.6 788.2 L 690.3 780.0 L 689.4 763.4 L 690.0 750.4 L 689.5 745.7 L 689.1 743.7 L 687.8 737.5 L 686.2 731.2 L 685.4 729.0 L 683.3 723.9 L 679.8 717.5 L 678.0 713.7 L 680.5 711.6 L 682.7 710.0 Z" fill="#cfe3bf" stroke="#ffffff" stroke-width="2.2" stroke-linejoin="round"/>
<path d="M 626.3 207.7 L 627.0 208.4 L 628.7 209.2 L 633.2 208.1 L 636.0 207.1 L 637.9 206.0 L 639.2 206.2 L 643.6 207.8 L 645.0 207.0 L 648.2 204.8 L 648.7 203.7 L 651.2 200.2 L 651.2 199.3 L 650.2 197.1 L 650.5 196.7 L 653.6 194.4 L 655.1 192.4 L 656.7 191.1 L 657.9 191.1 L 658.2 191.5 L 658.4 192.4 L 658.3 196.3 L 658.7 197.5 L 661.1 200.2 L 662.9 201.8 L 666.9 202.9 L 667.0 203.4 L 665.9 205.5 L 668.4 207.9 L 668.8 209.8 L 669.9 210.8 L 671.5 210.3 L 672.0 209.3 L 671.4 207.6 L 670.9 205.9 L 671.0 204.9 L 671.5 203.7 L 672.6 202.1 L 675.6 198.3 L 676.6 196.2 L 676.8 192.8 L 676.8 190.1 L 677.8 189.5 L 680.0 190.0 L 680.6 189.9 L 680.9 191.6 L 681.8 194.2 L 682.9 195.5 L 684.0 195.9 L 685.4 195.9 L 688.8 194.3 L 690.9 193.6 L 692.2 193.8 L 692.9 194.9 L 694.5 197.7 L 695.4 198.0 L 696.4 197.7 L 696.8 197.2 L 696.5 196.1 L 696.0 193.7 L 695.4 191.9 L 694.6 191.0 L 694.4 189.9 L 694.9 187.8 L 695.5 186.1 L 696.7 185.7 L 698.0 185.5 L 699.7 187.3 L 701.7 187.8 L 703.3 187.7 L 703.5 186.7 L 703.4 185.5 L 702.5 184.1 L 702.7 181.8 L 703.8 177.7 L 704.4 178.0 L 706.6 178.0 L 709.1 178.3 L 710.7 180.0 L 712.3 180.5 L 714.5 180.7 L 716.0 180.5 L 716.7 179.8 L 717.6 177.8 L 719.2 175.4 L 721.7 174.1 L 725.9 173.9 L 728.0 173.4 L 730.3 173.4 L 731.9 173.8 L 733.7 173.8 L 738.0 172.1 L 742.5 170.7 L 743.2 170.9 L 743.3 171.4 L 742.5 172.4 L 741.7 173.8 L 742.2 175.4 L 744.8 178.6 L 746.2 181.0 L 747.5 182.9 L 749.5 183.8 L 752.2 184.4 L 754.5 184.6 L 756.9 185.3 L 765.1 187.0 L 769.3 187.5 L 772.4 187.6 L 777.1 188.7 L 776.7 190.5 L 775.7 191.0 L 774.0 192.1 L 772.1 193.5 L 770.3 195.2 L 769.9 197.0 L 770.3 198.1 L 770.8 198.5 L 771.5 198.2 L 772.4 198.4 L 773.6 199.0 L 775.6 199.7 L 775.7 200.3 L 775.2 201.1 L 773.7 202.5 L 772.3 204.1 L 772.2 205.0 L 772.3 205.8 L 772.8 206.2 L 774.9 206.0 L 775.2 206.6 L 774.2 210.6 L 774.5 211.3 L 776.3 212.0 L 777.6 213.0 L 780.1 215.6 L 781.1 217.7 L 780.4 218.4 L 778.8 218.7 L 777.6 218.5 L 779.0 217.3 L 775.5 212.7 L 773.9 212.7 L 771.8 214.6 L 766.0 212.7 L 764.8 213.4 L 764.0 215.0 L 762.0 216.9 L 759.1 217.8 L 755.9 219.9 L 752.5 221.4 L 750.0 222.6 L 748.5 222.4 L 750.8 219.9 L 749.8 219.9 L 746.7 221.6 L 744.9 223.1 L 744.3 225.5 L 743.8 229.6 L 745.2 230.7 L 747.6 236.1 L 750.5 238.4 L 750.0 240.6 L 749.2 242.3 L 747.4 243.8 L 745.9 242.7 L 745.0 242.7 L 744.3 246.2 L 745.6 255.6 L 747.7 262.2 L 749.7 265.0 L 754.3 269.5 L 759.2 271.9 L 768.0 279.4 L 772.8 281.8 L 774.1 283.1 L 777.0 288.9 L 779.5 295.6 L 782.2 306.1 L 784.1 311.3 L 788.0 317.1 L 796.1 325.5 L 803.5 331.7 L 810.3 335.4 L 815.6 336.1 L 828.3 335.3 L 830.5 335.6 L 832.8 336.7 L 833.3 339.3 L 832.5 341.1 L 829.8 342.9 L 827.1 345.5 L 826.8 349.0 L 829.4 351.4 L 841.5 357.9 L 854.0 363.3 L 857.9 366.1 L 862.4 370.4 L 873.2 376.4 L 875.1 379.3 L 881.7 385.5 L 884.7 390.3 L 885.2 394.0 L 883.8 397.8 L 883.1 400.4 L 882.0 403.1 L 879.2 402.1 L 876.0 399.4 L 871.2 388.4 L 862.4 387.3 L 860.6 386.5 L 857.5 384.6 L 857.3 383.3 L 856.5 381.8 L 855.7 381.2 L 852.4 380.9 L 850.0 382.7 L 847.3 386.9 L 844.2 392.9 L 841.0 401.8 L 840.9 405.4 L 842.6 408.9 L 847.7 410.8 L 851.6 413.9 L 854.2 417.2 L 854.4 425.0 L 855.6 429.4 L 853.9 431.9 L 850.6 431.3 L 846.1 432.9 L 843.0 435.7 L 841.7 438.5 L 842.0 445.5 L 841.4 448.2 L 835.5 453.4 L 832.3 458.6 L 831.6 460.7 L 830.4 463.2 L 822.9 463.3 L 821.1 460.2 L 821.0 455.7 L 822.3 452.9 L 825.1 451.6 L 826.9 445.9 L 826.3 441.7 L 827.4 439.8 L 828.4 438.5 L 830.6 437.8 L 833.5 437.0 L 833.8 431.2 L 831.5 428.6 L 830.7 424.9 L 829.6 418.0 L 825.8 409.3 L 823.7 401.5 L 822.1 397.7 L 819.7 395.6 L 815.3 395.7 L 813.1 395.1 L 805.4 389.7 L 804.8 388.9 L 804.9 387.4 L 806.2 385.3 L 805.3 382.3 L 804.4 379.5 L 802.9 377.2 L 801.2 375.9 L 797.7 376.7 L 796.5 377.3 L 794.3 377.1 L 792.5 378.1 L 791.6 378.2 L 794.3 374.0 L 793.6 373.0 L 790.9 371.3 L 787.2 371.1 L 786.2 370.9 L 785.6 371.9 L 784.9 371.3 L 785.0 369.5 L 780.7 361.2 L 777.9 357.8 L 776.4 357.2 L 773.8 357.9 L 769.5 356.4 L 766.9 356.1 L 765.5 356.5 L 763.3 357.5 L 762.2 356.8 L 761.9 355.7 L 757.9 352.3 L 753.0 350.3 L 743.4 339.3 L 740.4 335.2 L 734.4 330.7 L 730.5 324.1 L 727.4 321.7 L 722.8 319.8 L 721.8 320.0 L 720.4 320.8 L 719.3 320.9 L 718.5 320.0 L 719.3 319.1 L 720.3 318.7 L 719.9 316.2 L 714.7 309.7 L 711.7 307.6 L 710.8 306.3 L 710.2 304.5 L 709.5 303.4 L 708.1 302.7 L 706.9 302.8 L 705.2 302.4 L 705.2 299.3 L 705.6 296.9 L 705.3 294.8 L 703.7 289.5 L 700.8 284.9 L 699.1 274.1 L 697.8 271.0 L 694.6 268.7 L 687.5 266.1 L 677.5 259.1 L 675.4 259.0 L 669.4 256.3 L 665.7 255.8 L 660.8 258.3 L 655.0 265.0 L 650.2 271.9 L 648.5 273.3 L 642.3 275.7 L 636.9 276.8 L 636.9 275.0 L 636.7 273.7 L 637.6 272.2 L 639.1 270.4 L 640.5 268.3 L 641.1 266.7 L 640.8 265.6 L 640.2 264.1 L 639.3 264.0 L 634.2 265.3 L 633.0 264.9 L 629.2 262.9 L 625.0 260.4 L 623.5 258.6 L 623.0 256.8 L 623.4 255.6 L 623.0 254.5 L 622.2 253.0 L 623.0 251.3 L 624.2 249.1 L 624.9 247.7 L 626.0 247.3 L 626.5 246.4 L 625.6 242.9 L 625.2 242.3 L 624.4 241.9 L 623.3 241.8 L 621.3 241.1 L 619.9 239.9 L 619.6 238.2 L 618.8 236.6 L 617.5 235.2 L 617.4 233.6 L 618.8 232.7 L 620.8 232.7 L 622.2 233.0 L 625.4 230.4 L 626.5 230.2 L 627.5 229.7 L 628.4 226.2 L 629.1 225.1 L 629.2 224.5 L 628.6 223.8 L 626.1 221.3 L 624.9 218.8 L 623.1 215.9 L 621.4 214.6 L 621.1 213.6 L 621.0 212.4 L 621.4 211.3 L 624.4 209.6 L 626.3 207.7 Z M 748.6 336.6 L 748.6 336.3 L 748.4 336.4 L 748.4 336.5 L 748.4 336.6 L 748.6 336.6 Z M 749.7 272.5 L 750.3 270.8 L 750.1 269.7 L 748.7 269.9 L 747.7 271.4 L 748.4 272.7 L 749.7 272.5 Z M 702.5 305.9 L 703.2 307.1 L 703.3 307.8 L 702.8 308.7 L 703.0 310.5 L 701.1 309.0 L 698.3 309.8 L 696.5 309.6 L 696.0 308.2 L 696.4 307.4 L 699.2 307.2 L 700.0 306.8 L 701.7 307.0 L 702.5 305.9 Z M 739.9 501.1 L 738.8 501.5 L 737.4 500.4 L 737.3 498.8 L 737.5 498.4 L 739.3 499.1 L 739.8 500.5 L 739.9 501.1 Z M 819.5 454.3 L 818.0 457.9 L 817.2 459.3 L 811.8 468.2 L 811.2 470.3 L 810.8 472.5 L 810.2 474.5 L 809.4 476.3 L 808.7 478.7 L 808.9 481.3 L 809.1 482.6 L 809.8 483.5 L 810.9 484.3 L 811.7 485.5 L 810.4 486.6 L 811.8 488.9 L 813.0 490.2 L 813.2 491.6 L 813.1 492.9 L 810.7 495.4 L 809.7 496.8 L 809.1 498.5 L 808.8 500.2 L 809.1 501.8 L 809.0 503.3 L 806.5 503.1 L 804.0 502.2 L 801.4 502.6 L 797.8 500.8 L 796.4 500.5 L 795.2 499.8 L 792.2 494.2 L 789.7 491.9 L 787.1 490.0 L 784.4 489.9 L 781.8 490.1 L 779.4 489.0 L 774.6 485.2 L 769.5 482.2 L 767.3 480.2 L 766.3 478.9 L 765.1 478.0 L 762.2 477.1 L 759.6 475.1 L 758.4 474.9 L 755.8 475.2 L 754.5 475.0 L 753.2 474.3 L 750.6 471.9 L 749.0 468.6 L 748.6 467.1 L 749.7 463.3 L 751.1 459.6 L 752.3 458.6 L 753.7 457.9 L 754.6 456.8 L 755.3 455.5 L 757.9 459.3 L 759.1 460.2 L 760.3 460.0 L 762.4 458.6 L 762.6 457.1 L 764.9 455.2 L 767.9 455.2 L 769.3 455.6 L 770.0 457.3 L 771.1 457.8 L 772.4 458.0 L 776.7 461.3 L 777.9 461.8 L 779.1 461.9 L 782.5 460.6 L 785.0 460.0 L 790.4 460.8 L 793.3 460.0 L 795.3 459.9 L 798.3 458.6 L 800.5 456.5 L 801.7 456.0 L 803.0 455.8 L 806.1 456.0 L 809.2 456.5 L 810.5 456.0 L 811.5 454.6 L 812.8 454.0 L 814.2 454.4 L 817.8 452.0 L 819.3 451.9 L 820.8 452.8 L 819.5 454.3 Z M 685.2 369.1 L 686.4 371.2 L 688.9 379.5 L 689.1 381.4 L 688.6 383.2 L 688.0 384.5 L 685.5 388.7 L 685.9 392.2 L 686.8 394.4 L 686.9 396.8 L 686.5 399.8 L 684.9 418.0 L 684.1 421.2 L 683.7 424.0 L 681.9 424.9 L 679.7 424.0 L 676.9 422.4 L 675.6 422.5 L 674.3 423.0 L 673.3 422.6 L 672.2 421.7 L 671.5 428.0 L 670.2 430.5 L 668.3 432.1 L 666.5 432.2 L 664.6 431.7 L 663.0 431.7 L 661.8 430.5 L 660.9 428.4 L 659.4 425.8 L 657.8 422.8 L 657.6 420.0 L 657.4 413.9 L 657.8 412.6 L 658.5 411.3 L 658.8 408.6 L 658.6 406.2 L 659.0 405.4 L 659.9 406.2 L 660.6 405.9 L 660.5 404.7 L 660.7 402.5 L 659.6 400.6 L 657.6 400.0 L 657.4 398.0 L 657.6 396.1 L 658.6 394.9 L 659.0 393.2 L 659.0 388.0 L 657.6 386.1 L 657.1 383.2 L 656.3 381.3 L 655.0 379.5 L 653.6 377.9 L 652.7 376.5 L 652.5 372.7 L 653.0 369.5 L 653.4 368.1 L 653.9 368.3 L 655.4 369.9 L 656.6 370.3 L 658.9 370.6 L 661.3 370.1 L 664.2 368.7 L 666.9 366.9 L 670.9 361.8 L 673.4 360.8 L 674.6 359.4 L 675.1 357.6 L 676.1 357.1 L 677.3 358.9 L 678.9 359.1 L 681.2 360.5 L 682.3 361.9 L 683.1 363.6 L 684.0 364.4 L 684.9 364.8 L 685.0 365.2 L 684.3 365.6 L 683.5 367.5 L 683.9 368.1 L 685.2 369.1 Z M 659.2 427.2 L 657.9 430.3 L 656.5 428.1 L 656.5 426.2 L 656.7 425.6 L 658.3 426.4 L 659.2 427.2 Z M 654.8 364.1 L 654.1 365.5 L 653.0 365.4 L 653.4 364.3 L 654.4 362.2 L 655.6 361.4 L 656.1 362.1 L 655.6 363.3 L 654.8 364.1 Z" fill="#cfe3bf" stroke="#ffffff" stroke-width="2.2" stroke-linejoin="round"/>
<path d="M 304.6 -85.6 L 301.0 -83.5 L 300.5 -82.8 L 299.5 -79.6 L 299.4 -78.7 L 298.2 -77.1 L 297.1 -75.2 L 295.8 -74.5 L 294.0 -74.0 L 292.9 -73.4 L 291.5 -73.7 L 289.8 -73.6 L 289.0 -73.0 L 289.0 -72.5 L 289.5 -72.0 L 291.0 -71.1 L 292.7 -70.4 L 292.5 -69.7 L 291.6 -68.9 L 286.0 -67.1 L 284.3 -65.9 L 283.7 -65.2 L 284.3 -63.9 L 288.8 -60.2 L 289.6 -59.7 L 290.2 -57.6 L 294.2 -56.6 L 295.8 -55.3 L 297.2 -54.9 L 300.3 -55.1 L 301.5 -54.5 L 302.2 -54.9 L 302.6 -55.7 L 305.2 -57.5 L 306.0 -58.3 L 305.5 -59.5 L 305.0 -60.3 L 306.5 -62.0 L 308.4 -63.7 L 309.4 -63.7 L 311.0 -62.6 L 312.3 -61.2 L 312.5 -60.1 L 312.7 -59.3 L 314.0 -57.5 L 314.8 -56.9 L 317.0 -56.6 L 317.5 -55.9 L 317.1 -53.4 L 317.5 -52.5 L 319.8 -52.5 L 322.2 -52.7 L 323.0 -52.6 L 323.9 -53.1 L 325.3 -53.7 L 327.2 -53.5 L 328.2 -52.4 L 328.6 -51.2 L 326.9 -50.8 L 325.2 -51.0 L 324.3 -50.3 L 324.3 -48.8 L 324.9 -46.9 L 326.0 -45.5 L 327.0 -42.5 L 327.7 -39.2 L 328.9 -37.1 L 329.2 -34.6 L 329.0 -33.4 L 329.2 -31.2 L 328.7 -30.4 L 329.1 -28.3 L 330.5 -24.0 L 331.1 -21.6 L 331.5 -16.3 L 330.5 -14.4 L 329.2 -12.5 L 328.3 -10.3 L 327.6 -7.9 L 327.2 -4.0 L 324.3 0.5 L 323.1 1.6 L 321.7 2.3 L 324.8 5.4 L 322.2 6.9 L 319.5 7.3 L 316.4 6.5 L 314.5 6.6 L 312.7 7.6 L 312.0 8.2 L 311.5 7.9 L 310.3 5.4 L 309.5 8.0 L 307.7 8.9 L 304.7 8.7 L 299.6 9.4 L 297.6 10.2 L 296.8 11.4 L 296.2 12.7 L 295.4 13.6 L 294.5 14.0 L 290.6 15.0 L 289.8 15.4 L 288.0 17.6 L 285.7 18.9 L 283.7 19.3 L 281.9 18.0 L 281.2 17.2 L 280.4 16.8 L 277.7 16.9 L 278.6 17.3 L 279.1 18.2 L 279.4 20.0 L 279.1 21.7 L 277.7 22.6 L 276.2 22.7 L 273.7 24.5 L 270.4 25.0 L 268.6 26.6 L 257.7 29.4 L 257.1 29.4 L 255.5 28.7 L 253.9 28.4 L 252.3 28.6 L 247.7 30.2 L 245.5 29.9 L 248.3 26.0 L 252.1 24.1 L 252.5 23.5 L 251.3 23.3 L 244.1 24.6 L 241.6 25.8 L 239.1 26.1 L 240.2 24.4 L 243.4 22.0 L 245.2 20.8 L 246.2 20.4 L 247.4 19.0 L 250.8 17.4 L 239.9 20.7 L 237.0 20.3 L 236.3 19.3 L 234.1 19.8 L 233.2 17.5 L 236.5 14.2 L 238.5 12.7 L 240.8 11.9 L 243.0 10.8 L 243.8 9.4 L 242.8 9.0 L 236.1 9.3 L 233.0 9.0 L 233.1 7.9 L 233.7 6.7 L 237.0 4.6 L 238.8 4.3 L 240.4 4.5 L 241.9 5.0 L 243.2 5.7 L 246.9 5.3 L 245.4 4.0 L 245.1 1.3 L 243.9 0.4 L 245.4 -0.8 L 247.2 -1.6 L 250.1 -4.2 L 251.1 -4.6 L 256.9 -5.2 L 263.1 -6.5 L 269.3 -8.4 L 266.1 -9.5 L 264.6 -10.8 L 262.2 -8.0 L 260.4 -7.0 L 255.5 -6.4 L 253.9 -6.7 L 251.7 -7.6 L 251.0 -7.3 L 250.4 -6.6 L 247.1 -5.2 L 243.7 -4.9 L 247.7 -7.4 L 252.7 -11.7 L 253.9 -13.0 L 255.5 -15.3 L 255.0 -16.4 L 253.9 -17.0 L 257.6 -21.8 L 258.9 -22.7 L 261.3 -22.8 L 263.0 -23.6 L 263.7 -23.6 L 264.4 -23.8 L 265.9 -25.3 L 263.6 -26.2 L 261.2 -26.7 L 253.7 -26.2 L 252.8 -26.3 L 251.8 -26.7 L 251.2 -27.4 L 250.8 -29.0 L 250.2 -29.4 L 248.5 -29.4 L 246.9 -28.9 L 245.7 -28.9 L 244.6 -29.6 L 246.4 -31.3 L 244.1 -31.7 L 241.7 -31.4 L 239.7 -31.9 L 239.7 -32.9 L 240.6 -34.0 L 239.4 -35.0 L 239.1 -36.2 L 240.4 -36.8 L 241.7 -36.6 L 244.5 -37.6 L 248.1 -38.0 L 245.0 -38.9 L 243.8 -39.7 L 243.8 -40.9 L 244.0 -41.9 L 247.5 -43.7 L 251.3 -44.4 L 251.0 -45.6 L 251.3 -46.8 L 247.5 -47.2 L 243.7 -46.3 L 244.1 -48.7 L 245.0 -50.8 L 245.2 -52.2 L 245.0 -53.7 L 243.3 -53.1 L 243.1 -55.2 L 242.3 -56.6 L 239.7 -55.6 L 239.8 -57.6 L 240.5 -58.9 L 241.9 -59.5 L 243.2 -59.2 L 245.7 -59.3 L 248.2 -60.3 L 251.7 -60.5 L 257.2 -60.2 L 261.1 -57.4 L 262.1 -57.9 L 263.6 -59.7 L 264.3 -59.9 L 270.1 -59.1 L 273.7 -58.1 L 274.6 -58.4 L 274.1 -60.4 L 272.9 -61.8 L 274.4 -63.6 L 276.3 -64.8 L 277.6 -65.4 L 280.5 -66.2 L 281.8 -66.9 L 282.6 -69.2 L 283.9 -71.2 L 276.6 -70.2 L 269.7 -72.5 L 270.8 -74.1 L 272.3 -75.0 L 274.8 -75.7 L 275.0 -76.6 L 276.3 -77.3 L 278.4 -79.1 L 277.7 -81.5 L 278.1 -83.3 L 279.6 -84.5 L 280.1 -86.1 L 280.8 -87.3 L 283.8 -87.8 L 286.8 -88.9 L 287.9 -88.8 L 291.4 -89.1 L 292.6 -88.6 L 292.3 -90.6 L 294.5 -90.9 L 295.3 -90.5 L 295.7 -89.1 L 296.7 -88.1 L 297.0 -86.6 L 296.3 -85.4 L 295.2 -84.4 L 296.2 -83.5 L 294.7 -81.7 L 296.3 -82.5 L 298.7 -84.2 L 298.6 -85.6 L 298.2 -87.3 L 297.5 -88.9 L 297.8 -90.6 L 299.2 -91.7 L 302.7 -92.2 L 301.3 -94.2 L 302.6 -94.4 L 304.0 -94.0 L 306.0 -92.4 L 308.2 -91.2 L 310.4 -90.3 L 308.3 -88.4 L 305.6 -87.0 L 304.6 -85.6 Z" fill="#cfe3bf" stroke="#ffffff" stroke-width="2.2" stroke-linejoin="round"/>
<path d="M 682.8 156.6 L 678.9 154.2 L 675.1 151.9 L 673.8 151.9 L 668.3 152.3 L 668.1 152.1 L 667.1 150.8 L 666.3 150.4 L 665.8 150.6 L 665.4 151.0 L 664.8 150.9 L 662.3 148.8 L 661.3 148.5 L 659.9 148.8 L 658.2 149.9 L 657.5 151.3 L 657.7 152.1 L 658.6 152.5 L 660.8 152.2 L 661.2 152.5 L 661.3 152.9 L 661.0 153.4 L 659.2 153.7 L 658.6 154.3 L 658.1 154.4 L 657.7 154.5 L 655.8 153.9 L 652.8 153.9 L 650.5 154.9 L 646.7 155.3 L 641.5 155.1 L 639.7 154.4 L 638.6 153.9 L 637.7 151.8 L 637.9 148.6 L 639.2 144.4 L 639.5 141.3 L 639.0 139.3 L 639.7 136.3 L 641.7 132.4 L 643.1 128.2 L 643.7 123.8 L 644.7 121.0 L 646.6 119.0 L 651.2 113.4 L 651.5 113.0 L 651.4 110.2 L 650.2 109.8 L 648.4 109.0 L 643.8 108.0 L 639.6 107.4 L 637.6 106.6 L 636.0 104.5 L 634.9 104.4 L 632.9 105.2 L 630.3 105.7 L 628.4 105.3 L 627.3 105.3 L 626.6 105.7 L 626.3 105.4 L 625.8 103.6 L 624.8 103.1 L 623.3 102.7 L 622.4 102.9 L 621.7 103.8 L 620.7 104.4 L 619.8 104.2 L 616.9 100.0 L 616.2 99.1 L 616.0 98.3 L 615.3 96.7 L 613.5 95.2 L 611.8 94.7 L 611.0 94.9 L 611.1 92.9 L 611.7 90.2 L 612.4 88.7 L 613.2 87.5 L 614.1 86.7 L 614.3 85.2 L 614.2 83.8 L 613.2 83.6 L 610.5 82.5 L 609.0 81.4 L 607.8 80.1 L 606.3 78.2 L 605.7 76.2 L 605.6 74.3 L 605.8 73.5 L 605.9 72.9 L 607.1 69.9 L 611.4 67.2 L 611.0 64.5 L 610.9 62.9 L 609.9 61.8 L 607.8 61.4 L 607.2 60.6 L 607.0 59.9 L 608.5 58.2 L 606.7 56.9 L 605.9 55.6 L 603.3 53.9 L 603.1 53.3 L 604.3 48.4 L 603.3 46.9 L 602.2 46.2 L 600.8 45.8 L 600.2 45.2 L 600.0 44.4 L 600.2 43.9 L 601.8 44.0 L 602.3 43.5 L 606.1 40.6 L 606.3 40.1 L 605.8 39.7 L 605.1 39.6 L 604.9 39.0 L 604.9 38.2 L 606.9 34.0 L 607.5 32.2 L 607.7 30.9 L 607.6 29.7 L 606.4 27.7 L 605.2 26.2 L 605.2 24.9 L 604.4 24.3 L 602.0 20.9 L 602.0 19.7 L 603.4 18.7 L 605.2 18.0 L 605.8 17.5 L 607.0 17.2 L 609.9 18.1 L 611.2 18.9 L 611.6 18.8 L 612.8 17.9 L 614.9 18.0 L 619.9 16.2 L 620.7 15.3 L 621.3 14.4 L 621.3 14.0 L 619.4 12.2 L 619.3 11.5 L 619.6 10.8 L 620.1 10.2 L 621.3 9.8 L 622.5 9.0 L 625.3 6.8 L 626.2 4.8 L 626.5 2.7 L 626.6 1.2 L 625.8 -0.1 L 625.1 -0.9 L 624.0 -0.8 L 622.0 -0.8 L 620.1 -1.5 L 619.1 -2.6 L 618.8 -3.6 L 619.3 -4.3 L 619.4 -5.0 L 619.1 -5.8 L 619.2 -6.4 L 620.1 -7.0 L 626.1 -6.9 L 626.5 -7.5 L 626.9 -10.5 L 628.4 -15.0 L 629.8 -17.6 L 630.1 -18.6 L 630.0 -24.7 L 630.2 -27.7 L 629.2 -29.1 L 627.0 -30.7 L 627.5 -33.9 L 628.2 -36.5 L 630.4 -39.6 L 632.2 -40.5 L 640.0 -41.0 L 648.6 -40.8 L 652.1 -36.1 L 650.8 -33.6 L 652.9 -32.5 L 653.9 -32.9 L 654.7 -35.0 L 655.2 -37.4 L 655.9 -38.1 L 658.6 -36.3 L 659.5 -35.1 L 659.6 -31.3 L 660.5 -36.5 L 659.8 -40.1 L 660.3 -43.7 L 661.4 -45.5 L 662.3 -46.7 L 668.6 -45.4 L 675.6 -46.1 L 678.2 -44.7 L 684.2 -37.9 L 686.2 -36.8 L 688.7 -36.4 L 685.2 -37.9 L 678.0 -46.2 L 675.8 -47.2 L 672.5 -47.5 L 670.5 -48.3 L 669.2 -49.6 L 668.8 -50.7 L 668.8 -59.0 L 667.6 -60.2 L 666.0 -60.7 L 665.0 -60.1 L 662.9 -60.1 L 662.5 -62.0 L 663.0 -63.4 L 667.1 -64.3 L 669.9 -65.6 L 670.0 -67.9 L 668.3 -69.7 L 666.2 -72.9 L 663.8 -76.0 L 663.5 -79.6 L 663.5 -79.6 L 667.7 -79.5 L 668.8 -79.4 L 675.2 -77.7 L 676.7 -76.5 L 678.7 -76.5 L 682.2 -77.6 L 684.9 -78.0 L 685.9 -77.4 L 687.3 -77.1 L 687.7 -77.1 L 687.8 -76.5 L 691.1 -75.6 L 692.5 -74.3 L 694.0 -72.2 L 694.2 -69.3 L 692.2 -67.1 L 690.6 -65.8 L 696.8 -66.3 L 697.4 -65.1 L 698.3 -63.7 L 701.7 -64.7 L 710.1 -60.8 L 715.1 -62.7 L 716.4 -62.8 L 717.6 -59.6 L 716.3 -56.5 L 711.9 -53.1 L 712.8 -51.0 L 714.3 -50.5 L 718.5 -51.0 L 725.2 -48.9 L 726.5 -49.5 L 732.0 -54.3 L 734.1 -55.3 L 741.2 -56.0 L 742.5 -57.9 L 745.4 -59.7 L 747.3 -61.8 L 751.7 -65.6 L 756.3 -64.9 L 759.0 -64.2 L 762.0 -63.8 L 764.6 -59.7 L 771.4 -55.2 L 777.7 -55.6 L 779.9 -51.3 L 780.9 -46.0 L 782.8 -44.3 L 784.5 -43.2 L 789.5 -42.1 L 789.7 -42.0 L 789.9 -41.3 L 790.2 -38.7 L 790.6 -36.5 L 793.3 -27.7 L 793.2 -25.6 L 793.2 -25.0 L 792.2 -22.0 L 790.5 -19.5 L 788.3 -18.1 L 787.0 -16.5 L 786.8 -14.8 L 789.6 -11.7 L 795.5 -7.3 L 797.9 -3.6 L 796.8 -0.5 L 796.4 1.8 L 796.9 3.3 L 797.8 4.5 L 799.3 5.3 L 799.8 6.7 L 799.5 8.5 L 799.8 9.8 L 800.9 10.7 L 800.8 11.1 L 800.3 12.4 L 799.6 14.7 L 799.1 16.4 L 797.5 18.7 L 798.0 20.7 L 799.3 23.0 L 800.3 24.2 L 800.6 25.3 L 800.0 27.9 L 800.3 28.6 L 804.4 30.5 L 805.0 31.4 L 805.4 33.3 L 806.9 37.3 L 805.7 42.3 L 804.6 45.1 L 802.3 49.4 L 802.2 49.9 L 801.9 50.4 L 801.2 51.2 L 800.2 51.3 L 798.8 50.7 L 797.8 50.0 L 798.0 48.1 L 797.3 47.9 L 796.5 46.8 L 796.2 45.5 L 795.4 45.0 L 792.2 44.5 L 791.1 44.1 L 790.3 44.4 L 789.7 45.3 L 790.1 46.1 L 790.7 46.9 L 792.4 48.1 L 792.2 48.6 L 788.5 49.8 L 786.1 51.0 L 783.9 51.7 L 781.6 53.0 L 777.2 54.4 L 773.9 54.8 L 773.2 55.2 L 772.0 57.6 L 771.2 58.1 L 770.4 57.8 L 769.8 57.4 L 769.0 57.8 L 768.2 58.6 L 767.4 58.9 L 766.7 58.9 L 765.4 61.0 L 761.7 61.6 L 761.2 62.7 L 760.6 64.0 L 760.0 64.3 L 758.3 63.8 L 756.0 63.5 L 754.7 64.2 L 753.1 64.6 L 751.1 64.7 L 748.9 66.1 L 746.8 68.6 L 745.6 70.8 L 745.0 71.5 L 743.9 69.5 L 742.7 68.1 L 741.8 67.4 L 741.0 67.4 L 740.8 67.7 L 740.7 68.7 L 741.6 70.5 L 742.7 71.7 L 742.8 72.6 L 743.4 74.2 L 745.0 76.0 L 747.4 77.4 L 749.1 78.8 L 750.3 80.7 L 750.3 81.3 L 750.0 82.0 L 749.4 82.8 L 748.9 83.7 L 747.5 85.7 L 747.9 86.5 L 749.0 87.6 L 750.0 88.9 L 751.3 90.9 L 753.0 94.6 L 754.1 96.1 L 755.6 97.6 L 757.1 98.8 L 759.4 98.8 L 761.8 101.0 L 764.5 104.3 L 766.5 105.8 L 767.8 106.2 L 769.0 107.4 L 770.0 109.1 L 770.4 110.1 L 771.3 110.8 L 773.7 110.6 L 776.8 113.3 L 778.7 115.2 L 779.7 116.8 L 779.4 117.4 L 779.3 119.4 L 779.4 121.4 L 779.0 122.5 L 777.7 124.0 L 776.9 124.3 L 776.6 124.6 L 772.3 122.7 L 772.0 123.0 L 771.7 123.3 L 770.6 128.7 L 769.8 129.8 L 768.6 130.7 L 766.2 131.7 L 764.5 132.1 L 763.2 132.5 L 759.0 134.8 L 757.1 136.2 L 755.9 137.9 L 755.9 138.9 L 757.9 141.8 L 760.3 144.8 L 760.3 147.5 L 759.2 149.5 L 759.0 150.2 L 759.7 150.5 L 761.0 150.6 L 762.1 151.0 L 762.5 152.4 L 762.4 154.8 L 762.0 157.1 L 761.6 158.0 L 760.6 158.1 L 758.6 157.1 L 757.0 156.0 L 756.4 155.3 L 756.4 154.4 L 756.7 153.9 L 756.1 152.9 L 754.2 151.9 L 752.1 152.3 L 750.6 153.0 L 749.6 152.9 L 748.6 152.0 L 746.9 151.3 L 744.8 150.9 L 743.4 150.4 L 743.2 150.6 L 743.3 152.6 L 742.9 153.5 L 732.3 154.7 L 729.1 155.7 L 726.7 157.1 L 725.0 157.7 L 724.6 158.6 L 722.9 159.7 L 720.9 160.1 L 720.5 159.7 L 719.2 160.3 L 717.1 160.8 L 715.7 160.6 L 715.1 159.7 L 713.7 158.3 L 713.2 157.3 L 713.3 156.7 L 710.3 156.6 L 708.4 155.8 L 704.5 156.0 L 703.5 155.7 L 703.3 156.0 L 702.7 160.0 L 701.9 161.6 L 700.6 163.3 L 699.0 164.2 L 697.7 164.4 L 697.7 163.2 L 698.1 161.7 L 697.1 161.4 L 695.7 161.2 L 695.0 160.8 L 695.2 159.6 L 694.9 159.0 L 694.3 158.2 L 692.9 157.2 L 689.9 155.7 L 687.9 154.9 L 687.1 155.7 L 685.7 156.5 L 683.4 156.2 L 682.8 156.6 Z" fill="#cfe3bf" stroke="#ffffff" stroke-width="2.2" stroke-linejoin="round"/>
<path d="M 681.8 307.6 L 681.2 312.3 L 681.6 313.6 L 682.5 314.6 L 682.8 315.7 L 683.5 328.2 L 683.4 329.2 L 680.6 334.2 L 680.0 335.7 L 679.9 341.9 L 679.4 343.6 L 678.4 345.3 L 676.7 350.6 L 675.2 353.0 L 671.0 350.1 L 668.6 348.8 L 667.4 347.5 L 666.6 346.5 L 667.1 345.3 L 668.2 343.9 L 668.4 342.9 L 665.8 341.8 L 664.6 341.0 L 664.6 339.6 L 665.5 337.5 L 665.1 335.7 L 663.6 335.8 L 662.4 335.6 L 662.3 334.6 L 663.1 333.5 L 664.2 332.0 L 664.2 330.3 L 662.9 329.6 L 661.6 328.2 L 661.2 326.3 L 662.1 325.1 L 663.6 324.2 L 662.5 322.3 L 661.7 322.3 L 661.1 321.9 L 661.6 321.0 L 662.8 319.7 L 664.5 315.7 L 666.8 313.9 L 670.8 312.7 L 671.9 312.2 L 673.0 310.8 L 674.1 309.9 L 675.4 310.0 L 676.7 310.5 L 677.5 311.1 L 678.0 310.5 L 678.6 308.8 L 678.3 307.3 L 678.4 303.1 L 679.2 300.8 L 680.3 300.7 L 681.4 301.9 L 681.4 303.1 L 681.8 305.8 L 681.8 307.6 Z M 639.7 154.4 L 637.0 155.8 L 636.3 157.1 L 635.3 158.8 L 633.5 159.5 L 631.8 159.7 L 630.4 159.5 L 629.6 158.8 L 629.6 158.2 L 628.9 157.7 L 627.0 157.7 L 625.1 158.8 L 623.5 160.7 L 624.0 161.8 L 625.4 162.1 L 625.8 162.5 L 625.8 163.0 L 625.3 163.7 L 624.7 164.8 L 621.7 168.1 L 618.7 171.5 L 618.3 172.5 L 617.3 173.2 L 613.5 175.0 L 613.1 175.7 L 612.9 178.7 L 612.5 181.2 L 609.6 183.5 L 606.8 185.8 L 606.1 187.2 L 605.6 188.8 L 604.7 190.7 L 604.6 191.6 L 606.0 193.2 L 605.8 194.5 L 605.4 196.4 L 604.0 197.7 L 602.5 198.5 L 602.5 200.5 L 603.3 200.8 L 605.1 200.6 L 607.7 199.2 L 609.4 197.3 L 608.4 195.5 L 608.3 195.1 L 608.5 194.7 L 610.5 192.7 L 612.9 191.6 L 616.3 191.3 L 620.3 192.0 L 620.7 192.3 L 620.5 193.5 L 620.9 195.3 L 621.6 196.5 L 620.6 200.1 L 621.4 201.2 L 622.6 202.5 L 623.5 203.7 L 624.7 204.8 L 625.9 206.7 L 626.3 207.7 L 624.4 209.6 L 621.4 211.3 L 621.0 212.4 L 621.1 213.6 L 621.4 214.6 L 623.1 215.9 L 624.9 218.8 L 626.1 221.3 L 628.6 223.8 L 629.2 224.5 L 629.1 225.1 L 628.4 226.2 L 627.5 229.7 L 626.5 230.2 L 625.4 230.4 L 622.2 233.0 L 620.8 232.7 L 618.8 232.7 L 617.4 233.6 L 617.5 235.2 L 618.8 236.6 L 619.6 238.2 L 619.9 239.9 L 621.3 241.1 L 623.3 241.8 L 624.4 241.9 L 625.2 242.3 L 625.6 242.9 L 626.5 246.4 L 626.0 247.3 L 624.9 247.7 L 624.2 249.1 L 623.0 251.3 L 622.2 253.0 L 623.0 254.5 L 623.4 255.6 L 623.0 256.8 L 623.5 258.6 L 625.0 260.4 L 629.2 262.9 L 633.0 264.9 L 634.2 265.3 L 639.3 264.0 L 640.2 264.1 L 640.8 265.6 L 641.1 266.7 L 640.5 268.3 L 639.1 270.4 L 637.6 272.2 L 636.7 273.7 L 636.9 275.0 L 636.9 276.8 L 635.7 277.3 L 635.6 277.0 L 635.1 276.7 L 634.7 276.8 L 634.4 277.2 L 634.3 277.9 L 631.7 279.1 L 629.9 280.2 L 622.7 287.3 L 619.4 289.4 L 618.7 290.6 L 618.0 293.0 L 616.1 295.0 L 614.4 295.9 L 610.1 296.9 L 605.8 299.0 L 603.9 298.1 L 598.9 298.2 L 595.8 295.6 L 589.8 294.0 L 587.8 290.3 L 585.1 290.1 L 583.3 290.2 L 582.3 289.6 L 582.0 288.3 L 582.0 287.1 L 580.1 287.7 L 578.6 287.7 L 577.8 288.2 L 577.1 288.7 L 576.3 288.4 L 575.8 288.5 L 575.8 289.2 L 574.1 289.4 L 572.2 289.0 L 567.3 287.0 L 566.5 286.7 L 563.1 286.0 L 561.7 285.2 L 560.6 283.3 L 559.7 282.7 L 559.2 282.4 L 556.0 283.3 L 554.9 284.8 L 553.2 286.6 L 541.3 295.2 L 539.1 298.8 L 536.6 304.1 L 536.4 306.5 L 537.5 314.4 L 539.9 318.6 L 540.2 319.5 L 538.9 319.5 L 536.6 319.0 L 534.7 318.4 L 533.0 318.7 L 531.3 319.6 L 529.8 320.1 L 528.7 320.3 L 528.0 320.8 L 527.6 321.8 L 527.6 322.4 L 525.7 322.3 L 521.3 320.8 L 517.4 319.9 L 515.1 321.0 L 513.6 322.0 L 512.5 321.9 L 511.7 320.8 L 511.2 319.7 L 509.7 318.7 L 506.2 317.2 L 506.4 316.5 L 507.0 315.5 L 507.0 314.9 L 506.3 314.0 L 503.1 313.0 L 501.6 312.8 L 500.6 313.4 L 499.9 314.3 L 498.1 311.2 L 496.9 310.6 L 495.0 310.5 L 492.8 309.6 L 490.5 308.4 L 484.9 306.5 L 483.4 306.3 L 482.8 306.6 L 482.4 307.7 L 482.2 310.9 L 481.9 311.3 L 479.4 311.4 L 476.2 310.9 L 474.7 311.2 L 473.4 311.2 L 472.2 310.3 L 466.7 311.3 L 465.8 310.8 L 464.5 309.4 L 463.0 308.2 L 461.9 307.6 L 460.9 306.9 L 460.0 306.8 L 458.7 307.5 L 456.8 307.8 L 455.2 307.7 L 454.4 307.8 L 450.9 304.2 L 450.4 303.3 L 448.7 303.0 L 446.6 303.0 L 441.1 300.7 L 438.6 299.4 L 438.3 298.7 L 438.3 298.1 L 437.9 298.2 L 437.1 299.3 L 436.7 300.1 L 436.2 300.3 L 435.4 300.2 L 434.7 299.7 L 434.2 299.1 L 434.7 298.0 L 435.5 296.6 L 435.9 295.0 L 435.8 293.7 L 434.4 292.8 L 432.4 292.4 L 430.9 292.3 L 429.0 291.5 L 428.1 290.9 L 427.2 289.4 L 427.1 288.3 L 430.8 287.3 L 434.1 283.3 L 437.3 268.7 L 439.5 251.4 L 441.2 248.2 L 443.3 247.3 L 441.6 244.9 L 440.5 246.1 L 440.1 247.4 L 439.5 248.0 L 440.8 232.2 L 441.7 226.4 L 443.2 220.3 L 446.4 222.7 L 449.0 225.2 L 450.3 227.3 L 452.1 234.3 L 453.3 235.8 L 455.3 237.3 L 454.5 235.7 L 453.2 234.5 L 451.1 225.0 L 449.8 222.4 L 447.8 220.1 L 441.2 215.4 L 440.6 214.5 L 440.3 212.7 L 442.5 212.7 L 444.4 213.6 L 444.1 212.6 L 443.6 211.6 L 442.7 207.7 L 442.0 198.8 L 442.1 197.3 L 441.8 195.4 L 439.7 195.0 L 438.0 194.9 L 436.2 194.1 L 427.3 188.9 L 424.3 183.4 L 421.1 179.4 L 420.4 177.7 L 420.4 175.9 L 422.1 172.1 L 420.6 169.8 L 419.2 169.3 L 418.0 168.1 L 419.1 166.2 L 420.0 164.9 L 421.9 164.6 L 424.3 165.0 L 426.5 166.1 L 428.3 166.4 L 423.0 163.4 L 414.5 164.4 L 412.7 164.0 L 411.1 163.4 L 410.5 161.1 L 411.7 160.1 L 412.8 158.3 L 411.6 157.0 L 410.0 156.5 L 407.4 156.5 L 405.1 156.9 L 404.5 156.1 L 405.9 154.1 L 404.7 153.3 L 403.1 153.7 L 400.7 154.1 L 398.4 153.5 L 396.3 151.1 L 394.9 151.1 L 393.9 151.4 L 392.5 150.5 L 391.0 150.3 L 389.9 150.6 L 388.4 149.2 L 379.5 146.5 L 375.7 146.2 L 372.2 147.4 L 370.3 147.0 L 368.8 145.3 L 367.6 142.3 L 362.0 140.1 L 363.1 138.6 L 365.7 138.2 L 368.8 137.2 L 369.9 135.9 L 367.5 134.4 L 365.7 134.0 L 365.0 133.4 L 364.3 132.1 L 365.3 131.4 L 366.1 131.8 L 368.2 132.0 L 371.9 131.6 L 370.5 130.2 L 369.1 129.9 L 368.4 129.6 L 365.5 129.4 L 364.1 129.9 L 361.1 129.7 L 360.4 128.2 L 360.1 126.9 L 361.0 124.1 L 365.3 121.5 L 376.0 118.7 L 380.6 119.1 L 383.8 118.6 L 387.6 116.8 L 389.2 115.3 L 394.7 114.4 L 399.8 116.0 L 404.6 122.1 L 406.8 124.2 L 412.4 120.6 L 420.7 120.7 L 422.4 122.7 L 423.1 121.0 L 424.6 119.0 L 425.8 119.9 L 426.4 121.2 L 435.2 120.8 L 436.6 120.5 L 434.2 119.0 L 432.3 115.6 L 431.9 102.9 L 429.5 99.3 L 426.7 93.7 L 425.4 90.3 L 425.3 89.1 L 425.7 87.5 L 429.1 87.5 L 431.8 88.0 L 436.8 86.7 L 439.2 87.6 L 439.1 90.2 L 439.8 93.5 L 440.7 95.1 L 441.9 96.9 L 446.0 96.8 L 450.4 97.8 L 455.9 98.0 L 464.0 99.8 L 467.4 98.8 L 470.7 96.5 L 477.1 95.0 L 477.6 94.2 L 473.9 94.5 L 470.6 93.1 L 470.1 91.5 L 470.5 90.1 L 471.9 86.8 L 481.6 81.7 L 488.5 80.2 L 495.8 77.4 L 499.4 74.5 L 501.9 70.8 L 502.6 70.0 L 503.6 69.3 L 502.7 67.9 L 503.3 53.7 L 504.0 51.1 L 505.4 49.0 L 507.6 47.4 L 510.9 45.6 L 522.9 43.2 L 524.7 42.2 L 524.9 43.8 L 525.8 45.7 L 526.4 46.8 L 525.9 48.2 L 526.3 49.3 L 528.0 51.4 L 530.0 53.3 L 531.8 54.6 L 532.3 54.4 L 533.7 54.1 L 535.9 52.8 L 537.8 52.4 L 538.9 53.4 L 539.5 53.9 L 540.7 56.1 L 541.1 58.4 L 541.6 60.3 L 542.6 61.1 L 546.2 61.4 L 548.9 62.1 L 549.6 62.7 L 550.5 66.9 L 551.0 67.5 L 551.7 67.0 L 552.3 66.3 L 553.2 66.2 L 554.8 66.5 L 556.9 66.6 L 559.0 67.1 L 562.0 69.5 L 561.8 70.2 L 561.3 71.6 L 561.1 72.7 L 561.6 73.2 L 562.4 74.3 L 562.2 75.6 L 561.4 76.6 L 561.1 77.3 L 561.1 77.8 L 561.4 78.2 L 562.0 78.6 L 566.3 79.1 L 570.3 78.6 L 572.8 77.3 L 573.3 75.8 L 574.0 74.2 L 575.5 72.9 L 576.5 72.4 L 577.5 73.0 L 575.9 78.6 L 577.0 80.1 L 577.2 82.2 L 577.6 84.1 L 579.0 84.1 L 580.8 84.4 L 582.0 85.1 L 583.4 86.3 L 585.5 87.3 L 586.9 87.6 L 587.4 88.5 L 588.6 89.5 L 590.4 91.6 L 592.1 93.0 L 592.9 93.0 L 594.4 92.4 L 596.7 92.1 L 598.4 92.1 L 599.2 93.2 L 601.0 93.7 L 601.6 94.1 L 602.3 94.8 L 603.4 95.1 L 604.9 94.8 L 605.9 93.8 L 607.3 93.4 L 608.7 93.5 L 609.5 94.1 L 611.0 94.9 L 611.8 94.7 L 613.5 95.2 L 615.3 96.7 L 616.0 98.3 L 616.2 99.1 L 616.9 100.0 L 619.8 104.2 L 620.7 104.4 L 621.7 103.8 L 622.4 102.9 L 623.3 102.7 L 624.8 103.1 L 625.8 103.6 L 626.3 105.4 L 626.6 105.7 L 627.3 105.3 L 628.4 105.3 L 630.3 105.7 L 632.9 105.2 L 634.9 104.4 L 636.0 104.5 L 637.6 106.6 L 639.6 107.4 L 643.8 108.0 L 648.4 109.0 L 650.2 109.8 L 651.4 110.2 L 651.5 113.0 L 651.2 113.4 L 646.6 119.0 L 644.7 121.0 L 643.7 123.8 L 643.1 128.2 L 641.7 132.4 L 639.7 136.3 L 639.0 139.3 L 639.5 141.3 L 639.2 144.4 L 637.9 148.6 L 637.7 151.8 L 638.6 153.9 L 639.7 154.4 Z M 441.0 208.4 L 440.2 211.2 L 438.7 208.6 L 436.7 206.4 L 436.3 204.3 L 436.3 203.7 L 438.6 205.3 L 441.0 208.4 Z" fill="#cfe3bf" stroke="#ffffff" stroke-width="2.2" stroke-linejoin="round"/>
<path d="M 893.0 93.0 L 892.5 93.0 L 891.2 93.5 L 889.5 93.7 L 887.7 93.6 L 886.3 94.5 L 885.0 95.9 L 883.6 96.8 L 882.9 97.7 L 882.5 98.6 L 877.9 101.1 L 877.2 102.2 L 876.7 103.6 L 876.5 105.5 L 876.2 107.3 L 875.4 108.2 L 872.9 109.0 L 872.3 109.4 L 871.8 110.3 L 870.4 111.6 L 868.8 112.9 L 865.8 114.4 L 862.6 114.8 L 858.4 114.4 L 855.9 113.8 L 854.7 114.4 L 853.1 116.4 L 851.3 119.7 L 850.6 122.2 L 850.0 121.5 L 849.0 118.8 L 847.9 118.5 L 846.3 118.2 L 845.2 117.8 L 842.6 116.3 L 841.4 115.9 L 839.9 115.7 L 838.4 116.6 L 837.4 117.7 L 834.0 117.7 L 830.4 117.2 L 825.1 113.7 L 823.8 113.6 L 822.3 113.8 L 820.0 113.0 L 815.6 110.7 L 813.5 110.2 L 812.2 110.5 L 811.0 111.0 L 810.1 111.1 L 809.6 110.3 L 808.0 109.4 L 806.3 109.3 L 805.9 109.9 L 805.3 114.9 L 804.7 116.7 L 802.5 116.6 L 801.7 117.4 L 799.9 119.8 L 799.5 122.2 L 796.4 121.7 L 794.9 121.3 L 793.6 121.6 L 792.2 122.9 L 788.2 122.8 L 785.0 122.1 L 783.6 119.2 L 782.2 118.0 L 780.4 117.0 L 779.7 116.8 L 778.7 115.2 L 776.8 113.3 L 773.7 110.6 L 771.3 110.8 L 770.4 110.1 L 770.0 109.1 L 769.0 107.4 L 767.8 106.2 L 766.5 105.8 L 764.5 104.3 L 761.8 101.0 L 759.4 98.8 L 757.1 98.8 L 755.6 97.6 L 754.1 96.1 L 753.0 94.6 L 751.3 90.9 L 750.0 88.9 L 749.0 87.6 L 747.9 86.5 L 747.5 85.7 L 748.9 83.7 L 749.4 82.8 L 750.0 82.0 L 750.3 81.3 L 750.3 80.7 L 749.1 78.8 L 747.4 77.4 L 745.0 76.0 L 743.4 74.2 L 742.8 72.6 L 742.7 71.7 L 741.6 70.5 L 740.7 68.7 L 740.8 67.7 L 741.0 67.4 L 741.8 67.4 L 742.7 68.1 L 743.9 69.5 L 745.0 71.5 L 745.6 70.8 L 746.8 68.6 L 748.9 66.1 L 751.1 64.7 L 753.1 64.6 L 754.7 64.2 L 756.0 63.5 L 758.3 63.8 L 760.0 64.3 L 760.6 64.0 L 761.2 62.7 L 761.7 61.6 L 765.4 61.0 L 766.7 58.9 L 767.4 58.9 L 768.2 58.6 L 769.0 57.8 L 769.8 57.4 L 770.4 57.8 L 771.2 58.1 L 772.0 57.6 L 773.2 55.2 L 773.9 54.8 L 777.2 54.4 L 781.6 53.0 L 783.9 51.7 L 786.1 51.0 L 788.5 49.8 L 792.2 48.6 L 792.4 48.1 L 790.7 46.9 L 790.1 46.1 L 789.7 45.3 L 790.3 44.4 L 791.1 44.1 L 792.2 44.5 L 795.4 45.0 L 796.2 45.5 L 796.5 46.8 L 797.3 47.9 L 798.0 48.1 L 797.8 50.0 L 798.8 50.7 L 800.2 51.3 L 801.2 51.2 L 801.9 50.4 L 802.2 49.9 L 804.1 49.8 L 806.1 49.0 L 806.3 47.7 L 806.1 45.2 L 806.3 44.9 L 809.3 45.6 L 812.3 46.7 L 812.7 49.1 L 813.5 50.3 L 814.5 51.4 L 815.4 51.9 L 817.0 51.9 L 821.0 53.4 L 823.0 53.7 L 825.0 54.7 L 826.7 55.7 L 827.9 55.9 L 828.5 57.0 L 829.2 57.8 L 830.6 57.2 L 835.4 56.4 L 837.2 57.5 L 838.4 58.6 L 838.6 59.0 L 837.9 60.0 L 837.6 60.8 L 837.1 61.3 L 835.5 61.9 L 834.5 62.8 L 833.8 63.8 L 834.3 64.7 L 835.7 65.4 L 836.6 65.6 L 837.0 66.3 L 840.1 69.4 L 842.6 73.4 L 843.5 74.1 L 844.4 74.2 L 845.5 73.6 L 846.7 72.3 L 848.1 71.4 L 849.3 70.9 L 851.4 69.8 L 851.5 69.0 L 849.7 66.3 L 848.7 64.1 L 849.0 63.7 L 851.2 64.0 L 855.1 65.2 L 861.0 69.2 L 862.1 69.2 L 864.2 68.9 L 866.5 68.2 L 867.5 67.5 L 867.9 67.8 L 868.3 70.0 L 867.7 71.1 L 865.0 72.3 L 865.1 72.9 L 865.8 73.6 L 867.0 74.1 L 868.5 75.5 L 869.5 77.1 L 870.4 77.9 L 871.4 78.2 L 873.9 77.4 L 874.6 76.7 L 874.9 76.2 L 875.4 76.3 L 876.2 77.1 L 876.5 77.6 L 878.9 78.5 L 880.3 79.6 L 881.1 80.1 L 882.1 79.6 L 885.9 80.5 L 887.0 81.2 L 887.3 82.4 L 887.1 83.2 L 887.7 85.1 L 892.5 89.7 L 893.0 92.1 L 893.0 93.0 Z" fill="#cfe3bf" stroke="#ffffff" stroke-width="2.2" stroke-linejoin="round"/>
<path d="M 563.1 33.0 L 564.9 33.8 L 566.5 33.9 L 567.1 33.6 L 566.7 31.7 L 568.0 30.6 L 569.4 30.1 L 570.0 31.0 L 571.3 31.8 L 572.3 31.8 L 575.1 29.6 L 575.7 30.1 L 576.3 30.9 L 576.4 31.5 L 576.6 32.2 L 577.2 32.4 L 579.3 32.3 L 580.4 31.1 L 581.3 30.3 L 581.9 30.8 L 582.3 32.3 L 582.9 34.3 L 585.4 36.4 L 587.6 37.0 L 590.3 36.6 L 591.4 36.2 L 592.1 36.5 L 592.8 37.7 L 594.4 39.0 L 597.6 39.9 L 598.6 40.4 L 599.3 41.3 L 599.1 42.6 L 597.5 45.7 L 597.3 46.6 L 597.5 46.9 L 597.2 47.5 L 595.2 49.6 L 595.0 50.3 L 595.7 51.5 L 596.3 52.5 L 596.3 52.5 L 597.5 53.0 L 598.6 53.2 L 600.8 53.3 L 603.1 53.3 L 603.3 53.9 L 605.9 55.6 L 606.7 56.9 L 608.5 58.2 L 607.0 59.9 L 607.2 60.6 L 607.8 61.4 L 609.9 61.8 L 610.9 62.9 L 611.0 64.5 L 611.4 67.2 L 607.1 69.9 L 605.9 72.9 L 605.8 73.5 L 605.7 73.4 L 605.2 72.4 L 604.4 72.4 L 602.7 72.0 L 600.2 74.7 L 599.1 76.9 L 598.4 78.6 L 597.4 79.9 L 597.2 81.3 L 597.3 81.9 L 597.0 82.7 L 597.0 83.5 L 598.4 85.1 L 598.8 85.9 L 600.5 88.7 L 600.0 89.7 L 599.5 90.8 L 599.0 91.6 L 598.4 92.1 L 596.7 92.1 L 594.4 92.4 L 592.9 93.0 L 592.1 93.0 L 590.4 91.6 L 588.6 89.5 L 587.4 88.5 L 586.9 87.6 L 585.5 87.3 L 583.4 86.3 L 582.0 85.1 L 580.8 84.4 L 579.0 84.1 L 577.6 84.1 L 577.2 82.2 L 577.0 80.1 L 575.9 78.6 L 577.5 73.0 L 576.5 72.4 L 575.5 72.9 L 574.0 74.2 L 573.3 75.8 L 572.8 77.3 L 570.3 78.6 L 566.3 79.1 L 562.0 78.6 L 561.4 78.2 L 561.1 77.8 L 561.1 77.3 L 561.4 76.6 L 562.2 75.6 L 562.4 74.3 L 561.6 73.2 L 561.1 72.7 L 561.3 71.6 L 561.8 70.2 L 562.0 69.5 L 559.0 67.1 L 556.9 66.6 L 554.8 66.5 L 553.2 66.2 L 552.3 66.3 L 551.7 67.0 L 551.0 67.5 L 550.5 66.9 L 549.6 62.7 L 548.9 62.1 L 546.2 61.4 L 542.6 61.1 L 541.6 60.3 L 541.1 58.4 L 540.7 56.1 L 539.5 53.9 L 538.9 53.4 L 537.8 52.4 L 535.9 52.8 L 533.7 54.1 L 532.3 54.4 L 531.8 54.6 L 530.0 53.3 L 528.0 51.4 L 526.3 49.3 L 525.9 48.2 L 526.4 46.8 L 525.8 45.7 L 524.9 43.8 L 524.7 42.2 L 534.5 36.8 L 540.5 34.1 L 543.3 33.3 L 544.0 36.0 L 544.5 36.9 L 545.2 37.5 L 546.1 37.6 L 547.1 36.9 L 548.5 36.2 L 550.8 36.5 L 552.5 37.2 L 553.1 37.9 L 554.2 38.5 L 555.8 38.7 L 558.9 37.4 L 561.9 35.5 L 562.8 34.2 L 563.1 33.0 Z" fill="#cfe3bf" stroke="#ffffff" stroke-width="2.2" stroke-linejoin="round"/>
<path d="M 682.9 164.7 L 684.7 160.8 L 685.1 158.4 L 683.5 157.0 L 682.8 156.6 L 683.4 156.2 L 685.7 156.5 L 687.1 155.7 L 687.9 154.9 L 689.9 155.7 L 692.9 157.2 L 694.3 158.2 L 694.9 159.0 L 695.2 159.6 L 695.0 160.8 L 695.7 161.2 L 697.1 161.4 L 698.1 161.7 L 697.7 163.2 L 697.7 164.4 L 699.0 164.2 L 700.6 163.3 L 701.9 161.6 L 702.7 160.0 L 703.3 156.0 L 703.5 155.7 L 704.5 156.0 L 708.4 155.8 L 710.3 156.6 L 713.3 156.7 L 713.2 157.3 L 713.7 158.3 L 715.1 159.7 L 715.7 160.6 L 717.1 160.8 L 719.2 160.3 L 720.5 159.7 L 720.9 160.1 L 722.9 159.7 L 724.6 158.6 L 725.0 157.7 L 726.7 157.1 L 729.1 155.7 L 732.3 154.7 L 742.9 153.5 L 743.3 152.6 L 743.2 150.6 L 743.4 150.4 L 744.8 150.9 L 746.9 151.3 L 748.6 152.0 L 749.6 152.9 L 750.6 153.0 L 752.1 152.3 L 754.2 151.9 L 756.1 152.9 L 756.7 153.9 L 756.4 154.4 L 756.4 155.3 L 757.0 156.0 L 758.6 157.1 L 760.6 158.1 L 761.6 158.0 L 762.0 157.1 L 762.4 154.8 L 762.5 152.4 L 762.1 151.0 L 761.0 150.6 L 759.7 150.5 L 759.0 150.2 L 759.2 149.5 L 760.3 147.5 L 760.3 144.8 L 757.9 141.8 L 755.9 138.9 L 755.9 137.9 L 757.1 136.2 L 759.0 134.8 L 763.2 132.5 L 764.5 132.1 L 766.2 131.7 L 768.6 130.7 L 769.8 129.8 L 770.6 128.7 L 771.7 123.3 L 772.0 123.0 L 772.3 122.7 L 776.6 124.6 L 776.9 124.3 L 777.7 124.0 L 779.0 122.5 L 779.4 121.4 L 779.3 119.4 L 779.4 117.4 L 779.7 116.8 L 780.4 117.0 L 782.2 118.0 L 783.6 119.2 L 785.0 122.1 L 788.2 122.8 L 792.2 122.9 L 793.6 121.6 L 794.9 121.3 L 796.4 121.7 L 799.5 122.2 L 799.9 119.8 L 801.7 117.4 L 802.5 116.6 L 804.7 116.7 L 805.3 114.9 L 805.9 109.9 L 806.3 109.3 L 808.0 109.4 L 809.6 110.3 L 810.1 111.1 L 811.0 111.0 L 812.2 110.5 L 813.5 110.2 L 815.6 110.7 L 820.0 113.0 L 822.3 113.8 L 823.8 113.6 L 825.1 113.7 L 830.4 117.2 L 834.0 117.7 L 837.4 117.7 L 838.4 116.6 L 839.9 115.7 L 841.4 115.9 L 842.6 116.3 L 845.2 117.8 L 846.3 118.2 L 847.9 118.5 L 849.0 118.8 L 850.0 121.5 L 850.6 122.2 L 850.5 122.5 L 850.4 123.7 L 849.5 125.2 L 848.6 127.2 L 848.6 129.0 L 851.0 135.0 L 853.2 138.7 L 853.6 140.1 L 855.0 141.1 L 853.7 142.5 L 853.4 144.5 L 852.6 145.4 L 852.3 146.6 L 852.7 147.6 L 852.7 148.9 L 853.2 150.7 L 851.1 151.1 L 848.6 151.0 L 847.7 151.1 L 846.8 151.6 L 846.0 151.4 L 843.7 149.7 L 842.4 149.3 L 841.5 149.4 L 840.8 150.2 L 839.7 151.1 L 838.6 151.8 L 838.8 152.3 L 843.5 153.9 L 844.4 156.2 L 843.5 158.1 L 843.1 159.0 L 842.0 159.7 L 840.7 160.4 L 839.1 160.6 L 838.9 161.6 L 839.5 164.6 L 839.0 165.3 L 838.5 166.2 L 839.0 168.7 L 840.0 168.8 L 840.2 169.4 L 840.0 170.4 L 839.8 171.5 L 839.5 172.6 L 839.3 173.1 L 838.6 173.4 L 836.6 173.3 L 834.8 174.2 L 831.2 177.7 L 829.9 178.3 L 828.6 179.7 L 828.6 182.8 L 828.4 183.0 L 828.1 183.7 L 823.8 182.6 L 823.7 182.6 L 820.8 183.0 L 818.8 184.4 L 816.4 185.2 L 811.4 184.8 L 806.5 185.3 L 805.3 185.7 L 804.1 185.9 L 802.9 186.8 L 802.2 187.9 L 801.0 189.4 L 799.3 190.5 L 797.4 191.4 L 796.9 192.1 L 796.3 192.5 L 795.3 192.0 L 794.4 192.0 L 793.4 191.6 L 789.9 191.2 L 786.1 190.6 L 784.3 189.9 L 782.3 189.4 L 780.1 189.0 L 778.1 188.9 L 777.1 188.7 L 772.4 187.6 L 769.3 187.5 L 765.1 187.0 L 756.9 185.3 L 754.5 184.6 L 752.2 184.4 L 749.5 183.8 L 747.5 182.9 L 746.2 181.0 L 744.8 178.6 L 742.2 175.4 L 741.7 173.8 L 742.5 172.4 L 743.3 171.4 L 743.2 170.9 L 742.5 170.7 L 738.0 172.1 L 733.7 173.8 L 731.9 173.8 L 730.3 173.4 L 728.0 173.4 L 725.9 173.9 L 721.7 174.1 L 719.2 175.4 L 717.6 177.8 L 716.7 179.8 L 716.0 180.5 L 714.5 180.7 L 712.3 180.5 L 710.7 180.0 L 709.1 178.3 L 706.6 178.0 L 704.4 178.0 L 703.8 177.7 L 703.8 176.6 L 702.9 174.5 L 701.4 173.8 L 697.6 177.7 L 696.6 178.1 L 693.5 177.0 L 690.8 175.3 L 690.5 174.1 L 690.1 173.1 L 687.8 172.2 L 685.0 171.5 L 684.1 171.5 L 684.4 170.9 L 684.7 169.9 L 684.5 169.1 L 683.9 168.3 L 683.5 167.4 L 683.4 166.5 L 683.2 165.8 L 683.1 165.2 L 682.9 164.7 Z" fill="#cfe3bf" stroke="#ffffff" stroke-width="2.2" stroke-linejoin="round"/>
<path d="M 506.2 317.2 L 505.6 317.4 L 503.5 318.7 L 502.3 319.2 L 501.2 319.4 L 500.4 319.3 L 499.9 318.6 L 500.0 317.4 L 499.8 316.4 L 499.6 315.8 L 499.9 314.3 L 500.6 313.4 L 501.6 312.8 L 503.1 313.0 L 506.3 314.0 L 507.0 314.9 L 507.0 315.5 L 506.4 316.5 L 506.2 317.2 Z" fill="#cfe3bf" stroke="#ffffff" stroke-width="2.2" stroke-linejoin="round"/>
<path d="M 661.4 495.3 L 661.9 497.1 L 661.9 498.7 L 659.8 500.1 L 658.4 501.0 L 656.7 505.1 L 653.6 507.9 L 653.1 508.7 L 653.1 509.5 L 655.2 510.8 L 655.9 512.0 L 656.2 513.6 L 655.3 519.3 L 654.7 523.7 L 653.9 529.5 L 653.9 531.7 L 654.8 534.3 L 655.6 536.4 L 655.8 538.7 L 655.5 544.4 L 656.5 547.8 L 657.3 550.8 L 655.4 554.6 L 654.6 558.0 L 654.1 562.8 L 653.9 565.8 L 652.7 568.7 L 651.2 571.3 L 649.4 572.9 L 647.2 574.3 L 644.7 576.2 L 642.7 581.2 L 638.3 585.3 L 637.4 586.8 L 637.0 590.1 L 637.1 594.7 L 637.9 598.4 L 640.0 603.8 L 641.8 609.7 L 642.3 612.7 L 643.0 613.9 L 645.6 615.8 L 650.1 618.5 L 650.9 619.6 L 653.1 623.7 L 655.2 631.1 L 655.9 635.9 L 660.0 639.8 L 663.8 643.4 L 667.4 646.6 L 671.4 650.0 L 672.0 651.0 L 673.3 658.3 L 674.6 665.5 L 676.0 673.4 L 677.5 681.3 L 679.2 690.7 L 680.1 696.0 L 681.3 702.4 L 682.7 710.0 L 680.5 711.6 L 678.0 713.7 L 679.8 717.5 L 683.3 723.9 L 685.4 729.0 L 686.2 731.2 L 687.8 737.5 L 689.1 743.7 L 689.5 745.7 L 690.0 750.4 L 689.4 763.4 L 690.3 780.0 L 691.6 788.2 L 689.6 795.6 L 687.8 802.8 L 688.0 806.3 L 688.9 811.9 L 689.9 816.0 L 691.2 818.2 L 690.9 825.2 L 690.4 827.7 L 686.4 831.3 L 682.1 834.7 L 680.8 837.5 L 680.5 840.6 L 681.1 843.2 L 684.1 848.9 L 688.6 857.4 L 693.6 866.7 L 694.0 869.1 L 694.2 875.7 L 696.2 884.1 L 698.5 887.7 L 699.3 890.4 L 700.9 892.4 L 702.5 893.8 L 703.5 894.0 L 709.0 891.7 L 718.6 895.4 L 727.6 899.3 L 728.3 900.0 L 730.2 904.9 L 733.5 912.8 L 735.9 919.1 L 738.0 924.8 L 726.3 934.5 L 714.6 944.3 L 702.9 954.1 L 691.2 963.8 L 679.5 973.6 L 667.8 983.4 L 656.1 993.2 L 644.4 1002.9 L 636.7 1009.4 L 631.7 1015.1 L 625.5 1022.3 L 619.7 1029.4 L 615.1 1035.0 L 609.1 1042.3 L 606.1 1045.9 L 599.5 1054.0 L 597.5 1055.4 L 588.7 1057.8 L 580.6 1060.0 L 573.2 1062.0 L 568.1 1063.4 L 563.2 1064.8 L 556.0 1066.7 L 550.9 1068.0 L 545.3 1069.5 L 544.5 1069.7 L 543.5 1069.8 L 542.7 1069.7 L 541.2 1068.9 L 539.4 1067.0 L 538.1 1066.0 L 537.8 1064.5 L 538.5 1062.5 L 539.4 1060.8 L 539.8 1059.4 L 540.4 1058.3 L 541.2 1057.4 L 541.2 1056.2 L 540.6 1054.2 L 540.0 1051.4 L 540.0 1046.4 L 540.0 1044.7 L 540.0 1044.1 L 538.4 1042.1 L 535.3 1040.0 L 532.4 1038.7 L 531.1 1038.3 L 527.9 1037.6 L 523.6 1036.2 L 522.0 1035.3 L 519.2 1030.6 L 517.8 1029.4 L 511.2 1028.6 L 509.1 1027.8 L 507.3 1026.7 L 505.7 1025.2 L 504.9 1022.7 L 504.6 1020.6 L 504.0 1019.6 L 496.8 1014.5 L 495.0 1012.8 L 494.0 1011.2 L 494.0 1008.8 L 494.2 1005.9 L 493.8 1003.3 L 493.5 1002.1 L 490.2 999.0 L 482.8 992.2 L 475.4 985.3 L 468.0 978.5 L 460.6 971.6 L 453.3 964.8 L 445.9 957.9 L 438.5 951.0 L 431.1 944.2 L 423.7 937.3 L 416.3 930.5 L 408.9 923.6 L 401.5 916.8 L 394.1 909.9 L 386.7 903.1 L 379.3 896.2 L 371.9 889.4 L 365.6 883.6 L 358.7 877.5 L 353.6 873.0 L 348.5 868.6 L 343.0 863.8 L 339.5 860.8 L 335.2 857.3 L 331.0 853.7 L 326.7 850.2 L 322.5 846.7 L 318.2 843.1 L 314.0 839.6 L 309.8 836.0 L 305.5 832.5 L 301.3 829.0 L 297.0 825.4 L 292.8 821.9 L 288.5 818.3 L 284.3 814.8 L 280.0 811.3 L 275.8 807.7 L 271.5 804.2 L 271.5 797.7 L 271.5 792.3 L 271.5 784.5 L 271.5 777.8 L 271.5 771.0 L 271.5 766.3 L 271.5 761.5 L 271.6 759.3 L 272.1 758.3 L 274.3 756.8 L 277.9 753.2 L 279.3 751.6 L 281.0 750.0 L 287.0 745.1 L 288.2 743.7 L 294.1 738.2 L 295.4 737.3 L 298.6 736.8 L 299.9 735.7 L 301.6 733.5 L 304.2 730.9 L 305.9 729.7 L 306.3 729.5 L 307.4 729.3 L 312.8 730.1 L 315.1 730.7 L 317.8 731.1 L 318.6 730.8 L 319.4 730.0 L 320.4 728.2 L 320.6 726.1 L 320.7 724.3 L 320.8 723.4 L 321.3 723.1 L 322.5 723.2 L 324.1 723.5 L 327.3 723.4 L 328.4 723.1 L 332.0 722.7 L 337.2 721.5 L 341.3 720.0 L 344.6 718.7 L 348.1 715.5 L 350.7 712.0 L 353.3 706.9 L 355.4 702.4 L 359.7 699.7 L 363.3 698.0 L 365.4 697.3 L 370.0 695.0 L 373.9 691.4 L 377.6 688.1 L 380.5 687.7 L 384.0 687.1 L 384.8 686.5 L 385.7 685.3 L 385.8 683.2 L 384.7 681.8 L 383.4 681.0 L 382.5 680.2 L 381.6 680.0 L 381.1 679.0 L 381.3 677.2 L 381.5 675.5 L 382.1 673.8 L 381.9 671.4 L 381.0 668.9 L 380.7 667.2 L 380.8 665.5 L 381.2 664.2 L 382.5 663.3 L 384.1 662.9 L 386.2 663.4 L 390.0 662.8 L 399.5 658.6 L 400.2 657.4 L 400.8 654.5 L 401.5 652.0 L 402.4 651.1 L 403.0 650.9 L 406.2 650.3 L 410.7 649.3 L 412.4 649.2 L 417.3 649.5 L 420.8 649.7 L 426.6 650.0 L 430.7 650.2 L 434.3 650.3 L 438.9 650.5 L 440.0 649.9 L 440.0 648.1 L 439.2 644.7 L 439.6 642.5 L 441.4 640.6 L 443.6 638.4 L 442.6 635.7 L 440.8 633.9 L 438.4 631.7 L 437.1 630.8 L 434.9 628.2 L 433.6 625.3 L 432.6 619.0 L 431.0 615.5 L 429.7 611.1 L 430.8 603.2 L 429.2 598.4 L 428.9 596.3 L 428.9 593.9 L 429.4 589.6 L 429.1 583.7 L 427.2 577.6 L 428.1 575.5 L 428.5 574.4 L 428.4 573.5 L 426.6 571.5 L 425.9 569.9 L 426.3 568.4 L 427.2 566.2 L 427.1 565.3 L 424.3 562.6 L 419.5 558.3 L 418.2 556.4 L 417.5 554.0 L 422.1 554.6 L 424.4 554.3 L 429.9 551.5 L 434.1 547.6 L 437.5 545.7 L 440.4 541.5 L 443.1 538.8 L 446.9 535.9 L 458.0 529.8 L 459.7 529.7 L 463.4 531.1 L 466.6 530.7 L 468.7 528.5 L 471.1 523.3 L 474.7 520.1 L 479.3 517.0 L 485.5 513.9 L 489.6 511.1 L 496.1 508.7 L 512.3 507.2 L 520.6 505.8 L 526.2 506.1 L 532.0 501.7 L 534.8 500.2 L 547.2 499.9 L 553.0 496.7 L 575.1 496.7 L 577.8 497.7 L 580.5 499.5 L 585.0 503.7 L 587.3 504.6 L 590.2 503.7 L 597.0 499.8 L 604.7 497.7 L 608.8 495.3 L 610.6 491.9 L 614.2 490.6 L 616.2 493.2 L 624.1 495.9 L 629.0 495.2 L 631.2 494.3 L 630.4 490.4 L 635.5 491.4 L 639.5 493.3 L 643.7 497.2 L 646.3 497.9 L 651.2 496.2 L 661.4 495.3 Z" fill="#cfe3bf" stroke="#ffffff" stroke-width="2.2" stroke-linejoin="round"/>
<text x="418.1" y="46.0" text-anchor="middle" dominant-baseline="middle" font-family="Arial, Helvetica, sans-serif" font-size="23" font-weight="700" fill="#171717" stroke="#ffffff" stroke-width="5" paint-order="stroke">United Kingdom</text>
<text x="682.6" y="596.2" text-anchor="middle" dominant-baseline="middle" font-family="Arial, Helvetica, sans-serif" font-size="23" font-weight="700" fill="#171717" stroke="#ffffff" stroke-width="5" paint-order="stroke">Tunisia</text>
<text x="202.8" y="480.8" text-anchor="middle" dominant-baseline="middle" font-family="Arial, Helvetica, sans-serif" font-size="30" font-weight="700" fill="#171717" stroke="#ffffff" stroke-width="5" paint-order="stroke">Portugal</text>
<text x="263.6" y="647.8" text-anchor="middle" dominant-baseline="middle" font-family="Arial, Helvetica, sans-serif" font-size="30" font-weight="700" fill="#171717" stroke="#ffffff" stroke-width="5" paint-order="stroke">Morocco</text>
<text x="698.0" y="691.8" text-anchor="middle" dominant-baseline="middle" font-family="Arial, Helvetica, sans-serif" font-size="23" font-weight="700" fill="#171717" stroke="#ffffff" stroke-width="5" paint-order="stroke">Libya</text>
<text x="692.7" y="337.0" text-anchor="middle" dominant-baseline="middle" font-family="Arial, Helvetica, sans-serif" font-size="30" font-weight="700" fill="#171717" stroke="#ffffff" stroke-width="5" paint-order="stroke">Italy</text>
<text x="684.0" y="82.2" text-anchor="middle" dominant-baseline="middle" font-family="Arial, Helvetica, sans-serif" font-size="23" font-weight="700" fill="#171717" stroke="#ffffff" stroke-width="5" paint-order="stroke">Germany</text>
<text x="521.8" y="197.6" text-anchor="middle" dominant-baseline="middle" font-family="Arial, Helvetica, sans-serif" font-size="30" font-weight="700" fill="#171717" stroke="#ffffff" stroke-width="5" paint-order="stroke">France</text>
<text x="504.8" y="629.2" text-anchor="middle" dominant-baseline="middle" font-family="Arial, Helvetica, sans-serif" font-size="30" font-weight="700" fill="#171717" stroke="#ffffff" stroke-width="5" paint-order="stroke">Algeria</text>
<text x="412.0" y="332.0" text-anchor="middle" dominant-baseline="middle" font-family="Arial, Helvetica, sans-serif" font-size="34" font-weight="800" fill="#171717" stroke="#ffffff" stroke-width="5" paint-order="stroke">Spain</text>
<circle cx="384.0" cy="384.0" r="14" fill="#df3f32" stroke="#ffffff" stroke-width="5"/>
<circle cx="384.0" cy="384.0" r="22" fill="none" stroke="#df3f32" stroke-opacity="0.35" stroke-width="7"/>
</svg>