<svg xmlns="http://www.w3.org/2000/svg" viewBox="0 0 768 768" width="768" height="768" role="img" aria-label="Approximate country map for Mendoza, Argentina">
<rect width="768" height="768" fill="#a9cfe0"/>
<path d="M 714.1 407.4 L 713.1 408.4 L 712.0 410.3 L 710.6 414.9 L 706.2 421.3 L 705.3 424.9 L 700.5 428.6 L 697.1 432.9 L 694.9 432.8 L 692.9 434.6 L 681.5 440.0 L 677.3 439.0 L 674.3 439.0 L 671.5 436.6 L 665.0 435.7 L 661.0 436.7 L 655.5 439.4 L 653.9 439.3 L 652.7 439.2 L 649.8 438.1 L 648.2 435.7 L 639.8 433.0 L 633.1 426.9 L 625.1 426.7 L 619.0 427.6 L 618.1 426.7 L 617.5 425.2 L 616.2 422.9 L 611.0 417.5 L 606.8 412.1 L 606.0 406.8 L 606.6 401.0 L 607.8 394.2 L 607.6 392.0 L 609.1 390.8 L 610.6 390.6 L 612.1 388.8 L 613.4 386.1 L 613.6 384.1 L 612.6 380.4 L 611.9 375.1 L 611.1 372.5 L 612.8 368.4 L 612.8 366.4 L 611.9 364.7 L 611.6 362.9 L 612.0 361.0 L 612.0 359.2 L 611.3 357.5 L 611.8 356.1 L 613.3 355.0 L 614.5 353.3 L 615.2 351.0 L 615.6 349.2 L 615.6 348.0 L 615.2 346.8 L 614.2 345.7 L 614.7 343.6 L 616.5 340.4 L 617.7 337.5 L 618.2 335.0 L 618.1 333.0 L 617.5 331.5 L 617.8 330.5 L 618.9 329.9 L 619.4 328.3 L 619.2 324.3 L 618.1 321.0 L 619.0 318.3 L 621.5 315.3 L 622.8 312.8 L 622.9 311.0 L 623.7 309.9 L 624.9 311.9 L 628.5 312.4 L 632.1 312.5 L 632.7 312.0 L 634.1 308.7 L 636.0 307.8 L 638.0 307.5 L 640.3 307.7 L 642.6 309.9 L 649.4 317.0 L 654.3 322.0 L 655.8 324.3 L 657.1 326.1 L 658.1 327.7 L 657.6 332.0 L 657.7 333.8 L 657.9 334.3 L 659.1 334.4 L 660.7 334.1 L 662.1 333.2 L 663.2 331.8 L 664.3 330.7 L 665.2 330.1 L 665.5 329.2 L 666.0 328.3 L 666.5 328.1 L 667.5 328.8 L 669.8 331.2 L 671.6 333.4 L 672.0 334.7 L 672.7 336.1 L 673.4 337.2 L 673.9 338.4 L 675.7 339.8 L 677.4 340.8 L 678.6 339.8 L 681.6 342.9 L 688.2 345.5 L 689.4 347.0 L 690.5 349.3 L 692.8 352.6 L 696.0 355.6 L 698.6 356.9 L 701.0 357.6 L 702.4 358.3 L 703.3 359.5 L 704.8 360.7 L 705.8 361.2 L 706.1 362.3 L 707.1 364.7 L 708.1 367.8 L 709.2 370.7 L 711.6 373.4 L 714.3 375.5 L 717.1 376.8 L 718.7 378.3 L 719.4 379.8 L 717.5 382.1 L 715.4 385.0 L 713.6 387.3 L 711.7 388.9 L 711.1 390.0 L 710.7 391.7 L 710.7 400.8 L 710.6 404.1 L 710.7 405.0 L 711.0 405.6 L 712.2 406.5 L 713.6 407.3 L 714.1 407.4 Z" fill="#cfe3bf" stroke="#ffffff" stroke-width="2.2" stroke-linejoin="round"/>
<path d="M 612.0 35.0 L 612.4 37.0 L 612.7 38.5 L 613.4 39.6 L 614.1 41.1 L 614.8 41.9 L 615.3 43.2 L 615.2 44.8 L 615.5 46.8 L 615.8 48.5 L 616.2 48.9 L 617.2 49.4 L 617.7 51.0 L 617.3 51.8 L 617.5 52.7 L 617.8 53.5 L 617.5 54.4 L 617.7 55.1 L 618.4 55.7 L 619.0 57.8 L 619.1 61.6 L 618.4 63.5 L 617.8 65.2 L 617.7 66.2 L 618.1 67.6 L 617.4 69.4 L 616.5 71.4 L 616.7 72.9 L 616.9 74.3 L 617.0 75.7 L 617.2 77.1 L 616.9 78.5 L 616.6 79.8 L 616.5 81.2 L 616.8 82.9 L 616.2 84.4 L 615.8 85.5 L 615.7 86.6 L 616.3 88.3 L 617.9 89.0 L 619.2 89.2 L 620.4 88.3 L 621.3 88.0 L 623.0 88.9 L 624.6 90.3 L 626.5 90.5 L 628.3 90.8 L 629.7 91.2 L 631.6 90.7 L 633.7 91.2 L 636.1 92.0 L 638.0 92.8 L 640.0 92.6 L 641.5 92.5 L 643.1 91.7 L 644.5 91.8 L 645.7 90.3 L 646.3 89.0 L 646.9 88.1 L 648.5 87.4 L 649.6 87.9 L 650.5 90.2 L 652.2 91.6 L 652.8 92.6 L 654.0 93.0 L 656.6 93.1 L 658.2 93.0 L 660.1 93.8 L 661.3 93.8 L 662.3 95.0 L 663.3 96.6 L 663.4 99.4 L 664.4 101.6 L 665.6 102.4 L 666.2 103.7 L 666.0 105.6 L 665.4 107.5 L 665.5 109.6 L 666.1 111.5 L 666.1 113.4 L 666.6 115.3 L 667.4 117.0 L 667.7 119.6 L 667.5 121.5 L 668.1 122.6 L 668.3 124.1 L 668.0 125.4 L 667.8 127.1 L 667.9 128.7 L 668.3 129.9 L 669.6 131.6 L 669.9 134.5 L 669.9 136.5 L 670.5 138.8 L 671.6 139.9 L 673.3 140.3 L 675.2 140.7 L 677.6 140.1 L 679.7 139.5 L 680.9 138.8 L 683.3 137.1 L 685.3 136.1 L 686.4 135.5 L 687.4 135.0 L 689.4 136.1 L 691.3 137.5 L 692.8 139.4 L 695.6 141.5 L 695.0 142.0 L 693.9 143.7 L 693.9 145.7 L 694.7 148.6 L 694.0 154.7 L 691.9 164.0 L 691.0 169.4 L 691.4 170.9 L 690.6 173.6 L 687.7 179.5 L 687.6 183.4 L 687.2 195.2 L 686.3 203.5 L 684.6 209.6 L 683.1 212.9 L 681.7 213.3 L 680.8 214.3 L 680.2 215.9 L 679.1 217.2 L 677.5 218.2 L 676.6 219.3 L 676.5 220.6 L 674.9 221.4 L 672.0 221.7 L 670.3 222.7 L 669.8 224.3 L 668.8 225.6 L 667.3 226.6 L 666.6 228.2 L 666.7 230.4 L 665.9 232.3 L 664.1 233.8 L 662.5 233.9 L 661.1 232.4 L 659.1 231.4 L 656.6 230.9 L 654.5 231.3 L 652.9 232.5 L 651.4 234.5 L 650.1 237.2 L 648.7 237.6 L 647.2 235.8 L 645.2 235.3 L 642.8 236.0 L 640.9 235.8 L 639.4 234.5 L 637.3 234.4 L 634.3 235.4 L 628.4 234.3 L 619.4 231.1 L 611.8 230.0 L 602.5 231.1 L 601.7 227.8 L 602.2 226.1 L 603.7 224.8 L 604.6 223.3 L 605.0 221.6 L 606.1 220.3 L 607.8 219.4 L 608.5 218.6 L 608.2 217.7 L 608.6 216.9 L 609.6 216.2 L 610.1 215.1 L 610.3 213.6 L 610.6 212.9 L 611.3 212.3 L 611.4 211.3 L 611.0 208.1 L 611.0 205.5 L 611.5 203.5 L 612.1 202.2 L 612.5 201.9 L 612.9 201.2 L 613.0 200.0 L 613.6 198.8 L 616.6 196.5 L 617.7 195.2 L 617.8 194.1 L 618.3 192.5 L 620.0 189.1 L 620.6 187.5 L 620.6 186.7 L 621.2 185.9 L 623.4 184.0 L 624.5 182.3 L 624.7 180.6 L 624.2 178.7 L 623.0 176.6 L 619.2 171.3 L 616.2 169.0 L 612.5 167.0 L 610.0 166.3 L 608.8 167.0 L 607.6 166.5 L 606.4 164.7 L 604.3 163.3 L 599.9 161.7 L 590.0 155.6 L 586.1 152.6 L 584.8 150.8 L 581.1 147.5 L 575.0 142.7 L 570.4 140.4 L 567.1 140.6 L 561.9 139.2 L 554.8 136.3 L 550.7 133.5 L 549.6 130.8 L 546.9 128.0 L 542.8 125.3 L 540.6 123.5 L 540.4 122.6 L 539.2 121.5 L 536.9 120.1 L 534.3 117.7 L 531.6 114.4 L 528.6 109.2 L 525.5 102.1 L 522.1 97.4 L 518.5 94.9 L 516.7 93.3 L 516.7 92.5 L 516.2 91.7 L 516.6 90.4 L 517.9 85.0 L 519.8 77.2 L 521.8 69.2 L 524.1 59.7 L 524.1 53.0 L 524.1 45.9 L 527.4 40.1 L 529.8 35.9 L 531.8 32.0 L 533.9 25.2 L 535.2 20.7 L 540.5 19.7 L 549.3 17.3 L 553.7 16.2 L 563.1 13.7 L 572.6 11.2 L 582.5 11.0 L 592.1 10.9 L 599.6 16.5 L 605.3 20.8 L 611.5 25.5 L 612.0 26.5 L 612.4 30.4 L 612.0 35.0 Z" fill="#cfe3bf" stroke="#ffffff" stroke-width="2.2" stroke-linejoin="round"/>
<path d="M 171.6 404.8 L 167.7 405.3 L 167.6 405.2 L 167.8 404.7 L 168.7 403.9 L 169.8 402.8 L 170.0 402.8 L 170.4 402.9 L 170.8 403.1 L 172.0 403.8 L 172.3 404.2 L 172.2 404.6 L 171.6 404.8 Z M 350.5 -14.9 L 351.3 -15.2 L 353.4 -15.5 L 355.5 -15.5 L 358.1 -16.6 L 360.9 -18.7 L 362.8 -21.8 L 363.6 -24.7 L 363.6 -27.1 L 362.8 -30.3 L 362.5 -32.5 L 363.5 -33.6 L 366.1 -34.0 L 368.2 -36.1 L 369.8 -37.9 L 370.1 -34.8 L 373.1 -30.7 L 374.0 -26.0 L 374.7 -25.4 L 378.7 -23.0 L 378.8 -22.5 L 378.2 -21.6 L 377.6 -20.4 L 378.0 -18.8 L 378.7 -16.7 L 379.0 -14.6 L 379.4 -12.5 L 379.9 -9.3 L 380.1 -6.4 L 381.2 -2.1 L 381.4 0.6 L 381.4 2.2 L 382.2 3.7 L 383.7 5.6 L 385.8 7.5 L 387.5 9.7 L 388.8 11.2 L 390.4 12.4 L 391.5 13.5 L 392.0 14.3 L 392.2 14.9 L 391.7 15.5 L 389.8 18.4 L 387.1 22.8 L 387.2 23.3 L 389.7 26.5 L 390.1 27.8 L 390.1 29.6 L 389.2 31.7 L 386.5 32.4 L 385.9 33.0 L 385.8 33.6 L 386.5 34.5 L 386.4 36.6 L 387.4 39.0 L 386.8 39.8 L 385.8 40.8 L 385.8 41.9 L 386.1 43.0 L 387.2 44.0 L 391.4 47.2 L 391.7 47.7 L 391.6 48.0 L 390.0 50.2 L 389.9 51.6 L 389.9 53.8 L 390.1 55.2 L 390.7 55.8 L 392.8 56.5 L 395.3 61.4 L 397.8 66.1 L 397.8 70.2 L 398.1 74.9 L 399.7 78.5 L 399.9 81.5 L 400.4 84.8 L 402.3 86.9 L 403.0 90.9 L 403.2 93.1 L 403.1 94.5 L 404.6 98.8 L 404.7 102.6 L 404.4 105.3 L 404.4 106.8 L 404.6 107.9 L 405.9 108.8 L 406.4 109.4 L 408.3 109.7 L 411.0 109.8 L 415.6 108.8 L 419.2 107.9 L 423.2 112.8 L 421.5 119.5 L 418.7 130.1 L 416.6 138.4 L 416.2 139.5 L 415.8 141.1 L 411.2 143.4 L 404.5 146.8 L 401.0 148.6 L 396.7 150.9 L 395.7 152.8 L 394.4 153.8 L 393.0 155.1 L 392.5 156.5 L 391.2 157.4 L 390.1 160.7 L 390.1 163.2 L 390.8 164.8 L 392.1 165.6 L 392.5 167.6 L 392.9 169.0 L 393.8 170.1 L 393.6 171.0 L 392.9 171.7 L 391.5 172.1 L 390.5 174.1 L 389.4 179.1 L 389.2 180.9 L 390.5 185.5 L 391.1 187.9 L 392.9 196.8 L 393.2 199.2 L 390.7 202.6 L 389.8 204.7 L 389.4 206.5 L 389.4 207.9 L 389.6 209.2 L 391.7 213.4 L 394.1 217.2 L 395.2 219.1 L 395.2 221.7 L 394.7 223.2 L 393.4 223.8 L 390.6 224.8 L 389.4 226.3 L 388.1 226.5 L 386.9 225.3 L 385.6 225.6 L 384.0 226.7 L 383.4 229.2 L 381.9 233.6 L 380.7 234.8 L 379.8 238.1 L 378.2 242.9 L 377.4 245.7 L 377.0 247.8 L 375.4 249.2 L 373.4 251.8 L 372.0 254.4 L 371.4 255.2 L 370.3 255.4 L 369.5 257.7 L 366.7 261.2 L 366.0 265.3 L 365.0 267.5 L 364.9 271.4 L 363.3 278.6 L 363.0 280.1 L 361.5 281.4 L 359.5 284.2 L 358.8 286.2 L 359.7 292.3 L 360.9 298.4 L 361.0 301.3 L 360.5 305.2 L 360.2 306.9 L 361.0 307.6 L 362.3 308.0 L 362.7 309.5 L 361.8 310.6 L 361.4 312.5 L 360.3 314.6 L 357.2 315.4 L 356.1 314.6 L 355.8 315.3 L 355.9 316.8 L 355.2 318.6 L 353.6 323.3 L 352.6 327.6 L 351.9 329.5 L 352.2 331.1 L 352.7 332.0 L 352.8 332.8 L 351.9 333.8 L 351.1 335.5 L 350.2 335.7 L 349.3 335.3 L 348.3 336.2 L 348.1 338.3 L 347.5 340.9 L 347.3 343.9 L 346.9 347.8 L 348.2 350.5 L 349.8 355.3 L 351.0 356.4 L 352.3 356.3 L 353.4 357.3 L 353.9 358.4 L 353.2 360.5 L 351.8 360.8 L 351.6 361.9 L 352.0 364.4 L 352.5 366.9 L 353.9 368.1 L 354.5 371.4 L 355.8 372.5 L 355.6 376.8 L 356.9 381.7 L 358.3 383.2 L 358.9 383.9 L 358.5 386.0 L 357.4 387.8 L 357.2 390.5 L 357.6 392.6 L 359.0 394.5 L 360.0 394.7 L 361.6 393.9 L 363.2 394.8 L 363.5 396.5 L 363.7 398.0 L 362.8 399.9 L 361.9 403.5 L 361.6 407.1 L 361.9 412.5 L 362.3 416.8 L 362.4 419.4 L 362.5 420.6 L 361.9 421.4 L 360.5 421.9 L 359.3 422.0 L 358.3 422.7 L 358.0 424.1 L 357.2 426.3 L 356.4 428.0 L 354.9 430.4 L 353.9 432.9 L 353.2 434.6 L 353.3 435.7 L 352.7 437.9 L 352.2 439.7 L 351.0 445.9 L 349.4 447.2 L 348.2 447.8 L 347.5 448.7 L 348.0 450.3 L 349.3 450.8 L 349.8 452.2 L 349.6 454.3 L 350.5 456.2 L 350.4 458.6 L 351.3 463.1 L 350.5 466.0 L 350.8 468.5 L 350.7 471.0 L 349.6 473.0 L 347.4 473.3 L 346.1 475.1 L 344.0 477.1 L 343.7 478.7 L 343.4 480.1 L 342.5 480.6 L 341.2 480.6 L 340.1 480.8 L 338.5 482.7 L 336.9 483.7 L 336.5 485.2 L 336.6 487.0 L 335.8 488.1 L 334.6 490.2 L 333.9 492.5 L 334.6 494.6 L 335.4 498.3 L 335.5 499.9 L 334.6 503.0 L 333.8 505.0 L 334.5 507.5 L 335.2 509.0 L 334.6 512.1 L 334.1 514.1 L 334.5 517.7 L 336.0 521.7 L 337.4 525.3 L 337.7 529.5 L 338.0 532.8 L 338.7 536.4 L 340.2 537.8 L 341.3 539.0 L 341.1 540.8 L 340.2 542.9 L 339.1 544.4 L 336.2 545.0 L 333.8 546.4 L 331.9 547.4 L 330.5 548.6 L 329.5 549.8 L 329.0 551.2 L 329.3 557.3 L 329.1 559.5 L 328.1 562.6 L 327.2 565.2 L 326.8 566.0 L 326.7 567.1 L 326.5 568.1 L 325.5 568.4 L 324.1 567.9 L 323.3 568.2 L 322.7 569.0 L 323.2 571.0 L 323.7 574.5 L 324.4 575.9 L 324.2 577.1 L 324.0 579.6 L 323.0 581.6 L 321.8 581.6 L 320.9 582.5 L 320.6 583.9 L 321.0 585.7 L 322.6 587.3 L 323.2 588.2 L 322.9 589.5 L 321.6 590.0 L 320.9 591.1 L 320.2 593.4 L 319.2 596.1 L 318.2 598.0 L 318.0 600.7 L 319.4 603.5 L 319.3 606.3 L 319.2 614.5 L 319.0 617.2 L 319.5 621.8 L 318.9 623.1 L 318.6 624.3 L 320.0 627.6 L 321.6 633.0 L 322.0 635.2 L 321.8 636.7 L 319.7 637.9 L 317.9 638.5 L 316.9 637.6 L 316.2 637.9 L 315.3 639.5 L 314.4 640.8 L 314.1 642.1 L 315.0 643.7 L 315.6 646.9 L 314.5 648.2 L 313.6 649.7 L 313.9 651.7 L 314.3 655.2 L 313.6 661.0 L 314.5 663.1 L 315.5 664.1 L 318.9 665.3 L 321.4 665.9 L 322.0 667.8 L 321.7 669.4 L 320.5 670.2 L 318.7 670.8 L 318.7 673.4 L 320.3 675.8 L 322.0 677.5 L 322.4 679.1 L 322.3 680.6 L 321.1 682.0 L 322.8 684.9 L 323.5 686.8 L 322.8 688.3 L 321.7 690.6 L 320.7 691.7 L 320.7 692.9 L 320.3 695.4 L 320.2 697.8 L 320.5 699.3 L 331.1 700.4 L 333.5 700.8 L 334.8 702.3 L 334.6 704.1 L 333.3 706.0 L 332.5 709.7 L 330.4 710.3 L 328.3 709.3 L 326.1 709.6 L 324.1 709.9 L 321.3 710.0 L 317.6 710.5 L 315.4 709.9 L 315.2 711.2 L 315.8 713.5 L 320.7 714.3 L 325.3 715.6 L 326.7 718.0 L 328.6 720.8 L 330.5 722.5 L 330.6 725.3 L 327.6 728.2 L 327.2 730.2 L 323.3 730.8 L 322.1 732.1 L 321.6 736.0 L 322.0 739.2 L 323.5 740.3 L 324.6 742.3 L 323.4 744.8 L 320.8 746.4 L 319.4 748.0 L 320.2 749.3 L 321.5 751.3 L 321.8 752.4 L 322.4 755.3 L 323.2 759.5 L 323.1 761.5 L 322.4 763.0 L 319.8 765.3 L 318.0 766.4 L 317.6 769.3 L 317.5 771.5 L 317.7 773.4 L 318.8 775.0 L 318.7 776.6 L 317.2 776.9 L 315.8 777.7 L 314.5 780.4 L 310.7 783.3 L 309.3 784.5 L 309.4 786.7 L 307.9 789.8 L 306.6 792.5 L 305.7 795.1 L 305.8 797.7 L 308.0 798.9 L 309.7 801.5 L 310.5 804.7 L 309.1 808.5 L 306.1 809.9 L 304.3 811.5 L 303.7 812.7 L 304.2 816.6 L 304.1 818.5 L 303.6 820.2 L 302.8 821.5 L 301.2 823.0 L 298.2 824.4 L 295.8 825.3 L 294.7 826.3 L 293.4 828.5 L 292.2 831.0 L 292.5 834.1 L 285.5 834.5 L 285.1 836.8 L 283.6 838.6 L 283.1 841.9 L 284.6 845.0 L 285.3 847.7 L 284.1 850.9 L 284.5 854.1 L 284.7 856.8 L 287.1 859.7 L 288.7 863.2 L 289.5 866.3 L 290.0 868.6 L 290.6 870.1 L 291.7 871.7 L 292.1 873.6 L 293.6 874.2 L 296.3 872.4 L 298.2 871.2 L 299.6 870.8 L 303.5 871.1 L 305.8 870.0 L 306.9 870.1 L 308.3 870.7 L 309.5 872.0 L 310.3 875.0 L 310.8 878.3 L 310.2 881.7 L 309.0 882.4 L 308.7 883.4 L 309.0 885.4 L 310.3 886.9 L 310.2 888.9 L 308.9 893.6 L 308.0 895.6 L 309.6 897.8 L 311.0 899.7 L 313.8 901.2 L 316.1 903.2 L 317.7 904.9 L 317.3 907.2 L 318.4 907.9 L 322.8 907.9 L 329.2 908.0 L 339.3 908.1 L 349.1 908.2 L 360.2 908.4 L 365.5 910.2 L 370.3 911.9 L 376.3 911.9 L 382.3 913.9 L 386.8 915.2 L 389.5 915.7 L 392.2 916.1 L 392.6 918.0 L 380.6 915.4 L 377.9 914.0 L 375.6 913.8 L 371.2 915.6 L 368.8 919.7 L 367.5 920.9 L 364.4 922.0 L 361.4 922.3 L 351.0 926.3 L 347.4 926.6 L 344.9 927.7 L 342.4 929.3 L 341.5 932.6 L 341.9 934.6 L 339.1 941.8 L 338.4 945.9 L 338.4 947.9 L 339.2 951.2 L 338.1 957.0 L 336.3 958.2 L 331.7 959.8 L 328.6 958.7 L 323.2 957.6 L 319.4 955.4 L 314.6 953.9 L 313.0 952.9 L 308.7 948.5 L 308.2 947.1 L 307.9 945.2 L 310.2 942.6 L 311.4 942.4 L 315.0 942.4 L 318.0 942.0 L 319.9 943.4 L 320.4 946.5 L 319.5 948.2 L 318.8 949.2 L 319.0 950.0 L 321.2 948.9 L 322.2 942.0 L 329.5 938.5 L 331.9 936.5 L 334.2 933.4 L 334.6 932.5 L 334.7 931.4 L 333.2 930.4 L 329.8 929.1 L 318.9 935.7 L 314.0 937.4 L 310.8 939.2 L 306.9 942.6 L 306.2 943.6 L 305.4 945.8 L 305.0 948.2 L 301.2 947.1 L 295.4 943.6 L 294.3 942.3 L 295.4 940.5 L 297.2 938.9 L 297.3 933.9 L 297.7 932.1 L 299.0 930.7 L 301.2 929.1 L 302.3 928.7 L 303.2 929.4 L 303.3 930.6 L 307.0 930.5 L 314.2 926.0 L 317.2 925.9 L 321.0 926.9 L 325.4 926.3 L 326.2 925.8 L 327.1 924.8 L 323.9 923.5 L 320.7 922.9 L 311.9 922.5 L 310.0 922.9 L 307.4 925.3 L 306.5 924.7 L 305.9 923.5 L 303.0 922.7 L 301.5 922.9 L 300.1 924.0 L 300.4 925.8 L 299.6 927.7 L 296.8 929.6 L 294.9 932.6 L 295.0 935.0 L 294.9 936.2 L 294.2 936.9 L 292.8 937.6 L 288.2 937.1 L 285.6 934.6 L 284.5 933.0 L 281.6 931.1 L 288.0 928.9 L 290.2 927.6 L 292.3 924.7 L 293.8 922.8 L 292.7 921.6 L 291.5 921.6 L 291.6 923.6 L 290.2 925.3 L 287.2 924.5 L 282.9 927.0 L 280.2 926.3 L 275.9 927.0 L 273.7 925.7 L 273.3 924.0 L 274.0 922.2 L 273.2 919.2 L 272.0 918.5 L 270.8 918.7 L 270.3 916.9 L 269.0 913.7 L 268.4 912.9 L 267.7 911.4 L 268.4 911.1 L 269.9 911.5 L 271.2 912.4 L 273.2 912.5 L 277.6 914.6 L 279.4 914.1 L 280.4 913.6 L 280.8 911.9 L 280.8 910.3 L 281.5 910.3 L 284.0 912.4 L 285.6 912.2 L 288.4 912.7 L 289.8 912.5 L 292.4 911.7 L 296.6 909.5 L 298.7 907.1 L 299.7 906.8 L 301.0 907.1 L 301.9 907.8 L 301.9 909.4 L 302.9 910.9 L 304.2 912.2 L 304.5 913.7 L 304.3 915.1 L 301.9 917.2 L 301.5 918.0 L 302.3 918.7 L 303.2 918.4 L 304.6 917.3 L 305.3 915.9 L 305.5 915.2 L 305.6 914.1 L 305.5 912.8 L 303.6 909.2 L 303.4 908.4 L 303.4 906.7 L 305.6 905.2 L 306.2 904.0 L 306.3 901.7 L 305.1 900.1 L 300.5 896.5 L 292.7 892.8 L 291.8 893.2 L 291.2 893.9 L 291.9 894.3 L 292.9 894.6 L 299.9 897.6 L 301.7 899.3 L 302.9 899.8 L 304.3 901.0 L 303.9 902.7 L 296.9 904.3 L 291.4 907.9 L 287.2 910.1 L 284.3 909.3 L 283.0 907.1 L 281.5 904.2 L 279.3 902.6 L 278.1 902.7 L 277.1 902.4 L 276.3 901.5 L 274.6 902.3 L 270.9 900.3 L 269.8 899.4 L 272.6 896.6 L 275.5 897.7 L 276.3 889.8 L 275.3 888.0 L 271.5 886.1 L 269.6 886.4 L 267.0 886.1 L 265.2 885.2 L 263.2 884.8 L 261.5 884.3 L 259.3 883.1 L 256.7 882.5 L 253.1 877.5 L 251.5 874.9 L 250.7 872.0 L 256.2 871.9 L 259.4 871.5 L 260.2 870.3 L 259.1 868.0 L 257.5 866.2 L 258.6 864.5 L 260.3 863.2 L 262.0 863.8 L 266.2 866.7 L 267.0 868.7 L 270.0 874.7 L 270.7 875.2 L 271.1 875.7 L 277.3 879.1 L 278.2 879.1 L 277.8 876.2 L 279.6 872.4 L 281.3 871.2 L 282.2 871.2 L 282.3 870.5 L 280.6 869.0 L 281.4 866.8 L 280.9 866.8 L 279.4 868.1 L 276.4 874.8 L 274.5 876.0 L 272.0 873.0 L 270.5 870.8 L 269.8 870.0 L 270.1 866.6 L 275.1 867.3 L 273.4 866.2 L 267.5 864.2 L 266.1 863.3 L 265.0 862.9 L 263.0 860.6 L 260.6 858.6 L 264.8 855.1 L 266.9 852.6 L 273.6 853.9 L 274.9 853.2 L 273.8 851.4 L 272.5 851.9 L 270.4 850.8 L 267.1 847.4 L 267.2 845.6 L 267.8 842.5 L 269.1 841.8 L 271.9 841.1 L 275.0 842.2 L 276.4 843.0 L 277.5 842.6 L 276.3 840.2 L 274.3 839.4 L 272.0 837.7 L 272.3 835.8 L 273.0 834.3 L 273.5 832.6 L 273.9 830.2 L 273.7 828.4 L 274.4 827.5 L 275.4 827.2 L 275.4 826.5 L 273.5 826.6 L 272.7 828.9 L 272.5 831.1 L 271.1 832.8 L 270.5 834.7 L 270.1 837.0 L 269.3 839.6 L 267.6 838.6 L 266.6 837.6 L 266.2 836.9 L 266.4 835.5 L 265.9 827.2 L 265.9 820.2 L 266.8 814.8 L 269.2 812.6 L 270.3 812.0 L 271.3 812.3 L 272.8 812.3 L 273.8 811.5 L 270.4 810.2 L 268.3 810.9 L 266.7 812.0 L 263.9 811.2 L 263.4 808.4 L 261.7 806.0 L 261.4 802.9 L 261.6 798.4 L 265.5 798.8 L 268.7 799.7 L 277.2 799.6 L 284.1 803.9 L 287.2 803.3 L 287.0 802.5 L 284.7 801.4 L 283.2 799.0 L 282.4 798.3 L 282.0 796.9 L 281.8 795.2 L 280.1 789.0 L 279.4 789.2 L 278.8 791.3 L 277.3 794.8 L 275.3 796.5 L 272.2 797.2 L 269.2 797.6 L 266.6 796.9 L 266.0 795.5 L 266.0 793.8 L 264.9 793.0 L 261.9 792.2 L 261.1 791.8 L 260.1 790.3 L 261.5 788.0 L 262.7 786.6 L 264.1 786.9 L 265.4 787.5 L 267.2 789.3 L 268.9 789.7 L 270.8 788.2 L 271.2 787.2 L 270.0 786.6 L 268.9 786.4 L 267.1 785.6 L 263.7 782.8 L 265.4 780.0 L 269.4 776.8 L 270.7 776.0 L 269.6 773.3 L 270.8 770.3 L 269.6 767.9 L 267.4 765.2 L 264.4 764.6 L 263.7 765.4 L 263.6 766.5 L 264.1 767.3 L 263.8 767.9 L 263.1 767.9 L 259.3 767.3 L 256.7 765.5 L 252.6 763.9 L 252.0 762.7 L 251.6 760.8 L 253.0 757.6 L 252.3 757.6 L 249.6 760.1 L 245.5 761.4 L 242.5 761.8 L 241.2 762.8 L 240.7 763.6 L 241.5 764.1 L 243.2 764.2 L 244.5 767.3 L 244.2 768.4 L 243.5 769.2 L 242.1 769.4 L 239.2 767.3 L 237.6 764.9 L 237.6 762.9 L 238.7 760.3 L 243.4 756.9 L 244.7 755.4 L 247.4 753.7 L 251.1 750.0 L 254.3 748.0 L 252.8 746.3 L 251.1 743.7 L 251.3 740.2 L 257.8 738.8 L 260.6 739.3 L 264.2 739.2 L 266.2 738.4 L 267.6 738.2 L 270.7 737.2 L 272.0 735.8 L 272.3 734.8 L 272.3 733.9 L 271.9 732.7 L 271.4 729.8 L 271.9 728.8 L 273.2 727.6 L 275.0 727.3 L 275.7 727.4 L 277.8 728.4 L 277.4 730.0 L 276.6 731.8 L 274.9 739.1 L 274.1 740.7 L 272.7 742.2 L 273.6 745.1 L 272.3 747.2 L 266.4 749.4 L 265.7 749.6 L 266.1 750.4 L 269.5 750.2 L 272.1 749.7 L 274.7 747.8 L 275.6 745.0 L 276.6 739.4 L 278.0 738.6 L 279.7 738.4 L 280.6 739.8 L 280.3 742.7 L 280.3 745.5 L 278.1 754.0 L 275.4 757.3 L 275.1 758.2 L 275.2 759.3 L 277.3 759.1 L 278.9 757.3 L 280.1 755.0 L 281.3 751.8 L 281.1 749.4 L 281.5 748.0 L 281.9 743.2 L 282.8 740.8 L 282.7 737.5 L 281.3 736.2 L 279.2 735.5 L 278.7 733.4 L 279.8 729.3 L 283.6 729.4 L 287.3 726.7 L 289.7 725.7 L 291.1 725.9 L 295.8 728.5 L 296.8 728.6 L 296.6 727.6 L 295.9 726.9 L 294.0 726.0 L 290.5 723.2 L 285.9 722.7 L 286.7 719.0 L 287.6 715.6 L 289.9 715.1 L 293.7 714.0 L 300.9 708.9 L 302.2 705.0 L 302.5 700.7 L 299.1 699.6 L 295.4 696.8 L 292.4 695.3 L 289.7 693.4 L 290.2 690.5 L 290.6 685.9 L 293.9 685.0 L 295.4 678.6 L 293.2 673.8 L 293.8 670.2 L 296.7 667.1 L 297.2 665.0 L 298.0 662.6 L 300.5 662.4 L 300.6 661.1 L 300.4 658.8 L 298.7 656.1 L 298.6 652.2 L 300.2 647.7 L 302.7 648.1 L 303.2 647.9 L 301.4 645.1 L 300.0 642.2 L 300.2 641.0 L 301.6 639.9 L 303.2 639.4 L 305.0 640.9 L 307.5 645.8 L 307.9 644.5 L 306.9 639.6 L 306.1 633.4 L 303.4 634.2 L 301.0 633.7 L 300.0 632.8 L 299.1 631.4 L 300.0 629.7 L 300.8 628.4 L 302.6 626.8 L 306.3 626.3 L 309.0 624.3 L 309.9 620.1 L 309.0 620.6 L 307.6 624.2 L 305.1 625.4 L 303.9 625.2 L 302.4 624.5 L 299.5 621.4 L 297.9 620.7 L 296.4 620.6 L 295.1 621.4 L 291.7 626.9 L 290.2 627.9 L 284.3 628.3 L 282.1 627.7 L 279.7 626.8 L 280.0 625.5 L 280.7 624.0 L 282.0 623.2 L 282.1 622.4 L 280.2 622.2 L 278.1 620.7 L 277.1 618.7 L 276.7 615.2 L 274.8 609.7 L 274.4 605.8 L 275.7 602.9 L 278.7 591.9 L 279.5 586.2 L 281.1 581.3 L 281.1 578.0 L 285.1 575.0 L 286.6 573.2 L 290.0 563.2 L 290.5 557.8 L 285.1 541.3 L 284.3 538.1 L 284.0 534.2 L 285.3 527.7 L 285.5 525.3 L 284.4 521.7 L 281.3 515.9 L 281.2 512.9 L 282.5 509.9 L 281.2 506.1 L 281.9 503.8 L 282.5 501.9 L 287.4 502.9 L 289.6 502.4 L 290.8 501.3 L 291.7 498.2 L 292.1 493.3 L 292.4 491.3 L 292.9 488.2 L 295.2 487.0 L 296.1 484.1 L 298.1 480.0 L 300.1 468.7 L 302.1 465.9 L 304.2 462.7 L 303.4 458.0 L 304.7 455.7 L 305.9 454.1 L 307.0 451.2 L 308.5 448.5 L 311.9 444.5 L 312.8 439.7 L 315.5 431.4 L 316.1 426.0 L 316.9 422.4 L 316.6 419.0 L 318.3 414.9 L 319.8 411.4 L 320.3 409.5 L 323.9 404.9 L 324.5 401.3 L 323.2 398.8 L 323.2 395.0 L 322.2 389.6 L 324.5 387.6 L 325.4 386.2 L 328.4 377.7 L 328.2 374.4 L 329.1 370.2 L 327.1 365.3 L 326.8 354.3 L 325.7 345.8 L 323.9 336.8 L 324.1 331.8 L 323.0 325.6 L 322.9 322.0 L 323.8 313.8 L 329.5 308.7 L 330.6 302.9 L 331.3 295.1 L 331.1 289.5 L 330.5 286.9 L 327.7 282.8 L 327.0 275.3 L 327.5 273.3 L 329.8 271.2 L 331.5 268.3 L 332.4 263.8 L 334.1 260.3 L 334.7 251.6 L 336.2 244.8 L 336.9 242.4 L 339.2 239.4 L 339.6 238.6 L 340.0 236.3 L 339.9 230.9 L 340.2 227.6 L 342.0 221.1 L 342.2 218.1 L 344.3 211.4 L 344.7 206.6 L 345.6 204.1 L 345.2 201.2 L 345.8 194.8 L 344.5 191.2 L 344.2 189.1 L 345.9 182.6 L 347.0 181.0 L 348.9 177.9 L 349.7 174.5 L 349.9 172.3 L 347.5 161.5 L 347.1 157.8 L 347.7 149.3 L 348.6 143.7 L 348.3 139.3 L 348.6 137.0 L 349.0 134.2 L 350.6 130.7 L 351.0 128.3 L 350.4 127.2 L 348.5 126.0 L 346.8 122.8 L 346.7 119.8 L 347.2 117.5 L 347.4 114.3 L 349.8 113.7 L 351.1 111.9 L 352.3 108.6 L 353.8 100.6 L 354.5 90.6 L 355.4 84.6 L 356.1 81.7 L 356.6 75.5 L 357.5 71.4 L 357.7 67.7 L 357.5 64.8 L 355.2 50.4 L 355.2 45.0 L 356.2 36.8 L 356.2 25.1 L 356.0 22.4 L 355.1 19.8 L 354.9 16.4 L 353.5 10.4 L 352.2 -1.7 L 352.2 -8.1 L 351.7 -13.5 L 350.5 -14.9 Z M 278.9 670.8 L 277.3 671.4 L 275.8 671.5 L 274.3 671.1 L 271.6 671.1 L 269.0 670.1 L 266.5 668.5 L 265.8 667.7 L 266.1 666.4 L 267.9 663.5 L 269.6 658.0 L 270.7 650.1 L 269.8 647.1 L 269.9 645.8 L 270.3 644.4 L 270.5 642.8 L 270.4 641.3 L 270.6 639.8 L 272.5 636.8 L 272.8 635.4 L 272.8 634.0 L 273.6 630.9 L 273.4 629.9 L 272.7 629.0 L 273.3 628.3 L 279.8 630.5 L 284.1 631.0 L 284.3 633.4 L 285.2 635.2 L 285.7 638.4 L 286.4 639.2 L 286.0 641.5 L 284.0 642.5 L 284.2 644.7 L 285.3 646.7 L 283.7 647.4 L 281.9 647.8 L 281.4 648.4 L 280.1 648.8 L 278.5 650.0 L 279.0 650.9 L 281.0 653.2 L 283.3 654.8 L 284.5 657.1 L 286.1 659.6 L 285.3 661.1 L 283.8 663.3 L 281.5 664.8 L 279.4 665.7 L 279.6 669.3 L 278.9 670.8 Z M 279.7 699.6 L 278.6 700.7 L 277.0 701.0 L 274.4 702.3 L 274.1 703.5 L 274.0 705.0 L 275.8 706.7 L 276.7 708.7 L 277.7 711.8 L 278.5 714.7 L 278.4 715.6 L 278.6 717.1 L 279.9 719.4 L 280.0 720.5 L 279.8 721.5 L 279.3 723.5 L 278.9 723.8 L 277.7 723.9 L 277.6 725.1 L 277.3 725.5 L 273.7 725.6 L 271.9 725.1 L 272.1 721.5 L 269.9 720.1 L 268.3 717.8 L 266.6 713.7 L 265.1 712.5 L 263.4 709.3 L 260.9 706.5 L 263.8 704.8 L 263.3 701.7 L 265.0 700.7 L 267.6 699.6 L 269.5 700.5 L 271.2 700.2 L 272.0 699.4 L 271.7 696.3 L 272.3 693.9 L 274.2 692.6 L 276.2 692.4 L 276.9 693.8 L 277.9 695.2 L 280.4 696.3 L 280.4 697.7 L 279.7 699.6 Z M 295.7 710.1 L 290.5 712.3 L 287.9 711.6 L 286.9 710.0 L 286.4 708.6 L 285.9 706.3 L 286.8 705.1 L 288.7 703.3 L 289.4 702.2 L 289.7 700.8 L 289.6 699.6 L 289.8 698.4 L 290.9 697.9 L 294.8 699.3 L 298.7 701.3 L 300.1 702.7 L 300.4 703.8 L 298.7 706.3 L 297.6 708.3 L 295.7 710.1 Z M 251.8 713.2 L 251.3 713.6 L 250.6 713.5 L 250.1 712.6 L 249.7 711.1 L 250.4 710.6 L 251.0 710.6 L 251.7 711.3 L 252.0 712.6 L 251.8 713.2 Z M 259.8 678.0 L 256.8 678.5 L 256.1 677.7 L 256.1 677.0 L 256.6 676.4 L 258.1 676.0 L 259.2 676.5 L 259.7 677.2 L 259.9 677.8 L 259.8 678.0 Z M 281.9 711.3 L 281.2 711.6 L 280.6 711.5 L 279.9 710.6 L 279.7 709.4 L 278.3 707.5 L 277.9 706.6 L 277.9 705.6 L 278.7 704.1 L 279.9 703.7 L 280.7 703.7 L 281.7 705.5 L 282.0 707.4 L 282.2 709.4 L 281.9 711.3 Z M 278.1 684.0 L 278.5 685.4 L 277.6 685.5 L 276.1 685.3 L 275.4 686.4 L 275.0 686.6 L 271.5 685.7 L 271.0 685.2 L 271.1 683.8 L 274.7 683.7 L 277.1 682.8 L 277.4 683.0 L 278.1 684.0 Z M 267.4 735.1 L 266.2 736.4 L 264.1 736.9 L 262.1 736.0 L 259.6 736.4 L 259.3 734.3 L 260.3 732.6 L 262.1 730.6 L 263.5 727.9 L 263.3 724.0 L 264.4 723.1 L 265.0 721.7 L 267.4 720.9 L 268.0 723.8 L 267.3 728.9 L 268.9 731.9 L 269.2 732.9 L 268.8 734.1 L 267.4 735.1 Z" fill="#cfe3bf" stroke="#ffffff" stroke-width="2.2" stroke-linejoin="round"/>
<path d="M 426.0 -551.7 L 431.5 -545.3 L 435.6 -540.6 L 437.3 -539.2 L 438.3 -538.7 L 440.6 -539.0 L 443.4 -539.7 L 444.8 -540.3 L 446.3 -541.8 L 448.7 -543.8 L 450.7 -544.9 L 451.5 -545.1 L 452.3 -544.7 L 454.0 -543.5 L 454.9 -541.2 L 454.0 -538.6 L 454.2 -537.0 L 455.9 -537.1 L 457.4 -539.8 L 458.3 -541.9 L 460.4 -543.7 L 462.4 -546.1 L 463.8 -548.5 L 465.5 -549.9 L 468.0 -551.6 L 469.9 -552.6 L 471.8 -552.5 L 473.1 -553.6 L 474.9 -555.7 L 476.1 -557.4 L 477.0 -558.0 L 478.7 -557.8 L 480.9 -558.0 L 483.0 -560.1 L 484.9 -562.5 L 485.9 -566.7 L 486.6 -570.3 L 487.2 -571.1 L 487.9 -571.7 L 488.7 -572.1 L 490.7 -572.3 L 494.2 -574.3 L 496.5 -576.3 L 498.8 -576.7 L 499.5 -577.2 L 500.3 -579.1 L 500.7 -582.3 L 500.4 -584.3 L 496.2 -584.9 L 493.5 -584.9 L 489.0 -585.4 L 486.8 -586.2 L 486.4 -586.7 L 486.3 -587.4 L 486.8 -588.8 L 487.2 -591.4 L 486.6 -595.0 L 484.3 -600.5 L 482.7 -606.0 L 482.5 -609.8 L 482.5 -613.9 L 482.7 -616.5 L 481.5 -618.6 L 475.3 -625.1 L 473.1 -628.2 L 472.4 -630.3 L 469.9 -634.2 L 470.6 -635.4 L 472.0 -635.4 L 473.2 -634.3 L 474.3 -632.2 L 475.1 -631.7 L 476.2 -631.7 L 481.9 -631.7 L 483.3 -631.3 L 484.1 -630.6 L 484.8 -629.7 L 485.8 -627.1 L 486.9 -625.9 L 489.2 -625.9 L 492.8 -626.0 L 494.8 -626.2 L 496.0 -625.5 L 497.5 -624.9 L 500.6 -626.3 L 501.5 -626.3 L 502.4 -625.7 L 505.8 -621.1 L 507.7 -619.2 L 509.4 -616.7 L 511.8 -616.7 L 513.7 -618.9 L 514.3 -626.2 L 514.9 -628.3 L 515.8 -628.9 L 517.0 -629.0 L 518.4 -630.1 L 520.0 -631.6 L 521.3 -632.1 L 526.8 -630.5 L 528.3 -631.3 L 533.9 -633.2 L 539.6 -635.7 L 541.1 -638.9 L 543.5 -639.7 L 545.4 -642.0 L 546.9 -641.8 L 549.2 -641.7 L 550.6 -642.1 L 551.3 -642.5 L 552.1 -643.6 L 553.4 -646.7 L 554.9 -647.8 L 556.9 -649.1 L 558.2 -650.5 L 559.3 -652.3 L 559.8 -653.9 L 559.8 -655.1 L 559.2 -657.5 L 558.4 -659.8 L 557.5 -660.5 L 556.9 -660.8 L 558.8 -661.3 L 560.4 -660.5 L 562.9 -660.4 L 564.0 -661.0 L 565.6 -660.7 L 567.6 -662.3 L 568.8 -661.8 L 569.7 -661.8 L 570.4 -660.6 L 571.0 -659.2 L 572.9 -657.5 L 572.7 -655.0 L 572.4 -652.7 L 572.1 -650.1 L 572.0 -648.1 L 571.2 -646.1 L 570.1 -644.2 L 569.7 -643.5 L 569.5 -642.5 L 570.3 -641.8 L 571.7 -641.7 L 573.5 -641.6 L 574.7 -641.0 L 576.3 -640.9 L 578.1 -639.3 L 579.0 -638.3 L 579.1 -637.5 L 578.5 -635.7 L 578.3 -634.0 L 578.7 -633.0 L 579.3 -632.2 L 580.8 -628.5 L 581.5 -627.2 L 582.1 -626.7 L 582.3 -626.0 L 581.8 -624.6 L 581.1 -622.9 L 579.7 -621.0 L 579.6 -619.6 L 578.4 -618.7 L 575.8 -616.5 L 576.3 -613.1 L 576.4 -611.3 L 576.3 -610.0 L 575.4 -608.2 L 573.9 -602.8 L 573.3 -600.1 L 572.8 -594.0 L 572.8 -591.9 L 573.5 -589.1 L 575.1 -582.9 L 575.9 -581.9 L 577.9 -580.5 L 578.2 -576.3 L 578.0 -571.9 L 577.9 -570.2 L 578.2 -569.5 L 579.1 -569.2 L 579.8 -568.6 L 579.9 -567.4 L 579.8 -566.0 L 581.3 -565.2 L 582.6 -564.7 L 583.8 -562.9 L 586.0 -560.0 L 586.8 -559.5 L 587.3 -558.3 L 589.1 -555.9 L 591.9 -555.0 L 594.7 -553.9 L 595.8 -552.4 L 597.0 -551.1 L 597.8 -551.1 L 598.6 -551.3 L 599.8 -552.3 L 600.8 -553.2 L 602.5 -553.2 L 604.5 -553.3 L 604.8 -554.1 L 605.0 -555.1 L 604.6 -557.6 L 605.3 -558.3 L 606.9 -558.8 L 607.3 -560.1 L 607.6 -560.8 L 608.1 -561.7 L 608.7 -561.8 L 609.4 -561.3 L 610.5 -561.0 L 611.7 -560.6 L 612.3 -559.7 L 613.4 -559.6 L 614.6 -559.8 L 615.1 -560.4 L 615.5 -561.3 L 615.7 -563.3 L 616.5 -563.4 L 618.1 -563.8 L 619.7 -564.7 L 622.0 -564.9 L 624.0 -564.9 L 625.1 -565.5 L 626.0 -566.8 L 627.9 -570.5 L 628.9 -571.3 L 629.9 -572.0 L 630.8 -571.9 L 632.7 -572.5 L 634.2 -573.4 L 634.7 -573.1 L 635.9 -571.2 L 636.5 -570.8 L 637.4 -570.7 L 640.2 -569.7 L 641.7 -570.0 L 643.3 -570.6 L 644.9 -570.8 L 646.0 -570.4 L 646.8 -571.0 L 647.7 -571.4 L 648.4 -571.1 L 649.8 -570.9 L 653.2 -569.8 L 657.6 -568.6 L 658.8 -569.0 L 659.5 -569.9 L 659.7 -572.3 L 659.8 -574.1 L 658.9 -575.6 L 657.6 -577.3 L 656.5 -579.5 L 655.1 -580.1 L 655.3 -581.2 L 656.2 -582.3 L 657.1 -583.0 L 657.6 -583.7 L 658.2 -586.6 L 658.6 -587.1 L 659.0 -587.2 L 659.4 -587.1 L 660.3 -586.4 L 663.8 -584.1 L 665.3 -584.5 L 671.2 -585.1 L 672.0 -586.4 L 673.3 -586.7 L 675.4 -588.0 L 676.2 -588.1 L 676.9 -587.8 L 677.9 -588.0 L 679.3 -589.2 L 679.8 -589.4 L 680.1 -588.0 L 680.9 -586.6 L 682.0 -585.3 L 682.5 -585.0 L 684.4 -585.4 L 685.3 -585.1 L 685.7 -583.9 L 685.8 -582.8 L 686.6 -582.0 L 687.6 -581.9 L 688.1 -581.6 L 689.0 -581.0 L 689.7 -579.7 L 691.5 -578.7 L 694.5 -577.2 L 695.8 -577.2 L 697.1 -576.7 L 697.9 -576.3 L 698.8 -577.1 L 701.9 -579.3 L 703.3 -580.6 L 704.3 -581.6 L 705.1 -582.5 L 705.7 -582.7 L 706.0 -582.2 L 706.4 -581.4 L 707.5 -581.0 L 710.0 -580.2 L 711.2 -579.9 L 712.8 -580.6 L 714.2 -581.9 L 714.9 -582.3 L 716.0 -581.1 L 716.7 -579.3 L 717.1 -578.6 L 718.2 -578.8 L 720.3 -578.5 L 721.8 -578.0 L 722.8 -578.0 L 724.1 -578.8 L 724.8 -580.3 L 726.7 -581.7 L 728.4 -582.9 L 729.4 -584.6 L 730.9 -587.5 L 731.4 -588.7 L 731.5 -590.7 L 733.7 -596.7 L 734.5 -597.8 L 734.9 -599.6 L 735.8 -601.8 L 735.8 -603.6 L 736.4 -605.4 L 737.6 -606.9 L 738.5 -607.8 L 739.9 -610.4 L 740.9 -612.8 L 743.4 -618.1 L 743.6 -619.7 L 744.6 -620.6 L 744.9 -621.7 L 745.9 -623.1 L 747.1 -624.2 L 747.5 -625.9 L 748.3 -627.6 L 750.1 -628.9 L 750.8 -629.5 L 752.8 -634.2 L 753.0 -636.4 L 754.9 -636.4 L 757.7 -634.0 L 760.0 -630.4 L 763.1 -618.8 L 763.6 -608.1 L 764.8 -602.5 L 768.4 -590.8 L 768.6 -588.7 L 769.2 -586.1 L 770.3 -583.3 L 771.6 -578.7 L 771.6 -577.9 L 770.8 -576.6 L 772.0 -576.6 L 773.1 -575.8 L 773.8 -572.9 L 774.6 -571.0 L 776.3 -568.3 L 779.6 -567.4 L 782.0 -567.1 L 784.9 -565.6 L 787.0 -563.6 L 788.6 -557.1 L 788.0 -552.9 L 788.2 -550.0 L 787.4 -548.9 L 785.0 -547.0 L 784.5 -546.0 L 779.8 -541.0 L 778.7 -538.7 L 776.2 -535.6 L 773.6 -529.6 L 769.9 -524.2 L 768.6 -522.8 L 766.6 -522.5 L 765.4 -521.7 L 762.5 -517.3 L 758.7 -515.8 L 758.3 -513.2 L 756.1 -507.3 L 754.1 -504.1 L 752.9 -503.1 L 749.7 -497.2 L 749.3 -494.6 L 749.3 -490.2 L 747.2 -487.5 L 745.0 -485.7 L 744.8 -481.9 L 743.8 -480.6 L 742.9 -479.7 L 738.5 -480.7 L 731.6 -476.6 L 729.2 -475.5 L 736.8 -475.3 L 739.2 -473.1 L 744.5 -474.6 L 750.9 -479.9 L 753.4 -481.0 L 758.4 -484.6 L 760.4 -486.9 L 764.1 -489.8 L 764.9 -491.1 L 767.0 -492.4 L 768.1 -490.7 L 768.2 -489.6 L 766.5 -487.5 L 766.9 -486.2 L 768.0 -484.5 L 768.4 -482.1 L 768.6 -480.4 L 769.3 -477.2 L 771.6 -473.0 L 771.6 -471.6 L 771.3 -469.8 L 772.4 -468.3 L 773.6 -467.4 L 777.4 -462.8 L 780.5 -465.4 L 782.4 -466.1 L 783.6 -467.2 L 786.1 -467.9 L 788.1 -466.8 L 792.0 -465.3 L 794.9 -466.9 L 800.7 -470.6 L 798.9 -464.0 L 797.6 -458.0 L 796.6 -455.6 L 795.6 -449.0 L 794.6 -447.2 L 793.8 -445.2 L 795.1 -445.9 L 796.2 -446.9 L 797.6 -449.4 L 798.7 -453.8 L 802.9 -465.5 L 804.1 -466.6 L 807.6 -467.9 L 813.6 -477.3 L 815.9 -477.3 L 817.4 -475.1 L 818.8 -473.8 L 819.2 -476.4 L 821.2 -477.5 L 819.1 -478.7 L 818.7 -479.9 L 818.5 -481.8 L 820.0 -484.4 L 819.1 -486.7 L 822.2 -489.6 L 821.9 -491.8 L 823.0 -493.6 L 824.4 -495.4 L 826.0 -496.3 L 826.3 -497.9 L 827.2 -498.5 L 828.0 -498.8 L 829.5 -497.0 L 831.2 -499.1 L 832.8 -499.9 L 833.5 -499.5 L 834.4 -498.6 L 835.4 -498.2 L 836.2 -498.4 L 838.2 -499.7 L 840.0 -497.6 L 841.1 -497.1 L 840.8 -498.3 L 840.2 -499.4 L 840.7 -500.3 L 841.6 -500.9 L 844.3 -500.4 L 845.8 -499.4 L 847.3 -497.7 L 849.5 -497.5 L 851.2 -497.7 L 852.3 -496.7 L 854.1 -496.7 L 855.0 -495.2 L 857.6 -493.0 L 858.2 -491.5 L 860.4 -490.8 L 862.4 -489.9 L 864.5 -489.6 L 866.7 -489.8 L 866.8 -487.9 L 868.4 -487.4 L 870.4 -487.9 L 872.0 -485.5 L 876.1 -483.8 L 879.0 -481.1 L 880.8 -481.6 L 882.9 -480.9 L 885.2 -475.1 L 885.7 -471.0 L 886.7 -471.6 L 887.6 -473.4 L 888.8 -476.8 L 891.1 -477.9 L 892.2 -476.6 L 894.4 -474.5 L 896.4 -472.3 L 897.2 -470.8 L 898.7 -470.6 L 897.4 -468.8 L 898.7 -469.0 L 900.1 -470.2 L 901.4 -467.6 L 902.4 -464.7 L 902.6 -461.8 L 901.7 -460.1 L 900.9 -459.1 L 900.0 -457.0 L 898.9 -456.6 L 897.9 -456.0 L 899.1 -454.5 L 899.9 -453.0 L 901.7 -456.9 L 902.9 -458.0 L 904.8 -458.6 L 905.7 -455.9 L 905.9 -453.2 L 902.9 -452.1 L 902.9 -450.1 L 902.1 -448.9 L 901.5 -447.5 L 901.0 -444.7 L 900.4 -442.3 L 898.7 -431.9 L 898.6 -430.2 L 900.8 -432.0 L 904.7 -437.4 L 905.9 -443.0 L 907.5 -448.6 L 909.2 -450.3 L 910.2 -450.3 L 911.8 -449.7 L 911.9 -447.9 L 911.6 -446.8 L 910.0 -444.1 L 909.2 -442.5 L 909.9 -441.0 L 913.8 -445.6 L 915.5 -447.3 L 916.9 -446.9 L 919.8 -449.0 L 925.7 -449.5 L 926.1 -451.9 L 927.3 -452.9 L 930.5 -452.7 L 936.7 -450.5 L 939.0 -448.7 L 942.3 -447.1 L 944.0 -445.1 L 951.4 -441.5 L 956.7 -441.1 L 959.4 -442.8 L 962.6 -441.1 L 964.4 -439.2 L 967.8 -438.1 L 971.3 -437.6 L 973.9 -438.9 L 980.7 -439.4 L 989.3 -441.4 L 994.4 -441.0 L 1000.1 -439.6 L 1004.2 -436.2 L 1007.7 -434.3 L 1009.8 -432.4 L 1013.2 -430.4 L 1020.4 -425.1 L 1022.9 -422.1 L 1027.4 -417.9 L 1031.9 -416.1 L 1034.3 -411.8 L 1036.2 -409.8 L 1041.0 -402.5 L 1046.4 -397.3 L 1050.0 -392.2 L 1056.9 -388.8 L 1059.7 -383.4 L 1064.3 -382.7 L 1066.3 -381.9 L 1068.8 -379.6 L 1072.1 -378.3 L 1076.5 -378.7 L 1081.3 -378.4 L 1085.1 -379.5 L 1094.3 -377.4 L 1095.8 -376.4 L 1097.7 -374.1 L 1101.0 -365.4 L 1103.0 -355.8 L 1104.0 -348.5 L 1106.3 -342.7 L 1107.5 -332.0 L 1108.6 -328.6 L 1108.7 -326.0 L 1109.6 -325.4 L 1110.2 -318.2 L 1110.0 -315.3 L 1109.1 -311.5 L 1109.0 -309.8 L 1109.1 -308.7 L 1108.8 -307.1 L 1108.6 -305.6 L 1109.5 -302.2 L 1109.6 -299.5 L 1108.4 -296.2 L 1106.8 -287.5 L 1102.7 -273.2 L 1098.8 -264.9 L 1093.3 -256.4 L 1089.7 -252.0 L 1088.3 -251.5 L 1087.0 -252.4 L 1088.0 -250.1 L 1087.2 -248.0 L 1083.5 -241.7 L 1079.9 -237.7 L 1076.2 -230.5 L 1075.9 -230.4 L 1071.1 -227.6 L 1068.3 -225.4 L 1064.7 -221.3 L 1061.4 -214.9 L 1060.7 -214.1 L 1059.5 -214.5 L 1059.5 -211.3 L 1056.7 -206.1 L 1055.8 -205.3 L 1055.8 -206.8 L 1056.3 -207.9 L 1056.5 -209.1 L 1056.5 -210.5 L 1055.7 -209.5 L 1054.0 -205.6 L 1054.6 -202.8 L 1053.4 -198.5 L 1048.7 -186.2 L 1043.0 -175.9 L 1041.6 -172.8 L 1036.9 -165.8 L 1033.5 -162.5 L 1032.5 -162.4 L 1031.4 -162.7 L 1030.8 -168.1 L 1028.1 -171.3 L 1027.3 -171.9 L 1026.2 -168.4 L 1025.2 -167.5 L 1023.9 -167.3 L 1025.3 -165.8 L 1025.8 -164.1 L 1024.3 -160.6 L 1024.2 -157.5 L 1021.6 -154.1 L 1020.1 -151.5 L 1019.3 -148.4 L 1018.8 -145.4 L 1020.0 -146.2 L 1020.5 -145.6 L 1021.0 -144.7 L 1020.7 -143.3 L 1019.8 -140.7 L 1020.0 -134.4 L 1019.7 -132.9 L 1020.5 -131.3 L 1021.4 -134.0 L 1021.9 -133.3 L 1019.4 -116.2 L 1020.4 -108.4 L 1020.8 -99.7 L 1021.9 -91.2 L 1023.2 -83.6 L 1023.3 -83.0 L 1021.5 -74.1 L 1019.4 -65.4 L 1018.0 -58.3 L 1017.2 -50.6 L 1016.4 -46.9 L 1016.1 -43.2 L 1017.1 -34.2 L 1017.4 -32.5 L 1014.8 -28.5 L 1011.9 -26.6 L 1010.3 -24.7 L 1006.8 -17.5 L 1004.9 -6.8 L 1004.9 -1.2 L 1005.8 10.7 L 1005.1 15.5 L 1004.0 18.7 L 1002.7 20.8 L 999.3 23.4 L 996.4 29.6 L 995.1 36.1 L 993.0 38.5 L 992.6 42.1 L 990.9 46.1 L 986.6 52.0 L 983.9 53.7 L 982.5 55.3 L 981.7 58.7 L 979.0 64.4 L 977.0 71.8 L 977.5 74.3 L 977.6 74.6 L 978.3 83.1 L 978.0 85.3 L 975.4 87.6 L 965.6 92.0 L 963.0 93.8 L 957.1 101.2 L 956.8 103.0 L 957.0 105.5 L 958.0 106.9 L 957.0 108.5 L 955.8 111.3 L 954.1 111.1 L 944.3 111.1 L 939.0 112.0 L 936.3 111.8 L 935.0 111.2 L 933.6 110.1 L 933.2 108.6 L 934.0 106.5 L 933.5 105.2 L 932.1 105.2 L 930.5 105.8 L 930.2 107.1 L 930.3 108.0 L 930.9 109.4 L 931.2 111.1 L 930.6 112.5 L 927.5 112.7 L 924.0 114.0 L 919.7 114.6 L 916.2 115.5 L 914.6 114.3 L 916.2 113.7 L 918.5 114.0 L 921.0 113.0 L 920.4 111.8 L 916.9 110.3 L 913.0 111.2 L 910.9 113.0 L 906.2 112.9 L 900.4 114.3 L 899.5 115.7 L 899.7 118.4 L 900.8 119.0 L 901.9 120.3 L 900.8 121.4 L 899.8 121.9 L 893.7 123.2 L 888.1 128.5 L 885.8 129.2 L 883.7 131.5 L 883.5 133.5 L 882.8 134.8 L 881.5 134.8 L 878.5 133.7 L 874.7 133.7 L 872.0 134.6 L 857.9 143.2 L 852.9 146.7 L 847.1 153.7 L 837.4 161.6 L 832.3 166.3 L 831.3 167.5 L 830.5 167.6 L 828.9 168.6 L 829.6 169.4 L 830.7 169.5 L 830.2 172.2 L 828.2 174.1 L 824.4 179.0 L 823.5 178.7 L 824.7 176.1 L 822.9 176.0 L 820.1 175.1 L 818.9 176.1 L 819.6 178.7 L 818.6 179.8 L 816.7 179.9 L 815.0 179.6 L 813.1 177.7 L 813.9 181.1 L 817.9 181.9 L 819.5 182.7 L 820.2 184.0 L 817.1 190.0 L 814.5 190.8 L 814.2 191.6 L 815.6 191.6 L 816.4 193.3 L 815.5 200.0 L 814.2 201.2 L 813.5 201.3 L 812.7 202.4 L 813.8 204.6 L 814.8 206.2 L 814.7 209.3 L 814.3 211.8 L 814.3 214.3 L 815.6 219.1 L 816.1 224.1 L 816.6 225.8 L 816.9 227.8 L 816.0 229.7 L 816.5 232.7 L 815.0 237.8 L 815.8 245.1 L 815.5 252.0 L 814.9 255.6 L 813.9 258.4 L 811.7 262.0 L 811.7 265.7 L 806.9 269.1 L 801.6 273.8 L 796.7 279.4 L 791.5 287.3 L 785.3 299.3 L 779.7 316.4 L 772.8 329.4 L 770.1 334.0 L 766.4 339.3 L 761.5 345.3 L 754.9 351.4 L 747.7 356.9 L 745.1 359.3 L 742.5 362.8 L 741.9 361.3 L 742.5 359.0 L 742.1 357.2 L 742.0 354.9 L 743.5 354.5 L 745.7 356.0 L 746.8 355.0 L 747.6 354.0 L 750.2 353.4 L 755.2 347.5 L 758.9 345.3 L 761.0 341.5 L 761.3 339.5 L 761.3 335.4 L 762.4 334.4 L 765.1 334.8 L 765.7 333.6 L 765.4 332.3 L 766.0 329.5 L 769.6 327.1 L 771.3 324.1 L 770.8 316.4 L 771.4 316.1 L 772.9 317.3 L 773.6 316.8 L 774.4 313.4 L 774.0 311.7 L 772.3 311.2 L 766.2 315.0 L 764.2 314.9 L 763.8 311.9 L 760.9 310.5 L 759.7 308.1 L 759.4 306.4 L 758.4 305.7 L 758.4 308.6 L 758.7 311.4 L 761.4 314.7 L 760.7 316.0 L 759.4 317.6 L 758.6 321.0 L 758.7 325.4 L 758.0 324.0 L 757.0 323.2 L 756.7 328.0 L 754.9 329.8 L 754.4 331.6 L 754.8 333.6 L 753.9 335.0 L 749.4 338.9 L 744.9 341.5 L 744.0 342.7 L 743.5 345.6 L 742.8 348.6 L 740.8 351.2 L 739.2 356.5 L 739.3 358.7 L 739.8 362.0 L 740.7 364.2 L 739.3 365.7 L 737.5 368.5 L 736.1 371.7 L 732.5 383.6 L 729.5 390.8 L 727.1 394.3 L 723.7 398.1 L 714.1 407.4 L 713.6 407.3 L 712.2 406.5 L 711.0 405.6 L 710.7 405.0 L 710.6 404.1 L 710.7 400.8 L 710.7 391.7 L 711.1 390.0 L 711.7 388.9 L 713.6 387.3 L 715.4 385.0 L 717.5 382.1 L 719.4 379.8 L 718.7 378.3 L 717.1 376.8 L 714.3 375.5 L 711.6 373.4 L 709.2 370.7 L 708.1 367.8 L 707.1 364.7 L 706.1 362.3 L 705.8 361.2 L 704.8 360.7 L 703.3 359.5 L 702.4 358.3 L 701.0 357.6 L 698.6 356.9 L 696.0 355.6 L 692.8 352.6 L 690.5 349.3 L 689.4 347.0 L 688.2 345.5 L 681.6 342.9 L 678.6 339.8 L 677.4 340.8 L 675.7 339.8 L 673.9 338.4 L 673.4 337.2 L 672.7 336.1 L 672.0 334.7 L 671.6 333.4 L 669.8 331.2 L 667.5 328.8 L 666.5 328.1 L 666.0 328.3 L 665.5 329.2 L 665.2 330.1 L 664.3 330.7 L 663.2 331.8 L 662.1 333.2 L 660.7 334.1 L 659.1 334.4 L 657.9 334.3 L 657.7 333.8 L 657.6 332.0 L 658.1 327.7 L 657.1 326.1 L 655.8 324.3 L 654.3 322.0 L 649.4 317.0 L 642.6 309.9 L 640.3 307.7 L 638.0 307.5 L 636.0 307.8 L 634.1 308.7 L 632.7 312.0 L 632.1 312.5 L 628.5 312.4 L 624.9 311.9 L 623.7 309.9 L 624.7 308.6 L 628.1 305.7 L 629.9 303.1 L 630.3 300.8 L 631.9 298.8 L 634.8 297.0 L 638.0 293.6 L 641.6 288.8 L 643.7 285.2 L 644.5 282.9 L 645.9 281.1 L 647.9 279.9 L 649.7 277.2 L 651.2 273.3 L 653.2 270.1 L 655.8 267.8 L 657.3 265.8 L 657.6 264.3 L 658.4 263.3 L 659.5 262.9 L 660.1 262.0 L 660.1 260.8 L 660.4 260.0 L 661.1 259.6 L 662.2 259.8 L 663.8 260.5 L 664.7 260.4 L 665.0 259.3 L 664.6 258.2 L 663.5 256.9 L 663.9 255.5 L 667.0 253.2 L 669.2 252.3 L 670.6 250.9 L 672.0 248.7 L 674.2 247.1 L 677.2 246.2 L 678.0 245.4 L 677.9 244.3 L 678.5 243.5 L 680.3 243.0 L 681.3 241.9 L 681.5 240.3 L 682.0 238.9 L 683.0 237.6 L 684.1 237.1 L 685.4 237.4 L 686.5 236.9 L 687.6 235.5 L 688.9 234.9 L 690.4 235.0 L 691.1 234.7 L 693.7 234.1 L 695.2 232.9 L 696.3 230.4 L 697.4 229.4 L 698.3 230.0 L 699.9 229.1 L 702.1 226.9 L 702.5 226.8 L 704.2 225.8 L 705.9 221.9 L 706.7 219.2 L 706.5 217.1 L 706.0 215.6 L 706.2 213.3 L 706.7 207.2 L 706.9 204.7 L 707.8 202.9 L 707.7 201.2 L 706.1 197.3 L 704.5 193.9 L 703.6 188.1 L 703.0 185.9 L 701.7 185.4 L 700.4 183.5 L 698.9 183.3 L 698.2 182.6 L 697.4 181.9 L 696.3 182.1 L 695.4 183.2 L 693.6 183.3 L 692.5 183.7 L 691.2 184.7 L 690.0 184.3 L 689.2 183.4 L 687.6 183.4 L 687.7 179.5 L 690.6 173.6 L 691.4 170.9 L 691.0 169.4 L 691.9 164.0 L 694.0 154.7 L 694.7 148.6 L 693.9 145.7 L 693.9 143.7 L 695.0 142.0 L 695.6 141.5 L 692.8 139.4 L 691.3 137.5 L 689.4 136.1 L 687.4 135.0 L 686.4 135.5 L 685.3 136.1 L 683.3 137.1 L 680.9 138.8 L 679.7 139.5 L 677.6 140.1 L 675.2 140.7 L 673.3 140.3 L 671.6 139.9 L 670.5 138.8 L 669.9 136.5 L 669.9 134.5 L 669.6 131.6 L 668.3 129.9 L 667.9 128.7 L 667.8 127.1 L 668.0 125.4 L 668.3 124.1 L 668.1 122.6 L 667.5 121.5 L 667.7 119.6 L 667.4 117.0 L 666.6 115.3 L 666.1 113.4 L 666.1 111.5 L 665.5 109.6 L 665.4 107.5 L 666.0 105.6 L 666.2 103.7 L 665.6 102.4 L 664.4 101.6 L 663.4 99.4 L 663.3 96.6 L 662.3 95.0 L 661.3 93.8 L 660.1 93.8 L 658.2 93.0 L 656.6 93.1 L 654.0 93.0 L 652.8 92.6 L 652.2 91.6 L 650.5 90.2 L 649.6 87.9 L 648.5 87.4 L 646.9 88.1 L 646.3 89.0 L 645.7 90.3 L 644.5 91.8 L 643.1 91.7 L 641.5 92.5 L 640.0 92.6 L 638.0 92.8 L 636.1 92.0 L 633.7 91.2 L 631.6 90.7 L 629.7 91.2 L 628.3 90.8 L 626.5 90.5 L 624.6 90.3 L 623.0 88.9 L 621.3 88.0 L 620.4 88.3 L 619.2 89.2 L 617.9 89.0 L 616.3 88.3 L 615.7 86.6 L 615.8 85.5 L 616.2 84.4 L 616.8 82.9 L 616.5 81.2 L 616.6 79.8 L 616.9 78.5 L 617.2 77.1 L 617.0 75.7 L 616.9 74.3 L 616.7 72.9 L 616.5 71.4 L 617.4 69.4 L 618.1 67.6 L 617.7 66.2 L 617.8 65.2 L 618.4 63.5 L 619.1 61.6 L 619.0 57.8 L 618.4 55.7 L 617.7 55.1 L 617.5 54.4 L 617.8 53.5 L 617.5 52.7 L 617.3 51.8 L 617.7 51.0 L 617.2 49.4 L 616.2 48.9 L 615.8 48.5 L 615.5 46.8 L 615.2 44.8 L 615.3 43.2 L 614.8 41.9 L 614.1 41.1 L 613.4 39.6 L 612.7 38.5 L 612.4 37.0 L 612.0 35.0 L 613.4 34.6 L 613.9 33.5 L 614.9 32.0 L 616.2 31.6 L 617.8 31.0 L 618.3 29.9 L 614.7 25.9 L 612.6 23.5 L 613.8 20.2 L 616.0 14.7 L 618.1 9.3 L 619.6 5.3 L 620.0 4.5 L 621.4 4.2 L 621.2 2.1 L 621.1 0.8 L 620.0 0.7 L 621.2 -4.3 L 623.1 -11.4 L 624.5 -16.7 L 624.9 -17.6 L 625.9 -17.9 L 626.1 -18.5 L 624.9 -19.4 L 624.2 -21.0 L 622.6 -25.8 L 620.1 -33.4 L 619.9 -36.1 L 619.0 -37.8 L 617.4 -37.2 L 615.6 -37.8 L 611.0 -41.9 L 608.0 -44.1 L 606.9 -45.4 L 606.5 -49.6 L 605.6 -54.3 L 605.2 -60.0 L 605.3 -61.4 L 607.9 -65.8 L 607.9 -68.0 L 608.1 -69.9 L 608.0 -71.5 L 607.4 -71.5 L 606.3 -70.8 L 604.8 -70.3 L 603.9 -70.3 L 595.0 -70.7 L 584.8 -71.1 L 576.3 -71.5 L 569.0 -71.9 L 568.7 -75.6 L 568.3 -81.9 L 568.0 -86.4 L 567.5 -93.5 L 564.6 -98.0 L 561.4 -102.8 L 560.3 -104.0 L 564.1 -104.1 L 566.9 -104.2 L 566.3 -117.1 L 565.5 -118.5 L 564.8 -122.6 L 564.3 -125.0 L 562.9 -126.9 L 562.6 -129.0 L 562.8 -130.5 L 563.6 -131.4 L 564.1 -133.6 L 563.7 -135.8 L 562.9 -137.9 L 561.9 -139.9 L 560.0 -141.1 L 557.3 -143.3 L 553.2 -146.1 L 549.7 -148.1 L 548.6 -147.9 L 542.5 -147.1 L 540.5 -146.7 L 539.1 -147.1 L 534.5 -147.1 L 532.7 -148.6 L 531.2 -150.4 L 528.0 -154.9 L 527.5 -157.2 L 526.3 -157.9 L 524.4 -157.6 L 522.5 -157.9 L 518.8 -159.8 L 515.4 -161.7 L 513.7 -161.6 L 512.2 -162.8 L 509.6 -165.7 L 508.4 -166.9 L 507.8 -168.4 L 507.3 -170.6 L 506.2 -171.1 L 504.9 -170.7 L 503.4 -169.6 L 501.3 -170.3 L 498.8 -172.4 L 497.1 -174.0 L 496.2 -174.7 L 494.0 -175.9 L 491.9 -176.1 L 488.7 -174.4 L 486.1 -175.1 L 481.9 -175.7 L 478.4 -176.9 L 477.1 -180.0 L 476.4 -182.1 L 474.3 -183.4 L 472.7 -185.0 L 470.7 -187.3 L 469.7 -188.1 L 467.9 -188.8 L 466.2 -189.6 L 466.0 -191.2 L 465.4 -193.2 L 465.3 -193.6 L 464.1 -196.1 L 463.6 -196.2 L 463.0 -195.8 L 462.6 -195.4 L 462.1 -195.8 L 462.0 -196.9 L 462.3 -198.7 L 461.6 -200.5 L 460.0 -202.4 L 459.2 -204.4 L 459.1 -206.4 L 458.7 -207.8 L 458.1 -208.4 L 457.7 -209.6 L 457.6 -211.3 L 458.1 -213.4 L 459.1 -215.7 L 458.9 -219.3 L 457.5 -224.2 L 456.7 -227.7 L 456.5 -229.9 L 456.7 -231.5 L 457.6 -233.1 L 459.4 -236.9 L 459.7 -239.8 L 459.1 -243.1 L 459.0 -245.6 L 459.4 -247.3 L 458.8 -249.6 L 457.6 -251.7 L 456.7 -251.8 L 455.5 -251.2 L 454.1 -249.4 L 452.5 -249.1 L 451.0 -250.2 L 446.3 -249.7 L 439.1 -248.6 L 436.2 -247.4 L 434.5 -246.9 L 432.4 -246.6 L 429.1 -244.5 L 421.0 -236.4 L 419.3 -235.3 L 417.4 -235.1 L 416.3 -234.0 L 414.5 -233.1 L 411.0 -229.9 L 409.2 -227.4 L 408.0 -225.1 L 406.6 -225.0 L 405.6 -225.6 L 402.2 -225.3 L 400.5 -224.5 L 398.7 -222.3 L 396.4 -218.2 L 395.4 -217.1 L 393.6 -215.9 L 391.4 -214.9 L 388.8 -213.4 L 387.6 -213.3 L 386.5 -213.0 L 385.6 -213.7 L 385.3 -215.2 L 383.9 -216.1 L 380.7 -216.6 L 375.8 -217.6 L 370.8 -217.8 L 368.4 -217.7 L 366.3 -217.7 L 362.8 -218.2 L 360.2 -218.3 L 358.0 -216.9 L 354.7 -215.1 L 353.2 -214.6 L 352.1 -214.6 L 351.0 -214.8 L 349.8 -215.7 L 348.0 -217.9 L 346.7 -217.0 L 345.7 -216.1 L 345.7 -220.8 L 345.7 -227.8 L 345.7 -233.9 L 345.8 -238.8 L 345.8 -244.6 L 345.8 -248.7 L 346.7 -250.2 L 347.3 -251.9 L 346.6 -254.2 L 346.7 -256.3 L 347.2 -257.8 L 347.8 -259.3 L 346.4 -258.5 L 345.8 -258.1 L 345.0 -257.0 L 343.2 -255.6 L 342.0 -254.1 L 340.5 -252.9 L 338.7 -250.3 L 337.2 -248.8 L 335.6 -247.9 L 333.0 -244.8 L 330.8 -244.1 L 325.1 -243.7 L 319.1 -243.7 L 313.7 -243.7 L 312.8 -243.7 L 312.9 -246.3 L 313.0 -248.1 L 311.2 -250.0 L 311.0 -252.4 L 310.5 -254.0 L 309.9 -256.0 L 308.6 -257.3 L 306.8 -257.8 L 303.8 -258.9 L 299.3 -260.0 L 295.1 -260.1 L 290.9 -260.0 L 293.5 -264.0 L 296.0 -268.0 L 295.9 -271.4 L 293.9 -274.5 L 292.8 -276.4 L 291.0 -279.0 L 288.9 -280.7 L 287.8 -283.1 L 287.9 -284.6 L 287.7 -285.5 L 286.9 -286.1 L 286.1 -287.0 L 285.0 -287.9 L 283.7 -289.2 L 283.7 -290.5 L 283.2 -291.8 L 282.4 -293.4 L 282.4 -294.7 L 281.6 -296.7 L 280.8 -298.1 L 280.0 -299.1 L 278.8 -300.4 L 278.9 -301.5 L 279.8 -302.1 L 280.1 -303.4 L 280.0 -304.6 L 279.0 -305.4 L 277.8 -305.8 L 276.3 -308.2 L 275.2 -309.3 L 274.4 -310.1 L 274.0 -310.9 L 274.4 -311.4 L 274.9 -312.2 L 275.1 -313.5 L 274.8 -314.7 L 274.8 -315.7 L 275.5 -316.0 L 276.4 -315.9 L 277.2 -316.5 L 278.2 -316.8 L 279.4 -316.9 L 280.0 -317.6 L 279.9 -318.9 L 279.2 -321.4 L 278.5 -322.4 L 278.2 -323.9 L 278.8 -326.8 L 279.2 -328.7 L 280.6 -330.7 L 284.7 -334.9 L 288.4 -337.8 L 290.2 -338.1 L 291.6 -339.1 L 292.4 -340.8 L 292.7 -342.5 L 292.5 -344.1 L 291.8 -346.4 L 291.0 -349.2 L 290.4 -350.8 L 290.9 -352.8 L 291.9 -355.4 L 293.9 -359.3 L 295.8 -363.6 L 296.0 -364.8 L 296.3 -367.4 L 297.1 -372.7 L 297.6 -375.5 L 297.4 -376.6 L 297.8 -377.6 L 299.0 -378.4 L 301.8 -379.1 L 303.7 -380.7 L 306.7 -383.7 L 309.2 -386.8 L 311.2 -387.9 L 314.9 -390.8 L 317.1 -392.6 L 317.9 -393.2 L 320.0 -394.6 L 323.8 -395.0 L 326.9 -395.5 L 328.7 -396.4 L 331.3 -396.8 L 333.0 -397.8 L 335.0 -397.8 L 338.6 -398.8 L 339.8 -400.3 L 340.9 -402.1 L 342.3 -403.6 L 344.0 -404.0 L 345.8 -403.8 L 348.1 -403.8 L 350.7 -404.3 L 352.0 -403.1 L 352.6 -401.6 L 354.3 -400.1 L 355.5 -400.2 L 356.6 -400.5 L 358.2 -399.3 L 359.3 -399.4 L 360.0 -400.1 L 360.1 -401.9 L 360.5 -402.9 L 361.3 -408.5 L 362.6 -417.7 L 363.8 -426.1 L 365.1 -435.4 L 366.4 -444.9 L 367.8 -454.6 L 368.9 -462.6 L 369.9 -469.4 L 370.5 -473.6 L 371.4 -479.1 L 371.8 -483.9 L 372.2 -485.3 L 371.9 -486.5 L 371.1 -488.2 L 371.1 -488.9 L 371.2 -489.9 L 371.1 -490.7 L 370.3 -491.6 L 369.6 -492.2 L 369.1 -493.0 L 368.9 -494.0 L 368.5 -495.1 L 368.3 -496.3 L 367.7 -497.2 L 367.5 -498.3 L 367.9 -499.4 L 368.1 -500.6 L 367.9 -501.7 L 367.7 -502.9 L 367.2 -504.1 L 366.5 -504.9 L 364.8 -505.7 L 363.0 -507.7 L 361.0 -509.4 L 358.4 -512.7 L 357.9 -514.3 L 357.9 -518.6 L 358.0 -523.3 L 358.1 -530.4 L 358.2 -534.0 L 359.7 -534.2 L 361.0 -534.3 L 362.3 -534.5 L 363.5 -534.8 L 364.6 -535.3 L 365.4 -535.9 L 366.3 -536.4 L 367.1 -536.2 L 367.8 -536.8 L 368.7 -537.3 L 369.5 -537.8 L 370.6 -538.1 L 371.7 -537.3 L 372.3 -536.4 L 373.1 -536.0 L 373.7 -536.1 L 374.2 -536.0 L 374.7 -535.3 L 375.3 -535.3 L 376.2 -535.4 L 377.0 -535.5 L 377.4 -535.7 L 377.4 -536.2 L 377.2 -536.9 L 376.9 -537.7 L 377.2 -538.8 L 377.2 -540.1 L 377.2 -541.8 L 376.6 -542.8 L 375.9 -544.5 L 375.2 -546.0 L 374.1 -546.9 L 373.0 -547.3 L 372.1 -546.7 L 371.3 -546.6 L 370.7 -547.1 L 369.7 -547.2 L 368.6 -547.3 L 367.5 -547.5 L 365.4 -547.2 L 364.7 -547.6 L 363.7 -547.7 L 362.5 -547.2 L 362.6 -554.0 L 362.6 -560.5 L 362.6 -565.0 L 363.6 -564.9 L 364.9 -565.7 L 366.8 -565.8 L 368.3 -566.7 L 369.1 -566.7 L 370.7 -566.3 L 372.3 -565.4 L 373.9 -565.3 L 378.1 -565.3 L 382.6 -565.3 L 387.6 -565.3 L 392.6 -565.3 L 396.9 -565.3 L 398.3 -565.3 L 397.5 -566.8 L 396.6 -568.7 L 396.9 -570.3 L 397.4 -571.8 L 397.9 -572.6 L 399.3 -571.8 L 400.4 -569.1 L 401.3 -567.2 L 402.3 -566.2 L 403.4 -566.1 L 404.7 -566.4 L 406.0 -567.2 L 408.2 -570.8 L 410.4 -573.9 L 411.5 -575.0 L 412.7 -575.9 L 413.6 -576.3 L 414.8 -576.2 L 415.9 -575.3 L 416.5 -573.8 L 419.0 -568.7 L 420.8 -564.8 L 421.5 -562.4 L 421.5 -556.5 L 421.4 -551.3 L 421.6 -550.6 L 422.0 -550.4 L 426.0 -551.7 Z" fill="#cfe3bf" stroke="#ffffff" stroke-width="2.2" stroke-linejoin="round"/>
<path d="M 369.8 -37.9 L 369.8 -38.0 L 369.8 -39.2 L 369.6 -41.2 L 368.7 -42.7 L 367.4 -43.8 L 366.9 -45.0 L 367.4 -46.3 L 370.0 -49.0 L 371.4 -49.4 L 371.7 -50.7 L 372.6 -51.8 L 375.0 -55.6 L 376.4 -58.2 L 377.9 -59.7 L 379.5 -60.8 L 380.3 -61.6 L 379.9 -64.4 L 380.0 -66.2 L 380.6 -67.4 L 382.2 -68.6 L 383.7 -69.5 L 384.1 -70.0 L 383.9 -70.7 L 382.6 -72.1 L 379.7 -73.3 L 377.8 -73.2 L 376.7 -74.2 L 376.1 -75.2 L 372.3 -86.5 L 371.7 -89.1 L 371.8 -90.1 L 374.3 -95.7 L 375.3 -97.6 L 377.0 -100.2 L 376.7 -101.2 L 373.7 -105.6 L 372.7 -107.7 L 372.7 -109.8 L 373.0 -112.3 L 374.8 -113.7 L 375.3 -115.7 L 375.7 -117.7 L 376.5 -118.4 L 377.2 -119.5 L 378.2 -121.2 L 379.6 -122.7 L 380.4 -123.8 L 380.6 -126.8 L 381.3 -127.7 L 383.3 -128.7 L 383.5 -129.5 L 383.0 -131.5 L 382.0 -133.7 L 381.3 -134.8 L 380.2 -140.1 L 379.1 -142.8 L 379.6 -143.9 L 380.3 -145.2 L 381.1 -147.9 L 381.3 -151.1 L 381.1 -162.6 L 381.2 -164.8 L 382.1 -166.4 L 383.5 -168.3 L 384.7 -169.0 L 385.8 -170.1 L 385.8 -172.3 L 386.5 -173.6 L 387.4 -175.2 L 384.6 -181.6 L 382.1 -187.1 L 379.7 -192.4 L 377.0 -198.5 L 375.2 -202.4 L 373.0 -207.4 L 371.0 -211.8 L 368.4 -217.7 L 370.8 -217.8 L 375.8 -217.6 L 380.7 -216.6 L 383.9 -216.1 L 385.3 -215.2 L 385.6 -213.7 L 386.5 -213.0 L 387.6 -213.3 L 388.8 -213.4 L 391.4 -214.9 L 393.6 -215.9 L 395.4 -217.1 L 396.4 -218.2 L 398.7 -222.3 L 400.5 -224.5 L 402.2 -225.3 L 405.6 -225.6 L 406.6 -225.0 L 408.0 -225.1 L 409.2 -227.4 L 411.0 -229.9 L 414.5 -233.1 L 416.3 -234.0 L 417.4 -235.1 L 419.3 -235.3 L 421.0 -236.4 L 429.1 -244.5 L 432.4 -246.6 L 434.5 -246.9 L 436.2 -247.4 L 439.1 -248.6 L 446.3 -249.7 L 451.0 -250.2 L 452.5 -249.1 L 454.1 -249.4 L 455.5 -251.2 L 456.7 -251.8 L 457.6 -251.7 L 458.8 -249.6 L 459.4 -247.3 L 459.0 -245.6 L 459.1 -243.1 L 459.7 -239.8 L 459.4 -236.9 L 457.6 -233.1 L 456.7 -231.5 L 456.5 -229.9 L 456.7 -227.7 L 457.5 -224.2 L 458.9 -219.3 L 459.1 -215.7 L 458.1 -213.4 L 457.6 -211.3 L 457.7 -209.6 L 458.1 -208.4 L 458.7 -207.8 L 459.1 -206.4 L 459.2 -204.4 L 460.0 -202.4 L 461.6 -200.5 L 462.3 -198.7 L 462.0 -196.9 L 462.1 -195.8 L 462.6 -195.4 L 463.0 -195.8 L 463.6 -196.2 L 464.1 -196.1 L 465.3 -193.6 L 465.4 -193.2 L 466.0 -191.2 L 466.2 -189.6 L 467.9 -188.8 L 469.7 -188.1 L 470.7 -187.3 L 472.7 -185.0 L 474.3 -183.4 L 476.4 -182.1 L 477.1 -180.0 L 478.4 -176.9 L 481.9 -175.7 L 486.1 -175.1 L 488.7 -174.4 L 491.9 -176.1 L 494.0 -175.9 L 496.2 -174.7 L 497.1 -174.0 L 498.8 -172.4 L 501.3 -170.3 L 503.4 -169.6 L 504.9 -170.7 L 506.2 -171.1 L 507.3 -170.6 L 507.8 -168.4 L 508.4 -166.9 L 509.6 -165.7 L 512.2 -162.8 L 513.7 -161.6 L 515.4 -161.7 L 518.8 -159.8 L 522.5 -157.9 L 524.4 -157.6 L 526.3 -157.9 L 527.5 -157.2 L 528.0 -154.9 L 531.2 -150.4 L 532.7 -148.6 L 534.5 -147.1 L 539.1 -147.1 L 540.5 -146.7 L 542.5 -147.1 L 548.6 -147.9 L 549.7 -148.1 L 553.2 -146.1 L 557.3 -143.3 L 560.0 -141.1 L 561.9 -139.9 L 562.9 -137.9 L 563.7 -135.8 L 564.1 -133.6 L 563.6 -131.4 L 562.8 -130.5 L 562.6 -129.0 L 562.9 -126.9 L 564.3 -125.0 L 564.8 -122.6 L 565.5 -118.5 L 566.3 -117.1 L 566.9 -104.2 L 564.1 -104.1 L 560.3 -104.0 L 561.4 -102.8 L 564.6 -98.0 L 567.5 -93.5 L 568.0 -86.4 L 568.3 -81.9 L 568.7 -75.6 L 569.0 -71.9 L 576.3 -71.5 L 584.8 -71.1 L 595.0 -70.7 L 603.9 -70.3 L 604.8 -70.3 L 606.3 -70.8 L 607.4 -71.5 L 608.0 -71.5 L 608.1 -69.9 L 607.9 -68.0 L 607.9 -65.8 L 605.3 -61.4 L 605.2 -60.0 L 605.6 -54.3 L 606.5 -49.6 L 606.9 -45.4 L 608.0 -44.1 L 611.0 -41.9 L 615.6 -37.8 L 617.4 -37.2 L 619.0 -37.8 L 619.9 -36.1 L 620.1 -33.4 L 622.6 -25.8 L 624.2 -21.0 L 624.9 -19.4 L 626.1 -18.5 L 625.9 -17.9 L 624.9 -17.6 L 624.5 -16.7 L 623.1 -11.4 L 621.2 -4.3 L 620.0 0.7 L 621.1 0.8 L 621.2 2.1 L 621.4 4.2 L 620.0 4.5 L 619.6 5.3 L 618.1 9.3 L 616.0 14.7 L 613.8 20.2 L 612.6 23.5 L 614.7 25.9 L 618.3 29.9 L 617.8 31.0 L 616.2 31.6 L 614.9 32.0 L 613.9 33.5 L 613.4 34.6 L 612.0 35.0 L 612.4 30.4 L 612.0 26.5 L 611.5 25.5 L 605.3 20.8 L 599.6 16.5 L 592.1 10.9 L 582.5 11.0 L 572.6 11.2 L 563.1 13.7 L 553.7 16.2 L 549.3 17.3 L 540.5 19.7 L 535.2 20.7 L 533.9 25.2 L 531.8 32.0 L 529.8 35.9 L 527.4 40.1 L 524.1 45.9 L 524.1 53.0 L 524.1 59.7 L 521.8 69.2 L 519.8 77.2 L 517.9 85.0 L 516.6 90.4 L 516.2 91.7 L 515.9 91.3 L 514.2 89.7 L 512.7 86.7 L 512.2 85.3 L 512.1 85.2 L 503.0 85.3 L 494.3 85.4 L 493.4 86.1 L 492.2 86.1 L 491.2 85.5 L 490.3 85.5 L 489.0 86.1 L 487.9 87.3 L 484.6 95.4 L 482.9 98.8 L 481.7 101.9 L 480.8 107.1 L 480.4 108.0 L 479.4 106.2 L 477.9 101.4 L 477.2 98.6 L 476.2 95.5 L 474.5 91.6 L 472.4 90.4 L 471.2 90.0 L 469.4 89.3 L 466.2 88.3 L 464.8 88.1 L 455.7 88.0 L 455.0 87.9 L 451.4 88.3 L 449.6 88.0 L 447.7 85.9 L 443.5 82.0 L 442.6 80.8 L 441.0 80.0 L 440.0 79.9 L 439.4 80.7 L 438.7 83.9 L 437.8 86.8 L 436.9 88.4 L 433.9 89.7 L 431.1 90.9 L 429.5 91.2 L 428.7 92.7 L 428.3 94.7 L 427.6 96.6 L 423.6 99.3 L 422.7 100.5 L 422.2 103.2 L 419.9 106.5 L 419.2 107.9 L 415.6 108.8 L 411.0 109.8 L 408.3 109.7 L 406.4 109.4 L 405.9 108.8 L 404.6 107.9 L 404.4 106.8 L 404.4 105.3 L 404.7 102.6 L 404.6 98.8 L 403.1 94.5 L 403.2 93.1 L 403.0 90.9 L 402.3 86.9 L 400.4 84.8 L 399.9 81.5 L 399.7 78.5 L 398.1 74.9 L 397.8 70.2 L 397.8 66.1 L 395.3 61.4 L 392.8 56.5 L 390.7 55.8 L 390.1 55.2 L 389.9 53.8 L 389.9 51.6 L 390.0 50.2 L 391.6 48.0 L 391.7 47.7 L 391.4 47.2 L 387.2 44.0 L 386.1 43.0 L 385.8 41.9 L 385.8 40.8 L 386.8 39.8 L 387.4 39.0 L 386.4 36.6 L 386.5 34.5 L 385.8 33.6 L 385.9 33.0 L 386.5 32.4 L 389.2 31.7 L 390.1 29.6 L 390.1 27.8 L 389.7 26.5 L 387.2 23.3 L 387.1 22.8 L 389.8 18.4 L 391.7 15.5 L 392.2 14.9 L 392.0 14.3 L 391.5 13.5 L 390.4 12.4 L 388.8 11.2 L 387.5 9.7 L 385.8 7.5 L 383.7 5.6 L 382.2 3.7 L 381.4 2.2 L 381.4 0.6 L 381.2 -2.1 L 380.1 -6.4 L 379.9 -9.3 L 379.4 -12.5 L 379.0 -14.6 L 378.7 -16.7 L 378.0 -18.8 L 377.6 -20.4 L 378.2 -21.6 L 378.8 -22.5 L 378.7 -23.0 L 374.7 -25.4 L 374.0 -26.0 L 373.1 -30.7 L 370.1 -34.8 L 369.8 -37.9 Z" fill="#cfe3bf" stroke="#ffffff" stroke-width="2.2" stroke-linejoin="round"/>
<path d="M 623.7 309.9 L 622.9 311.0 L 622.8 312.8 L 621.5 315.3 L 619.0 318.3 L 618.1 321.0 L 619.2 324.3 L 619.4 328.3 L 618.9 329.9 L 617.8 330.5 L 617.5 331.5 L 618.1 333.0 L 618.2 335.0 L 617.7 337.5 L 616.5 340.4 L 614.7 343.6 L 614.2 345.7 L 615.2 346.8 L 615.6 348.0 L 615.6 349.2 L 615.2 351.0 L 614.5 353.3 L 613.3 355.0 L 611.8 356.1 L 611.3 357.5 L 612.0 359.2 L 612.0 361.0 L 611.6 362.9 L 611.9 364.7 L 612.8 366.4 L 612.8 368.4 L 611.1 372.5 L 610.7 375.1 L 611.7 385.9 L 611.1 387.4 L 610.0 389.2 L 608.8 389.3 L 607.4 389.0 L 606.3 390.1 L 605.7 394.9 L 603.7 405.2 L 604.1 407.7 L 605.6 411.7 L 606.2 414.2 L 606.7 416.1 L 607.0 419.8 L 606.1 421.4 L 605.2 421.7 L 604.2 422.6 L 605.4 427.0 L 606.4 429.0 L 609.3 433.2 L 620.4 439.0 L 625.0 442.4 L 630.2 447.1 L 633.1 451.8 L 633.3 455.8 L 629.2 461.6 L 628.7 466.6 L 629.6 470.1 L 631.1 473.3 L 635.1 477.5 L 638.1 479.0 L 642.1 478.8 L 642.7 480.0 L 643.2 481.0 L 643.8 489.5 L 643.7 492.7 L 642.5 495.6 L 634.8 509.0 L 628.3 517.2 L 625.9 521.7 L 625.0 526.5 L 622.9 528.8 L 611.6 536.1 L 593.9 542.6 L 579.6 546.0 L 576.4 547.2 L 553.4 550.9 L 549.0 551.4 L 543.2 551.1 L 538.5 551.6 L 533.3 550.6 L 528.6 549.4 L 526.0 546.5 L 522.9 546.1 L 522.1 547.6 L 523.6 551.3 L 522.8 555.7 L 523.7 558.3 L 525.6 558.8 L 527.3 560.1 L 528.9 561.9 L 526.2 562.0 L 527.3 563.4 L 528.4 564.3 L 528.3 567.2 L 527.2 574.2 L 524.6 575.8 L 523.9 576.2 L 523.1 577.7 L 521.5 584.4 L 520.9 588.8 L 521.6 591.6 L 524.8 597.5 L 523.6 601.4 L 521.6 603.5 L 513.0 607.8 L 509.6 609.5 L 504.2 610.6 L 495.4 610.8 L 492.2 610.6 L 484.7 606.7 L 479.2 604.3 L 474.1 602.5 L 469.2 601.4 L 469.9 600.8 L 470.2 599.8 L 468.8 599.2 L 467.8 599.1 L 464.6 601.1 L 463.2 603.2 L 462.8 605.0 L 462.7 609.4 L 463.3 613.0 L 465.7 622.0 L 465.9 626.9 L 464.8 633.1 L 466.3 636.7 L 468.2 638.3 L 472.5 639.9 L 474.1 641.0 L 475.9 640.9 L 476.5 641.3 L 476.2 642.1 L 475.1 643.7 L 475.2 645.3 L 478.4 645.8 L 481.7 645.5 L 485.2 644.7 L 486.0 643.6 L 486.1 641.2 L 482.0 640.8 L 482.5 639.9 L 485.6 638.9 L 489.7 637.3 L 491.7 637.0 L 493.1 638.1 L 494.1 639.1 L 495.3 641.6 L 496.0 645.0 L 496.0 649.1 L 495.5 653.0 L 495.0 654.3 L 493.9 656.0 L 486.6 658.1 L 484.6 657.5 L 482.7 654.6 L 482.1 651.6 L 480.5 649.6 L 477.0 648.0 L 473.5 648.5 L 470.1 651.3 L 466.7 652.2 L 465.5 654.7 L 474.0 658.8 L 478.0 660.0 L 479.3 659.9 L 480.6 660.5 L 479.4 662.0 L 478.2 662.9 L 472.1 665.0 L 469.5 666.5 L 466.4 669.4 L 462.0 675.6 L 460.7 677.0 L 460.0 678.6 L 459.5 682.9 L 461.0 690.1 L 459.5 693.1 L 460.4 696.4 L 459.9 698.6 L 458.3 701.8 L 452.2 706.9 L 451.1 710.6 L 453.3 712.8 L 453.1 714.7 L 452.4 716.4 L 449.9 716.4 L 440.7 715.2 L 437.3 717.1 L 434.2 719.4 L 433.3 720.5 L 432.2 721.2 L 425.9 722.4 L 424.6 723.2 L 417.9 732.0 L 415.0 737.4 L 411.5 742.8 L 410.6 745.0 L 410.4 748.2 L 410.9 751.0 L 411.4 753.1 L 412.6 755.7 L 415.1 758.8 L 428.1 771.2 L 430.8 772.3 L 444.7 773.6 L 447.8 775.3 L 449.6 778.1 L 450.3 780.5 L 449.5 786.6 L 448.7 788.5 L 447.1 790.3 L 443.8 792.5 L 439.9 793.7 L 441.0 794.6 L 442.6 794.4 L 446.1 793.7 L 447.6 794.4 L 448.8 796.8 L 446.6 797.8 L 445.9 799.0 L 444.3 800.8 L 436.3 807.9 L 432.0 810.0 L 428.0 812.8 L 422.7 815.7 L 420.6 817.3 L 417.8 820.8 L 413.4 824.6 L 408.8 832.7 L 408.6 834.2 L 409.3 835.3 L 406.7 849.4 L 405.8 851.1 L 403.9 852.9 L 398.9 855.8 L 396.6 856.2 L 393.4 854.5 L 391.6 852.7 L 389.9 849.7 L 387.8 846.5 L 387.7 847.7 L 388.4 849.6 L 387.9 851.6 L 382.6 852.5 L 381.1 853.4 L 386.0 853.0 L 389.3 853.6 L 390.7 854.3 L 391.9 855.8 L 393.0 857.6 L 392.1 858.7 L 389.5 859.5 L 386.0 861.0 L 382.0 863.8 L 379.8 867.0 L 378.8 869.3 L 377.7 874.0 L 377.4 877.0 L 375.7 879.4 L 373.1 881.5 L 373.2 882.0 L 375.0 880.9 L 376.4 880.6 L 377.6 883.4 L 379.3 889.1 L 380.1 893.0 L 380.0 894.2 L 379.5 895.8 L 376.1 896.1 L 373.0 896.1 L 370.8 896.8 L 372.0 897.5 L 374.0 897.2 L 376.9 898.9 L 380.0 898.2 L 381.4 899.3 L 382.5 900.3 L 387.3 908.5 L 391.5 913.6 L 393.6 916.6 L 392.6 918.0 L 392.2 916.1 L 389.5 915.7 L 386.8 915.2 L 382.3 913.9 L 376.3 911.9 L 370.3 911.9 L 365.5 910.2 L 360.2 908.4 L 349.1 908.2 L 339.3 908.1 L 329.2 908.0 L 322.8 907.9 L 318.4 907.9 L 317.3 907.2 L 317.7 904.9 L 316.1 903.2 L 313.8 901.2 L 311.0 899.7 L 309.6 897.8 L 308.0 895.6 L 308.9 893.6 L 310.2 888.9 L 310.3 886.9 L 309.0 885.4 L 308.7 883.4 L 309.0 882.4 L 310.2 881.7 L 310.8 878.3 L 310.3 875.0 L 309.5 872.0 L 308.3 870.7 L 306.9 870.1 L 305.8 870.0 L 303.5 871.1 L 299.6 870.8 L 298.2 871.2 L 296.3 872.4 L 293.6 874.2 L 292.1 873.6 L 291.7 871.7 L 290.6 870.1 L 290.0 868.6 L 289.5 866.3 L 288.7 863.2 L 287.1 859.7 L 284.7 856.8 L 284.5 854.1 L 284.1 850.9 L 285.3 847.7 L 284.6 845.0 L 283.1 841.9 L 283.6 838.6 L 285.1 836.8 L 285.5 834.5 L 292.5 834.1 L 292.2 831.0 L 293.4 828.5 L 294.7 826.3 L 295.8 825.3 L 298.2 824.4 L 301.2 823.0 L 302.8 821.5 L 303.6 820.2 L 304.1 818.5 L 304.2 816.6 L 303.7 812.7 L 304.3 811.5 L 306.1 809.9 L 309.1 808.5 L 310.5 804.7 L 309.7 801.5 L 308.0 798.9 L 305.8 797.7 L 305.7 795.1 L 306.6 792.5 L 307.9 789.8 L 309.4 786.7 L 309.3 784.5 L 310.7 783.3 L 314.5 780.4 L 315.8 777.7 L 317.2 776.9 L 318.7 776.6 L 318.8 775.0 L 317.7 773.4 L 317.5 771.5 L 317.6 769.3 L 318.0 766.4 L 319.8 765.3 L 322.4 763.0 L 323.1 761.5 L 323.2 759.5 L 322.4 755.3 L 321.8 752.4 L 321.5 751.3 L 320.2 749.3 L 319.4 748.0 L 320.8 746.4 L 323.4 744.8 L 324.6 742.3 L 323.5 740.3 L 322.0 739.2 L 321.6 736.0 L 322.1 732.1 L 323.3 730.8 L 327.2 730.2 L 327.6 728.2 L 330.6 725.3 L 330.5 722.5 L 328.6 720.8 L 326.7 718.0 L 325.3 715.6 L 320.7 714.3 L 315.8 713.5 L 315.2 711.2 L 315.4 709.9 L 317.6 710.5 L 321.3 710.0 L 324.1 709.9 L 326.1 709.6 L 328.3 709.3 L 330.4 710.3 L 332.5 709.7 L 333.3 706.0 L 334.6 704.1 L 334.8 702.3 L 333.5 700.8 L 331.1 700.4 L 320.5 699.3 L 320.2 697.8 L 320.3 695.4 L 320.7 692.9 L 320.7 691.7 L 321.7 690.6 L 322.8 688.3 L 323.5 686.8 L 322.8 684.9 L 321.1 682.0 L 322.3 680.6 L 322.4 679.1 L 322.0 677.5 L 320.3 675.8 L 318.7 673.4 L 318.7 670.8 L 320.5 670.2 L 321.7 669.4 L 322.0 667.8 L 321.4 665.9 L 318.9 665.3 L 315.5 664.1 L 314.5 663.1 L 313.6 661.0 L 314.3 655.2 L 313.9 651.7 L 313.6 649.7 L 314.5 648.2 L 315.6 646.9 L 315.0 643.7 L 314.1 642.1 L 314.4 640.8 L 315.3 639.5 L 316.2 637.9 L 316.9 637.6 L 317.9 638.5 L 319.7 637.9 L 321.8 636.7 L 322.0 635.2 L 321.6 633.0 L 320.0 627.6 L 318.6 624.3 L 318.9 623.1 L 319.5 621.8 L 319.0 617.2 L 319.2 614.5 L 319.3 606.3 L 319.4 603.5 L 318.0 600.7 L 318.2 598.0 L 319.2 596.1 L 320.2 593.4 L 320.9 591.1 L 321.6 590.0 L 322.9 589.5 L 323.2 588.2 L 322.6 587.3 L 321.0 585.7 L 320.6 583.9 L 320.9 582.5 L 321.8 581.6 L 323.0 581.6 L 324.0 579.6 L 324.2 577.1 L 324.4 575.9 L 323.7 574.5 L 323.2 571.0 L 322.7 569.0 L 323.3 568.2 L 324.1 567.9 L 325.5 568.4 L 326.5 568.1 L 326.7 567.1 L 326.8 566.0 L 327.2 565.2 L 328.1 562.6 L 329.1 559.5 L 329.3 557.3 L 329.0 551.2 L 329.5 549.8 L 330.5 548.6 L 331.9 547.4 L 333.8 546.4 L 336.2 545.0 L 339.1 544.4 L 340.2 542.9 L 341.1 540.8 L 341.3 539.0 L 340.2 537.8 L 338.7 536.4 L 338.0 532.8 L 337.7 529.5 L 337.4 525.3 L 336.0 521.7 L 334.5 517.7 L 334.1 514.1 L 334.6 512.1 L 335.2 509.0 L 334.5 507.5 L 333.8 505.0 L 334.6 503.0 L 335.5 499.9 L 335.4 498.3 L 334.6 494.6 L 333.9 492.5 L 334.6 490.2 L 335.8 488.1 L 336.6 487.0 L 336.5 485.2 L 336.9 483.7 L 338.5 482.7 L 340.1 480.8 L 341.2 480.6 L 342.5 480.6 L 343.4 480.1 L 343.7 478.7 L 344.0 477.1 L 346.1 475.1 L 347.4 473.3 L 349.6 473.0 L 350.7 471.0 L 350.8 468.5 L 350.5 466.0 L 351.3 463.1 L 350.4 458.6 L 350.5 456.2 L 349.6 454.3 L 349.8 452.2 L 349.3 450.8 L 348.0 450.3 L 347.5 448.7 L 348.2 447.8 L 349.4 447.2 L 351.0 445.9 L 352.2 439.7 L 352.7 437.9 L 353.3 435.7 L 353.2 434.6 L 353.9 432.9 L 354.9 430.4 L 356.4 428.0 L 357.2 426.3 L 358.0 424.1 L 358.3 422.7 L 359.3 422.0 L 360.5 421.9 L 361.9 421.4 L 362.5 420.6 L 362.4 419.4 L 362.3 416.8 L 361.9 412.5 L 361.6 407.1 L 361.9 403.5 L 362.8 399.9 L 363.7 398.0 L 363.5 396.5 L 363.2 394.8 L 361.6 393.9 L 360.0 394.7 L 359.0 394.5 L 357.6 392.6 L 357.2 390.5 L 357.4 387.8 L 358.5 386.0 L 358.9 383.9 L 358.3 383.2 L 356.9 381.7 L 355.6 376.8 L 355.8 372.5 L 354.5 371.4 L 353.9 368.1 L 352.5 366.9 L 352.0 364.4 L 351.6 361.9 L 351.8 360.8 L 353.2 360.5 L 353.9 358.4 L 353.4 357.3 L 352.3 356.3 L 351.0 356.4 L 349.8 355.3 L 348.2 350.5 L 346.9 347.8 L 347.3 343.9 L 347.5 340.9 L 348.1 338.3 L 348.3 336.2 L 349.3 335.3 L 350.2 335.7 L 351.1 335.5 L 351.9 333.8 L 352.8 332.8 L 352.7 332.0 L 352.2 331.1 L 351.9 329.5 L 352.6 327.6 L 353.6 323.3 L 355.2 318.6 L 355.9 316.8 L 355.8 315.3 L 356.1 314.6 L 357.2 315.4 L 360.3 314.6 L 361.4 312.5 L 361.8 310.6 L 362.7 309.5 L 362.3 308.0 L 361.0 307.6 L 360.2 306.9 L 360.5 305.2 L 361.0 301.3 L 360.9 298.4 L 359.7 292.3 L 358.8 286.2 L 359.5 284.2 L 361.5 281.4 L 363.0 280.1 L 363.3 278.6 L 364.9 271.4 L 365.0 267.5 L 366.0 265.3 L 366.7 261.2 L 369.5 257.7 L 370.3 255.4 L 371.4 255.2 L 372.0 254.4 L 373.4 251.8 L 375.4 249.2 L 377.0 247.8 L 377.4 245.7 L 378.2 242.9 L 379.8 238.1 L 380.7 234.8 L 381.9 233.6 L 383.4 229.2 L 384.0 226.7 L 385.6 225.6 L 386.9 225.3 L 388.1 226.5 L 389.4 226.3 L 390.6 224.8 L 393.4 223.8 L 394.7 223.2 L 395.2 221.7 L 395.2 219.1 L 394.1 217.2 L 391.7 213.4 L 389.6 209.2 L 389.4 207.9 L 389.4 206.5 L 389.8 204.7 L 390.7 202.6 L 393.2 199.2 L 392.9 196.8 L 391.1 187.9 L 390.5 185.5 L 389.2 180.9 L 389.4 179.1 L 390.5 174.1 L 391.5 172.1 L 392.9 171.7 L 393.6 171.0 L 393.8 170.1 L 392.9 169.0 L 392.5 167.6 L 392.1 165.6 L 390.8 164.8 L 390.1 163.2 L 390.1 160.7 L 391.2 157.4 L 392.5 156.5 L 393.0 155.1 L 394.4 153.8 L 395.7 152.8 L 396.7 150.9 L 401.0 148.6 L 404.5 146.8 L 411.2 143.4 L 415.8 141.1 L 416.2 139.5 L 416.6 138.4 L 418.7 130.1 L 421.5 119.5 L 423.2 112.8 L 419.2 107.9 L 419.9 106.5 L 422.2 103.2 L 422.7 100.5 L 423.6 99.3 L 427.6 96.6 L 428.3 94.7 L 428.7 92.7 L 429.5 91.2 L 431.1 90.9 L 433.9 89.7 L 436.9 88.4 L 437.8 86.8 L 438.7 83.9 L 439.4 80.7 L 440.0 79.9 L 441.0 80.0 L 442.6 80.8 L 443.5 82.0 L 447.7 85.9 L 449.6 88.0 L 451.4 88.3 L 455.0 87.9 L 455.7 88.0 L 464.8 88.1 L 466.2 88.3 L 469.4 89.3 L 471.2 90.0 L 472.4 90.4 L 474.5 91.6 L 476.2 95.5 L 477.2 98.6 L 477.9 101.4 L 479.4 106.2 L 480.4 108.0 L 480.8 107.1 L 481.7 101.9 L 482.9 98.8 L 484.6 95.4 L 487.9 87.3 L 489.0 86.1 L 490.3 85.5 L 491.2 85.5 L 492.2 86.1 L 493.4 86.1 L 494.3 85.4 L 503.0 85.3 L 512.1 85.2 L 512.2 85.3 L 512.7 86.7 L 514.2 89.7 L 515.9 91.3 L 516.2 91.7 L 516.7 92.5 L 516.7 93.3 L 518.5 94.9 L 522.1 97.4 L 525.5 102.1 L 528.6 109.2 L 531.6 114.4 L 534.3 117.7 L 536.9 120.1 L 539.2 121.5 L 540.4 122.6 L 540.6 123.5 L 542.8 125.3 L 546.9 128.0 L 549.6 130.8 L 550.7 133.5 L 554.8 136.3 L 561.9 139.2 L 567.1 140.6 L 570.4 140.4 L 575.0 142.7 L 581.1 147.5 L 584.8 150.8 L 586.1 152.6 L 590.0 155.6 L 599.9 161.7 L 604.3 163.3 L 606.4 164.7 L 607.6 166.5 L 608.8 167.0 L 610.0 166.3 L 612.5 167.0 L 616.2 169.0 L 619.2 171.3 L 623.0 176.6 L 624.2 178.7 L 624.7 180.6 L 624.5 182.3 L 623.4 184.0 L 621.2 185.9 L 620.6 186.7 L 620.6 187.5 L 620.0 189.1 L 618.3 192.5 L 617.8 194.1 L 617.7 195.2 L 616.6 196.5 L 613.6 198.8 L 613.0 200.0 L 612.9 201.2 L 612.5 201.9 L 612.1 202.2 L 611.5 203.5 L 611.0 205.5 L 611.0 208.1 L 611.4 211.3 L 611.3 212.3 L 610.6 212.9 L 610.3 213.6 L 610.1 215.1 L 609.6 216.2 L 608.6 216.9 L 608.2 217.7 L 608.5 218.6 L 607.8 219.4 L 606.1 220.3 L 605.0 221.6 L 604.6 223.3 L 603.7 224.8 L 602.2 226.1 L 601.7 227.8 L 602.5 231.1 L 611.8 230.0 L 619.4 231.1 L 628.4 234.3 L 634.3 235.4 L 637.3 234.4 L 639.4 234.5 L 640.9 235.8 L 642.8 236.0 L 645.2 235.3 L 647.2 235.8 L 648.7 237.6 L 650.1 237.2 L 651.4 234.5 L 652.9 232.5 L 654.5 231.3 L 656.6 230.9 L 659.1 231.4 L 661.1 232.4 L 662.5 233.9 L 664.1 233.8 L 665.9 232.3 L 666.7 230.4 L 666.6 228.2 L 667.3 226.6 L 668.8 225.6 L 669.8 224.3 L 670.3 222.7 L 672.0 221.7 L 674.9 221.4 L 676.5 220.6 L 676.6 219.3 L 677.5 218.2 L 679.1 217.2 L 680.2 215.9 L 680.8 214.3 L 681.7 213.3 L 683.1 212.9 L 684.6 209.6 L 686.3 203.5 L 687.2 195.2 L 687.6 183.4 L 689.2 183.4 L 690.0 184.3 L 691.2 184.7 L 692.5 183.7 L 693.6 183.3 L 695.4 183.2 L 696.3 182.1 L 697.4 181.9 L 698.2 182.6 L 698.9 183.3 L 700.4 183.5 L 701.7 185.4 L 703.0 185.9 L 703.6 188.1 L 704.5 193.9 L 706.1 197.3 L 707.7 201.2 L 707.8 202.9 L 706.9 204.7 L 706.7 207.2 L 706.2 213.3 L 706.0 215.6 L 706.5 217.1 L 706.7 219.2 L 705.9 221.9 L 704.2 225.8 L 702.5 226.8 L 702.1 226.9 L 699.9 229.1 L 698.3 230.0 L 697.4 229.4 L 696.3 230.4 L 695.2 232.9 L 693.7 234.1 L 691.1 234.7 L 690.4 235.0 L 688.9 234.9 L 687.6 235.5 L 686.5 236.9 L 685.4 237.4 L 684.1 237.1 L 683.0 237.6 L 682.0 238.9 L 681.5 240.3 L 681.3 241.9 L 680.3 243.0 L 678.5 243.5 L 677.9 244.3 L 678.0 245.4 L 677.2 246.2 L 674.2 247.1 L 672.0 248.7 L 670.6 250.9 L 669.2 252.3 L 667.0 253.2 L 663.9 255.5 L 663.5 256.9 L 664.6 258.2 L 665.0 259.3 L 664.7 260.4 L 663.8 260.5 L 662.2 259.8 L 661.1 259.6 L 660.4 260.0 L 660.1 260.8 L 660.1 262.0 L 659.5 262.9 L 658.4 263.3 L 657.6 264.3 L 657.3 265.8 L 655.8 267.8 L 653.2 270.1 L 651.2 273.3 L 649.7 277.2 L 647.9 279.9 L 645.9 281.1 L 644.5 282.9 L 643.7 285.2 L 641.6 288.8 L 638.0 293.6 L 634.8 297.0 L 631.9 298.8 L 630.3 300.8 L 629.9 303.1 L 628.1 305.7 L 624.7 308.6 L 623.7 309.9 Z M 532.7 556.3 L 532.9 558.0 L 531.8 557.8 L 529.2 556.2 L 528.3 554.6 L 528.1 554.0 L 530.8 554.7 L 532.0 555.3 L 532.7 556.3 Z" fill="#cfe3bf" stroke="#ffffff" stroke-width="2.2" stroke-linejoin="round"/>
<text x="662.7" y="373.8" text-anchor="middle" dominant-baseline="middle" font-family="Arial, Helvetica, sans-serif" font-size="23" font-weight="700" fill="#171717" stroke="#ffffff" stroke-width="5" paint-order="stroke">Uruguay</text>
<text x="605.9" y="124.3" text-anchor="middle" dominant-baseline="middle" font-family="Arial, Helvetica, sans-serif" font-size="30" font-weight="700" fill="#171717" stroke="#ffffff" stroke-width="5" paint-order="stroke">Paraguay</text>
<text x="295.4" y="384.0" text-anchor="middle" dominant-baseline="middle" font-family="Arial, Helvetica, sans-serif" font-size="30" font-weight="700" fill="#171717" stroke="#ffffff" stroke-width="5" paint-order="stroke">Chile</text>
<text x="521.0" y="203.7" text-anchor="middle" dominant-baseline="middle" font-family="Arial, Helvetica, sans-serif" font-size="30" font-weight="700" fill="#171717" stroke="#ffffff" stroke-width="5" paint-order="stroke">Brazil</text>
<text x="496.5" y="54.9" text-anchor="middle" dominant-baseline="middle" font-family="Arial, Helvetica, sans-serif" font-size="23" font-weight="700" fill="#171717" stroke="#ffffff" stroke-width="5" paint-order="stroke">Bolivia</text>
<text x="412.0" y="332.0" text-anchor="middle" dominant-baseline="middle" font-family="Arial, Helvetica, sans-serif" font-size="34" font-weight="800" fill="#171717" stroke="#ffffff" stroke-width="5" paint-order="stroke">Argentina</text>
<circle cx="384.0" cy="384.0" r="14" fill="#df3f32" stroke="#ffffff" stroke-width="5"/>
<circle cx="384.0" cy="384.0" r="22" fill="none" stroke="#df3f32" stroke-opacity="0.35" stroke-width="7"/>
</svg>