<svg xmlns="http://www.w3.org/2000/svg" viewBox="0 0 768 768" width="768" height="768" role="img" aria-label="Approximate country map for Reykjavik, Iceland">
<rect width="768" height="768" fill="#a9cfe0"/>
<path d="M 676.7 657.2 L 673.3 660.7 L 671.9 660.1 L 670.8 660.4 L 670.5 660.3 L 671.1 659.0 L 671.9 656.1 L 673.3 655.0 L 675.1 652.0 L 676.5 651.1 L 677.0 651.3 L 677.3 651.5 L 677.9 654.9 L 677.0 656.1 L 676.7 657.2 Z" fill="#cfe3bf" stroke="#ffffff" stroke-width="2.2" stroke-linejoin="round"/>
<path d="M 705.8 727.5 L 704.6 728.7 L 700.6 729.8 L 698.9 731.0 L 695.9 733.7 L 695.4 733.9 L 690.9 733.2 L 687.5 729.8 L 685.4 728.4 L 684.5 728.2 L 683.6 728.6 L 681.6 729.1 L 679.6 729.0 L 680.7 727.4 L 682.0 726.5 L 679.0 725.9 L 678.1 725.4 L 677.1 724.3 L 674.7 724.1 L 673.5 724.4 L 671.6 725.8 L 668.5 727.4 L 664.8 725.2 L 664.1 724.3 L 664.1 722.4 L 663.5 721.0 L 662.5 720.5 L 663.8 718.5 L 665.4 717.3 L 668.9 716.0 L 674.2 713.0 L 677.2 711.8 L 679.9 709.6 L 681.1 708.2 L 681.9 706.4 L 682.7 704.1 L 683.9 702.3 L 682.8 701.9 L 682.2 700.5 L 682.4 699.1 L 682.9 697.9 L 682.4 696.3 L 681.6 694.7 L 681.6 693.4 L 681.9 692.1 L 679.7 692.1 L 677.6 692.5 L 675.7 693.5 L 673.8 694.8 L 672.2 695.1 L 672.2 694.0 L 672.9 692.7 L 674.8 690.9 L 676.8 689.4 L 677.5 688.2 L 678.1 686.9 L 679.1 685.8 L 681.7 683.7 L 686.7 681.4 L 687.5 681.3 L 689.5 681.6 L 691.4 681.2 L 693.1 680.4 L 694.8 680.2 L 698.6 682.6 L 697.5 678.9 L 699.2 678.0 L 701.6 681.4 L 702.5 681.7 L 704.4 681.2 L 703.7 680.7 L 702.8 680.6 L 701.7 680.1 L 700.8 679.1 L 699.2 675.7 L 699.3 673.7 L 700.3 671.6 L 701.5 669.6 L 700.5 669.3 L 699.7 668.5 L 699.5 666.6 L 699.8 664.9 L 701.9 663.4 L 702.6 661.1 L 702.8 658.6 L 702.5 657.4 L 700.4 657.6 L 699.3 658.1 L 698.4 658.8 L 697.5 658.8 L 694.9 656.0 L 693.4 653.9 L 690.8 649.5 L 690.4 646.8 L 692.5 641.1 L 695.8 637.4 L 699.7 636.2 L 698.9 635.9 L 693.0 635.9 L 691.1 636.3 L 689.3 637.8 L 688.3 638.3 L 687.2 638.4 L 686.2 639.2 L 685.3 640.2 L 684.3 640.9 L 682.3 640.7 L 681.3 640.9 L 680.7 640.3 L 680.1 639.3 L 679.3 639.1 L 678.5 639.4 L 676.7 640.7 L 674.9 641.5 L 672.8 640.7 L 669.9 639.1 L 669.3 639.7 L 668.7 641.1 L 668.3 643.4 L 666.3 641.4 L 664.6 638.8 L 664.0 637.1 L 664.0 635.3 L 664.9 634.5 L 665.9 635.2 L 667.4 630.8 L 670.5 625.0 L 671.5 623.3 L 672.3 621.1 L 672.1 619.7 L 671.5 618.5 L 668.7 615.7 L 668.7 613.5 L 669.0 610.9 L 669.8 609.4 L 670.1 609.1 L 673.8 609.1 L 672.4 608.3 L 669.5 606.0 L 669.5 605.2 L 670.2 603.1 L 669.9 603.3 L 669.3 604.3 L 668.1 606.7 L 667.4 607.2 L 665.3 607.8 L 664.9 609.0 L 664.6 609.3 L 663.6 609.4 L 663.3 610.5 L 663.1 610.6 L 662.8 609.4 L 662.7 607.4 L 663.1 605.6 L 663.9 604.2 L 666.9 601.0 L 665.5 602.0 L 662.2 605.0 L 660.5 606.9 L 660.0 607.6 L 659.9 608.1 L 659.9 608.8 L 660.6 612.2 L 660.4 613.8 L 657.6 624.2 L 657.0 625.2 L 656.5 625.8 L 656.1 625.9 L 654.7 625.7 L 654.0 624.9 L 654.0 624.0 L 654.3 622.7 L 655.5 617.8 L 656.0 616.4 L 656.8 615.1 L 658.4 612.9 L 658.4 612.7 L 657.3 613.2 L 656.8 613.0 L 656.5 612.6 L 656.7 605.9 L 657.6 603.7 L 657.9 600.6 L 658.7 597.8 L 659.6 595.9 L 660.3 593.3 L 661.4 592.2 L 661.6 590.5 L 662.8 588.6 L 663.7 586.7 L 663.2 586.9 L 657.4 591.9 L 656.0 592.9 L 654.0 592.6 L 652.4 592.0 L 651.2 590.8 L 650.7 588.5 L 649.2 588.5 L 647.9 588.1 L 648.0 587.8 L 649.6 586.5 L 652.2 586.1 L 654.7 584.1 L 652.5 582.7 L 652.7 582.3 L 654.6 581.1 L 657.0 577.2 L 657.5 573.6 L 656.3 572.0 L 655.9 570.9 L 653.6 569.6 L 653.2 568.1 L 653.5 567.2 L 654.2 566.3 L 655.4 565.7 L 657.2 565.0 L 655.5 564.3 L 654.9 563.5 L 654.5 562.4 L 654.4 561.7 L 655.3 558.7 L 655.8 557.4 L 656.7 555.8 L 661.0 555.9 L 661.5 555.2 L 662.0 555.2 L 664.2 555.8 L 663.9 555.2 L 660.3 551.4 L 660.0 550.7 L 661.0 548.7 L 661.1 547.7 L 660.9 546.8 L 661.2 546.0 L 662.4 545.7 L 665.9 545.7 L 666.7 545.4 L 666.3 544.4 L 665.5 543.1 L 665.4 542.0 L 665.6 541.1 L 665.6 539.2 L 665.8 538.3 L 666.6 537.1 L 667.3 536.7 L 668.1 536.5 L 670.0 536.9 L 670.8 537.4 L 671.6 538.6 L 672.2 538.5 L 674.6 537.2 L 675.4 537.0 L 676.3 538.5 L 680.4 537.3 L 685.9 536.8 L 689.2 536.0 L 692.7 535.7 L 695.9 534.8 L 699.4 535.2 L 699.5 535.7 L 699.3 536.4 L 698.4 538.5 L 698.6 540.7 L 698.4 541.4 L 698.0 542.2 L 696.7 543.8 L 693.4 546.0 L 687.3 551.2 L 683.7 553.7 L 683.2 554.9 L 683.0 556.7 L 685.1 557.0 L 685.9 557.6 L 685.4 558.4 L 682.3 561.5 L 681.3 564.2 L 683.8 564.1 L 685.8 563.6 L 689.8 561.9 L 693.5 560.6 L 695.3 560.5 L 698.9 561.5 L 699.7 561.6 L 701.1 561.1 L 702.7 561.0 L 712.9 561.3 L 715.7 560.8 L 717.6 561.5 L 719.2 563.2 L 720.7 566.5 L 720.6 567.0 L 719.7 568.5 L 718.0 570.4 L 716.6 572.9 L 716.2 574.3 L 715.9 575.8 L 715.5 577.2 L 712.6 583.8 L 709.8 587.4 L 708.6 590.0 L 707.1 592.0 L 705.6 593.3 L 704.0 594.2 L 699.5 595.1 L 698.2 595.8 L 696.7 596.9 L 695.1 597.5 L 697.0 597.4 L 698.8 596.8 L 702.2 596.5 L 706.1 598.7 L 705.7 600.5 L 704.1 601.9 L 700.6 602.1 L 697.3 605.3 L 695.8 606.2 L 694.2 606.7 L 692.2 606.5 L 688.7 605.7 L 687.1 604.8 L 688.5 606.3 L 690.1 607.0 L 699.4 608.8 L 700.0 608.6 L 703.0 606.7 L 706.9 606.7 L 714.5 610.1 L 716.7 612.7 L 719.8 616.5 L 721.5 617.9 L 722.7 619.2 L 723.5 621.2 L 724.9 627.8 L 726.6 634.2 L 728.8 641.1 L 729.8 643.0 L 731.1 644.4 L 737.7 647.5 L 739.1 648.5 L 741.7 651.5 L 744.2 654.6 L 746.5 657.1 L 748.9 659.1 L 747.7 660.1 L 746.9 661.7 L 747.5 663.9 L 748.5 666.0 L 750.5 669.4 L 752.3 673.0 L 751.6 672.5 L 750.9 672.2 L 750.0 672.3 L 749.1 672.1 L 747.4 670.9 L 745.8 669.5 L 742.6 670.1 L 740.9 669.8 L 739.3 669.9 L 742.2 670.7 L 745.4 670.7 L 752.5 676.9 L 754.9 680.5 L 756.3 685.3 L 755.3 687.5 L 753.8 688.9 L 752.4 690.5 L 751.1 692.3 L 755.0 695.0 L 755.9 694.9 L 756.7 694.5 L 757.6 693.6 L 759.0 691.4 L 759.7 690.6 L 762.1 690.4 L 764.1 690.5 L 766.2 691.0 L 768.0 690.9 L 771.6 691.8 L 773.4 692.7 L 778.0 696.5 L 779.0 698.6 L 779.5 701.3 L 779.5 704.3 L 778.7 707.0 L 777.8 709.5 L 777.3 712.7 L 776.9 713.9 L 776.4 714.8 L 773.9 717.3 L 772.3 718.3 L 771.6 717.9 L 770.9 718.0 L 770.8 718.6 L 771.6 719.8 L 771.6 721.4 L 770.2 722.6 L 768.7 723.0 L 766.3 722.4 L 762.9 724.6 L 765.3 725.7 L 765.8 726.9 L 765.2 728.9 L 763.7 729.8 L 762.0 730.2 L 760.3 730.3 L 758.8 730.8 L 757.4 731.8 L 759.2 731.3 L 760.4 731.8 L 761.1 733.5 L 761.8 734.0 L 765.2 734.7 L 767.3 734.7 L 771.3 734.3 L 773.3 734.3 L 774.0 734.6 L 774.0 736.1 L 773.7 739.6 L 773.1 740.3 L 767.8 743.3 L 766.7 745.4 L 766.4 746.6 L 763.2 746.4 L 761.8 747.7 L 759.2 748.6 L 757.3 749.6 L 755.3 750.7 L 753.8 751.1 L 746.9 749.7 L 742.8 749.8 L 737.2 751.0 L 735.8 750.8 L 733.6 749.6 L 731.4 748.9 L 728.9 748.5 L 726.7 747.4 L 728.1 749.5 L 725.0 751.5 L 723.6 751.9 L 722.2 751.9 L 719.2 752.4 L 716.4 752.1 L 716.9 753.6 L 717.6 754.8 L 717.0 755.3 L 716.4 755.5 L 711.1 754.5 L 710.4 754.7 L 709.7 755.6 L 707.8 755.1 L 706.0 753.7 L 704.0 752.7 L 701.9 752.2 L 700.3 752.4 L 693.5 754.7 L 692.2 757.0 L 691.5 760.3 L 690.5 763.2 L 688.9 765.4 L 687.0 765.7 L 685.2 764.2 L 681.8 762.5 L 680.7 761.3 L 680.3 761.2 L 679.9 761.6 L 678.6 762.2 L 677.2 762.2 L 675.1 762.7 L 671.4 764.1 L 669.9 765.0 L 666.7 767.6 L 666.1 768.3 L 664.9 771.0 L 663.1 771.4 L 661.5 769.7 L 659.6 769.2 L 657.7 769.7 L 656.5 770.6 L 655.9 769.9 L 655.9 768.4 L 657.3 766.6 L 661.2 765.3 L 664.5 761.8 L 666.1 759.6 L 666.8 758.4 L 667.6 757.7 L 668.6 757.4 L 669.2 756.1 L 673.8 750.7 L 674.2 749.5 L 674.4 747.3 L 674.8 745.2 L 678.6 743.8 L 680.4 739.4 L 680.9 739.1 L 686.2 738.3 L 690.1 738.3 L 694.0 739.2 L 696.0 739.3 L 698.0 739.0 L 699.6 737.8 L 702.2 733.5 L 703.8 731.6 L 705.5 729.9 L 707.1 727.9 L 709.7 724.3 L 707.9 725.5 L 705.8 727.5 Z M 680.3 680.9 L 681.0 681.4 L 682.7 681.3 L 682.2 682.5 L 680.2 683.8 L 678.9 685.0 L 677.3 686.1 L 676.6 684.9 L 675.7 684.9 L 674.3 682.6 L 674.1 679.1 L 675.9 678.2 L 678.3 678.3 L 680.3 680.9 Z M 707.8 518.8 L 705.9 518.9 L 706.9 517.2 L 708.0 516.8 L 710.2 517.0 L 709.8 517.7 L 707.8 518.8 Z M 732.9 483.6 L 732.5 484.0 L 730.9 481.2 L 732.1 478.0 L 733.6 478.1 L 733.8 478.9 L 733.6 479.7 L 732.9 479.8 L 732.8 480.0 L 733.1 481.5 L 733.1 483.2 L 732.9 483.6 Z M 728.5 483.0 L 728.9 484.9 L 729.7 484.4 L 731.0 486.3 L 731.7 486.3 L 732.8 485.5 L 732.6 487.3 L 731.4 492.1 L 731.1 492.9 L 730.9 494.3 L 730.7 494.6 L 730.3 497.6 L 729.6 498.5 L 728.9 500.8 L 728.7 501.1 L 727.7 500.2 L 728.6 496.6 L 729.0 494.6 L 728.8 493.5 L 728.3 492.6 L 726.8 492.5 L 725.6 493.0 L 725.4 492.4 L 725.3 491.7 L 725.0 491.4 L 723.4 491.5 L 722.9 491.2 L 722.6 490.5 L 722.6 490.0 L 724.0 489.6 L 725.4 489.7 L 727.4 488.6 L 726.1 484.9 L 724.5 484.5 L 724.1 484.2 L 724.4 483.5 L 725.3 483.2 L 726.7 481.3 L 727.6 481.0 L 728.6 481.1 L 728.5 483.0 Z M 737.4 475.5 L 737.4 475.8 L 736.6 478.1 L 736.6 479.0 L 735.2 478.9 L 734.9 478.6 L 734.7 477.3 L 734.9 475.9 L 735.1 475.5 L 735.5 475.4 L 735.9 475.6 L 736.6 474.9 L 737.0 474.9 L 737.4 475.5 Z M 697.5 530.8 L 696.6 531.2 L 695.6 531.1 L 694.1 529.6 L 693.6 528.4 L 693.7 527.6 L 694.3 527.4 L 695.7 527.8 L 696.5 529.1 L 696.6 529.9 L 696.7 530.3 L 697.6 530.6 L 697.5 530.8 Z M 701.4 532.3 L 701.3 532.3 L 700.7 531.8 L 699.7 530.0 L 701.2 529.7 L 702.0 529.9 L 701.7 530.7 L 701.4 532.3 Z M 699.3 524.4 L 699.1 525.0 L 700.3 525.0 L 702.2 525.6 L 703.3 525.7 L 704.2 526.4 L 703.7 527.7 L 703.2 528.1 L 702.5 528.2 L 700.3 526.8 L 697.5 527.4 L 696.9 527.2 L 696.5 526.8 L 696.4 526.4 L 696.4 525.4 L 696.2 525.2 L 695.2 526.1 L 694.7 526.0 L 694.5 525.5 L 694.4 524.6 L 694.5 523.4 L 695.1 521.6 L 696.1 521.2 L 697.6 521.4 L 699.4 522.4 L 699.9 523.1 L 699.9 523.6 L 699.3 524.4 Z M 704.8 520.0 L 703.3 520.7 L 702.7 520.2 L 702.6 518.4 L 700.9 517.6 L 700.0 517.2 L 699.4 516.3 L 699.6 516.0 L 700.7 515.6 L 702.6 517.3 L 703.3 518.6 L 704.8 518.9 L 704.9 519.1 L 704.8 520.0 Z M 640.0 591.4 L 639.1 591.6 L 639.0 591.2 L 640.7 589.3 L 641.7 589.0 L 642.1 589.2 L 641.3 590.3 L 640.0 591.4 Z M 665.1 622.6 L 663.0 622.6 L 662.2 622.4 L 661.3 621.7 L 660.3 617.9 L 660.7 616.6 L 661.1 615.9 L 661.6 615.4 L 662.7 615.2 L 663.8 615.9 L 664.2 616.6 L 665.1 619.1 L 665.3 621.3 L 665.1 622.6 Z M 653.9 598.0 L 647.2 599.5 L 644.9 599.4 L 644.7 598.6 L 645.2 598.1 L 647.1 597.7 L 647.9 594.0 L 645.0 592.3 L 644.8 591.8 L 645.1 591.0 L 645.4 590.7 L 647.1 589.8 L 647.9 589.6 L 648.5 589.7 L 649.7 590.7 L 651.1 592.8 L 652.9 593.1 L 654.2 594.0 L 653.9 598.0 Z M 648.0 609.4 L 648.6 612.9 L 649.2 615.1 L 649.2 615.8 L 648.7 616.8 L 645.9 618.2 L 645.1 618.2 L 645.0 617.9 L 645.7 616.5 L 645.1 614.9 L 645.4 613.7 L 645.1 613.5 L 644.6 613.6 L 642.6 615.6 L 642.0 615.8 L 641.9 615.4 L 642.4 613.8 L 642.4 612.7 L 642.7 612.0 L 643.3 611.4 L 643.9 611.0 L 644.4 610.9 L 645.0 611.4 L 646.6 610.1 L 648.0 609.4 Z M 650.7 612.5 L 650.3 612.8 L 649.5 612.7 L 649.2 612.3 L 649.0 611.6 L 649.0 610.4 L 649.5 609.5 L 651.6 608.1 L 650.7 607.7 L 650.6 607.3 L 651.2 606.2 L 653.5 604.5 L 654.1 604.1 L 654.8 604.2 L 653.6 607.3 L 650.7 612.5 Z M 646.9 542.6 L 644.7 547.4 L 643.9 547.5 L 643.2 548.7 L 640.9 550.0 L 642.9 550.1 L 643.4 550.5 L 643.5 551.5 L 643.1 552.0 L 640.5 554.2 L 638.8 555.0 L 636.9 557.3 L 635.9 557.4 L 635.0 558.8 L 634.2 559.4 L 633.8 559.4 L 633.3 559.1 L 632.1 557.7 L 634.2 556.3 L 634.4 555.5 L 635.9 554.7 L 635.7 554.4 L 633.4 553.3 L 632.5 552.5 L 632.6 552.1 L 633.7 551.2 L 633.2 551.1 L 632.8 550.6 L 632.2 550.4 L 632.0 550.0 L 631.9 548.8 L 632.1 547.6 L 632.7 547.1 L 633.0 546.5 L 633.3 546.3 L 634.3 546.6 L 635.4 547.6 L 636.6 547.2 L 638.0 547.4 L 638.1 547.2 L 637.0 544.8 L 637.2 544.3 L 637.8 543.8 L 641.1 542.1 L 645.2 539.2 L 646.2 538.8 L 646.5 539.2 L 646.9 540.7 L 646.9 542.6 Z M 645.5 581.0 L 645.0 581.3 L 644.4 581.3 L 643.8 580.8 L 642.9 579.5 L 644.8 578.6 L 645.5 579.2 L 645.8 579.8 L 645.8 580.4 L 645.5 581.0 Z M 647.8 566.2 L 647.7 567.4 L 647.4 568.8 L 647.8 570.3 L 647.9 571.4 L 648.6 571.7 L 649.0 572.2 L 652.2 572.8 L 655.1 572.6 L 655.6 573.1 L 655.7 573.8 L 655.2 574.6 L 653.6 576.0 L 651.6 578.3 L 651.0 578.8 L 650.4 578.8 L 649.9 578.6 L 649.6 574.5 L 647.5 575.0 L 645.7 575.0 L 644.8 574.5 L 644.1 573.5 L 642.8 571.0 L 638.9 570.1 L 637.8 568.7 L 637.5 567.9 L 637.6 567.4 L 638.4 566.4 L 639.4 566.8 L 640.1 566.6 L 640.4 566.1 L 640.4 565.7 L 639.9 564.9 L 639.9 564.6 L 643.9 563.5 L 644.2 561.7 L 645.1 561.6 L 646.0 562.2 L 647.4 564.0 L 647.8 566.2 Z M 630.0 561.3 L 631.9 562.8 L 630.4 565.4 L 628.1 565.4 L 624.9 563.5 L 624.9 563.1 L 625.1 562.6 L 625.6 562.1 L 626.1 562.0 L 626.9 562.3 L 628.1 561.8 L 628.9 562.0 L 630.0 561.3 Z M 629.3 576.9 L 628.6 577.0 L 627.7 576.9 L 627.1 576.4 L 626.5 574.8 L 626.4 573.7 L 626.7 571.8 L 626.6 569.6 L 628.5 569.5 L 629.0 569.8 L 629.3 576.6 L 629.3 576.9 Z M 626.5 581.0 L 625.0 581.3 L 624.5 581.1 L 624.4 580.8 L 624.7 579.8 L 625.9 579.5 L 626.7 580.0 L 626.8 580.5 L 626.5 581.0 Z M 646.5 659.9 L 645.1 659.7 L 644.1 660.2 L 643.5 660.6 L 642.8 660.6 L 641.0 660.7 L 639.3 660.7 L 639.1 660.0 L 639.4 657.8 L 639.0 657.2 L 637.4 656.9 L 636.8 656.4 L 635.8 654.9 L 635.7 654.2 L 635.5 653.3 L 634.5 652.0 L 633.3 651.2 L 632.6 651.1 L 631.2 652.6 L 630.1 654.0 L 630.5 654.8 L 630.9 655.7 L 630.3 656.4 L 628.4 658.0 L 628.1 658.6 L 627.5 659.0 L 626.6 658.5 L 624.4 658.6 L 623.3 658.4 L 622.1 657.2 L 619.2 656.4 L 618.7 654.5 L 618.1 654.2 L 614.8 650.9 L 614.4 649.9 L 614.8 649.2 L 616.0 648.3 L 620.2 646.6 L 620.9 646.0 L 621.0 645.4 L 619.8 644.8 L 618.7 644.0 L 618.3 643.6 L 618.3 643.2 L 618.9 642.6 L 620.2 642.6 L 621.2 642.8 L 622.0 642.3 L 623.4 641.9 L 624.3 641.2 L 625.1 639.7 L 625.9 638.2 L 626.0 637.5 L 626.8 634.8 L 627.2 634.1 L 629.8 632.4 L 630.5 633.3 L 631.8 633.6 L 633.0 632.7 L 634.4 629.9 L 635.3 629.7 L 636.4 629.9 L 638.5 629.6 L 642.2 628.3 L 643.9 628.2 L 646.3 628.9 L 648.0 628.9 L 649.6 630.9 L 650.4 634.1 L 652.4 637.2 L 654.9 639.9 L 655.0 641.5 L 654.1 642.4 L 652.2 643.5 L 652.2 644.7 L 653.5 644.1 L 654.5 643.8 L 657.1 644.1 L 658.1 645.3 L 658.7 647.1 L 659.0 648.6 L 658.8 650.2 L 658.1 649.7 L 657.4 648.2 L 656.6 647.6 L 655.7 647.2 L 656.1 649.2 L 655.9 651.8 L 656.3 652.1 L 657.6 652.1 L 656.7 654.8 L 655.0 655.6 L 653.1 655.8 L 652.6 656.8 L 652.2 658.0 L 651.2 659.9 L 649.9 660.9 L 648.2 660.7 L 646.5 659.9 Z M 732.6 753.1 L 731.2 754.0 L 730.7 755.1 L 730.4 755.6 L 729.5 755.9 L 728.5 755.9 L 725.0 753.7 L 724.2 753.8 L 725.0 752.7 L 727.2 751.9 L 728.4 750.8 L 731.2 751.9 L 732.6 753.1 Z" fill="#cfe3bf" stroke="#ffffff" stroke-width="2.2" stroke-linejoin="round"/>
<path d="M 600.9 200.4 L 599.3 200.6 L 598.4 200.0 L 600.7 198.3 L 608.1 195.2 L 611.0 192.2 L 616.8 191.1 L 617.1 192.8 L 616.7 194.9 L 611.7 196.5 L 606.2 197.7 L 600.9 200.4 Z" fill="#cfe3bf" stroke="#ffffff" stroke-width="2.2" stroke-linejoin="round"/>
<path d="M 584.3 664.7 L 584.2 665.5 L 582.9 664.5 L 582.3 663.4 L 579.0 662.9 L 580.4 661.8 L 581.1 662.2 L 583.4 662.2 L 584.1 662.7 L 584.3 664.7 Z M 629.8 632.4 L 627.2 634.1 L 626.8 634.8 L 626.0 637.5 L 625.9 638.2 L 625.1 639.7 L 624.3 641.2 L 623.4 641.9 L 622.0 642.3 L 621.2 642.8 L 620.2 642.6 L 618.9 642.6 L 618.3 643.2 L 618.3 643.6 L 618.7 644.0 L 619.8 644.8 L 621.0 645.4 L 620.9 646.0 L 620.2 646.6 L 616.0 648.3 L 614.8 649.2 L 614.4 649.9 L 614.8 650.9 L 618.1 654.2 L 618.7 654.5 L 619.2 656.4 L 622.1 657.2 L 623.3 658.4 L 624.4 658.6 L 626.6 658.5 L 627.5 659.0 L 628.1 658.6 L 628.4 658.0 L 630.3 656.4 L 630.9 655.7 L 630.5 654.8 L 630.1 654.0 L 631.2 652.6 L 632.6 651.1 L 633.3 651.2 L 634.5 652.0 L 635.5 653.3 L 635.7 654.2 L 635.8 654.9 L 636.8 656.4 L 637.4 656.9 L 639.0 657.2 L 639.4 657.8 L 639.1 660.0 L 639.3 660.7 L 641.0 660.7 L 642.8 660.6 L 643.5 660.6 L 644.1 660.2 L 645.1 659.7 L 646.5 659.9 L 647.2 660.8 L 647.6 661.8 L 646.3 662.2 L 645.0 662.0 L 644.4 662.7 L 644.4 663.9 L 644.8 665.5 L 645.7 666.7 L 646.3 669.3 L 646.9 672.2 L 647.8 673.9 L 648.0 676.1 L 647.9 677.1 L 648.0 679.0 L 647.6 679.7 L 647.9 681.5 L 649.0 685.2 L 649.4 687.2 L 649.7 691.7 L 649.0 693.4 L 648.0 695.0 L 647.3 696.9 L 646.8 699.0 L 646.5 702.3 L 644.4 706.1 L 643.5 707.1 L 642.4 707.7 L 644.7 710.4 L 642.9 711.6 L 640.8 712.0 L 638.5 711.3 L 637.1 711.4 L 635.8 712.3 L 635.3 712.8 L 634.9 712.5 L 634.0 710.3 L 633.4 712.6 L 632.1 713.3 L 629.9 713.2 L 626.1 713.8 L 624.7 714.5 L 624.1 715.5 L 623.6 716.7 L 623.0 717.4 L 622.4 717.7 L 619.5 718.6 L 618.9 718.9 L 617.6 720.8 L 615.8 721.9 L 614.4 722.3 L 613.1 721.2 L 612.5 720.5 L 611.9 720.2 L 609.9 720.2 L 610.6 720.6 L 611.0 721.3 L 611.2 722.8 L 611.0 724.3 L 610.0 725.1 L 608.8 725.2 L 607.0 726.7 L 604.5 727.1 L 603.2 728.5 L 595.1 730.9 L 594.7 731.0 L 593.6 730.3 L 592.4 730.1 L 591.2 730.3 L 587.8 731.6 L 586.1 731.3 L 588.2 728.0 L 591.0 726.4 L 591.3 725.9 L 590.4 725.7 L 585.1 726.8 L 583.2 727.8 L 581.4 728.1 L 582.2 726.6 L 584.6 724.6 L 585.9 723.6 L 586.7 723.2 L 587.6 722.0 L 590.1 720.6 L 582.0 723.4 L 579.9 723.1 L 579.4 722.3 L 577.7 722.7 L 577.1 720.8 L 579.5 717.9 L 581.0 716.6 L 582.7 715.9 L 584.3 715.0 L 584.9 713.8 L 584.1 713.4 L 579.2 713.7 L 576.9 713.5 L 577.0 712.5 L 577.4 711.5 L 579.9 709.7 L 581.2 709.4 L 582.4 709.6 L 583.5 710.1 L 584.4 710.6 L 587.2 710.3 L 586.0 709.2 L 585.8 706.9 L 585.0 706.1 L 586.1 705.0 L 587.4 704.4 L 589.5 702.2 L 590.3 701.8 L 594.6 701.3 L 599.1 700.1 L 603.7 698.5 L 601.4 697.6 L 600.2 696.4 L 598.5 698.8 L 597.2 699.7 L 593.5 700.2 L 592.3 700.0 L 590.7 699.2 L 590.2 699.5 L 589.7 700.1 L 587.3 701.3 L 584.8 701.5 L 587.7 699.4 L 591.5 695.7 L 592.3 694.6 L 593.5 692.6 L 593.1 691.7 L 592.4 691.2 L 595.1 687.1 L 596.0 686.3 L 597.8 686.2 L 599.1 685.5 L 599.6 685.5 L 600.1 685.3 L 601.3 684.1 L 599.5 683.3 L 597.7 682.9 L 592.2 683.3 L 591.5 683.2 L 590.8 682.8 L 590.4 682.3 L 590.0 680.9 L 589.6 680.6 L 588.4 680.6 L 587.2 681.0 L 586.3 680.9 L 585.5 680.3 L 586.8 678.9 L 585.1 678.6 L 583.3 678.8 L 581.9 678.4 L 581.8 677.5 L 582.5 676.6 L 581.6 675.8 L 581.4 674.7 L 582.4 674.2 L 583.4 674.3 L 585.4 673.5 L 588.1 673.2 L 585.8 672.4 L 584.9 671.7 L 584.9 670.7 L 585.0 669.8 L 587.6 668.3 L 590.4 667.6 L 590.2 666.7 L 590.4 665.6 L 587.6 665.3 L 584.8 666.0 L 585.1 664.0 L 585.8 662.2 L 585.9 661.0 L 585.8 659.7 L 584.5 660.2 L 584.3 658.4 L 583.8 657.2 L 581.8 658.0 L 581.9 656.4 L 582.4 655.2 L 583.5 654.7 L 584.5 655.0 L 586.3 654.9 L 588.1 654.1 L 590.7 653.8 L 594.8 654.1 L 597.6 656.6 L 598.4 656.1 L 599.5 654.6 L 600.0 654.4 L 604.3 655.1 L 607.0 656.0 L 607.7 655.7 L 607.3 654.0 L 606.4 652.8 L 607.5 651.2 L 608.9 650.2 L 609.8 649.7 L 612.0 649.0 L 612.9 648.4 L 613.6 646.4 L 614.6 644.7 L 609.2 645.6 L 604.0 643.6 L 604.8 642.2 L 605.9 641.4 L 607.8 640.8 L 608.0 640.1 L 608.9 639.5 L 610.5 637.9 L 609.9 635.8 L 610.2 634.3 L 611.3 633.3 L 611.7 631.9 L 612.2 630.9 L 614.5 630.5 L 616.7 629.5 L 617.5 629.6 L 620.1 629.4 L 620.9 629.8 L 620.7 628.1 L 622.3 627.8 L 623.0 628.2 L 623.2 629.4 L 624.0 630.2 L 624.2 631.5 L 623.7 632.6 L 622.9 633.4 L 623.6 634.2 L 622.5 635.7 L 623.7 635.0 L 625.5 633.6 L 625.4 632.4 L 625.1 630.9 L 624.6 629.6 L 624.8 628.1 L 625.8 627.1 L 628.4 626.7 L 627.4 625.0 L 628.3 624.8 L 629.4 625.2 L 630.9 626.5 L 632.5 627.5 L 634.1 628.4 L 632.5 630.0 L 630.6 631.1 L 629.8 632.4 Z" fill="#cfe3bf" stroke="#ffffff" stroke-width="2.2" stroke-linejoin="round"/>
<path d="M 490.8 326.9 L 492.8 327.0 L 495.9 326.1 L 497.2 325.4 L 500.4 323.3 L 502.3 322.7 L 505.2 322.8 L 506.7 322.7 L 506.7 322.9 L 504.9 323.8 L 503.4 324.1 L 501.4 325.4 L 499.4 328.3 L 498.0 329.7 L 498.0 330.4 L 499.7 331.5 L 501.7 332.1 L 503.5 331.5 L 504.2 331.8 L 505.0 332.6 L 505.3 333.4 L 505.4 334.3 L 505.1 336.0 L 504.0 337.7 L 502.6 339.2 L 502.8 339.6 L 504.0 339.9 L 509.5 338.9 L 510.1 339.0 L 510.4 339.5 L 510.4 340.3 L 510.7 341.1 L 511.3 341.8 L 511.1 342.5 L 508.7 344.8 L 511.6 343.4 L 513.8 343.0 L 517.7 343.7 L 519.3 344.5 L 520.2 346.0 L 521.5 345.5 L 522.1 345.5 L 523.0 346.3 L 523.0 347.2 L 522.4 348.5 L 522.2 349.6 L 521.5 350.1 L 520.2 350.5 L 519.9 350.9 L 520.4 351.7 L 521.2 352.6 L 522.4 352.7 L 522.6 353.0 L 522.6 353.5 L 522.5 354.1 L 522.1 354.5 L 521.5 354.7 L 520.7 355.3 L 523.6 356.7 L 524.0 357.2 L 524.0 357.9 L 523.8 358.7 L 523.3 359.6 L 522.4 360.1 L 520.3 360.2 L 519.0 360.8 L 519.5 361.7 L 519.4 363.0 L 519.1 364.4 L 517.4 366.5 L 515.9 367.7 L 514.4 368.4 L 511.6 368.2 L 510.2 367.6 L 510.3 369.4 L 508.8 370.6 L 509.1 371.5 L 509.6 372.0 L 509.4 373.3 L 508.7 374.5 L 507.5 375.8 L 506.1 376.6 L 503.4 377.6 L 501.1 379.3 L 499.6 379.9 L 495.6 379.9 L 491.6 380.9 L 486.0 383.2 L 482.2 385.0 L 479.3 387.0 L 475.4 390.3 L 472.5 391.7 L 470.9 392.1 L 467.6 392.4 L 464.9 393.3 L 455.9 395.0 L 452.9 395.9 L 452.5 396.7 L 451.2 398.0 L 451.2 398.5 L 451.7 398.8 L 451.8 399.3 L 450.7 400.8 L 448.5 401.8 L 447.4 401.8 L 446.2 400.9 L 445.6 400.9 L 445.4 401.1 L 445.4 401.4 L 446.1 402.5 L 444.8 403.0 L 438.9 404.3 L 429.0 403.3 L 425.0 402.3 L 420.1 400.7 L 417.2 400.3 L 413.1 400.2 L 409.7 398.0 L 408.2 396.6 L 408.1 396.0 L 408.2 395.4 L 408.6 394.9 L 409.1 394.7 L 410.2 394.7 L 410.4 394.5 L 409.5 393.4 L 408.7 393.7 L 406.5 395.3 L 405.6 395.2 L 404.3 394.4 L 404.2 393.7 L 401.8 393.4 L 399.6 392.5 L 397.5 391.1 L 397.1 390.6 L 398.2 389.8 L 398.0 389.7 L 397.2 389.5 L 395.6 389.8 L 393.3 391.5 L 392.2 391.9 L 376.8 392.3 L 372.9 392.5 L 372.2 392.7 L 371.5 391.6 L 370.9 389.1 L 370.6 387.5 L 370.8 386.7 L 371.3 385.7 L 372.2 385.9 L 373.0 386.7 L 373.7 387.7 L 374.5 388.3 L 379.9 386.9 L 382.1 386.1 L 383.0 385.2 L 384.1 383.8 L 385.3 383.1 L 385.8 382.4 L 386.9 380.2 L 387.7 379.2 L 388.6 378.4 L 389.6 378.0 L 392.0 377.6 L 390.4 377.1 L 388.9 377.1 L 383.9 379.4 L 382.2 379.4 L 382.2 379.1 L 382.9 378.4 L 384.7 377.3 L 383.5 377.2 L 383.0 376.7 L 383.0 375.6 L 383.9 373.9 L 388.0 371.6 L 389.4 371.3 L 389.9 370.8 L 389.3 370.5 L 388.5 370.3 L 384.3 372.6 L 381.3 373.4 L 380.4 373.2 L 378.8 372.3 L 378.3 371.9 L 377.6 370.9 L 377.7 370.3 L 379.1 368.4 L 378.9 368.1 L 377.9 367.9 L 375.2 366.2 L 371.0 366.4 L 360.6 365.4 L 358.4 365.8 L 354.8 367.3 L 352.7 367.7 L 351.7 367.4 L 350.8 366.7 L 350.0 365.6 L 349.2 364.3 L 349.5 363.4 L 350.9 362.9 L 351.9 362.7 L 354.8 363.0 L 358.2 362.1 L 360.5 361.9 L 361.1 361.7 L 362.4 360.8 L 363.0 360.5 L 364.0 360.9 L 364.5 361.5 L 368.0 360.5 L 369.2 360.0 L 369.4 359.7 L 369.9 359.3 L 371.6 359.9 L 373.0 359.9 L 374.8 359.5 L 377.9 359.3 L 384.8 359.3 L 385.9 358.4 L 386.4 357.7 L 387.0 355.8 L 386.7 355.4 L 382.4 357.2 L 381.4 357.1 L 376.4 356.2 L 374.5 355.2 L 375.1 354.4 L 377.8 352.6 L 380.5 351.2 L 384.6 349.6 L 385.5 349.0 L 385.6 348.3 L 382.9 347.1 L 377.8 347.4 L 376.5 345.9 L 372.3 345.0 L 369.5 345.6 L 368.0 344.7 L 364.3 345.9 L 356.3 347.7 L 353.0 349.0 L 351.3 349.4 L 349.3 348.4 L 345.9 347.2 L 342.1 346.9 L 341.7 346.2 L 344.0 344.1 L 345.5 343.7 L 347.0 343.9 L 350.0 345.4 L 352.0 345.8 L 349.5 343.7 L 349.6 342.9 L 349.4 341.6 L 348.6 341.1 L 347.8 339.8 L 348.1 339.3 L 349.1 339.1 L 351.2 339.6 L 356.1 342.0 L 358.5 341.5 L 359.8 340.7 L 361.6 340.0 L 361.1 339.7 L 356.8 339.6 L 354.6 339.2 L 353.4 338.5 L 352.4 337.3 L 352.8 336.8 L 354.0 336.3 L 357.6 336.5 L 355.2 334.4 L 353.5 333.2 L 353.4 332.7 L 353.5 332.0 L 353.7 331.5 L 354.0 331.3 L 358.2 332.4 L 359.1 332.5 L 358.3 331.7 L 356.4 330.6 L 356.4 330.2 L 357.1 329.8 L 357.5 329.2 L 357.5 328.7 L 358.8 328.2 L 360.1 328.2 L 361.3 328.6 L 365.3 330.8 L 365.9 331.4 L 366.1 332.2 L 365.9 333.2 L 366.0 333.7 L 367.6 333.3 L 368.8 333.7 L 369.4 333.6 L 371.0 332.1 L 372.0 332.5 L 372.7 333.2 L 372.9 333.8 L 373.0 334.7 L 372.7 336.5 L 372.8 336.8 L 373.8 335.8 L 375.7 335.7 L 375.9 335.2 L 376.0 333.2 L 375.8 331.6 L 375.6 331.2 L 369.6 329.0 L 368.5 328.4 L 367.2 327.3 L 367.5 326.8 L 368.7 326.3 L 370.4 326.1 L 374.5 326.1 L 375.0 325.9 L 374.2 325.3 L 372.3 324.9 L 371.8 324.6 L 371.6 323.9 L 369.3 324.3 L 366.8 324.3 L 364.4 323.9 L 364.3 323.4 L 365.3 322.6 L 367.3 321.4 L 368.2 321.1 L 371.0 321.3 L 373.7 320.9 L 375.9 321.4 L 377.7 322.6 L 380.2 324.7 L 383.6 326.1 L 383.9 326.5 L 385.7 327.7 L 389.3 330.7 L 392.9 332.5 L 393.1 332.9 L 392.5 333.4 L 391.1 334.1 L 391.4 334.4 L 393.3 334.8 L 394.6 336.0 L 394.7 336.6 L 393.5 340.2 L 392.8 341.0 L 392.1 341.4 L 388.7 340.7 L 389.5 341.9 L 392.0 343.2 L 392.5 343.9 L 392.1 344.6 L 392.4 344.7 L 393.3 344.3 L 393.6 344.7 L 393.5 345.9 L 393.1 346.8 L 392.5 347.6 L 392.7 347.9 L 393.6 347.8 L 394.5 348.0 L 395.9 349.1 L 397.0 352.2 L 397.6 353.3 L 398.0 352.4 L 398.5 350.0 L 398.9 348.8 L 399.4 348.8 L 399.8 348.4 L 400.1 347.7 L 400.7 345.1 L 403.0 343.1 L 404.1 342.5 L 405.1 342.4 L 405.6 342.6 L 407.3 344.7 L 408.3 345.0 L 408.8 344.9 L 409.6 343.5 L 410.5 340.9 L 410.7 337.9 L 410.2 334.6 L 410.5 332.3 L 411.6 330.8 L 413.0 330.4 L 414.7 331.0 L 416.0 331.8 L 418.5 335.1 L 420.6 336.8 L 422.3 338.6 L 423.2 339.2 L 425.0 339.5 L 425.4 339.4 L 425.7 339.0 L 425.9 338.3 L 425.5 333.6 L 426.0 332.1 L 426.7 331.1 L 429.9 330.5 L 431.6 329.8 L 433.2 328.8 L 434.6 328.2 L 435.7 328.1 L 436.8 328.5 L 438.0 329.4 L 439.9 331.2 L 442.2 334.1 L 445.2 336.3 L 446.8 339.8 L 447.1 340.4 L 447.5 340.5 L 447.8 340.0 L 448.1 339.4 L 448.2 337.8 L 447.3 335.8 L 444.6 330.6 L 444.5 329.6 L 444.9 328.8 L 446.8 328.8 L 451.4 329.2 L 452.8 330.0 L 455.9 333.2 L 456.8 333.9 L 457.3 334.1 L 457.5 333.8 L 458.7 333.2 L 459.6 332.5 L 460.9 330.7 L 464.0 327.6 L 464.6 327.5 L 465.5 327.8 L 467.0 328.6 L 467.8 329.2 L 469.2 329.7 L 470.7 329.6 L 472.8 328.5 L 475.1 327.8 L 475.9 326.2 L 476.1 325.5 L 474.2 320.9 L 475.0 320.0 L 479.1 318.8 L 482.6 318.7 L 483.5 319.0 L 485.7 321.3 L 487.2 322.4 L 488.0 323.3 L 488.2 325.3 L 489.1 326.1 L 490.8 326.9 Z" fill="#cfe3bf" stroke="#ffffff" stroke-width="2.2" stroke-linejoin="round"/>
<path d="M 877.5 838.0 L 875.5 839.3 L 875.0 840.4 L 874.2 841.8 L 872.9 842.4 L 871.7 842.6 L 870.6 842.4 L 870.0 841.9 L 870.0 841.3 L 869.5 840.9 L 868.1 840.9 L 866.7 841.9 L 865.6 843.5 L 865.9 844.4 L 866.9 844.6 L 867.2 845.0 L 867.2 845.5 L 866.9 846.0 L 866.4 847.0 L 864.2 849.8 L 862.0 852.7 L 861.7 853.6 L 861.0 854.2 L 858.1 855.7 L 857.8 856.3 L 857.7 858.9 L 857.4 861.0 L 855.3 863.0 L 853.2 865.0 L 852.7 866.2 L 852.3 867.6 L 851.7 869.2 L 851.5 870.0 L 852.6 871.4 L 852.5 872.5 L 852.1 874.1 L 851.1 875.2 L 850.0 875.8 L 850.0 877.6 L 850.6 877.8 L 852.0 877.7 L 853.8 876.4 L 855.1 874.8 L 854.4 873.3 L 854.3 873.0 L 854.4 872.6 L 855.9 870.9 L 857.7 869.9 L 860.2 869.7 L 863.2 870.3 L 863.5 870.6 L 863.3 871.6 L 863.6 873.1 L 864.2 874.2 L 863.4 877.2 L 864.0 878.2 L 864.8 879.3 L 865.5 880.3 L 866.4 881.3 L 867.3 882.9 L 867.6 883.8 L 866.2 885.3 L 864.0 886.8 L 863.7 887.8 L 863.7 888.8 L 864.0 889.7 L 865.2 890.8 L 866.6 893.2 L 867.4 895.4 L 869.3 897.5 L 869.8 898.2 L 869.7 898.7 L 869.2 899.6 L 868.5 902.6 L 867.8 903.1 L 866.9 903.3 L 864.6 905.4 L 863.5 905.2 L 862.1 905.2 L 861.0 905.9 L 861.1 907.3 L 862.1 908.5 L 862.6 909.9 L 862.8 911.3 L 863.9 912.4 L 865.4 913.0 L 866.2 913.0 L 866.8 913.4 L 867.1 913.9 L 867.7 916.9 L 867.3 917.7 L 866.6 918.0 L 866.1 919.3 L 865.1 921.1 L 864.6 922.6 L 865.2 923.9 L 865.4 924.8 L 865.1 925.8 L 865.5 927.4 L 866.7 928.9 L 869.7 931.1 L 872.5 932.8 L 873.4 933.1 L 877.2 932.0 L 877.9 932.1 L 878.3 933.4 L 878.5 934.3 L 878.1 935.7 L 877.1 937.5 L 875.9 939.0 L 875.3 940.3 L 875.4 941.4 L 875.4 943.0 L 874.5 943.4 L 874.5 943.1 L 874.1 942.9 L 873.8 943.0 L 873.6 943.4 L 873.5 944.0 L 871.6 944.9 L 870.2 945.9 L 865.0 952.0 L 862.5 953.8 L 862.0 954.8 L 861.5 956.8 L 860.0 958.6 L 858.8 959.4 L 855.6 960.2 L 852.5 962.0 L 851.0 961.3 L 847.3 961.3 L 845.0 959.1 L 840.6 957.8 L 839.2 954.6 L 837.2 954.4 L 835.8 954.4 L 835.0 954.0 L 834.8 952.9 L 834.8 951.8 L 833.4 952.3 L 832.4 952.3 L 831.7 952.7 L 831.2 953.2 L 830.6 952.9 L 830.3 953.0 L 830.3 953.6 L 829.0 953.8 L 827.6 953.4 L 824.0 951.8 L 823.4 951.5 L 820.9 950.9 L 819.8 950.2 L 819.0 948.6 L 818.4 948.1 L 818.0 947.8 L 815.6 948.6 L 814.8 949.9 L 813.5 951.4 L 804.8 958.7 L 803.2 961.8 L 801.3 966.3 L 801.2 968.5 L 802.0 975.2 L 803.7 978.8 L 804.0 979.6 L 803.0 979.6 L 801.3 979.2 L 799.9 978.6 L 798.6 978.9 L 797.4 979.7 L 796.2 980.1 L 795.5 980.2 L 794.9 980.7 L 794.7 981.5 L 794.6 982.1 L 793.2 982.0 L 790.0 980.7 L 787.1 979.9 L 785.4 980.9 L 784.3 981.8 L 783.5 981.6 L 782.9 980.7 L 782.5 979.8 L 781.4 978.9 L 778.8 977.6 L 779.0 977.0 L 779.4 976.2 L 779.4 975.7 L 778.9 974.9 L 776.5 974.0 L 775.4 973.8 L 774.7 974.4 L 774.2 975.1 L 772.9 972.5 L 771.9 972.0 L 770.5 971.9 L 768.9 971.1 L 767.2 970.1 L 763.1 968.5 L 762.0 968.3 L 761.5 968.5 L 761.2 969.5 L 761.1 972.2 L 760.9 972.5 L 759.0 972.6 L 756.6 972.2 L 755.6 972.4 L 754.6 972.4 L 753.7 971.7 L 749.7 972.5 L 749.0 972.1 L 748.0 970.9 L 746.9 969.9 L 746.1 969.4 L 745.3 968.8 L 744.7 968.7 L 743.7 969.3 L 742.3 969.5 L 741.2 969.5 L 740.6 969.5 L 738.0 966.5 L 737.6 965.7 L 736.3 965.4 L 734.8 965.4 L 730.7 963.4 L 728.9 962.4 L 728.6 961.8 L 728.6 961.3 L 728.3 961.4 L 727.8 962.3 L 727.5 963.0 L 727.1 963.1 L 726.5 963.0 L 726.0 962.6 L 725.6 962.1 L 726.0 961.1 L 726.6 959.9 L 726.8 958.6 L 726.8 957.4 L 725.8 956.7 L 724.3 956.4 L 723.2 956.3 L 721.7 955.6 L 721.1 955.1 L 720.4 953.8 L 720.4 952.8 L 723.1 952.0 L 725.6 948.6 L 727.9 936.0 L 729.6 921.2 L 730.8 918.4 L 732.4 917.7 L 731.1 915.6 L 730.3 916.7 L 730.0 917.8 L 729.6 918.3 L 730.5 904.7 L 731.2 899.8 L 732.3 894.6 L 734.6 896.6 L 736.6 898.7 L 737.5 900.5 L 738.8 906.6 L 739.8 907.9 L 741.2 909.1 L 740.6 907.8 L 739.6 906.7 L 738.1 898.6 L 737.1 896.3 L 735.6 894.4 L 730.8 890.3 L 730.4 889.6 L 730.1 888.0 L 731.7 888.1 L 733.1 888.8 L 733.0 888.0 L 732.5 887.1 L 731.9 883.8 L 731.4 876.1 L 731.4 874.8 L 731.2 873.2 L 729.7 872.8 L 728.4 872.8 L 727.1 872.1 L 720.5 867.6 L 718.3 863.0 L 716.0 859.5 L 715.4 858.0 L 715.4 856.5 L 716.6 853.3 L 715.6 851.2 L 714.6 850.8 L 713.7 849.8 L 714.5 848.2 L 715.1 847.1 L 716.5 846.8 L 718.3 847.2 L 719.9 848.1 L 721.3 848.4 L 717.4 845.8 L 711.1 846.7 L 709.7 846.3 L 708.6 845.7 L 708.1 843.8 L 709.0 843.0 L 709.8 841.4 L 708.9 840.3 L 707.7 839.9 L 705.8 839.9 L 704.1 840.2 L 703.7 839.6 L 704.7 837.8 L 703.8 837.1 L 702.6 837.5 L 700.9 837.8 L 699.2 837.3 L 697.6 835.3 L 696.6 835.3 L 695.8 835.5 L 694.8 834.7 L 693.6 834.5 L 692.8 834.8 L 691.8 833.6 L 685.2 831.3 L 682.4 831.1 L 679.8 832.1 L 678.4 831.7 L 677.3 830.2 L 676.4 827.7 L 672.2 825.8 L 673.1 824.5 L 675.0 824.2 L 677.3 823.3 L 678.1 822.2 L 676.3 820.9 L 675.0 820.6 L 674.5 820.1 L 673.9 818.9 L 674.7 818.4 L 675.3 818.7 L 676.8 818.8 L 679.5 818.5 L 678.5 817.4 L 677.5 817.1 L 677.0 816.8 L 674.8 816.7 L 673.8 817.1 L 671.6 816.9 L 671.1 815.6 L 670.8 814.5 L 671.5 812.1 L 674.7 809.9 L 682.6 807.5 L 686.0 807.8 L 688.3 807.4 L 691.1 805.9 L 692.4 804.6 L 696.4 803.8 L 700.2 805.2 L 703.7 810.4 L 705.4 812.2 L 709.5 809.1 L 715.6 809.2 L 716.9 810.9 L 717.4 809.5 L 718.5 807.8 L 719.4 808.5 L 719.9 809.6 L 726.3 809.3 L 727.4 809.0 L 725.6 807.7 L 724.2 804.8 L 723.9 793.9 L 722.1 790.9 L 720.1 786.0 L 719.1 783.1 L 719.0 782.1 L 719.4 780.7 L 721.9 780.8 L 723.8 781.1 L 727.5 780.1 L 729.3 780.8 L 729.2 783.0 L 729.8 785.9 L 730.4 787.2 L 731.3 788.8 L 734.3 788.7 L 737.6 789.6 L 741.6 789.7 L 747.6 791.3 L 750.2 790.4 L 752.6 788.4 L 757.3 787.2 L 757.7 786.5 L 755.0 786.7 L 752.5 785.5 L 752.2 784.2 L 752.5 782.9 L 753.5 780.2 L 760.6 775.8 L 765.8 774.5 L 771.1 772.1 L 773.8 769.6 L 775.6 766.4 L 776.2 765.7 L 776.9 765.1 L 776.3 764.0 L 776.7 751.7 L 777.2 749.5 L 778.3 747.7 L 779.9 746.4 L 782.3 744.8 L 791.2 742.8 L 792.5 741.9 L 792.7 743.2 L 793.3 744.9 L 793.8 745.8 L 793.4 747.0 L 793.7 748.0 L 794.9 749.8 L 796.4 751.4 L 797.8 752.5 L 798.1 752.4 L 799.1 752.1 L 800.8 751.0 L 802.2 750.6 L 803.0 751.5 L 803.5 752.0 L 804.4 753.8 L 804.6 755.8 L 805.0 757.4 L 805.7 758.1 L 808.4 758.3 L 810.4 758.9 L 810.9 759.5 L 811.6 763.1 L 811.9 763.6 L 812.4 763.2 L 812.9 762.6 L 813.6 762.5 L 814.8 762.7 L 816.3 762.8 L 817.9 763.2 L 820.0 765.3 L 820.0 765.9 L 819.5 767.1 L 819.4 768.1 L 819.8 768.5 L 820.3 769.4 L 820.2 770.6 L 819.6 771.4 L 819.4 772.0 L 819.4 772.4 L 819.6 772.8 L 820.1 773.1 L 823.3 773.5 L 826.2 773.1 L 828.1 772.0 L 828.4 770.7 L 828.9 769.4 L 830.0 768.2 L 830.8 767.8 L 831.5 768.3 L 830.3 773.1 L 831.2 774.4 L 831.3 776.2 L 831.6 777.8 L 832.7 777.8 L 833.9 778.1 L 834.8 778.7 L 835.9 779.7 L 837.4 780.5 L 838.5 780.9 L 838.9 781.6 L 839.7 782.4 L 841.1 784.2 L 842.3 785.4 L 842.9 785.4 L 844.0 785.0 L 845.7 784.7 L 847.0 784.7 L 847.6 785.6 L 848.9 786.0 L 849.3 786.4 L 849.8 787.0 L 850.7 787.2 L 851.8 787.0 L 852.5 786.1 L 853.5 785.8 L 854.6 785.9 L 855.2 786.4 L 856.3 787.0 L 856.9 786.9 L 858.2 787.3 L 859.4 788.6 L 860.0 790.0 L 860.1 790.7 L 860.7 791.5 L 862.8 795.0 L 863.5 795.2 L 864.2 794.7 L 864.7 793.9 L 865.4 793.8 L 866.5 794.1 L 867.2 794.5 L 867.6 796.1 L 867.8 796.4 L 868.3 796.0 L 869.2 796.0 L 870.6 796.3 L 872.4 795.9 L 874.0 795.3 L 874.7 795.3 L 876.0 797.1 L 877.4 797.8 L 880.6 798.3 L 883.9 799.1 L 885.3 799.8 L 886.2 800.2 L 886.3 802.6 L 886.0 802.9 L 882.6 807.7 L 881.2 809.4 L 880.5 811.9 L 880.0 815.6 L 879.0 819.2 L 877.5 822.6 L 877.0 825.1 L 877.4 826.8 L 877.1 829.5 L 876.2 833.1 L 876.1 835.8 L 876.7 837.7 L 877.5 838.0 Z" fill="#cfe3bf" stroke="#ffffff" stroke-width="2.2" stroke-linejoin="round"/>
<path d="M 250.3 -148.6 L 266.3 -147.0 L 274.8 -145.1 L 276.6 -145.1 L 288.1 -144.4 L 299.0 -143.5 L 317.1 -141.1 L 319.7 -140.3 L 317.7 -139.6 L 313.2 -139.2 L 290.0 -138.4 L 247.9 -137.4 L 223.9 -135.6 L 216.2 -135.5 L 215.5 -132.7 L 218.8 -132.5 L 224.2 -132.9 L 243.0 -135.7 L 250.1 -136.2 L 263.3 -135.9 L 280.3 -134.9 L 287.2 -135.2 L 299.5 -135.0 L 313.9 -135.8 L 330.9 -137.5 L 335.5 -133.6 L 341.8 -129.8 L 346.8 -130.2 L 351.0 -130.0 L 352.4 -128.7 L 354.7 -128.2 L 359.6 -128.5 L 374.3 -127.3 L 384.4 -125.3 L 388.2 -124.4 L 390.0 -123.1 L 391.0 -122.0 L 389.5 -120.7 L 383.1 -118.4 L 375.2 -116.2 L 364.4 -114.6 L 352.0 -113.6 L 256.5 -110.1 L 253.3 -109.3 L 251.4 -107.2 L 252.6 -104.5 L 257.1 -104.0 L 267.5 -105.6 L 285.5 -107.0 L 298.8 -107.0 L 330.5 -105.7 L 339.8 -102.5 L 344.8 -97.5 L 355.7 -98.6 L 358.1 -99.5 L 359.8 -101.0 L 361.2 -102.5 L 362.2 -104.2 L 363.3 -105.4 L 364.6 -106.0 L 367.3 -106.5 L 373.6 -107.1 L 390.1 -107.7 L 394.1 -107.6 L 396.9 -105.2 L 397.6 -103.9 L 397.8 -102.1 L 397.7 -99.9 L 397.3 -97.3 L 395.9 -94.8 L 391.3 -90.3 L 387.7 -87.8 L 383.7 -86.1 L 376.1 -82.0 L 373.5 -80.9 L 365.1 -76.3 L 363.1 -74.1 L 362.9 -72.5 L 364.4 -72.2 L 366.8 -73.7 L 367.7 -74.7 L 369.3 -75.9 L 381.5 -78.8 L 384.2 -79.6 L 392.2 -83.2 L 397.4 -84.5 L 401.6 -85.8 L 403.8 -86.8 L 416.2 -93.7 L 422.6 -95.8 L 429.4 -95.8 L 430.6 -92.3 L 438.7 -91.8 L 442.2 -91.9 L 447.9 -91.1 L 450.3 -90.4 L 454.6 -90.0 L 458.9 -89.2 L 462.7 -90.1 L 463.9 -90.6 L 467.6 -93.2 L 472.6 -95.4 L 477.2 -98.3 L 478.8 -98.9 L 481.2 -99.6 L 483.7 -99.8 L 490.6 -101.1 L 492.4 -101.2 L 496.1 -100.8 L 512.6 -100.6 L 521.5 -99.9 L 534.0 -98.0 L 542.7 -97.0 L 546.8 -96.1 L 552.7 -94.1 L 557.4 -92.1 L 559.6 -91.4 L 559.5 -90.8 L 557.9 -89.9 L 546.1 -86.7 L 542.3 -84.6 L 531.2 -80.7 L 525.8 -79.3 L 519.9 -78.8 L 513.3 -78.6 L 509.1 -78.1 L 508.4 -77.5 L 511.5 -75.9 L 512.8 -74.7 L 512.6 -73.7 L 509.4 -72.1 L 508.2 -71.8 L 496.7 -70.6 L 490.9 -68.7 L 483.3 -68.4 L 477.9 -68.7 L 470.5 -66.6 L 473.4 -64.9 L 476.0 -64.1 L 484.3 -62.6 L 484.3 -61.7 L 480.4 -59.9 L 475.1 -57.7 L 468.7 -56.3 L 466.3 -56.1 L 463.3 -56.4 L 460.6 -56.3 L 454.5 -55.7 L 448.6 -55.6 L 438.3 -56.5 L 432.6 -57.6 L 429.7 -58.0 L 426.0 -57.9 L 424.5 -57.5 L 418.7 -54.8 L 415.8 -53.0 L 413.9 -51.1 L 413.1 -49.1 L 413.4 -46.9 L 414.1 -45.4 L 415.3 -44.6 L 416.7 -44.1 L 419.1 -43.9 L 424.5 -44.1 L 426.6 -44.0 L 427.2 -43.5 L 428.4 -42.1 L 428.2 -40.8 L 427.2 -39.0 L 426.5 -36.8 L 425.9 -34.3 L 426.2 -33.0 L 428.4 -32.7 L 429.4 -32.8 L 430.6 -32.3 L 431.9 -31.3 L 432.9 -30.3 L 433.6 -29.2 L 433.3 -28.3 L 431.9 -27.6 L 428.8 -26.8 L 421.1 -25.2 L 420.3 -24.7 L 419.7 -23.7 L 419.2 -22.3 L 418.3 -21.0 L 416.9 -19.8 L 415.6 -19.1 L 413.1 -18.8 L 409.8 -18.7 L 406.2 -18.0 L 397.5 -14.0 L 397.4 -13.6 L 400.6 -12.3 L 400.5 -11.2 L 396.5 -6.4 L 395.4 -4.0 L 394.5 -0.8 L 393.1 2.0 L 391.1 4.2 L 389.2 6.8 L 387.3 9.8 L 387.6 12.0 L 390.1 13.6 L 393.4 12.3 L 397.5 8.2 L 402.0 6.4 L 406.9 7.0 L 411.1 7.8 L 416.5 9.4 L 421.0 10.4 L 424.9 11.7 L 426.6 12.8 L 428.2 14.4 L 428.2 15.4 L 425.3 15.9 L 424.4 15.8 L 417.2 13.2 L 413.7 12.5 L 409.1 13.3 L 405.1 14.5 L 408.7 19.2 L 412.6 21.3 L 419.6 22.3 L 423.3 23.4 L 426.0 24.7 L 428.1 25.4 L 430.9 25.1 L 434.7 23.8 L 440.0 23.7 L 442.4 24.3 L 444.2 25.5 L 444.9 27.8 L 444.8 31.1 L 444.2 33.6 L 443.2 35.3 L 441.3 37.5 L 439.7 37.9 L 437.5 37.8 L 435.4 37.4 L 433.4 36.6 L 430.5 35.9 L 424.6 35.3 L 418.7 33.8 L 415.4 33.4 L 408.3 33.6 L 400.7 34.5 L 400.4 35.8 L 389.5 40.0 L 387.2 40.0 L 384.2 38.5 L 379.9 37.1 L 377.5 37.1 L 373.8 38.9 L 372.9 39.6 L 372.9 40.2 L 375.6 41.7 L 376.7 42.1 L 378.1 42.4 L 383.0 42.7 L 385.1 43.1 L 387.1 47.9 L 390.2 50.8 L 391.6 51.4 L 392.8 51.6 L 396.6 51.5 L 401.6 50.5 L 403.4 51.3 L 407.0 52.3 L 409.2 52.5 L 411.8 52.5 L 414.7 52.9 L 418.7 55.6 L 417.1 59.0 L 419.7 61.7 L 423.7 64.5 L 424.6 65.5 L 425.0 67.4 L 425.1 68.6 L 425.4 69.7 L 425.9 70.8 L 426.5 72.7 L 427.0 75.7 L 426.9 78.1 L 426.0 80.0 L 424.3 81.4 L 421.8 82.2 L 419.8 82.0 L 418.2 80.7 L 416.0 79.3 L 413.1 77.9 L 408.3 77.7 L 401.3 82.0 L 398.2 82.2 L 395.6 82.6 L 392.9 84.5 L 388.9 85.7 L 385.4 85.2 L 379.2 83.0 L 381.4 84.5 L 384.6 86.2 L 386.6 87.1 L 388.1 87.3 L 389.8 87.1 L 392.1 86.4 L 397.4 84.4 L 398.8 84.1 L 400.0 84.3 L 400.9 84.8 L 402.1 86.5 L 403.3 89.3 L 403.2 91.6 L 401.6 93.6 L 400.2 94.8 L 399.1 95.4 L 399.1 95.8 L 402.0 96.3 L 406.2 93.8 L 407.6 90.6 L 409.5 87.0 L 412.9 85.8 L 416.7 87.0 L 419.8 90.4 L 424.1 96.6 L 426.0 97.3 L 428.3 98.7 L 429.4 100.6 L 429.1 102.8 L 428.6 104.3 L 427.9 105.3 L 427.0 105.9 L 425.3 106.3 L 422.3 106.7 L 415.6 106.0 L 412.2 106.0 L 412.6 108.1 L 405.5 110.0 L 397.6 110.7 L 390.0 109.3 L 383.8 107.0 L 385.8 103.9 L 387.0 100.5 L 384.0 98.2 L 383.3 98.2 L 384.4 101.7 L 383.5 103.0 L 380.1 104.7 L 377.7 105.4 L 377.5 105.9 L 378.6 106.3 L 379.4 107.0 L 379.8 108.1 L 379.4 109.2 L 378.2 110.3 L 377.5 111.2 L 377.4 112.0 L 378.5 112.9 L 380.8 114.0 L 383.2 114.5 L 394.8 114.8 L 399.4 115.3 L 410.3 117.9 L 410.8 118.7 L 408.9 123.3 L 407.9 127.6 L 405.8 128.4 L 394.3 128.6 L 390.6 129.3 L 385.2 131.3 L 380.0 133.8 L 377.3 133.8 L 366.6 131.7 L 362.5 130.3 L 353.6 126.3 L 347.0 120.2 L 344.0 122.7 L 342.1 123.9 L 340.2 124.5 L 338.3 124.6 L 336.6 124.2 L 334.5 123.3 L 331.1 121.0 L 327.1 118.8 L 324.3 117.8 L 324.1 118.1 L 325.8 119.4 L 328.3 120.9 L 334.5 125.3 L 336.7 126.4 L 336.4 127.1 L 332.5 127.8 L 327.8 129.3 L 325.4 130.4 L 321.8 133.1 L 320.6 133.5 L 315.2 134.2 L 313.4 134.1 L 309.5 132.6 L 303.5 131.6 L 300.0 130.8 L 295.0 129.2 L 296.7 130.9 L 306.2 133.5 L 307.2 134.3 L 305.3 135.9 L 304.1 136.5 L 301.8 136.6 L 298.5 136.3 L 295.1 136.3 L 291.7 136.8 L 290.2 137.4 L 290.7 138.1 L 291.5 138.7 L 292.7 139.3 L 293.8 139.3 L 296.4 137.5 L 298.4 137.4 L 303.7 137.8 L 309.0 136.5 L 312.9 135.9 L 315.8 135.7 L 326.3 133.6 L 328.5 131.2 L 332.0 130.3 L 339.8 129.6 L 347.4 129.9 L 351.3 130.2 L 354.5 132.5 L 358.7 134.1 L 362.3 135.9 L 366.4 136.5 L 368.8 138.9 L 375.5 141.5 L 379.8 142.1 L 382.4 143.4 L 382.6 148.8 L 382.9 151.2 L 381.8 157.6 L 378.4 159.1 L 379.0 162.6 L 378.1 165.3 L 374.7 164.3 L 371.2 162.5 L 362.9 159.6 L 355.1 157.8 L 352.1 156.2 L 348.5 154.9 L 343.7 149.7 L 340.5 143.3 L 339.1 140.1 L 336.5 140.0 L 333.1 140.8 L 330.1 141.7 L 328.7 143.2 L 318.6 145.4 L 314.9 146.8 L 312.8 146.8 L 305.3 149.0 L 308.3 150.0 L 309.7 150.1 L 312.8 149.5 L 314.6 148.8 L 321.5 146.7 L 327.0 146.4 L 329.0 145.5 L 333.2 144.2 L 336.1 143.9 L 336.5 144.2 L 336.8 144.8 L 338.8 152.6 L 338.0 154.7 L 335.7 155.6 L 330.8 157.1 L 329.6 157.8 L 331.0 159.1 L 335.6 157.9 L 338.5 156.6 L 340.1 157.1 L 342.7 159.0 L 345.6 160.1 L 353.0 163.1 L 356.5 164.8 L 361.5 166.4 L 367.1 168.6 L 368.5 169.4 L 373.7 170.6 L 374.7 171.0 L 376.9 174.9 L 378.6 175.3 L 383.7 175.6 L 382.8 177.1 L 377.8 180.5 L 375.3 181.6 L 374.6 182.3 L 374.9 183.5 L 375.0 185.5 L 376.1 189.2 L 377.2 185.8 L 378.0 184.2 L 379.1 183.7 L 380.2 183.6 L 383.7 182.1 L 387.2 182.9 L 388.1 186.8 L 388.5 190.4 L 388.2 193.5 L 388.6 198.3 L 388.5 200.0 L 389.3 201.4 L 390.2 207.3 L 391.0 209.0 L 389.3 210.6 L 384.0 211.3 L 381.9 210.5 L 376.6 210.8 L 376.6 209.4 L 376.4 207.8 L 376.3 206.7 L 376.0 205.7 L 375.7 199.9 L 374.3 201.3 L 374.2 202.5 L 373.8 203.7 L 372.9 209.9 L 371.5 211.5 L 367.3 211.1 L 363.2 211.3 L 360.9 211.1 L 353.1 208.2 L 350.1 205.6 L 347.5 201.8 L 345.8 198.1 L 345.2 194.8 L 343.4 192.0 L 340.3 189.9 L 336.6 188.2 L 332.4 186.9 L 328.7 185.2 L 325.5 183.1 L 322.0 181.5 L 318.2 180.3 L 312.7 179.8 L 304.8 180.0 L 299.4 178.7 L 298.1 178.8 L 296.9 179.5 L 297.8 181.4 L 304.0 182.3 L 308.7 182.5 L 315.0 182.4 L 318.9 182.9 L 320.3 184.0 L 321.3 185.9 L 321.8 188.7 L 320.6 191.0 L 316.0 193.5 L 313.6 194.6 L 306.6 196.9 L 304.3 197.4 L 298.4 197.5 L 294.0 197.3 L 288.1 196.2 L 284.7 196.0 L 277.8 195.8 L 276.2 196.2 L 278.0 197.4 L 280.9 198.1 L 283.0 198.9 L 283.2 200.4 L 282.5 202.7 L 281.7 204.3 L 280.4 205.5 L 275.9 207.7 L 274.0 208.4 L 265.6 210.8 L 265.0 211.2 L 266.9 211.2 L 272.3 210.3 L 273.8 210.4 L 282.6 212.4 L 289.6 212.3 L 303.8 210.4 L 304.9 210.4 L 305.9 210.7 L 306.8 211.4 L 307.8 212.6 L 306.6 213.7 L 303.4 214.7 L 298.4 215.7 L 296.2 216.4 L 294.1 217.5 L 290.2 220.0 L 289.1 222.7 L 293.1 223.7 L 295.0 222.4 L 297.2 219.6 L 299.1 217.9 L 303.7 216.8 L 309.3 217.4 L 313.7 216.7 L 322.5 213.9 L 324.1 213.8 L 337.1 215.4 L 349.0 218.5 L 355.2 219.6 L 363.5 220.3 L 378.3 220.0 L 379.6 220.5 L 379.1 221.6 L 378.2 222.5 L 375.8 223.8 L 372.8 224.7 L 370.9 224.9 L 369.3 225.6 L 365.8 226.2 L 364.9 226.7 L 366.1 228.8 L 365.5 229.1 L 362.4 229.2 L 357.1 230.6 L 352.8 230.5 L 351.9 230.7 L 352.7 231.2 L 353.6 232.2 L 354.5 233.7 L 354.0 234.7 L 352.1 235.4 L 350.6 235.6 L 345.5 234.7 L 344.7 234.8 L 345.4 235.5 L 345.9 236.4 L 346.0 237.7 L 344.7 238.8 L 342.1 239.7 L 337.3 242.1 L 335.2 242.8 L 330.7 243.4 L 329.8 243.7 L 331.6 245.6 L 331.4 246.3 L 328.4 248.4 L 323.9 249.6 L 323.3 250.3 L 322.8 252.1 L 322.5 252.9 L 321.3 253.9 L 317.0 255.9 L 313.9 256.9 L 312.4 257.7 L 310.6 259.0 L 308.2 259.8 L 305.3 259.9 L 302.6 260.4 L 298.2 261.8 L 295.1 262.3 L 285.4 264.8 L 280.8 265.2 L 276.8 266.1 L 268.6 268.4 L 264.7 269.2 L 262.0 270.1 L 259.1 270.4 L 254.3 269.8 L 251.7 269.8 L 250.1 270.1 L 248.6 270.8 L 246.2 272.8 L 244.2 273.0 L 237.5 271.4 L 237.6 272.1 L 239.4 273.9 L 239.3 275.1 L 235.3 276.3 L 233.1 276.6 L 230.0 276.1 L 225.8 274.8 L 220.4 272.0 L 213.8 267.7 L 210.6 266.3 L 210.8 267.7 L 211.6 269.0 L 212.8 270.3 L 213.1 271.3 L 212.3 271.8 L 211.4 272.1 L 210.2 272.1 L 210.0 272.5 L 211.9 274.5 L 213.5 276.6 L 213.3 278.6 L 211.5 280.4 L 209.9 281.5 L 208.6 281.8 L 200.8 286.5 L 198.6 287.1 L 197.6 287.7 L 196.8 288.5 L 194.5 292.4 L 193.6 293.6 L 191.7 295.1 L 191.0 295.4 L 190.7 296.0 L 191.1 297.0 L 190.6 298.7 L 189.2 301.0 L 184.7 307.3 L 181.0 313.3 L 179.4 315.2 L 178.2 316.0 L 177.5 315.7 L 175.6 315.9 L 174.7 316.9 L 173.9 318.8 L 173.1 320.2 L 172.1 321.2 L 164.8 325.5 L 162.8 326.3 L 161.1 325.8 L 159.1 326.0 L 154.9 323.7 L 154.2 322.9 L 151.5 321.1 L 151.6 322.0 L 152.1 322.6 L 152.4 323.3 L 153.4 324.3 L 155.5 329.3 L 153.8 330.4 L 152.3 331.5 L 148.6 333.5 L 144.5 336.9 L 143.0 337.8 L 142.6 335.1 L 142.8 334.3 L 140.5 333.0 L 140.6 333.9 L 140.3 334.8 L 138.7 338.3 L 138.2 338.9 L 137.4 338.8 L 135.6 339.4 L 133.7 339.1 L 132.2 337.5 L 131.6 336.7 L 128.7 339.0 L 127.3 338.9 L 127.1 340.8 L 125.8 342.6 L 124.0 343.3 L 121.5 343.3 L 120.0 344.3 L 116.7 343.2 L 115.9 341.1 L 118.5 338.3 L 119.3 337.1 L 118.8 335.6 L 119.5 333.8 L 124.5 327.8 L 128.0 324.8 L 127.8 324.3 L 123.1 323.6 L 119.0 322.6 L 115.0 322.2 L 113.3 322.6 L 116.1 324.3 L 120.0 326.0 L 118.1 327.6 L 116.4 329.3 L 114.7 333.9 L 113.6 335.8 L 109.3 333.6 L 107.2 332.9 L 108.5 335.3 L 112.3 337.6 L 112.5 338.4 L 112.5 341.1 L 105.3 343.5 L 97.7 343.8 L 92.3 344.5 L 83.2 345.3 L 79.6 345.3 L 79.3 346.3 L 88.3 350.5 L 89.6 351.2 L 88.3 352.7 L 86.5 353.6 L 83.6 356.7 L 82.1 357.8 L 78.3 359.3 L 71.4 357.6 L 67.8 358.3 L 64.4 357.8 L 64.3 359.6 L 65.4 360.9 L 66.4 364.2 L 68.7 363.9 L 71.6 362.9 L 73.8 365.4 L 75.3 369.6 L 77.9 371.7 L 79.0 373.3 L 79.5 374.9 L 77.9 376.4 L 74.5 378.6 L 70.9 379.0 L 71.1 380.7 L 69.5 381.9 L 66.1 381.6 L 64.5 380.7 L 62.9 380.3 L 56.1 379.8 L 62.9 383.2 L 65.3 384.7 L 66.4 383.8 L 68.7 383.6 L 72.2 384.4 L 71.6 390.0 L 73.1 394.5 L 73.3 395.6 L 69.6 398.3 L 69.6 400.8 L 67.4 401.5 L 65.0 401.4 L 64.9 404.1 L 63.3 405.9 L 63.6 407.0 L 64.0 407.9 L 62.6 409.7 L 61.2 411.9 L 59.3 413.8 L 58.3 413.6 L 55.3 413.7 L 51.7 413.5 L 48.8 411.1 L 47.6 410.3 L 46.2 409.7 L 46.7 411.3 L 47.6 412.2 L 50.3 414.0 L 55.2 416.2 L 55.1 417.8 L 53.7 418.4 L 50.6 422.7 L 49.5 422.8 L 48.2 423.8 L 43.9 423.5 L 42.1 423.0 L 36.8 423.3 L 35.0 422.9 L 33.4 423.1 L 34.8 424.3 L 37.9 425.4 L 41.3 426.5 L 46.6 427.3 L 46.4 428.8 L 45.1 430.1 L 45.8 432.0 L 45.2 433.3 L 45.0 434.9 L 43.8 438.7 L 45.2 441.3 L 46.7 442.5 L 46.6 444.2 L 47.3 446.8 L 45.0 449.1 L 43.0 449.1 L 40.3 449.6 L 39.4 450.6 L 43.7 451.6 L 43.3 453.4 L 42.1 455.6 L 40.9 460.4 L 38.3 468.5 L 37.2 476.7 L 31.7 483.4 L 29.8 483.6 L 29.3 483.8 L 26.6 483.5 L 22.4 481.9 L 19.2 481.4 L 17.0 481.4 L 16.7 482.2 L 18.6 483.4 L 21.3 483.9 L 23.5 484.8 L 27.5 485.5 L 28.9 487.0 L 29.8 488.6 L 29.7 489.5 L 29.7 490.5 L 30.4 496.1 L 28.5 498.0 L 27.1 499.7 L 22.1 499.5 L 21.3 498.9 L 16.5 497.0 L 16.8 497.9 L 20.2 500.4 L 21.4 501.6 L 20.6 501.9 L 19.2 502.0 L 17.3 502.8 L 13.8 502.3 L 14.0 501.1 L 14.6 499.8 L 13.0 500.0 L 11.2 500.7 L 10.2 500.4 L 9.3 500.5 L 8.8 499.9 L 8.2 497.3 L 9.0 496.1 L 11.9 492.8 L 12.8 491.0 L 12.0 490.2 L 9.9 492.1 L 7.8 495.1 L 6.8 496.9 L 5.5 497.3 L 2.2 496.4 L -7.3 492.2 L -7.0 489.6 L -7.1 487.5 L -4.3 487.2 L -2.3 486.3 L -0.5 485.2 L 1.5 483.1 L 3.3 479.8 L 3.1 479.5 L -2.3 483.8 L -5.7 485.3 L -7.3 485.5 L -8.1 484.9 L -10.8 483.5 L -12.6 482.9 L -16.6 481.8 L -17.3 481.3 L -18.4 480.8 L -20.0 476.4 L -18.0 471.1 L -16.5 469.5 L -15.6 467.7 L -15.1 465.3 L -15.5 464.3 L -16.7 464.7 L -17.2 465.5 L -17.2 466.8 L -17.8 467.7 L -22.6 469.7 L -27.4 471.3 L -29.6 472.9 L -31.1 474.1 L -32.3 475.3 L -34.0 475.2 L -36.4 475.5 L -38.1 476.3 L -40.5 475.8 L -42.1 474.6 L -44.0 474.5 L -46.2 475.0 L -47.6 475.0 L -47.5 475.8 L -46.5 477.7 L -48.2 477.9 L -51.3 477.9 L -52.8 477.4 L -54.1 476.6 L -55.1 475.6 L -54.5 474.3 L -49.5 471.8 L -47.2 470.4 L -48.7 469.9 L -53.5 470.3 L -54.3 470.0 L -57.5 470.2 L -57.4 466.5 L -58.1 465.6 L -58.2 465.2 L -59.3 464.1 L -60.4 463.9 L -61.0 463.5 L -66.4 462.7 L -67.1 460.7 L -67.5 458.5 L -68.6 455.9 L -71.2 455.3 L -72.6 454.1 L -71.5 453.0 L -71.0 451.5 L -72.2 450.8 L -72.9 449.8 L -72.8 449.1 L -73.8 447.3 L -74.1 445.9 L -73.0 444.6 L -69.9 443.1 L -68.9 442.5 L -68.4 441.8 L -64.9 440.7 L -67.9 439.9 L -69.8 439.8 L -71.1 440.2 L -72.4 441.6 L -73.6 442.6 L -78.2 442.9 L -78.8 442.4 L -79.2 440.3 L -78.9 438.7 L -77.0 436.5 L -79.2 435.4 L -81.2 435.0 L -83.5 434.0 L -85.6 432.9 L -87.4 431.6 L -89.2 430.1 L -89.8 429.9 L -89.1 428.3 L -88.8 427.0 L -88.7 424.2 L -89.4 423.1 L -87.8 420.7 L -85.7 418.1 L -81.0 414.2 L -86.0 416.1 L -90.1 420.1 L -90.9 420.3 L -91.3 419.6 L -92.8 417.0 L -94.0 416.2 L -94.5 415.4 L -96.8 414.0 L -97.9 413.0 L -99.3 410.9 L -101.4 408.4 L -104.3 403.5 L -109.0 397.8 L -110.1 394.7 L -108.7 390.6 L -110.3 387.9 L -105.8 386.6 L -99.4 385.1 L -96.1 383.9 L -94.2 383.6 L -90.1 383.3 L -88.8 382.1 L -91.0 382.4 L -92.6 382.3 L -92.7 381.7 L -92.1 380.7 L -91.7 379.4 L -92.5 379.7 L -96.5 381.9 L -102.3 383.7 L -106.9 384.6 L -107.7 384.6 L -109.3 385.2 L -110.2 385.4 L -110.9 385.2 L -112.5 383.5 L -113.0 382.4 L -110.0 379.4 L -107.9 375.3 L -105.0 372.6 L -103.0 372.3 L -99.6 372.5 L -98.4 372.7 L -98.8 371.1 L -98.6 370.3 L -95.9 369.4 L -92.7 369.0 L -90.4 369.3 L -88.9 371.2 L -87.1 374.6 L -84.6 375.8 L -84.7 374.1 L -86.0 372.0 L -86.5 368.7 L -88.1 367.3 L -89.4 366.7 L -93.1 367.0 L -95.3 364.6 L -95.8 363.7 L -95.8 362.6 L -98.0 359.2 L -98.7 357.5 L -99.9 355.2 L -100.5 355.1 L -99.7 357.9 L -98.7 359.9 L -97.2 364.4 L -96.5 366.1 L -97.5 367.6 L -99.3 369.0 L -100.9 369.8 L -104.8 370.8 L -104.0 368.6 L -103.5 366.5 L -105.4 367.2 L -107.2 368.8 L -107.8 370.9 L -109.0 372.9 L -112.4 377.7 L -113.8 380.3 L -115.1 381.7 L -116.5 382.0 L -117.8 381.0 L -118.9 378.5 L -119.4 376.6 L -119.4 371.6 L -119.3 369.3 L -119.9 366.2 L -121.8 358.9 L -122.2 356.3 L -125.3 355.0 L -125.3 354.5 L -126.2 353.0 L -126.8 351.6 L -126.3 351.0 L -125.5 350.6 L -120.8 348.5 L -117.3 346.0 L -113.2 342.2 L -111.5 341.0 L -105.4 340.1 L -102.6 340.0 L -102.7 339.3 L -103.6 339.0 L -107.7 339.2 L -113.2 340.7 L -114.2 341.3 L -116.6 343.7 L -118.4 345.0 L -123.6 347.9 L -127.0 347.9 L -130.5 344.4 L -134.4 345.1 L -137.1 344.8 L -137.8 344.3 L -138.4 339.4 L -136.3 333.8 L -138.6 333.7 L -139.1 333.5 L -140.3 332.2 L -141.1 331.8 L -140.5 331.2 L -134.8 328.5 L -126.4 323.2 L -122.7 321.2 L -120.5 320.3 L -118.8 319.2 L -116.7 317.0 L -116.0 316.1 L -114.9 315.3 L -112.4 314.4 L -109.8 313.1 L -105.4 310.1 L -104.9 309.0 L -105.8 308.7 L -107.8 309.7 L -111.9 312.5 L -114.9 314.0 L -124.9 320.9 L -129.1 323.4 L -131.4 325.0 L -133.2 326.6 L -135.1 327.6 L -137.1 328.3 L -141.4 328.8 L -143.5 329.3 L -144.8 328.9 L -145.3 325.7 L -144.9 323.7 L -145.1 321.8 L -144.1 319.1 L -142.5 317.2 L -141.8 316.1 L -141.5 315.4 L -138.2 313.4 L -136.4 312.5 L -135.2 310.5 L -127.9 309.8 L -126.0 309.8 L -125.0 309.6 L -124.3 309.0 L -125.0 308.5 L -127.2 308.2 L -133.0 308.3 L -138.3 307.9 L -140.8 307.6 L -141.9 307.8 L -143.9 307.2 L -146.0 306.1 L -149.3 302.0 L -148.0 296.8 L -147.9 294.3 L -143.7 292.1 L -141.4 291.3 L -138.3 289.7 L -134.0 286.9 L -129.0 285.2 L -126.4 284.9 L -124.2 285.1 L -116.3 287.5 L -112.2 288.0 L -108.7 287.4 L -104.2 288.3 L -96.2 291.8 L -94.7 291.3 L -95.1 290.4 L -104.0 286.7 L -103.9 285.6 L -101.7 285.3 L -99.2 284.2 L -100.6 283.6 L -106.5 284.2 L -108.2 285.0 L -113.9 285.5 L -116.9 284.7 L -119.6 284.4 L -123.6 282.8 L -126.9 283.3 L -129.1 283.9 L -132.8 284.5 L -134.2 285.0 L -141.5 290.0 L -144.6 291.0 L -146.8 290.7 L -145.3 287.4 L -144.8 286.1 L -144.8 284.7 L -144.2 282.8 L -140.4 279.1 L -138.1 275.1 L -137.1 272.6 L -135.2 272.3 L -132.7 272.7 L -125.1 274.3 L -118.8 276.2 L -114.2 276.8 L -111.1 276.8 L -109.8 276.2 L -108.8 275.1 L -108.4 274.4 L -108.1 272.9 L -107.7 272.3 L -106.7 271.7 L -104.6 269.4 L -104.0 267.7 L -104.6 266.8 L -106.0 266.9 L -108.7 267.5 L -109.1 267.8 L -109.1 268.3 L -111.7 270.8 L -114.6 271.4 L -121.1 272.3 L -124.1 272.3 L -129.5 271.1 L -130.3 270.7 L -130.9 269.8 L -137.4 270.0 L -139.4 270.3 L -140.9 270.2 L -140.2 268.6 L -138.1 267.0 L -135.2 261.6 L -132.8 260.2 L -127.9 258.9 L -122.9 259.1 L -114.2 263.3 L -111.5 263.6 L -109.1 263.3 L -103.4 261.9 L -102.3 261.3 L -100.2 259.6 L -97.8 256.6 L -97.9 255.9 L -101.6 257.6 L -103.6 258.0 L -105.3 258.0 L -103.7 252.6 L -103.1 248.4 L -102.5 247.4 L -97.7 247.7 L -91.0 247.1 L -89.4 246.2 L -89.4 245.8 L -92.1 245.2 L -93.4 244.1 L -95.6 244.4 L -98.6 245.2 L -102.4 245.1 L -102.1 243.3 L -99.3 239.6 L -99.0 237.9 L -98.0 234.4 L -97.9 232.7 L -96.5 231.0 L -92.1 229.8 L -90.3 229.0 L -90.2 228.2 L -92.8 225.2 L -92.1 224.4 L -90.1 223.6 L -89.3 223.1 L -89.8 222.7 L -91.7 222.4 L -94.6 223.0 L -97.8 223.4 L -100.7 222.4 L -102.9 221.9 L -104.3 222.0 L -108.1 223.7 L -109.5 223.8 L -111.1 223.3 L -122.1 221.8 L -123.4 221.3 L -127.4 218.7 L -130.6 217.0 L -134.9 215.2 L -140.5 213.8 L -147.4 212.8 L -151.5 211.9 L -153.5 210.6 L -157.0 207.8 L -159.6 205.4 L -160.1 204.3 L -158.5 202.8 L -157.0 201.8 L -154.0 201.0 L -148.9 201.2 L -146.1 201.6 L -143.1 202.4 L -140.8 202.6 L -136.0 202.3 L -131.2 202.9 L -128.4 203.4 L -124.6 204.6 L -114.2 209.6 L -109.9 211.4 L -108.0 211.6 L -100.2 213.5 L -99.0 213.4 L -95.8 212.6 L -95.5 212.0 L -96.6 211.4 L -100.0 211.0 L -104.0 208.9 L -106.5 207.3 L -106.8 204.6 L -106.5 203.1 L -105.9 202.4 L -105.4 200.1 L -107.7 198.7 L -109.4 198.2 L -113.7 196.2 L -114.1 195.7 L -112.0 195.5 L -110.0 195.6 L -105.6 196.7 L -103.3 196.8 L -101.6 196.4 L -101.4 196.0 L -104.1 194.8 L -107.4 192.8 L -114.4 192.5 L -118.9 192.7 L -121.7 192.0 L -124.8 190.8 L -126.8 190.5 L -130.8 191.2 L -132.8 191.3 L -134.6 191.1 L -136.5 187.4 L -136.0 186.3 L -134.6 185.9 L -133.5 184.7 L -132.7 183.5 L -130.3 182.3 L -117.3 179.6 L -114.0 177.6 L -114.1 177.3 L -116.4 177.7 L -119.2 178.6 L -121.1 178.7 L -128.8 177.6 L -130.0 177.8 L -133.1 179.5 L -137.3 181.3 L -139.3 181.2 L -141.9 180.1 L -142.3 179.4 L -142.5 178.5 L -139.6 177.2 L -138.7 176.5 L -136.8 174.8 L -136.9 173.9 L -140.1 174.4 L -140.5 173.5 L -140.5 172.1 L -140.8 170.4 L -141.5 168.6 L -144.1 165.9 L -145.2 165.2 L -146.1 164.2 L -148.0 160.6 L -147.5 159.7 L -145.7 159.0 L -145.4 158.6 L -149.6 159.2 L -150.0 159.8 L -149.2 160.8 L -148.7 162.0 L -148.3 163.6 L -147.8 164.9 L -146.3 166.4 L -145.1 167.2 L -143.1 169.2 L -142.2 171.5 L -142.5 172.7 L -144.0 173.9 L -146.5 175.2 L -147.2 176.3 L -147.5 177.4 L -149.5 178.4 L -150.6 178.0 L -151.6 178.0 L -150.5 179.8 L -149.8 181.6 L -150.6 183.4 L -152.9 184.5 L -154.1 184.6 L -156.5 185.5 L -162.7 185.9 L -164.9 185.7 L -168.8 184.8 L -173.5 184.3 L -175.4 183.1 L -177.8 180.8 L -179.1 178.8 L -179.1 177.1 L -178.4 175.8 L -177.1 174.9 L -175.5 169.8 L -173.2 165.6 L -167.4 161.2 L -165.8 159.7 L -165.2 158.8 L -165.3 158.2 L -166.2 157.8 L -173.3 163.1 L -177.6 163.7 L -178.9 162.5 L -178.5 160.4 L -177.8 159.9 L -174.2 160.1 L -172.9 158.9 L -175.1 157.1 L -177.4 156.6 L -178.0 156.2 L -175.5 154.8 L -169.9 154.9 L -168.7 153.9 L -166.7 152.9 L -164.4 151.0 L -163.6 149.4 L -163.4 148.0 L -163.9 146.9 L -163.9 145.8 L -163.5 144.7 L -164.1 143.4 L -165.7 142.1 L -169.1 140.7 L -170.2 142.2 L -171.2 142.9 L -172.7 143.0 L -174.1 142.4 L -175.6 142.1 L -177.0 141.6 L -178.5 141.4 L -179.1 140.9 L -179.4 139.7 L -179.5 138.1 L -177.8 137.3 L -175.5 136.7 L -173.9 135.6 L -172.9 134.0 L -172.7 132.2 L -173.5 130.3 L -175.4 128.5 L -178.9 130.2 L -180.3 130.6 L -180.6 129.4 L -181.1 128.5 L -182.5 127.3 L -184.5 126.4 L -186.3 125.9 L -186.4 125.0 L -186.0 124.0 L -185.2 122.8 L -184.1 120.3 L -182.9 120.5 L -181.9 120.3 L -182.5 118.3 L -183.4 116.6 L -184.6 115.6 L -184.6 115.2 L -184.9 114.7 L -185.7 113.5 L -186.7 112.7 L -188.4 110.2 L -189.6 109.3 L -191.2 108.8 L -192.8 108.7 L -195.5 109.4 L -200.5 110.1 L -204.5 110.5 L -205.2 110.3 L -203.2 109.4 L -200.3 108.4 L -196.4 107.7 L -195.3 106.1 L -195.7 104.7 L -195.5 103.4 L -196.6 102.0 L -195.6 101.2 L -192.0 100.4 L -190.5 100.3 L -188.9 99.3 L -193.3 96.9 L -198.0 95.3 L -199.2 94.7 L -200.2 93.6 L -201.1 92.2 L -202.5 90.7 L -204.5 89.2 L -207.4 87.8 L -214.9 85.2 L -217.5 83.4 L -219.8 80.7 L -221.0 79.5 L -222.2 78.7 L -227.4 76.6 L -228.1 75.7 L -222.7 73.4 L -222.2 72.4 L -224.4 69.5 L -226.6 67.4 L -229.1 66.7 L -232.7 66.3 L -236.1 65.3 L -239.1 63.8 L -242.1 62.8 L -246.7 61.7 L -254.3 59.1 L -266.0 56.2 L -271.2 54.5 L -274.3 53.9 L -278.5 53.8 L -286.4 52.2 L -293.1 51.7 L -297.2 52.0 L -298.5 51.7 L -301.6 50.1 L -306.3 49.2 L -308.8 49.6 L -311.9 51.3 L -315.6 52.9 L -317.5 53.1 L -320.4 51.6 L -321.9 50.6 L -323.3 50.2 L -324.6 50.5 L -327.2 51.9 L -329.7 52.9 L -333.4 54.1 L -336.3 54.7 L -340.1 54.9 L -341.0 55.3 L -342.5 55.3 L -344.5 54.9 L -346.3 54.1 L -348.0 53.0 L -349.5 52.3 L -350.8 52.2 L -353.8 52.9 L -357.6 54.6 L -359.3 55.1 L -360.8 54.9 L -362.6 54.3 L -366.2 52.9 L -368.1 53.0 L -369.6 53.5 L -369.2 54.7 L -365.8 57.5 L -362.8 59.5 L -365.4 59.7 L -387.4 57.0 L -390.3 56.4 L -394.3 54.8 L -397.7 53.8 L -403.4 51.2 L -407.9 49.8 L -409.3 48.7 L -409.7 47.9 L -408.3 46.9 L -399.4 43.5 L -396.0 42.8 L -389.1 42.0 L -387.4 41.4 L -386.9 41.0 L -388.7 40.3 L -397.8 40.6 L -405.9 40.1 L -412.9 38.7 L -414.1 38.2 L -415.3 37.4 L -416.5 36.2 L -416.2 34.8 L -414.5 33.3 L -413.5 32.3 L -413.2 31.7 L -422.1 35.4 L -425.7 36.7 L -428.6 36.3 L -430.6 35.7 L -431.6 35.0 L -431.5 34.3 L -431.2 33.7 L -430.6 33.4 L -435.3 31.9 L -437.4 30.7 L -437.6 29.4 L -436.0 28.1 L -434.3 27.2 L -432.8 26.6 L -428.4 26.1 L -412.6 25.2 L -401.3 26.1 L -397.4 23.0 L -394.8 22.1 L -387.2 21.0 L -375.5 20.9 L -367.2 21.5 L -363.4 22.2 L -358.1 23.8 L -357.8 23.3 L -359.0 21.9 L -359.1 20.7 L -357.0 18.6 L -356.0 17.3 L -356.7 16.0 L -359.0 14.6 L -363.1 12.8 L -365.3 12.6 L -367.8 13.0 L -370.7 14.0 L -376.9 16.6 L -379.8 17.1 L -384.6 17.2 L -387.3 16.9 L -389.8 16.5 L -393.9 15.2 L -395.3 14.9 L -397.1 15.5 L -399.2 16.9 L -401.2 17.9 L -403.2 18.5 L -405.0 18.8 L -407.5 18.6 L -418.0 16.4 L -420.3 15.4 L -420.5 14.0 L -423.7 12.5 L -427.3 12.3 L -427.7 11.8 L -423.1 9.6 L -419.7 8.6 L -420.3 8.4 L -425.2 8.3 L -428.6 9.5 L -430.5 9.7 L -434.9 9.7 L -439.6 9.1 L -441.6 8.6 L -443.6 7.4 L -445.9 6.8 L -452.8 5.8 L -454.4 5.2 L -455.9 4.3 L -461.5 1.7 L -465.0 -0.2 L -465.4 -1.3 L -461.4 -3.6 L -461.3 -4.2 L -463.0 -5.2 L -463.7 -5.9 L -463.1 -6.9 L -459.6 -9.2 L -458.3 -9.8 L -452.1 -11.1 L -445.9 -13.1 L -443.7 -13.5 L -441.6 -13.6 L -433.5 -13.5 L -430.9 -14.0 L -428.8 -14.9 L -425.3 -15.9 L -417.9 -17.3 L -401.5 -19.5 L -400.5 -19.8 L -400.4 -20.2 L -401.9 -21.3 L -402.2 -21.8 L -398.8 -22.9 L -391.3 -24.4 L -386.1 -25.2 L -382.8 -25.3 L -380.1 -25.6 L -376.3 -26.6 L -374.2 -26.8 L -361.3 -27.2 L -355.6 -26.6 L -352.8 -26.6 L -351.0 -27.0 L -348.7 -28.2 L -344.2 -31.0 L -341.9 -32.7 L -339.7 -35.4 L -336.8 -39.6 L -334.7 -43.6 L -333.3 -47.6 L -332.2 -50.0 L -331.4 -50.9 L -328.7 -51.9 L -326.0 -52.8 L -321.2 -53.6 L -321.6 -53.9 L -323.6 -54.5 L -325.5 -54.7 L -327.3 -54.6 L -330.5 -53.7 L -334.6 -53.1 L -338.6 -53.2 L -341.5 -53.0 L -344.1 -52.2 L -348.4 -51.5 L -351.3 -51.6 L -356.4 -52.8 L -359.0 -53.0 L -365.7 -52.9 L -367.6 -53.4 L -369.3 -54.2 L -370.6 -55.4 L -371.6 -56.9 L -371.5 -58.5 L -369.1 -61.4 L -368.2 -62.2 L -361.8 -65.4 L -357.8 -66.9 L -353.8 -68.0 L -351.0 -68.6 L -348.2 -68.9 L -345.6 -69.6 L -340.9 -71.9 L -335.9 -73.8 L -329.8 -77.3 L -326.8 -78.3 L -316.4 -79.8 L -313.5 -79.8 L -311.1 -79.5 L -308.9 -78.6 L -302.5 -75.1 L -302.0 -75.2 L -303.1 -76.6 L -305.4 -80.6 L -305.0 -82.2 L -301.4 -83.9 L -299.9 -84.3 L -296.0 -84.1 L -289.8 -83.6 L -285.6 -83.0 L -282.5 -82.0 L -278.7 -81.4 L -276.8 -81.5 L -275.4 -81.9 L -273.4 -83.4 L -270.8 -86.0 L -269.8 -89.1 L -270.3 -92.9 L -271.0 -95.6 L -272.0 -97.3 L -271.5 -98.8 L -268.3 -100.5 L -265.5 -101.7 L -258.6 -103.5 L -253.1 -104.0 L -249.8 -103.9 L -245.4 -103.0 L -239.4 -102.5 L -234.0 -100.9 L -225.2 -97.2 L -219.3 -95.3 L -214.5 -94.5 L -209.7 -93.1 L -202.7 -90.1 L -199.0 -88.8 L -196.8 -88.3 L -194.9 -88.2 L -195.6 -89.1 L -199.0 -90.9 L -204.1 -92.9 L -215.5 -96.4 L -221.8 -98.9 L -227.5 -101.8 L -231.6 -103.5 L -239.2 -105.2 L -239.1 -105.9 L -230.0 -108.2 L -213.3 -110.3 L -194.5 -111.9 L -188.1 -111.8 L -177.1 -112.4 L -176.0 -113.5 L -173.7 -113.9 L -163.3 -115.3 L -160.4 -115.3 L -155.8 -114.6 L -151.0 -113.4 L -148.8 -112.2 L -145.7 -110.2 L -144.2 -107.4 L -144.5 -98.5 L -144.4 -96.8 L -143.8 -96.2 L -141.7 -97.1 L -139.2 -98.9 L -136.9 -100.2 L -135.2 -102.2 L -134.0 -104.8 L -133.3 -106.7 L -136.2 -109.0 L -136.4 -112.6 L -134.9 -114.5 L -130.8 -114.5 L -113.7 -107.8 L -107.0 -106.4 L -99.4 -102.8 L -90.4 -103.2 L -82.2 -102.8 L -78.6 -102.9 L -76.8 -103.4 L -79.3 -104.9 L -91.0 -109.0 L -96.3 -112.2 L -100.1 -116.2 L -101.0 -118.3 L -98.1 -118.7 L -85.1 -118.7 L -65.4 -116.8 L -40.3 -110.5 L -28.0 -108.4 L -5.8 -101.0 L 0.9 -99.9 L 3.6 -99.7 L 5.6 -100.6 L 6.8 -101.5 L 6.9 -102.9 L 5.9 -104.5 L 5.3 -106.4 L 5.1 -108.6 L 6.6 -112.8 L 10.2 -114.2 L 11.7 -115.8 L 10.3 -118.6 L 6.1 -120.6 L -10.2 -125.6 L -10.3 -126.2 L -7.0 -126.8 L -2.1 -127.2 L 38.3 -126.0 L 45.2 -125.6 L 48.2 -125.2 L 49.5 -124.6 L 51.2 -124.4 L 59.9 -125.0 L 59.7 -126.3 L 58.6 -127.0 L 11.7 -129.2 L 3.0 -129.9 L -1.4 -130.0 L -6.0 -129.4 L -15.5 -129.1 L -19.9 -129.2 L -25.6 -131.8 L -20.5 -134.9 L -16.1 -134.8 L -7.9 -133.6 L -3.0 -135.3 L 4.8 -136.7 L 12.4 -137.1 L 29.2 -140.1 L 32.3 -140.4 L 36.2 -140.2 L 44.8 -139.5 L 48.2 -138.7 L 52.1 -137.2 L 54.4 -136.7 L 57.1 -136.6 L 60.8 -135.9 L 66.2 -138.2 L 71.0 -140.7 L 76.6 -142.2 L 84.4 -141.3 L 89.4 -140.1 L 93.9 -138.7 L 100.4 -137.9 L 111.3 -133.1 L 113.3 -133.1 L 114.3 -133.5 L 115.3 -134.4 L 115.7 -135.7 L 117.0 -137.5 L 116.0 -138.2 L 106.9 -140.2 L 105.2 -141.0 L 103.4 -142.2 L 103.4 -143.3 L 105.1 -144.1 L 106.9 -144.5 L 112.8 -144.2 L 114.7 -144.4 L 116.6 -145.1 L 118.8 -146.4 L 120.5 -146.8 L 124.5 -146.8 L 130.6 -146.0 L 135.9 -145.9 L 137.8 -146.3 L 138.1 -147.1 L 138.5 -147.6 L 139.2 -147.8 L 158.5 -147.9 L 163.2 -148.1 L 167.0 -148.7 L 171.5 -148.8 L 175.5 -148.4 L 180.5 -147.6 L 185.4 -147.7 L 192.7 -149.0 L 199.6 -149.6 L 237.7 -149.4 L 250.3 -148.6 Z M 325.7 198.2 L 326.3 199.8 L 326.4 200.6 L 326.3 201.2 L 325.9 201.7 L 325.1 202.1 L 326.6 203.1 L 327.1 203.9 L 327.2 204.4 L 326.2 205.5 L 319.6 207.0 L 317.7 207.7 L 315.4 209.5 L 312.6 211.0 L 311.7 211.0 L 310.6 209.4 L 306.2 208.3 L 297.8 208.9 L 288.0 210.3 L 284.6 211.0 L 282.8 210.6 L 282.3 210.1 L 282.3 209.3 L 283.4 207.1 L 283.9 206.6 L 286.1 205.8 L 287.6 203.9 L 287.1 201.8 L 287.7 198.8 L 289.3 198.4 L 293.1 199.4 L 295.6 199.7 L 300.0 199.8 L 305.9 199.4 L 310.6 198.2 L 319.3 194.8 L 320.8 194.9 L 321.9 196.1 L 322.7 196.7 L 325.3 197.6 L 325.7 198.2 Z M 433.2 4.7 L 431.0 5.7 L 429.5 2.8 L 428.2 -1.1 L 427.9 -5.4 L 431.3 -7.6 L 433.0 -8.1 L 434.2 -7.6 L 433.9 -5.7 L 433.9 -1.8 L 435.1 0.9 L 433.2 4.7 Z M 440.1 57.7 L 438.2 58.4 L 431.7 47.1 L 431.7 43.0 L 432.1 39.8 L 435.1 39.6 L 437.6 41.3 L 438.8 47.8 L 440.1 57.7 Z M 449.8 75.1 L 451.1 78.0 L 451.7 80.7 L 453.8 82.4 L 458.2 82.2 L 460.0 85.3 L 456.7 86.5 L 443.9 86.0 L 438.6 86.3 L 434.9 84.3 L 435.1 80.9 L 435.5 77.6 L 439.2 75.6 L 442.3 77.3 L 446.0 76.1 L 449.8 75.1 Z M 450.6 13.8 L 447.4 13.8 L 446.2 13.1 L 446.9 11.9 L 451.4 7.8 L 452.9 7.5 L 455.1 7.9 L 455.8 10.0 L 454.3 12.1 L 450.6 13.8 Z M 132.1 346.0 L 129.5 346.0 L 128.6 343.9 L 128.9 341.5 L 131.8 340.8 L 133.4 342.4 L 132.8 344.8 L 132.1 346.0 Z" fill="#cfe3bf" stroke="#ffffff" stroke-width="2.2" stroke-linejoin="round"/>
<path d="M 639.8 448.2 L 639.4 449.2 L 639.0 449.2 L 637.4 447.9 L 636.2 447.2 L 635.7 446.7 L 635.4 445.6 L 636.1 445.5 L 637.0 445.7 L 639.1 446.7 L 639.7 447.6 L 639.8 448.2 Z M 638.5 458.1 L 638.8 458.9 L 638.4 458.9 L 637.3 457.9 L 635.3 455.6 L 634.7 453.8 L 634.6 452.9 L 635.0 453.0 L 635.5 453.8 L 637.3 454.3 L 637.8 454.7 L 637.8 455.6 L 638.4 456.7 L 638.5 458.1 Z M 630.4 439.1 L 631.9 440.1 L 632.4 440.9 L 631.5 441.6 L 630.5 441.8 L 629.2 441.6 L 627.1 440.8 L 626.4 439.0 L 627.9 439.1 L 629.5 438.7 L 630.4 439.1 Z M 639.6 436.6 L 639.2 440.3 L 638.5 440.3 L 637.3 439.3 L 636.4 439.1 L 636.1 439.6 L 636.2 440.3 L 636.7 440.7 L 638.1 443.1 L 638.2 443.9 L 638.1 444.2 L 636.7 443.5 L 633.2 440.3 L 630.6 435.0 L 634.2 434.2 L 636.8 435.6 L 639.6 436.6 Z M 643.4 435.8 L 642.6 437.8 L 641.4 437.5 L 641.1 437.2 L 640.8 436.7 L 641.0 435.2 L 640.9 433.1 L 642.3 434.9 L 643.4 435.8 Z" fill="#cfe3bf" stroke="#ffffff" stroke-width="2.2" stroke-linejoin="round"/>
<text x="691.2" y="621.5" text-anchor="middle" dominant-baseline="middle" font-family="Arial, Helvetica, sans-serif" font-size="30" font-weight="700" fill="#171717" stroke="#ffffff" stroke-width="5" paint-order="stroke">United Kingdom</text>
<text x="279.8" y="251.4" text-anchor="middle" dominant-baseline="middle" font-family="Arial, Helvetica, sans-serif" font-size="30" font-weight="700" fill="#171717" stroke="#ffffff" stroke-width="5" paint-order="stroke">Greenland</text>
<text x="412.0" y="332.0" text-anchor="middle" dominant-baseline="middle" font-family="Arial, Helvetica, sans-serif" font-size="34" font-weight="800" fill="#171717" stroke="#ffffff" stroke-width="5" paint-order="stroke">Iceland</text>
<circle cx="384.0" cy="384.0" r="14" fill="#df3f32" stroke="#ffffff" stroke-width="5"/>
<circle cx="384.0" cy="384.0" r="22" fill="none" stroke="#df3f32" stroke-opacity="0.35" stroke-width="7"/>
</svg>